<?xml version="1.0" encoding="utf-8" standalone="yes"?>
<!DOCTYPE svg PUBLIC "-//W3C//DTD SVG 1.1//EN" "http://www.w3.org/Graphics/SVG/1.1/DTD/svg11.dtd">
<svg style="fill:none;stroke:none;fill-rule:evenodd;clip-rule:evenodd;stroke-linecap:round;stroke-linejoin:round;stroke-miterlimit:1.5;" version="1.1" xmlns="http://www.w3.org/2000/svg" xmlns:xlink="http://www.w3.org/1999/xlink" width="914" height="822" viewBox="0 0 914 822"><style class="text-font-style fontImports" data-font-family="Roboto">@import url(https://fonts.googleapis.com/css2?family=Roboto:wght@400;700&amp;amp;display=block);</style><g id="items" style="isolation: isolate"><g id="blend" style="mix-blend-mode: normal"><g id="g-root-sy_4_cu_9q2114kw0ss-fill" data-item-order="-535956" transform="translate(13.99822998046875, 152)"></g><g id="g-root-sy_4_cu_9q2114kw0ss-stroke" data-item-order="-535956" transform="translate(13.99822998046875, 152)"><g id="sy_4_cu_9q2114kw0ss-stroke" fill="none" stroke-linecap="round" stroke-linejoin="round" stroke-miterlimit="4" stroke="#e0cb15" stroke-width="2" stroke-opacity="1"><g><path d="M 579.9915 10L 24.5 10C 16.4919 10 10 16.4919 10 24.5L 10 115.5C 10 123.5081 16.4919 130 24.5 130L 459.9915 130"></path></g></g></g><g id="g-root-sy_4_cu_1_18egrah14kw3rh-fill" data-item-order="-535955" transform="translate(314, 146)"><g id="sy_4_cu_1_18egrah14kw3rh-fill-merged" stroke="none" fill="#fffbda" fill-opacity="1"><g><path d="M14.247 281.744C8.584 287.407 8.584 296.588 14.247 302.251L86.146 374.148C80.585 368.477 80.618 359.372 86.247 353.743L281.743 158.247C287.406 152.584 296.587 152.584 302.25 158.247L497.741 353.744C503.403 359.406 503.403 368.587 497.741 374.25L569.741 302.251C575.403 296.588 575.403 287.407 569.741 281.745L302.251 14.247C296.588 8.584 287.407 8.584 281.744 14.247L14.247 281.744"></path></g></g></g><g id="g-root-sy_4_cu_1_18egrah14kw3rh-stroke" data-item-order="-535955" transform="translate(314, 146)"><g id="sy_4_cu_1_18egrah14kw3rh-stroke" fill="none" stroke-linecap="round" stroke-linejoin="round" stroke-miterlimit="4" stroke="#e0cb15" stroke-width="2" stroke-opacity="1"><g><path d="M 14.246969 281.744485C 8.584269 287.407185 8.584269 296.588085 14.247069 302.250685L 86.146069 374.147785C 80.584569 368.477485 80.618169 359.372285 86.246869 353.743485L 281.743469 158.246885C 287.406169 152.584285 296.587169 152.584385 302.249769 158.247085L 497.740969 353.743685C 503.403369 359.406285 503.403369 368.587085 497.740869 374.249585L 569.740869 302.250585C 575.403369 296.587985 575.403469 287.407285 569.740969 281.744585L 302.250669 14.247085C 296.588169 8.584385 287.407169 8.584285 281.744469 14.246885L 14.246969 281.744485Z"></path></g></g></g><g id="g-root-sy_3_cu_13z9q9514kw1dy-fill" data-item-order="-535950" transform="translate(13.99822998046875, 296)"></g><g id="g-root-sy_3_cu_13z9q9514kw1dy-stroke" data-item-order="-535950" transform="translate(13.99822998046875, 296)"><g id="sy_3_cu_13z9q9514kw1dy-stroke" fill="none" stroke-linecap="round" stroke-linejoin="round" stroke-miterlimit="4" stroke="#e55753" stroke-width="2" stroke-opacity="1"><g><path d="M 316 130L 24.5 130C 16.4919 130 10 123.5081 10 115.5L 10 24.5C 10 16.4919 16.4919 10 24.5 10L 436 10"></path></g></g></g><g id="g-root-sy_3_cu_1_qnt7vt14kw2yv-fill" data-item-order="-535949" transform="translate(385.9999694824219, 290)"><g id="sy_3_cu_1_qnt7vt14kw2yv-fill-merged" stroke="none" fill="#ffeceb" fill-opacity="1"><g><path d="M14.247 209.743C8.584 215.406 8.584 224.587 14.247 230.25L86.147 302.148C80.585 296.477 80.618 287.372 86.247 281.742L209.742 158.247C215.405 152.584 224.586 152.584 230.249 158.247L353.741 281.743C359.404 287.405 359.403 296.586 353.741 302.249L425.741 230.25C431.403 224.587 431.403 215.406 425.741 209.744L230.25 14.247C224.587 8.584 215.406 8.584 209.743 14.247L14.247 209.743"></path></g></g></g><g id="g-root-sy_3_cu_1_qnt7vt14kw2yv-stroke" data-item-order="-535949" transform="translate(385.9999694824219, 290)"><g id="sy_3_cu_1_qnt7vt14kw2yv-stroke" fill="none" stroke-linecap="round" stroke-linejoin="round" stroke-miterlimit="4" stroke="#e55753" stroke-width="2" stroke-opacity="1"><g><path d="M 14.2469 209.743485C 8.5843 215.406185 8.5844 224.587185 14.2471 230.249785L 86.1468 302.147585C 80.5845 296.477285 80.6179 287.371585 86.247 281.742485L 209.7425 158.246885C 215.4052 152.584285 224.5862 152.584385 230.2488 158.247085L 353.741 281.742685C 359.4035 287.405285 359.4034 296.586085 353.7409 302.248585L 425.7409 230.249585C 431.4034 224.587085 431.4034 215.406285 425.741 209.743585L 230.2497 14.247085C 224.5872 8.584385 215.4062 8.584285 209.7435 14.246885L 14.2469 209.743485Z"></path></g></g></g><g id="g-root-sy_2_cu_8x5oh514kw268-fill" data-item-order="-535944" transform="translate(13.99822998046875, 440)"></g><g id="g-root-sy_2_cu_8x5oh514kw268-stroke" data-item-order="-535944" transform="translate(13.99822998046875, 440)"><g id="sy_2_cu_8x5oh514kw268-stroke" fill="none" stroke-linecap="round" stroke-linejoin="round" stroke-miterlimit="4" stroke="#4e88e7" stroke-width="2" stroke-opacity="1"><g><path d="M 315.5 10L 24.5 10C 16.4919 10 10 16.4919 10 24.5L 10 115.5C 10 123.5081 16.4919 130 24.5 130L 435.5 130"></path></g></g></g><g id="g-root-sy_2_cu_1_1io8914kw2yx-fill" data-item-order="-535943" transform="translate(457.9999694824219, 434)"><g id="sy_2_cu_1_1io8914kw2yx-fill-merged" stroke="none" fill="#edf4ff" fill-opacity="1"><g><path d="M14.247 137.742C8.584 143.405 8.584 152.586 14.247 158.249L86.236 230.236C80.584 224.572 80.588 215.399 86.247 209.741L137.741 158.247C143.403 152.584 152.584 152.584 158.247 158.247L209.739 209.741C215.401 215.403 215.401 224.584 209.739 230.247C100.076 339.91 237.619 202.37 281.741 158.249C287.403 152.586 287.403 143.405 281.741 137.743L158.249 14.247C152.586 8.584 143.405 8.584 137.742 14.247L14.247 137.742"></path></g></g></g><g id="g-root-sy_2_cu_1_1io8914kw2yx-stroke" data-item-order="-535943" transform="translate(457.9999694824219, 434)"><g id="sy_2_cu_1_1io8914kw2yx-stroke" fill="none" stroke-linecap="round" stroke-linejoin="round" stroke-miterlimit="4" stroke="#4e88e7" stroke-width="2" stroke-opacity="1"><g><path d="M 14.246969 137.742469C 8.584269 143.405169 8.584369 152.586169 14.247069 158.248769L 86.235869 230.235569C 80.584369 224.572069 80.587969 215.399469 86.246969 209.740569L 137.740569 158.246869C 143.403169 152.584269 152.584169 152.584369 158.246769 158.247069L 209.738969 209.740669C 215.401469 215.403369 215.401469 224.584069 209.738869 230.246669C 100.075669 339.909869 237.619269 202.370169 281.740869 158.248569C 287.403369 152.586069 287.403469 143.405269 281.740969 137.742669L 158.248769 14.247069C 152.586169 8.584369 143.405169 8.584269 137.742469 14.246969L 14.246969 137.742469Z"></path></g></g></g><g id="g-root-sy_1_cu_1lrsox514kw16y-fill" data-item-order="-535938" transform="translate(13.99822998046875, 584)"></g><g id="g-root-sy_1_cu_1lrsox514kw16y-stroke" data-item-order="-535938" transform="translate(13.99822998046875, 584)"><g id="sy_1_cu_1lrsox514kw16y-stroke" fill="none" stroke-linecap="round" stroke-linejoin="round" stroke-miterlimit="4" stroke="#3cc583" stroke-width="2" stroke-opacity="1"><g><path d="M 580.0016 130L 24.5 130C 16.4919 130 10 123.5081 10 115.5L 10 24.5C 10 16.4919 16.4919 10 24.5 10L 460 10"></path></g></g></g><g id="g-root-sy_1_cu_1_140iofd14kw3k3-fill" data-item-order="-535937" transform="translate(530, 578)"><g id="sy_1_cu_1_140iofd14kw3k3-fill-merged" stroke="none" fill="#e3fff2" fill-opacity="1"><g><path d="M14.247 86.247C8.584 80.584 8.584 71.403 14.247 65.741L65.741 14.247C71.403 8.584 80.584 8.584 86.247 14.247L137.739 65.741C143.402 71.403 143.402 80.584 137.739 86.247L86.247 137.739C80.584 143.401 71.403 143.402 65.741 137.739L14.247 86.247"></path></g></g></g><g id="g-root-sy_1_cu_1_140iofd14kw3k3-stroke" data-item-order="-535937" transform="translate(530, 578)"><g id="sy_1_cu_1_140iofd14kw3k3-stroke" fill="none" stroke-linecap="round" stroke-linejoin="round" stroke-miterlimit="4" stroke="#3cc583" stroke-width="2" stroke-opacity="1"><g><path d="M 14.2471 86.2468C 8.5844 80.5842 8.5843 71.4032 14.247 65.7406L 65.7406 14.2469C 71.4032 8.5843 80.5842 8.5844 86.2468 14.2471L 137.739 65.7407C 143.4015 71.4033 143.4015 80.5841 137.7389 86.2467L 86.2467 137.7389C 80.5841 143.4014 71.4033 143.4015 65.7407 137.739L 14.2471 86.2468Z"></path></g></g></g><g id="g-root-tx_decision_1cy13xl14kw0zy-fill" data-item-order="0" transform="translate(37.999969482421875, 176)"><g id="tx_decision_1cy13xl14kw0zy-fill-merged" stroke="none" fill="#e0cb15" fill-opacity="1"><g><text style="font: 20px Roboto, sans-serif; white-space: pre;" transform="translate(10.000015258789062, 22)" font-size="20px" font-family="Roboto, sans-serif"><tspan x="2" y="11.5" dominant-baseline="ideographic">Decision Support Tooling</tspan></text></g></g></g><g id="g-root-tx_decision_1cy13xl14kw0zy-stroke" data-item-order="0" transform="translate(37.999969482421875, 176)"></g><g id="g-root-ic_line_144w01514l1p8k-fill" data-item-order="0" transform="translate(572, 200)"></g><g id="g-root-ic_line_144w01514l1p8k-stroke" data-item-order="0" transform="translate(572, 200)"><g id="ic_line_144w01514l1p8k-stroke" fill="none" stroke-linecap="round" stroke-linejoin="round" stroke-miterlimit="4" stroke="#e0cb15" stroke-width="2" stroke-opacity="1"><g><path d="M 19.856949 33.943596C 19.856949 41.674805 26.124334 47.942192 33.855545 47.942192C 41.586754 47.942192 47.854137 41.674805 47.854137 33.943596C 47.854137 26.212385 41.586754 19.945002 33.855545 19.945002C 26.124334 19.945002 19.856949 26.212385 19.856949 33.943596ZM 23.856546 37.943192L 25.302402 35.77541C 25.60848 35.31617 26.228758 35.191757 26.688263 35.49744L 28.10812 36.443344C 28.535501 36.725571 29.107038 36.639236 29.431988 36.243362L 33.153614 31.773811C 33.333603 31.557901 33.596165 31.427725 33.876976 31.415167C 34.157791 31.402611 34.430923 31.508835 34.629463 31.707819L 37.081219 34.159573C 37.279976 34.357647 37.552814 34.463093 37.833118 34.450161C 38.113422 34.437233 38.375397 34.307114 38.555073 34.091579L 42.854641 28.934099M 56.119308 37.107277C 56.622631 37.044395 56.99913 36.614601 56.99522 36.10738L 56.99522 31.879803C 56.99913 31.372578 56.622631 30.942785 56.119308 30.879902L 51.61776 30.317959C 51.158897 28.113184 50.28698 26.01515 49.048016 24.134581L 51.837734 20.544941C 52.14677 20.147141 52.111637 19.581568 51.755745 19.225073L 48.756046 16.225374C 48.399551 15.869481 47.833981 15.834348 47.436176 16.143383L 43.846539 18.943102C 41.965641 17.704329 39.867775 16.8318 37.663158 16.371359L 37.107216 11.875812C 37.044334 11.372486 36.61454 10.995987 36.107319 10.9999L 31.879742 10.9999C 31.372517 10.995987 30.942724 11.372486 30.879841 11.875812L 30.317898 16.37536C 28.116066 16.836756 26.020994 17.709249 24.142519 18.947102L 20.552879 16.157381C 20.155079 15.848346 19.589504 15.88348 19.233011 16.239372L 16.233313 19.239071C 15.877419 19.595566 15.842286 20.161139 16.151321 20.558939L 18.95104 24.158577C 17.712074 26.039146 16.840157 28.137182 16.381298 30.341957L 11.87975 30.9039C 11.376425 30.966784 10.999926 31.396576 11.003839 31.903801L 11.003839 36.139374C 10.999926 36.646599 11.376425 37.076393 11.87975 37.139275L 16.381298 37.701218C 16.840157 39.905991 17.712074 42.004025 18.95104 43.884594L 16.15732 47.442238C 15.848285 47.840042 15.883419 48.405613 16.239311 48.762104L 19.23901 51.761803C 19.595505 52.117699 20.161077 52.152832 20.558878 51.843796L 24.158516 49.054077C 26.039413 50.29285 28.13728 51.165379 30.341896 51.625816L 30.903839 56.125366C 30.966722 56.628693 31.396515 57.005192 31.90374 57.001278L 36.139313 57.001278C 36.646538 57.005192 37.076332 56.628693 37.139214 56.125366L 37.701157 51.62582C 39.905773 51.165379 42.003635 50.29285 43.884537 49.054077L 47.474174 51.843796C 47.871975 52.152832 48.43755 52.117699 48.794044 51.761803L 51.793743 48.762104C 52.149635 48.405613 52.184769 47.840042 51.875732 47.442238L 49.086014 43.8526C 50.324974 41.972027 51.196896 39.873993 51.655754 37.66922Z"></path></g></g></g><g id="g-root-tx_aidsinin_3e3hl14kw1z9-fill" data-item-order="0" transform="translate(37.999969482421875, 212)"><g id="tx_aidsinin_3e3hl14kw1z9-fill-merged" stroke="none" fill="#484848" fill-opacity="1"><g><text style="font: 15px Roboto, sans-serif; white-space: pre;" transform="translate(10.000015258789062, 19)" font-size="15px" font-family="Roboto, sans-serif"><tspan x="2" y="8.5" dominant-baseline="ideographic">Aids in informed decision-making</tspan></text></g></g></g><g id="g-root-tx_aidsinin_3e3hl14kw1z9-stroke" data-item-order="0" transform="translate(37.999969482421875, 212)"></g><g id="g-root-tx_133_v6r3ft14kw3d4-fill" data-item-order="0" transform="translate(37.99998474121094, 320)"><g id="tx_133_v6r3ft14kw3d4-fill-merged" stroke="none" fill="#e55753" fill-opacity="1"><g><text style="font: 20px Roboto, sans-serif; white-space: pre;" transform="translate(10, 22)" font-size="20px" font-family="Roboto, sans-serif"><tspan x="2" y="11.5" dominant-baseline="ideographic">α ≈ 1.33</tspan></text></g></g></g><g id="g-root-tx_133_v6r3ft14kw3d4-stroke" data-item-order="0" transform="translate(37.99998474121094, 320)"></g><g id="g-root-ic_warn_1lux2cp14kytxo-fill" data-item-order="0" transform="translate(572, 344.010009765625)"></g><g id="g-root-ic_warn_1lux2cp14kytxo-stroke" data-item-order="0" transform="translate(572, 344.010009765625)"><g id="ic_warn_1lux2cp14kytxo-stroke" fill="none" stroke-linecap="round" stroke-linejoin="round" stroke-miterlimit="4" stroke="#e55753" stroke-width="2" stroke-opacity="1"><g><path d="M 44.996426 50.995884C 45.272537 50.995884 45.496372 51.219719 45.496372 51.495831C 45.496372 51.771946 45.272537 51.995781 44.996426 51.995781C 44.72031 51.995781 44.496475 51.771946 44.496475 51.495831C 44.496475 51.219719 44.72031 50.995884 44.996426 50.995884M 44.996426 46.988285L 44.996426 40.988888M 46.672253 34.99749C 46.341923 34.378902 45.697689 33.992592 44.996426 33.992592C 44.295162 33.992592 43.650925 34.378902 43.320595 34.99749L 33.209606 54.265553C 32.905766 54.842957 32.929333 55.537876 33.271603 56.093369C 33.618027 56.651413 34.228619 56.990376 34.885441 56.989285L 55.107407 56.989281C 55.764233 56.990376 56.374825 56.651413 56.721249 56.093372C 57.063511 55.537876 57.087078 54.842957 56.783237 54.265553ZM 32.997627 46.996284L 14.999436 46.996284C 12.79052 46.996284 10.999839 45.205605 10.999839 42.996685L 10.999839 14.999497C 10.999839 12.790581 12.79052 10.9999 14.999436 10.9999L 42.996624 10.9999C 45.205544 10.9999 46.996223 12.790581 46.996223 14.999497L 46.996223 28.998093M 10.999839 23.006695L 46.996223 23.006695M 10.999839 34.989491L 34.997429 34.989491M 34.997429 11.007898L 34.997429 34.989491M 22.998632 11.007898L 22.998632 46.988285"></path></g></g></g><g id="g-root-tx_heavytai_18i7lt514kw1s7-fill" data-item-order="0" transform="translate(37.999969482421875, 356)"><g id="tx_heavytai_18i7lt514kw1s7-fill-merged" stroke="none" fill="#484848" fill-opacity="1"><g><text style="font: 15px Roboto, sans-serif; white-space: pre;" transform="translate(10.000015258789062, 19)" font-size="15px" font-family="Roboto, sans-serif"><tspan x="2" y="8.5" dominant-baseline="ideographic">Heavy-tailed losses indicating risk</tspan></text></g></g></g><g id="g-root-tx_heavytai_18i7lt514kw1s7-stroke" data-item-order="0" transform="translate(37.999969482421875, 356)"></g><g id="g-root-tx_scopeaut_4kgjs914kw3d6-fill" data-item-order="0" transform="translate(37.99822998046875, 464)"><g id="tx_scopeaut_4kgjs914kw3d6-fill-merged" stroke="none" fill="#4e88e7" fill-opacity="1"><g><text style="font: 20px Roboto, sans-serif; white-space: pre;" transform="translate(10, 22)" font-size="20px" font-family="Roboto, sans-serif"><tspan x="2" y="11.5" dominant-baseline="ideographic">Scope × Authority</tspan></text></g></g></g><g id="g-root-tx_scopeaut_4kgjs914kw3d6-stroke" data-item-order="0" transform="translate(37.99822998046875, 464)"></g><g id="g-root-ic_2_1hf3k8914kxhc2-fill" data-item-order="0" transform="translate(572, 488.010009765625)"></g><g id="g-root-ic_2_1hf3k8914kxhc2-stroke" data-item-order="0" transform="translate(572, 488.010009765625)"><g id="ic_2_1hf3k8914kxhc2-stroke" fill="none" stroke-linecap="round" stroke-linejoin="round" stroke-miterlimit="4" stroke="#4e88e7" stroke-width="2" stroke-opacity="1"><g><path d="M 42.906235 54.550526C 49.2388 54.550526 54.372082 49.417042 54.372082 43.084679C 54.372082 36.752113 49.2388 31.618629 42.906235 31.618629C 36.573868 31.618629 31.440386 36.752113 31.440386 43.084679C 31.440386 49.417042 36.573868 54.550526 42.906235 54.550526ZM 9.999939 10M 51.01062 51.187065L 56.285088 56.461334M 27.426107 11.43377L 18.778378 11.43377L 18.778378 18.778238L 11.433633 18.778238L 11.433633 27.425989L 18.778378 27.425989L 18.778378 34.770512L 27.426107 34.770512L 27.426107 27.425989L 34.770451 27.425989L 34.770451 18.778238L 27.426107 18.778238L 27.426107 11.43377Z"></path></g></g></g><g id="g-root-tx_factorsi_qrk2eh14kw0zl-fill" data-item-order="0" transform="translate(37.999969482421875, 500)"><g id="tx_factorsi_qrk2eh14kw0zl-fill-merged" stroke="none" fill="#484848" fill-opacity="1"><g><text style="font: 15px Roboto, sans-serif; white-space: pre;" transform="translate(10.000015258789062, 19)" font-size="15px" font-family="Roboto, sans-serif"><tspan x="2" y="8.5" dominant-baseline="ideographic">Factors influencing override decisions</tspan></text></g></g></g><g id="g-root-tx_factorsi_qrk2eh14kw0zl-stroke" data-item-order="0" transform="translate(37.999969482421875, 500)"></g><g id="g-root-tx_legitima_hxshex14kw0sk-fill" data-item-order="0" transform="translate(37.99998474121094, 608)"><g id="tx_legitima_hxshex14kw0sk-fill-merged" stroke="none" fill="#3cc583" fill-opacity="1"><g><text style="font: 20px Roboto, sans-serif; white-space: pre;" transform="translate(10, 22)" font-size="20px" font-family="Roboto, sans-serif"><tspan x="2" y="11.5" dominant-baseline="ideographic">Legitimate Overrides</tspan></text></g></g></g><g id="g-root-tx_legitima_hxshex14kw0sk-stroke" data-item-order="0" transform="translate(37.99998474121094, 608)"></g><g id="g-root-ic_4_hxshex14kw0sl-fill" data-item-order="0" transform="translate(572, 620)"></g><g id="g-root-ic_4_hxshex14kw0sl-stroke" data-item-order="0" transform="translate(572, 620)"><g id="ic_4_hxshex14kw0sl-stroke" fill="none" stroke-linecap="round" stroke-linejoin="round" stroke-miterlimit="4" stroke="#3cc583" stroke-width="2" stroke-opacity="1"><g><path d="M 52.2057 14.739524C 46.46455 12.233573 40.261631 10.959608 33.997528 10.9999C 27.736792 10.961007 21.537424 12.234942 15.799356 14.739524C 14.69798 15.239393 13.993122 16.339754 13.999537 17.549242L 13.999537 32.821709C 13.998971 42.989819 20.261345 52.107906 29.751955 55.757404L 31.89974 56.58532C 33.246586 57.130146 34.752468 57.130146 36.099316 56.58532L 38.247101 55.757404C 47.736137 52.106609 53.996723 42.988815 53.995522 32.821709L 53.995522 17.549242C 54.003712 16.342091 53.303169 15.242356 52.2057 14.739524ZM 46.460278 39.209064L 25.386393 18.135183M 19.998934 23.248669L 41.932732 45.182468M 46.750248 19.599035C 42.725281 17.858543 38.382614 16.973257 33.997528 16.999296C 29.612442 16.973257 25.269773 17.858543 21.244808 19.599035C 20.48126 19.948433 19.993618 20.713163 19.998934 21.552839L 19.998934 32.177773C 20.034824 39.266247 24.422045 45.604404 31.043827 48.134171L 32.537678 48.710114C 33.474068 49.088825 34.520988 49.088825 35.457382 48.710114L 36.951233 48.134171C 43.573013 45.604404 47.960232 39.266247 47.996124 32.177773L 47.996124 21.552839C 48.001438 20.713163 47.513798 19.948433 46.750248 19.599035Z"></path></g></g></g><g id="g-root-tx_coreconc_mczig914kw363-fill" data-item-order="0" transform="translate(37.999969482421875, 644)"><g id="tx_coreconc_mczig914kw363-fill-merged" stroke="none" fill="#484848" fill-opacity="1"><g><text style="font: 15px Roboto, sans-serif; white-space: pre;" transform="translate(10.000015258789062, 19)" font-size="15px" font-family="Roboto, sans-serif"><tspan x="2" y="8.5" dominant-baseline="ideographic">Core concept of emergency governance</tspan></text></g></g></g><g id="g-root-tx_coreconc_mczig914kw363-stroke" data-item-order="0" transform="translate(37.999969482421875, 644)"></g></g></g></svg>