<?xml version="1.0" encoding="utf-8" standalone="yes"?>
<!DOCTYPE svg PUBLIC "-//W3C//DTD SVG 1.1//EN" "http://www.w3.org/Graphics/SVG/1.1/DTD/svg11.dtd">
<svg style="fill:none;stroke:none;fill-rule:evenodd;clip-rule:evenodd;stroke-linecap:round;stroke-linejoin:round;stroke-miterlimit:1.5;" version="1.1" xmlns="http://www.w3.org/2000/svg" xmlns:xlink="http://www.w3.org/1999/xlink" width="1022" height="522" viewBox="0 0 1022 522"><style class="text-font-style fontImports" data-font-family="Roboto">@import url(https://fonts.googleapis.com/css2?family=Roboto:wght@400;700&amp;amp;display=block);</style><g id="items" style="isolation: isolate"><g id="blend" style="mix-blend-mode: normal"><g id="g-root-cp_1_g-1_1lpw7xhb6a5fw-fill" data-item-order="-414062" transform="translate(20, 116)"><g id="cp_1_g-1_1lpw7xhb6a5fw-fill-merged" stroke="none" fill="#f3f0ff" fill-opacity="1"><g><path d="M10 10 H175L190 34L175 58 H10L25 34L10 10"></path></g></g></g><g id="g-root-cp_1_g-1_1lpw7xhb6a5fw-stroke" data-item-order="-414062" transform="translate(20, 116)"><g id="cp_1_g-1_1lpw7xhb6a5fw-stroke" fill="none" stroke-linecap="round" stroke-linejoin="round" stroke-miterlimit="4" stroke="#7f64ea" stroke-width="2" stroke-opacity="1"><g><path d="M 10 10L 175 10L 190 34L 175 58L 10 58L 25 34L 10 10Z"></path></g></g></g><g id="g-root-cp_2_g-2_1lpw7xhb6a5fy-fill" data-item-order="-414050" transform="translate(218, 116)"><g id="cp_2_g-2_1lpw7xhb6a5fy-fill-merged" stroke="none" fill="#edf4ff" fill-opacity="1"><g><path d="M10 10 H175L190 34L175 58 H10L25 34L10 10"></path></g></g></g><g id="g-root-cp_2_g-2_1lpw7xhb6a5fy-stroke" data-item-order="-414050" transform="translate(218, 116)"><g id="cp_2_g-2_1lpw7xhb6a5fy-stroke" fill="none" stroke-linecap="round" stroke-linejoin="round" stroke-miterlimit="4" stroke="#4e88e7" stroke-width="2" stroke-opacity="1"><g><path d="M 10 10L 175 10L 190 34L 175 58L 10 58L 25 34L 10 10Z"></path></g></g></g><g id="g-root-cp_3_g-3_1q5pq1xb6a5fk-fill" data-item-order="-414040" transform="translate(416, 116)"><g id="cp_3_g-3_1q5pq1xb6a5fk-fill-merged" stroke="none" fill="#ffeceb" fill-opacity="1"><g><path d="M10 10 H175L190 34L175 58 H10L25 34L10 10"></path></g></g></g><g id="g-root-cp_3_g-3_1q5pq1xb6a5fk-stroke" data-item-order="-414040" transform="translate(416, 116)"><g id="cp_3_g-3_1q5pq1xb6a5fk-stroke" fill="none" stroke-linecap="round" stroke-linejoin="round" stroke-miterlimit="4" stroke="#e55753" stroke-width="2" stroke-opacity="1"><g><path d="M 10 10L 175 10L 190 34L 175 58L 10 58L 25 34L 10 10Z"></path></g></g></g><g id="g-root-cp_4_g-4_1q5pq1xb6a5fm-fill" data-item-order="-414030" transform="translate(614, 116)"><g id="cp_4_g-4_1q5pq1xb6a5fm-fill-merged" stroke="none" fill="#fff2e5" fill-opacity="1"><g><path d="M10 10 H175L190 34L175 58 H10L25 34L10 10"></path></g></g></g><g id="g-root-cp_4_g-4_1q5pq1xb6a5fm-stroke" data-item-order="-414030" transform="translate(614, 116)"><g id="cp_4_g-4_1q5pq1xb6a5fm-stroke" fill="none" stroke-linecap="round" stroke-linejoin="round" stroke-miterlimit="4" stroke="#de8431" stroke-width="2" stroke-opacity="1"><g><path d="M 10 10L 175 10L 190 34L 175 58L 10 58L 25 34L 10 10Z"></path></g></g></g><g id="g-root-cp_5_g-5_1q5pq1xb6a5fo-fill" data-item-order="-414020" transform="translate(812, 116)"><g id="cp_5_g-5_1q5pq1xb6a5fo-fill-merged" stroke="none" fill="#e3fff2" fill-opacity="1"><g><path d="M10 10 H175L190 34L175 58 H10L25 34L10 10"></path></g></g></g><g id="g-root-cp_5_g-5_1q5pq1xb6a5fo-stroke" data-item-order="-414020" transform="translate(812, 116)"><g id="cp_5_g-5_1q5pq1xb6a5fo-stroke" fill="none" stroke-linecap="round" stroke-linejoin="round" stroke-miterlimit="4" stroke="#3cc583" stroke-width="2" stroke-opacity="1"><g><path d="M 10 10L 175 10L 190 34L 175 58L 10 58L 25 34L 10 10Z"></path></g></g></g><g id="g-root-cp_1_line_1_1_1ulj86db6a5fk-fill" data-item-order="-413998" transform="translate(29, 305)"><g id="cp_1_line_1_1_1ulj86db6a5fk-fill-merged" stroke="none" fill="#f5f5f5" fill-opacity="1"><g><path d="M10 13C10 14.657 11.343 16 13 16C14.657 16 16 14.657 16 13C16 11.343 14.657 10 13 10C11.343 10 10 11.343 10 13"></path></g></g></g><g id="g-root-cp_1_line_1_1_1ulj86db6a5fk-stroke" data-item-order="-413998" transform="translate(29, 305)"><g id="cp_1_line_1_1_1ulj86db6a5fk-stroke" fill="none" stroke-linecap="round" stroke-linejoin="round" stroke-miterlimit="4" stroke="#969696" stroke-width="2" stroke-opacity="1"><g><path d="M 10 13C 10 14.656854 11.343146 16 13 16C 14.656854 16 16 14.656854 16 13C 16 11.343146 14.656854 10 13 10C 11.343146 10 10 11.343146 10 13"></path></g></g></g><g id="g-root-cp_2_line_2_1_1ulj86db6a5fl-fill" data-item-order="-413978" transform="translate(227, 305)"><g id="cp_2_line_2_1_1ulj86db6a5fl-fill-merged" stroke="none" fill="#f5f5f5" fill-opacity="1"><g><path d="M10 13C10 14.657 11.343 16 13 16C14.657 16 16 14.657 16 13C16 11.343 14.657 10 13 10C11.343 10 10 11.343 10 13"></path></g></g></g><g id="g-root-cp_2_line_2_1_1ulj86db6a5fl-stroke" data-item-order="-413978" transform="translate(227, 305)"><g id="cp_2_line_2_1_1ulj86db6a5fl-stroke" fill="none" stroke-linecap="round" stroke-linejoin="round" stroke-miterlimit="4" stroke="#969696" stroke-width="2" stroke-opacity="1"><g><path d="M 10 13C 10 14.656854 11.343146 16 13 16C 14.656854 16 16 14.656854 16 13C 16 11.343146 14.656854 10 13 10C 11.343146 10 10 11.343146 10 13"></path></g></g></g><g id="g-root-cp_3_line_3_1_1ulj86db6a5fm-fill" data-item-order="-413958" transform="translate(425, 305)"><g id="cp_3_line_3_1_1ulj86db6a5fm-fill-merged" stroke="none" fill="#f5f5f5" fill-opacity="1"><g><path d="M10 13C10 14.657 11.343 16 13 16C14.657 16 16 14.657 16 13C16 11.343 14.657 10 13 10C11.343 10 10 11.343 10 13"></path></g></g></g><g id="g-root-cp_3_line_3_1_1ulj86db6a5fm-stroke" data-item-order="-413958" transform="translate(425, 305)"><g id="cp_3_line_3_1_1ulj86db6a5fm-stroke" fill="none" stroke-linecap="round" stroke-linejoin="round" stroke-miterlimit="4" stroke="#969696" stroke-width="2" stroke-opacity="1"><g><path d="M 10 13C 10 14.656854 11.343146 16 13 16C 14.656854 16 16 14.656854 16 13C 16 11.343146 14.656854 10 13 10C 11.343146 10 10 11.343146 10 13"></path></g></g></g><g id="g-root-cp_4_line_4_1_1ulj86db6a5fn-fill" data-item-order="-413938" transform="translate(623, 305)"><g id="cp_4_line_4_1_1ulj86db6a5fn-fill-merged" stroke="none" fill="#f5f5f5" fill-opacity="1"><g><path d="M10 13C10 14.657 11.343 16 13 16C14.657 16 16 14.657 16 13C16 11.343 14.657 10 13 10C11.343 10 10 11.343 10 13"></path></g></g></g><g id="g-root-cp_4_line_4_1_1ulj86db6a5fn-stroke" data-item-order="-413938" transform="translate(623, 305)"><g id="cp_4_line_4_1_1ulj86db6a5fn-stroke" fill="none" stroke-linecap="round" stroke-linejoin="round" stroke-miterlimit="4" stroke="#969696" stroke-width="2" stroke-opacity="1"><g><path d="M 10 13C 10 14.656854 11.343146 16 13 16C 14.656854 16 16 14.656854 16 13C 16 11.343146 14.656854 10 13 10C 11.343146 10 10 11.343146 10 13"></path></g></g></g><g id="g-root-cp_5_line_5_1_1ulj86db6a5fo-fill" data-item-order="-413918" transform="translate(821, 305)"><g id="cp_5_line_5_1_1ulj86db6a5fo-fill-merged" stroke="none" fill="#f5f5f5" fill-opacity="1"><g><path d="M10 13C10 14.657 11.343 16 13 16C14.657 16 16 14.657 16 13C16 11.343 14.657 10 13 10C11.343 10 10 11.343 10 13"></path></g></g></g><g id="g-root-cp_5_line_5_1_1ulj86db6a5fo-stroke" data-item-order="-413918" transform="translate(821, 305)"><g id="cp_5_line_5_1_1ulj86db6a5fo-stroke" fill="none" stroke-linecap="round" stroke-linejoin="round" stroke-miterlimit="4" stroke="#969696" stroke-width="2" stroke-opacity="1"><g><path d="M 10 13C 10 14.656854 11.343146 16 13 16C 14.656854 16 16 14.656854 16 13C 16 11.343146 14.656854 10 13 10C 11.343146 10 10 11.343146 10 13"></path></g></g></g><g id="g-root-tx_4_1q5pq1xb6a5fn-fill" data-item-order="0" transform="translate(696.375, 128)"><g id="tx_4_1q5pq1xb6a5fn-fill-merged" stroke="none" fill="#de8431" fill-opacity="1"><g><text style="font: 20px Roboto, sans-serif; white-space: pre;" transform="translate(17.625, 22)" font-size="20px" font-family="Roboto, sans-serif"><tspan x="-5.63" y="12" dominant-baseline="ideographic">4</tspan></text></g></g></g><g id="g-root-tx_4_1q5pq1xb6a5fn-stroke" data-item-order="0" transform="translate(696.375, 128)"></g><g id="g-root-tx_3_1q5pq1xb6a5fl-fill" data-item-order="0" transform="translate(498.375, 128)"><g id="tx_3_1q5pq1xb6a5fl-fill-merged" stroke="none" fill="#e55753" fill-opacity="1"><g><text style="font: 20px Roboto, sans-serif; white-space: pre;" transform="translate(17.625, 22)" font-size="20px" font-family="Roboto, sans-serif"><tspan x="-5.63" y="12" dominant-baseline="ideographic">3</tspan></text></g></g></g><g id="g-root-tx_3_1q5pq1xb6a5fl-stroke" data-item-order="0" transform="translate(498.375, 128)"></g><g id="g-root-tx_5_1q5pq1xb6a5fp-fill" data-item-order="0" transform="translate(894.375, 128)"><g id="tx_5_1q5pq1xb6a5fp-fill-merged" stroke="none" fill="#3cc583" fill-opacity="1"><g><text style="font: 20px Roboto, sans-serif; white-space: pre;" transform="translate(17.625, 22)" font-size="20px" font-family="Roboto, sans-serif"><tspan x="-5.63" y="12" dominant-baseline="ideographic">5</tspan></text></g></g></g><g id="g-root-tx_5_1q5pq1xb6a5fp-stroke" data-item-order="0" transform="translate(894.375, 128)"></g><g id="g-root-ic_hier_1q5pq1xb6a5fq-fill" data-item-order="0" transform="translate(86, 188)"></g><g id="g-root-ic_hier_1q5pq1xb6a5fq-stroke" data-item-order="0" transform="translate(86, 188)"><g id="ic_hier_1q5pq1xb6a5fq-stroke" fill="none" stroke-linecap="round" stroke-linejoin="round" stroke-miterlimit="4" stroke="#7f64ea" stroke-width="2" stroke-opacity="1"><g><path d="M 17.999992 45L 17.999992 40C 17.999992 39.447716 18.447708 39 18.999992 39L 48.999992 39C 49.552277 39 49.999992 39.447716 49.999992 40L 49.999992 45M 33.999992 33L 33.999992 45M 11.999992 51C 11.999992 54.313709 14.686284 57 17.999992 57C 21.313702 57 23.999992 54.313709 23.999992 51C 23.999992 47.686295 21.313702 45 17.999992 45C 14.686284 45 11.999992 47.686295 11.999992 51ZM 27.999992 51C 27.999992 54.313709 30.686285 57 33.999992 57C 37.313702 57 39.999992 54.313709 39.999992 51C 39.999992 47.686295 37.313702 45 33.999992 45C 30.686285 45 27.999992 47.686295 27.999992 51ZM 43.999992 51C 43.999992 54.313709 46.686287 57 49.999992 57C 53.313702 57 55.999992 54.313709 55.999992 51C 55.999992 47.686295 53.313702 45 49.999992 45C 46.686287 45 43.999992 47.686295 43.999992 51ZM 43.999992 31C 43.999992 32.104568 43.104561 33 41.999992 33L 25.999992 33C 24.895424 33 23.999992 32.104568 23.999992 31L 23.999992 21C 23.999992 19.895432 24.895424 19 25.999992 19L 41.999992 19C 43.104561 19 43.999992 19.895432 43.999992 21ZM 31.999992 26C 31.999992 27.10457 32.895424 28 33.999992 28C 35.104561 28 35.999992 27.10457 35.999992 26C 35.999992 24.895432 35.104561 24 33.999992 24C 32.895424 24 31.999992 24.895432 31.999992 26ZM 39.999992 19L 39.999992 17C 39.999992 13.686292 37.313702 11 33.999992 11C 30.686285 11 27.999992 13.686292 27.999992 17L 27.999992 19"></path></g></g></g><g id="g-root-ic_auth_1q5pq1xb6a5fr-fill" data-item-order="0" transform="translate(284, 188)"></g><g id="g-root-ic_auth_1q5pq1xb6a5fr-stroke" data-item-order="0" transform="translate(284, 188)"><g id="ic_auth_1q5pq1xb6a5fr-stroke" fill="none" stroke-linecap="round" stroke-linejoin="round" stroke-miterlimit="4" stroke="#4e88e7" stroke-width="2" stroke-opacity="1"><g><path d="M 11 34C 11 46.702549 21.297451 57 34 57C 46.702549 57 57 46.702549 57 34C 57 21.297451 46.702549 11 34 11C 21.297451 11 11 21.297451 11 34M 10 10M 39.580002 33.779999L 33.580002 27.780001C 31.659248 25.705204 28.757956 24.846382 26.017319 25.541348C 23.276682 26.236313 21.135204 28.373869 20.435215 31.113228C 19.735229 33.852585 20.588728 36.755447 22.66 38.68L 27.040001 43.060001M 10 10M 30 35.799999L 34.360001 40.16C 37.400677 42.985291 42.131092 42.900642 45.068741 39.968372C 48.00639 37.036102 48.099709 32.305851 45.279999 29.26L 40.919998 24.880001"></path></g></g></g><g id="g-root-ic_bloc_1q5pq1xb6a5fs-fill" data-item-order="0" transform="translate(482, 188)"></g><g id="g-root-ic_bloc_1q5pq1xb6a5fs-stroke" data-item-order="0" transform="translate(482, 188)"><g id="ic_bloc_1q5pq1xb6a5fs-stroke" fill="none" stroke-linecap="round" stroke-linejoin="round" stroke-miterlimit="4" stroke="#e55753" stroke-width="2" stroke-opacity="1"><g><path d="M 33 45C 33 51.627419 38.372581 57 45 57C 51.627419 57 57 51.627419 57 45C 57 38.372581 51.627419 33 45 33C 38.372581 33 33 38.372581 33 45ZM 10 10M 36.515999 53.484001L 53.486 36.514M 28 43L 11 43C 11.026827 40.714996 11.50251 38.457542 12.4 36.356003C 13.38 34.393997 17.478001 33.034 22.622 31.129999C 24.012001 30.614 23.784 26.982 23.167999 26.304001C 21.180218 24.155975 20.205017 21.260935 20.487999 18.348C 20.309784 16.494543 20.909979 14.650401 22.144955 13.256882C 23.379929 11.863361 25.138561 11.045857 27 11C 28.861441 11.045857 30.620071 11.863361 31.855047 13.256882C 33.090023 14.650401 33.690216 16.494543 33.512001 18.348C 33.797119 21.259747 32.824883 24.154627 30.839998 26.303999C 30.224001 26.982 29.996 30.614 31.386 31.129999L 34 32.091999"></path></g></g></g><g id="g-root-ic_bloc_1q5pq1xb6a5ft-fill" data-item-order="0" transform="translate(680, 188)"></g><g id="g-root-ic_bloc_1q5pq1xb6a5ft-stroke" data-item-order="0" transform="translate(680, 188)"><g id="ic_bloc_1q5pq1xb6a5ft-stroke" fill="none" stroke-linecap="round" stroke-linejoin="round" stroke-miterlimit="4" stroke="#de8431" stroke-width="2" stroke-opacity="1"><g><path d="M 33 45.006001C 33 51.633419 38.372581 57.006001 45 57.006001C 51.627419 57.006001 57 51.633419 57 45.006001C 57 38.378586 51.627419 33.006001 45 33.006001C 38.372581 33.006001 33 38.378586 33 45.006001ZM 10 10M 36.515999 53.492001L 53.486 36.521999M 35.200001 28.200001C 34.081882 26.363829 33.525681 24.240532 33.599998 22.091999L 33.599998 19.6C 33.600002 14.850351 29.749651 11 25 11C 20.250351 11 16.400002 14.850351 16.400002 19.6L 16.4 22.096001C 16.47353 24.243183 15.917359 26.364977 14.799999 28.199999M 16.4 21.018C 19.702513 21.014515 22.840687 19.576794 25 17.077999C 27.159313 19.576794 30.297487 21.014515 33.599998 21.018M 32.573997 20.972C 32.387909 25.019756 29.052032 28.205797 25 28.205797C 20.947968 28.205797 17.612089 25.019756 17.426001 20.972M 27 45L 11 45C 10.999802 39.879585 13.795003 35.167534 18.288727 32.712929C 22.782452 30.258322 28.257736 30.452782 32.566002 33.220001"></path></g></g></g><g id="g-root-ic_key_1q5pq1xb6a5fu-fill" data-item-order="0" transform="translate(878, 188)"></g><g id="g-root-ic_key_1q5pq1xb6a5fu-stroke" data-item-order="0" transform="translate(878, 188)"><g id="ic_key_1q5pq1xb6a5fu-stroke" fill="none" stroke-linecap="round" stroke-linejoin="round" stroke-miterlimit="4" stroke="#3cc583" stroke-width="2" stroke-opacity="1"><g><path d="M 42.810001 50.462002C 41.833622 51.438122 40.250832 51.437984 39.27462 50.461689C 38.298416 49.485397 38.298416 47.902603 39.27462 46.926311C 40.250832 45.95002 41.833622 45.949879 42.810001 46.925999C 43.785519 47.902821 43.785519 49.48518 42.810001 50.462002ZM 10 10M 48.096001 45.883999L 56.706001 37.293999C 56.894161 37.106426 56.999943 36.851685 57 36.585999L 57 34C 57 33.447716 56.552284 33 56 33L 53.400002 33C 53.144054 32.999924 52.89782 33.097984 52.712002 33.274002L 43.854 41.641998C 40.328316 40.148323 36.238579 41.362339 34.098885 44.53775C 31.959192 47.713158 32.369568 51.959496 35.077744 54.666393C 37.785919 57.373291 42.032452 57.78167 45.206848 55.64048C 48.381248 53.49929 49.593338 49.408978 48.098 45.883999ZM 16.5 19.5C 16.5 24.19442 20.30558 28 25 28C 29.69442 28 33.5 24.19442 33.5 19.5C 33.5 14.80558 29.69442 11 25 11C 20.30558 11 16.5 14.80558 16.5 19.5ZM 27 45L 11 45C 10.999902 39.114559 14.680733 33.857452 20.211155 31.844276C 25.741575 29.831099 31.940599 31.491751 35.723999 36"></path></g></g></g><g id="g-root-tx_network_1q5pq1xb6a5fv-fill" data-item-order="0" transform="translate(70.6171875, 248)"><g id="tx_network_1q5pq1xb6a5fv-fill-merged" stroke="none" fill="#7f64ea" fill-opacity="1"><g><text style="font: 20px Roboto, sans-serif; white-space: pre;" transform="translate(49.3828125, 22)" font-size="20px" font-family="Roboto, sans-serif"><tspan x="-37.38" y="12" dominant-baseline="ideographic">Network</tspan></text></g></g></g><g id="g-root-tx_network_1q5pq1xb6a5fv-stroke" data-item-order="0" transform="translate(70.6171875, 248)"></g><g id="g-root-tx_asset_1q5pq1xb6a5fw-fill" data-item-order="0" transform="translate(280.578125, 248)"><g id="tx_asset_1q5pq1xb6a5fw-fill-merged" stroke="none" fill="#4e88e7" fill-opacity="1"><g><text style="font: 20px Roboto, sans-serif; white-space: pre;" transform="translate(37.421875, 22)" font-size="20px" font-family="Roboto, sans-serif"><tspan x="-25.42" y="12" dominant-baseline="ideographic">Asset</tspan></text></g></g></g><g id="g-root-tx_asset_1q5pq1xb6a5fw-stroke" data-item-order="0" transform="translate(280.578125, 248)"></g><g id="g-root-tx_protocol_1q5pq1xb6a5fx-fill" data-item-order="0" transform="translate(466.4453125, 248)"><g id="tx_protocol_1q5pq1xb6a5fx-fill-merged" stroke="none" fill="#e55753" fill-opacity="1"><g><text style="font: 20px Roboto, sans-serif; white-space: pre;" transform="translate(49.5546875, 22)" font-size="20px" font-family="Roboto, sans-serif"><tspan x="-37.55" y="12" dominant-baseline="ideographic">Protocol</tspan></text></g></g></g><g id="g-root-tx_protocol_1q5pq1xb6a5fx-stroke" data-item-order="0" transform="translate(466.4453125, 248)"></g><g id="g-root-tx_module_1q5pq1xb6a5fy-fill" data-item-order="0" transform="translate(668.6796875, 248)"><g id="tx_module_1q5pq1xb6a5fy-fill-merged" stroke="none" fill="#de8431" fill-opacity="1"><g><text style="font: 20px Roboto, sans-serif; white-space: pre;" transform="translate(45.3203125, 22)" font-size="20px" font-family="Roboto, sans-serif"><tspan x="-33.32" y="12" dominant-baseline="ideographic">Module</tspan></text></g></g></g><g id="g-root-tx_module_1q5pq1xb6a5fy-stroke" data-item-order="0" transform="translate(668.6796875, 248)"></g><g id="g-root-tx_account_1q5pq1xb6a5fz-fill" data-item-order="0" transform="translate(862.9921875, 248)"><g id="tx_account_1q5pq1xb6a5fz-fill-merged" stroke="none" fill="#3cc583" fill-opacity="1"><g><text style="font: 20px Roboto, sans-serif; white-space: pre;" transform="translate(49.0078125, 22)" font-size="20px" font-family="Roboto, sans-serif"><tspan x="-37.01" y="12" dominant-baseline="ideographic">Account</tspan></text></g></g></g><g id="g-root-tx_account_1q5pq1xb6a5fz-stroke" data-item-order="0" transform="translate(862.9921875, 248)"></g><g id="g-root-tx_2_1lpw7xhb6a5fz-fill" data-item-order="0" transform="translate(300.375, 128)"><g id="tx_2_1lpw7xhb6a5fz-fill-merged" stroke="none" fill="#4e88e7" fill-opacity="1"><g><text style="font: 20px Roboto, sans-serif; white-space: pre;" transform="translate(17.625, 22)" font-size="20px" font-family="Roboto, sans-serif"><tspan x="-5.63" y="12" dominant-baseline="ideographic">2</tspan></text></g></g></g><g id="g-root-tx_2_1lpw7xhb6a5fz-stroke" data-item-order="0" transform="translate(300.375, 128)"></g><g id="g-root-tx_1_1lpw7xhb6a5fx-fill" data-item-order="0" transform="translate(102.375, 128)"><g id="tx_1_1lpw7xhb6a5fx-fill-merged" stroke="none" fill="#7f64ea" fill-opacity="1"><g><text style="font: 20px Roboto, sans-serif; white-space: pre;" transform="translate(17.625, 22)" font-size="20px" font-family="Roboto, sans-serif"><tspan x="-5.63" y="12" dominant-baseline="ideographic">1</tspan></text></g></g></g><g id="g-root-tx_1_1lpw7xhb6a5fx-stroke" data-item-order="0" transform="translate(102.375, 128)"></g><g id="g-root-tx_scopeaut_1lpw7xhb6a5fv-fill" data-item-order="0" transform="translate(400.0625, 38)"><g id="tx_scopeaut_1lpw7xhb6a5fv-fill-merged" stroke="none" fill="#484848" fill-opacity="1"><g><text style="font: bold 25px Roboto, sans-serif; white-space: pre;" transform="translate(109.9375, 25)" font-weight="bold" font-size="25px" font-family="Roboto, sans-serif"><tspan x="-97.94" y="14" dominant-baseline="ideographic">Scope / Authority</tspan></text></g></g></g><g id="g-root-tx_scopeaut_1lpw7xhb6a5fv-stroke" data-item-order="0" transform="translate(400.0625, 38)"></g><g id="g-root-tx_examples_1ulj86db6a5ft-fill" data-item-order="0" transform="translate(638, 296)"><g id="tx_examples_1ulj86db6a5ft-fill-merged" stroke="none" fill="#484848" fill-opacity="1"><g><text style="font: 15px Roboto, sans-serif; white-space: pre;" transform="translate(10, 82)" font-size="15px" font-family="Roboto, sans-serif"><tspan x="2" y="-54" dominant-baseline="ideographic">Examples: Compound </tspan><tspan x="2" y="-36" dominant-baseline="ideographic">price oracle pauses </tspan><tspan x="2" y="-18" dominant-baseline="ideographic">(2021); FEI/Rari DAI </tspan><tspan x="2" y="0" dominant-baseline="ideographic">borrow pause (Apr </tspan><tspan x="2" y="18" dominant-baseline="ideographic">2022, $80M); Elephant </tspan><tspan x="2" y="36" dominant-baseline="ideographic">Money TRUNK </tspan><tspan x="2" y="54" dominant-baseline="ideographic">minting pause (Apr </tspan><tspan x="2" y="72" dominant-baseline="ideographic">2022)</tspan></text></g></g></g><g id="g-root-tx_examples_1ulj86db6a5ft-stroke" data-item-order="0" transform="translate(638, 296)"></g><g id="g-root-tx_examples_1ulj86db6a5fp-fill" data-item-order="0" transform="translate(44, 296)"><g id="tx_examples_1ulj86db6a5fp-fill-merged" stroke="none" fill="#484848" fill-opacity="1"><g><text style="font: 15px Roboto, sans-serif; white-space: pre;" transform="translate(9.999992370605469, 64)" font-size="15px" font-family="Roboto, sans-serif"><tspan x="2" y="-36" dominant-baseline="ideographic">Examples: Harmony </tspan><tspan x="2" y="-18" dominant-baseline="ideographic">Horizon (Jun 2022, </tspan><tspan x="2" y="0" dominant-baseline="ideographic">$100M); BNB Chain </tspan><tspan x="2" y="18" dominant-baseline="ideographic">halt (Oct 2022, </tspan><tspan x="2" y="36" dominant-baseline="ideographic">$570M); Berachain </tspan><tspan x="2" y="54" dominant-baseline="ideographic">halt (Nov 2025)</tspan></text></g></g></g><g id="g-root-tx_examples_1ulj86db6a5fp-stroke" data-item-order="0" transform="translate(44, 296)"></g><g id="g-root-tx_examples_1ulj86db6a5fq-fill" data-item-order="0" transform="translate(242, 296)"><g id="tx_examples_1ulj86db6a5fq-fill-merged" stroke="none" fill="#484848" fill-opacity="1"><g><text style="font: 15px Roboto, sans-serif; white-space: pre;" transform="translate(10, 73)" font-size="15px" font-family="Roboto, sans-serif"><tspan x="2" y="-45" dominant-baseline="ideographic">Examples: Tether </tspan><tspan x="2" y="-27" dominant-baseline="ideographic">USDT freezes (PDVSA </tspan><tspan x="2" y="-9" dominant-baseline="ideographic">$182M); Circle USDC </tspan><tspan x="2" y="9" dominant-baseline="ideographic">blocked addresses </tspan><tspan x="2" y="27" dominant-baseline="ideographic">(Tornado Cash $75K); </tspan><tspan x="2" y="45" dominant-baseline="ideographic">WLFI blacklist of </tspan><tspan x="2" y="63" dominant-baseline="ideographic">Justin Sun ($107M)</tspan></text></g></g></g><g id="g-root-tx_examples_1ulj86db6a5fq-stroke" data-item-order="0" transform="translate(242, 296)"></g><g id="g-root-tx_examples_1ulj86db6a5fr-fill" data-item-order="0" transform="translate(836, 296)"><g id="tx_examples_1ulj86db6a5fr-fill-merged" stroke="none" fill="#484848" fill-opacity="1"><g><text style="font: 15px Roboto, sans-serif; white-space: pre;" transform="translate(10, 64)" font-size="15px" font-family="Roboto, sans-serif"><tspan x="2" y="-36" dominant-baseline="ideographic">Examples: </tspan><tspan x="2" y="-18" dominant-baseline="ideographic">Tether/Circle address </tspan><tspan x="2" y="0" dominant-baseline="ideographic">blacklists; Sonic </tspan><tspan x="2" y="18" dominant-baseline="ideographic">freezeAccount (Nov </tspan><tspan x="2" y="36" dominant-baseline="ideographic">2025); Ronin attacker </tspan><tspan x="2" y="54" dominant-baseline="ideographic">freeze</tspan></text></g></g></g><g id="g-root-tx_examples_1ulj86db6a5fr-stroke" data-item-order="0" transform="translate(836, 296)"></g><g id="g-root-tx_examples_1ulj86db6a5fs-fill" data-item-order="0" transform="translate(440, 296)"><g id="tx_examples_1ulj86db6a5fs-fill-merged" stroke="none" fill="#484848" fill-opacity="1"><g><text style="font: 15px Roboto, sans-serif; white-space: pre;" transform="translate(10.000030517578125, 82)" font-size="15px" font-family="Roboto, sans-serif"><tspan x="2" y="-54" dominant-baseline="ideographic">Examples: Balancer </tspan><tspan x="2" y="-36" dominant-baseline="ideographic">CSPv6 auto-pause </tspan><tspan x="2" y="-18" dominant-baseline="ideographic">(Nov 2025); Liqwid </tspan><tspan x="2" y="0" dominant-baseline="ideographic">Kill Switch; Beanstalk </tspan><tspan x="2" y="18" dominant-baseline="ideographic">shutdown (Apr 2022, </tspan><tspan x="2" y="36" dominant-baseline="ideographic">$182M); Superfluid </tspan><tspan x="2" y="54" dominant-baseline="ideographic">agreement halt (Feb </tspan><tspan x="2" y="72" dominant-baseline="ideographic">2022)</tspan></text></g></g></g><g id="g-root-tx_examples_1ulj86db6a5fs-stroke" data-item-order="0" transform="translate(440, 296)"></g></g></g></svg>