<?xml version="1.0" encoding="utf-8" standalone="yes"?>
<!DOCTYPE svg PUBLIC "-//W3C//DTD SVG 1.1//EN" "http://www.w3.org/Graphics/SVG/1.1/DTD/svg11.dtd">
<svg style="fill:none;stroke:none;fill-rule:evenodd;clip-rule:evenodd;stroke-linecap:round;stroke-linejoin:round;stroke-miterlimit:1.5;" version="1.1" xmlns="http://www.w3.org/2000/svg" xmlns:xlink="http://www.w3.org/1999/xlink" width="714" height="474" viewBox="0 0 714 474"><style class="text-font-style fontImports" data-font-family="Roboto">@import url(https://fonts.googleapis.com/css2?family=Roboto:wght@400;700&amp;amp;display=block);</style><g id="items" style="isolation: isolate"><g id="blend" style="mix-blend-mode: normal"><g id="g-root-cp_3_g-3_1ut1g5514bg5xf-fill" data-item-order="-251738" transform="translate(26, 308)"><g id="cp_3_g-3_1ut1g5514bg5xf-fill-merged" stroke="none" fill="#edf4ff" fill-opacity="1"><g><path d="M10 106 V10 H264L304 58L264 106 H10"></path></g></g></g><g id="g-root-cp_3_g-3_1ut1g5514bg5xf-stroke" data-item-order="-251738" transform="translate(26, 308)"><g id="cp_3_g-3_1ut1g5514bg5xf-stroke" fill="none" stroke-linecap="round" stroke-linejoin="round" stroke-miterlimit="4" stroke="#4e88e7" stroke-width="2" stroke-opacity="1"><g><path d="M 10 106L 10 10L 264 10L 304 58L 264 106L 10 106Z"></path></g></g></g><g id="g-root-cp_2_g-2_1ly0wzd14bg3kc-fill" data-item-order="-251734" transform="translate(26, 212)"><g id="cp_2_g-2_1ly0wzd14bg3kc-fill-merged" stroke="none" fill="#e3fff2" fill-opacity="1"><g><path d="M10 106 V10 H198L238 58L198 106 H10"></path></g></g></g><g id="g-root-cp_2_g-2_1ly0wzd14bg3kc-stroke" data-item-order="-251734" transform="translate(26, 212)"><g id="cp_2_g-2_1ly0wzd14bg3kc-stroke" fill="none" stroke-linecap="round" stroke-linejoin="round" stroke-miterlimit="4" stroke="#3cc583" stroke-width="2" stroke-opacity="1"><g><path d="M 10 106.0002L 10 10.0002L 198 10L 238 58L 198 106L 10 106.0002Z"></path></g></g></g><g id="g-root-cp_1_g-1_1ly0wzd14bg3kd-fill" data-item-order="-251730" transform="translate(26, 116)"><g id="cp_1_g-1_1ly0wzd14bg3kd-fill-merged" stroke="none" fill="#f4ffdc" fill-opacity="1"><g><path d="M10 106 V10 H132L172 58L132 106 H10"></path></g></g></g><g id="g-root-cp_1_g-1_1ly0wzd14bg3kd-stroke" data-item-order="-251730" transform="translate(26, 116)"><g id="cp_1_g-1_1ly0wzd14bg3kd-stroke" fill="none" stroke-linecap="round" stroke-linejoin="round" stroke-miterlimit="4" stroke="#92bd39" stroke-width="2" stroke-opacity="1"><g><path d="M 10 106L 10 10L 132 10L 172 58L 132 106L 10 106Z"></path></g></g></g><g id="g-root-tx_antidrif_1hi7eux14bg4cm-fill" data-item-order="0" transform="translate(199.36328125, 38)"><g id="tx_antidrif_1hi7eux14bg4cm-fill-merged" stroke="none" fill="#484848" fill-opacity="1"><g><text style="font: bold 25px Roboto, sans-serif; white-space: pre;" transform="translate(157.63671875, 25)" font-weight="bold" font-size="25px" font-family="Roboto, sans-serif"><tspan x="-145.64" y="14.5" dominant-baseline="ideographic">Anti-Drift Anchor Pyramid</tspan></text></g></g></g><g id="g-root-tx_antidrif_1hi7eux14bg4cm-stroke" data-item-order="0" transform="translate(199.36328125, 38)"></g><g id="g-root-ic_divi_18mkem114bg55b-fill" data-item-order="0" transform="translate(98, 140)"></g><g id="g-root-ic_divi_18mkem114bg55b-stroke" data-item-order="0" transform="translate(98, 140)"><g id="ic_divi_18mkem114bg55b-stroke" fill="none" stroke-linecap="round" stroke-linejoin="round" stroke-miterlimit="4" stroke="#92bd39" stroke-width="2" stroke-opacity="1"><g><path d="M 30.622 21C 30.622 23.209139 28.831139 25 26.622 25C 24.412861 25 22.622 23.209139 22.622 21L 22.622 16C 22.622 15.447716 23.069715 15 23.622 15L 29.622 15C 30.174284 15 30.622 15.447716 30.622 16ZM 26.622 15L 26.622 11M 26.622 25L 16.112 52.298C 16.016735 52.545879 15.826788 52.745689 15.584044 52.853367C 15.341299 52.961044 15.065693 52.967751 14.818 52.872002L 12.018 51.793999C 11.502848 51.595592 11.245918 51.017277 11.444 50.501999L 22.644001 21.416M 11.622 57L 13.418 52.334M 26.622 25L 37.134003 52.298C 37.332405 52.813152 37.910721 53.070084 38.426003 52.872002L 41.225998 51.793999C 41.74115 51.595592 41.998081 51.017277 41.799999 50.501999L 30.6 21.416M 41.622002 57L 39.826 52.334M 42.622002 37L 42.622002 13C 42.622002 11.895431 43.517429 11 44.622002 11L 54.622002 11C 55.72657 11 56.622002 11.895431 56.622002 13L 56.622002 55C 56.622002 56.104568 55.72657 57 54.622002 57L 46.622002 57M 56.622002 17L 48.622002 17M 56.622002 23L 50.622002 23M 56.622002 29L 48.622002 29M 56.622002 35L 48.622002 35M 56.622002 41L 50.622002 41M 56.622002 47L 48.622002 47"></path></g></g></g><g id="g-root-tx_tooling_v7zlyx14av2mi-fill" data-item-order="0" transform="translate(212, 128)"><g id="tx_tooling_v7zlyx14av2mi-fill-merged" stroke="none" fill="#92bd39" fill-opacity="1"><g><text style="font: 20px Roboto, sans-serif; white-space: pre;" transform="translate(10, 22)" font-size="20px" font-family="Roboto, sans-serif"><tspan x="2" y="11.5" dominant-baseline="ideographic">Tooling</tspan></text></g></g></g><g id="g-root-tx_tooling_v7zlyx14av2mi-stroke" data-item-order="0" transform="translate(212, 128)"></g><g id="g-root-tx_dataseta_hx5kop14av11n-fill" data-item-order="0" transform="translate(212, 164)"><g id="tx_dataseta_hx5kop14av11n-fill-merged" stroke="none" fill="#484848" fill-opacity="1"><g><text style="font: 15px Roboto, sans-serif; white-space: pre;" transform="translate(10, 19)" font-size="15px" font-family="Roboto, sans-serif"><tspan x="2" y="8.5" dominant-baseline="ideographic">Dataset and calculator for measurement</tspan></text></g></g></g><g id="g-root-tx_dataseta_hx5kop14av11n-stroke" data-item-order="0" transform="translate(212, 164)"></g><g id="g-root-ic_rss_8ye70914av1fs-fill" data-item-order="0" transform="translate(164, 236)"></g><g id="g-root-ic_rss_8ye70914av1fs-stroke" data-item-order="0" transform="translate(164, 236)"><g id="ic_rss_8ye70914av1fs-stroke" fill="none" stroke-linecap="round" stroke-linejoin="round" stroke-miterlimit="4" stroke="#3cc583" stroke-width="2" stroke-opacity="1"><g><path d="M 14 29.938C 27.289398 29.938 38.062897 40.710602 38.063999 54M 24 53C 23.960251 48.037151 19.962523 44.015438 15 43.946003L 15 53ZM 14 15C 35.539108 15 53 32.460896 53 54"></path></g></g></g><g id="g-root-tx_boundedr_dhc2k914av1tw-fill" data-item-order="0" transform="translate(278, 224)"><g id="tx_boundedr_dhc2k914av1tw-fill-merged" stroke="none" fill="#3cc583" fill-opacity="1"><g><text style="font: 20px Roboto, sans-serif; white-space: pre;" transform="translate(10, 22)" font-size="20px" font-family="Roboto, sans-serif"><tspan x="2" y="11.5" dominant-baseline="ideographic">Bounded Response</tspan></text></g></g></g><g id="g-root-tx_boundedr_dhc2k914av1tw-stroke" data-item-order="0" transform="translate(278, 224)"></g><g id="g-root-tx_legitima_dhc2k914av1tx-fill" data-item-order="0" transform="translate(278, 260)"><g id="tx_legitima_dhc2k914av1tx-fill-merged" stroke="none" fill="#484848" fill-opacity="1"><g><text style="font: 15px Roboto, sans-serif; white-space: pre;" transform="translate(10, 19)" font-size="15px" font-family="Roboto, sans-serif"><tspan x="2" y="8.5" dominant-baseline="ideographic">Legitimate overrides and scope limitations</tspan></text></g></g></g><g id="g-root-tx_legitima_dhc2k914av1tx-stroke" data-item-order="0" transform="translate(278, 260)"></g><g id="g-root-ic_warn_1lua5mh14av2mh-fill" data-item-order="0" transform="translate(230, 332)"></g><g id="g-root-ic_warn_1lua5mh14av2mh-stroke" data-item-order="0" transform="translate(230, 332)"><g id="ic_warn_1lua5mh14av2mh-stroke" fill="none" stroke-linecap="round" stroke-linejoin="round" stroke-miterlimit="4" stroke="#4e88e7" stroke-width="2" stroke-opacity="1"><g><path d="M 45 51C 45.276142 51 45.5 51.223858 45.5 51.5C 45.5 51.776142 45.276142 52 45 52C 44.723858 52 44.5 51.776142 44.5 51.5C 44.5 51.223858 44.723858 51 45 51M 45 46.992001L 45 40.992001M 46.675999 35C 46.345634 34.381348 45.701336 33.995003 45 33.995003C 44.298668 33.995003 43.654366 34.381348 43.324001 35L 33.211998 54.27C 32.908127 54.847462 32.931698 55.54245 33.274002 56.098C 33.620461 56.656097 34.231113 56.995094 34.888 56.994003L 55.112 56.993999C 55.76889 56.995094 56.379543 56.656097 56.726002 56.098003C 57.068298 55.54245 57.091869 54.847462 56.787998 54.27ZM 33 47L 15 47C 12.790861 47 11 45.209141 11 43L 11 15C 11 12.790861 12.790861 11 15 11L 43 11C 45.209141 11 47 12.790861 47 15L 47 29M 11 23.007999L 47 23.007999M 11 34.992001L 35 34.992001M 35 11.008L 35 34.992001M 23 11.008L 23 46.992001"></path></g></g></g><g id="g-root-tx_preventi_4lp2bd14av2mm-fill" data-item-order="0" transform="translate(344, 320)"><g id="tx_preventi_4lp2bd14av2mm-fill-merged" stroke="none" fill="#4e88e7" fill-opacity="1"><g><text style="font: 20px Roboto, sans-serif; white-space: pre;" transform="translate(10, 22)" font-size="20px" font-family="Roboto, sans-serif"><tspan x="2" y="11.5" dominant-baseline="ideographic">Prevention</tspan></text></g></g></g><g id="g-root-tx_preventi_4lp2bd14av2mm-stroke" data-item-order="0" transform="translate(344, 320)"></g><g id="g-root-tx_credible_5vk6x14av3ev-fill" data-item-order="0" transform="translate(344, 356)"><g id="tx_credible_5vk6x14av3ev-fill-merged" stroke="none" fill="#484848" fill-opacity="1"><g><text style="font: 15px Roboto, sans-serif; white-space: pre;" transform="translate(10, 19)" font-size="15px" font-family="Roboto, sans-serif"><tspan x="2" y="8.5" dominant-baseline="ideographic">Credible layers and deterministic constraints</tspan></text></g></g></g><g id="g-root-tx_credible_5vk6x14av3ev-stroke" data-item-order="0" transform="translate(344, 356)"></g></g></g></svg>