<?xml version="1.0" encoding="utf-8" standalone="yes"?>
<!DOCTYPE svg PUBLIC "-//W3C//DTD SVG 1.1//EN" "http://www.w3.org/Graphics/SVG/1.1/DTD/svg11.dtd">
<svg style="fill:none;stroke:none;fill-rule:evenodd;clip-rule:evenodd;stroke-linecap:round;stroke-linejoin:round;stroke-miterlimit:1.5;" version="1.1" xmlns="http://www.w3.org/2000/svg" xmlns:xlink="http://www.w3.org/1999/xlink" width="840" height="480" viewBox="0 0 840 480"><style class="text-font-style fontImports" data-font-family="Roboto">@import url(https://fonts.googleapis.com/css2?family=Roboto:wght@400;700&amp;amp;display=block);</style><g id="items" style="isolation: isolate"><g id="blend" style="mix-blend-mode: normal"><g id="g-root-cp_0b_g-0b_146qwhl16su70s-fill" data-item-order="-304103" transform="translate(176, 173)"></g><g id="g-root-cp_0b_g-0b_146qwhl16su70s-stroke" data-item-order="-304103" transform="translate(176, 173)"><g id="cp_0b_g-0b_146qwhl16su70s-stroke" fill="none" stroke-linecap="round" stroke-linejoin="round" stroke-miterlimit="4" stroke="#484848" stroke-width="2" stroke-dasharray="5.0, 7.0" stroke-opacity="1"><g><path d="M 10 10L 47 10M 478 10L 442 10M 431 10L 250 10M 58 10L 239 10"></path></g></g></g><g id="g-root-cp_0a_g-0a_zqxed516su7t1-fill" data-item-order="-304100" transform="translate(213, 166)"><g id="cp_0a_g-0a_zqxed516su7t1-fill-merged" stroke="none" fill="#f5f5f5" fill-opacity="1"><g><path d="M21 17L10 24 V10L21 17"></path></g></g><g id="cp_0a_g-0a_zqxed516su7t1-fill-merged" stroke="none" fill="#f5f5f5" fill-opacity="1"><g><path d="M213 17L202 24 V10L213 17"></path></g></g><g id="cp_0a_g-0a_zqxed516su7t1-fill-merged" stroke="none" fill="#f5f5f5" fill-opacity="1"><g><path d="M405 17L394 24 V10L405 17"></path></g></g></g><g id="g-root-cp_0a_g-0a_zqxed516su7t1-stroke" data-item-order="-304100" transform="translate(213, 166)"><g id="cp_0a_g-0a_zqxed516su7t1-stroke" fill="none" stroke-linecap="round" stroke-linejoin="round" stroke-miterlimit="4" stroke="#a3a3a3" stroke-width="2" stroke-opacity="1"><g><path d="M 21 17L 9.999999 24L 10 10L 21 17Z"></path></g></g><g id="cp_0a_g-0a_zqxed516su7t1-stroke" fill="none" stroke-linecap="round" stroke-linejoin="round" stroke-miterlimit="4" stroke="#a3a3a3" stroke-width="2" stroke-opacity="1"><g><path d="M 213 17L 201.999999 24L 202 10L 213 17Z"></path></g></g><g id="cp_0a_g-0a_zqxed516su7t1-stroke" fill="none" stroke-linecap="round" stroke-linejoin="round" stroke-miterlimit="4" stroke="#a3a3a3" stroke-width="2" stroke-opacity="1"><g><path d="M 405 17L 393.999999 24L 394 10L 405 17Z"></path></g></g></g><g id="g-root-cp_problem_g-problem_qvae4916su8lq-fill" data-item-order="-304090" transform="translate(44, 180)"><g id="cp_problem_g-problem_qvae4916su8lq-fill-merged" stroke="none" fill="#ffd9d8" fill-opacity="1"><g><path d="M166 54L87.278 10L10 54 V138L87.278 182L166 138 V54"></path></g></g></g><g id="g-root-cp_problem_g-problem_qvae4916su8lq-stroke" data-item-order="-304090" transform="translate(44, 180)"><g id="cp_problem_g-problem_qvae4916su8lq-stroke" fill="none" stroke-linecap="round" stroke-linejoin="round" stroke-miterlimit="4" stroke="#e55753" stroke-width="2" stroke-opacity="1"><g><path d="M 166 138L 87.2778 182L 10 138M 10 54L 87.2778 10L 166 54M 10 138L 10 54M 166 54L 166 138"></path></g></g></g><g id="g-root-cp_1_g-1_qvae4916su8lr-fill" data-item-order="-304074" transform="translate(236, 180)"><g id="cp_1_g-1_qvae4916su8lr-fill-merged" stroke="none" fill="#f5f5f5" fill-opacity="1"><g><path d="M166 54L87.278 10L10 54 V138L87.278 182L166 138 V54"></path></g></g></g><g id="g-root-cp_1_g-1_qvae4916su8lr-stroke" data-item-order="-304074" transform="translate(236, 180)"><g id="cp_1_g-1_qvae4916su8lr-stroke" fill="none" stroke-linecap="round" stroke-linejoin="round" stroke-miterlimit="4" stroke="#969696" stroke-width="2" stroke-opacity="1"><g><path d="M 166 138L 87.2778 182L 10 138M 10 54L 87.2778 10L 166 54M 10 138L 10 54M 166 54L 166 138"></path></g></g></g><g id="g-root-cp_2_g-2_mfgvzt16su9e0-fill" data-item-order="-304058" transform="translate(428, 180)"><g id="cp_2_g-2_mfgvzt16su9e0-fill-merged" stroke="none" fill="#f5f5f5" fill-opacity="1"><g><path d="M166 54L87.278 10L10 54 V138L87.278 182L166 138 V54"></path></g></g></g><g id="g-root-cp_2_g-2_mfgvzt16su9e0-stroke" data-item-order="-304058" transform="translate(428, 180)"><g id="cp_2_g-2_mfgvzt16su9e0-stroke" fill="none" stroke-linecap="round" stroke-linejoin="round" stroke-miterlimit="4" stroke="#969696" stroke-width="2" stroke-opacity="1"><g><path d="M 166 138L 87.2778 182L 10 138M 10 54L 87.2778 10L 166 54M 10 138L 10 54M 166 54L 166 138"></path></g></g></g><g id="g-root-cp_resolution_g-resolution_i09uyh16su70h-fill" data-item-order="-304042" transform="translate(620, 180)"><g id="cp_resolution_g-resolution_i09uyh16su70h-fill-merged" stroke="none" fill="#c8ffe5" fill-opacity="1"><g><path d="M166 54L87.278 10L10 54 V138L87.278 182L166 138 V54"></path></g></g></g><g id="g-root-cp_resolution_g-resolution_i09uyh16su70h-stroke" data-item-order="-304042" transform="translate(620, 180)"><g id="cp_resolution_g-resolution_i09uyh16su70h-stroke" fill="none" stroke-linecap="round" stroke-linejoin="round" stroke-miterlimit="4" stroke="#3cc583" stroke-width="2" stroke-opacity="1"><g><path d="M 166 138L 87.2778 182L 10 138M 10 54L 87.2778 10L 166 54M 10 138L 10 54M 166 54L 166 138"></path></g></g></g><g id="g-root-cp_0b_g-0b_1_i09uyh16su70i-fill" data-item-order="-304023" transform="translate(176, 359)"></g><g id="g-root-cp_0b_g-0b_1_i09uyh16su70i-stroke" data-item-order="-304023" transform="translate(176, 359)"><g id="cp_0b_g-0b_1_i09uyh16su70i-stroke" fill="none" stroke-linecap="round" stroke-linejoin="round" stroke-miterlimit="4" stroke="#484848" stroke-width="2" stroke-dasharray="5.0, 7.0" stroke-opacity="1"><g><path d="M 10 10L 47 10M 478 10L 442 10M 431 10L 250 10M 58 10L 239 10"></path></g></g></g><g id="g-root-cp_0a_g-0a_1_94mupl16su7t7-fill" data-item-order="-304020" transform="translate(213, 352)"><g id="cp_0a_g-0a_1_94mupl16su7t7-fill-merged" stroke="none" fill="#f5f5f5" fill-opacity="1"><g><path d="M21 17L10 24 V10L21 17"></path></g></g><g id="cp_0a_g-0a_1_94mupl16su7t7-fill-merged" stroke="none" fill="#f5f5f5" fill-opacity="1"><g><path d="M213 17L202 24 V10L213 17"></path></g></g><g id="cp_0a_g-0a_1_94mupl16su7t7-fill-merged" stroke="none" fill="#f5f5f5" fill-opacity="1"><g><path d="M405 17L394 24 V10L405 17"></path></g></g></g><g id="g-root-cp_0a_g-0a_1_94mupl16su7t7-stroke" data-item-order="-304020" transform="translate(213, 352)"><g id="cp_0a_g-0a_1_94mupl16su7t7-stroke" fill="none" stroke-linecap="round" stroke-linejoin="round" stroke-miterlimit="4" stroke="#a3a3a3" stroke-width="2" stroke-opacity="1"><g><path d="M 21 17L 9.999999 24L 10 10L 21 17Z"></path></g></g><g id="cp_0a_g-0a_1_94mupl16su7t7-stroke" fill="none" stroke-linecap="round" stroke-linejoin="round" stroke-miterlimit="4" stroke="#a3a3a3" stroke-width="2" stroke-opacity="1"><g><path d="M 213 17L 201.999999 24L 202 10L 213 17Z"></path></g></g><g id="cp_0a_g-0a_1_94mupl16su7t7-stroke" fill="none" stroke-linecap="round" stroke-linejoin="round" stroke-miterlimit="4" stroke="#a3a3a3" stroke-width="2" stroke-opacity="1"><g><path d="M 405 17L 393.999999 24L 394 10L 405 17Z"></path></g></g></g><g id="g-root-tx_enhancin_94mupl16su7t8-fill" data-item-order="0" transform="translate(165.20703125, 38)"><g id="tx_enhancin_94mupl16su7t8-fill-merged" stroke="none" fill="#484848" fill-opacity="1"><g><text style="font: bold 25px Roboto, sans-serif; white-space: pre;" transform="translate(254.79296875, 25)" font-weight="bold" font-size="25px" font-family="Roboto, sans-serif"><tspan x="-242.79" y="14.5" dominant-baseline="ideographic">Enhancing Credibility with Layered Defense</tspan></text></g></g></g><g id="g-root-tx_enhancin_94mupl16su7t8-stroke" data-item-order="0" transform="translate(165.20703125, 38)"></g><g id="g-root-tx_enforcei_1uuaebd16su971-fill" data-item-order="0" transform="translate(250.078125, 113)"><g id="tx_enforcei_1uuaebd16su971-fill-merged" stroke="none" fill="#484848" fill-opacity="1"><g><text style="font: 15px Roboto, sans-serif; white-space: pre;" transform="translate(73.921875, 28)" font-size="15px" font-family="Roboto, sans-serif"><tspan x="-61.92" y="-0.5" dominant-baseline="ideographic">Enforce invariants </tspan><tspan x="-57.6" y="17.5" dominant-baseline="ideographic">before execution</tspan></text></g></g></g><g id="g-root-tx_enforcei_1uuaebd16su971-stroke" data-item-order="0" transform="translate(250.078125, 113)"></g><g id="g-root-tx_multiple_1qf3da116su6ti-fill" data-item-order="0" transform="translate(447.875, 104)"><g id="tx_multiple_1qf3da116su6ti-fill-merged" stroke="none" fill="#484848" fill-opacity="1"><g><text style="font: 15px Roboto, sans-serif; white-space: pre;" transform="translate(68.125, 37)" font-size="15px" font-family="Roboto, sans-serif"><tspan x="-28.66" y="-9.5" dominant-baseline="ideographic">Multiple </tspan><tspan x="-56.13" y="8.5" dominant-baseline="ideographic">mechanisms for </tspan><tspan x="-51.84" y="26.5" dominant-baseline="ideographic">robust defense</tspan></text></g></g></g><g id="g-root-tx_multiple_1qf3da116su6ti-stroke" data-item-order="0" transform="translate(447.875, 104)"></g><g id="g-root-tx_discreti_1hjgd1516su7m7-fill" data-item-order="0" transform="translate(58.953125, 242)"><g id="tx_discreti_1hjgd1516su7m7-fill-merged" stroke="none" fill="#e55753" fill-opacity="1"><g><text style="font: 20px Roboto, sans-serif; white-space: pre;" transform="translate(73.046875, 34)" font-size="20px" font-family="Roboto, sans-serif"><tspan x="-61.05" y="-0.5" dominant-baseline="ideographic">Discretionary </tspan><tspan x="-46.41" y="23.5" dominant-baseline="ideographic">Response</tspan></text></g></g></g><g id="g-root-tx_discreti_1hjgd1516su7m7-stroke" data-item-order="0" transform="translate(58.953125, 242)"></g><g id="g-root-tx_preexecu_1d3muwp16su8eg-fill" data-item-order="0" transform="translate(248.703125, 242)"><g id="tx_preexecu_1d3muwp16su8eg-fill-merged" stroke="none" fill="#e0cb15" fill-opacity="1"><g><text style="font: 20px Roboto, sans-serif; white-space: pre;" transform="translate(75.296875, 34)" font-size="20px" font-family="Roboto, sans-serif"><tspan x="-63.3" y="-0.5" dominant-baseline="ideographic">Pre-execution </tspan><tspan x="-45.19" y="23.5" dominant-baseline="ideographic">Assertion</tspan></text></g></g></g><g id="g-root-tx_preexecu_1d3muwp16su8eg-stroke" data-item-order="0" transform="translate(248.703125, 242)"></g><g id="g-root-tx_defensei_18ntcs916su96p-fill" data-item-order="0" transform="translate(454.00390625, 242)"><g id="tx_defensei_18ntcs916su96p-fill-merged" stroke="none" fill="#de8431" fill-opacity="1"><g><text style="font: 20px Roboto, sans-serif; white-space: pre;" transform="translate(61.99609375, 34)" font-size="20px" font-family="Roboto, sans-serif"><tspan x="-50" y="-0.5" dominant-baseline="ideographic">Defense-in-</tspan><tspan x="-26.26" y="23.5" dominant-baseline="ideographic">Depth</tspan></text></g></g></g><g id="g-root-tx_defensei_18ntcs916su96p-stroke" data-item-order="0" transform="translate(454.00390625, 242)"></g><g id="g-root-tx_reducedd_zit88p16svle2-fill" data-item-order="0" transform="translate(634.953125, 230)"><g id="tx_reducedd_zit88p16svle2-fill-merged" stroke="none" fill="#3cc583" fill-opacity="1"><g><text style="font: 20px Roboto, sans-serif; white-space: pre;" transform="translate(73.046875, 46)" font-size="20px" font-family="Roboto, sans-serif"><tspan x="-41.27" y="-12.5" dominant-baseline="ideographic">Reduced </tspan><tspan x="-61.05" y="11.5" dominant-baseline="ideographic">Discretionary </tspan><tspan x="-46.41" y="35.5" dominant-baseline="ideographic">Response</tspan></text></g></g></g><g id="g-root-tx_reducedd_zit88p16svle2-stroke" data-item-order="0" transform="translate(634.953125, 230)"></g><g id="g-root-tx_unpredic_v2zq4916svm6b-fill" data-item-order="0" transform="translate(55.328125, 374)"><g id="tx_unpredic_v2zq4916svm6b-fill-merged" stroke="none" fill="#484848" fill-opacity="1"><g><text style="font: 15px Roboto, sans-serif; white-space: pre;" transform="translate(79.3359375, 28)" font-size="15px" font-family="Roboto, sans-serif"><tspan x="-60.51" y="-0.5" dominant-baseline="ideographic">Unpredictable and </tspan><tspan x="-67.34" y="17.5" dominant-baseline="ideographic">inconsistent actions</tspan></text></g></g></g><g id="g-root-tx_unpredic_v2zq4916svm6b-stroke" data-item-order="0" transform="translate(55.328125, 374)"></g><g id="g-root-tx_predicta_m7cpvd16svmz0-fill" data-item-order="0" transform="translate(634.62890625, 374)"><g id="tx_predicta_m7cpvd16svmz0-fill-merged" stroke="none" fill="#484848" fill-opacity="1"><g><text style="font: 15px Roboto, sans-serif; white-space: pre;" transform="translate(73.37109375, 28)" font-size="15px" font-family="Roboto, sans-serif"><tspan x="-52.02" y="-0.5" dominant-baseline="ideographic">Predictable and </tspan><tspan x="-61.37" y="17.5" dominant-baseline="ideographic">consistent actions</tspan></text></g></g></g><g id="g-root-tx_predicta_m7cpvd16svmz0-stroke" data-item-order="0" transform="translate(634.62890625, 374)"></g></g></g></svg>