<?xml version="1.0" encoding="utf-8" standalone="yes"?>
<!DOCTYPE svg PUBLIC "-//W3C//DTD SVG 1.1//EN" "http://www.w3.org/Graphics/SVG/1.1/DTD/svg11.dtd">
<svg style="fill:none;stroke:none;fill-rule:evenodd;clip-rule:evenodd;stroke-linecap:round;stroke-linejoin:round;stroke-miterlimit:1.5;" version="1.1" xmlns="http://www.w3.org/2000/svg" xmlns:xlink="http://www.w3.org/1999/xlink" width="842" height="558" viewBox="0 0 842 558"><style class="text-font-style fontImports" data-font-family="Roboto">@import url(https://fonts.googleapis.com/css2?family=Roboto:wght@400;700&amp;amp;display=block);</style><g id="items" style="isolation: isolate"><g id="blend" style="mix-blend-mode: normal"><g id="g-root-cp_1_g-1_1_1d3naju14l0aoe-fill" data-item-order="-364565" transform="translate(227.015625, 92)"><g id="cp_1_g-1_1_1d3naju14l0aoe-fill-merged" stroke="none" fill="#fffbda" fill-opacity="1"><g><path d="M178.719 22 V202 H10 V22C10 15.396 15.396 10 22 10 H166.719C173.335 10 178.719 15.384 178.719 22"></path></g></g></g><g id="g-root-cp_1_g-1_1_1d3naju14l0aoe-stroke" data-item-order="-364565" transform="translate(227.015625, 92)"><g id="cp_1_g-1_1_1d3naju14l0aoe-stroke" fill="none" stroke-linecap="round" stroke-linejoin="round" stroke-miterlimit="4" stroke="#e0cb15" stroke-width="2" stroke-opacity="1"><g><path d="M 22 10C 15.373 10 10 15.373 10 22M 178.71875 202L 178.71875 22M 10 22L 10 202M 22 10L 166.71875 10M 178.71875 22C 178.71875 15.3826 173.33615 10 166.71875 10"></path></g></g></g><g id="g-root-cp_0_g-0_1_18ntsfe14l0bgn-fill" data-item-order="-364537" transform="translate(227.015625, 284)"><g id="cp_0_g-0_1_18ntsfe14l0bgn-fill-merged" stroke="none" fill="#f5f5f5" fill-opacity="1"><g><path d="M10 202 V10 H178.719 V202C178.719 208.627 173.346 214 166.719 214 H22C15.373 214 10 208.627 10 202"></path></g></g></g><g id="g-root-cp_0_g-0_1_18ntsfe14l0bgn-stroke" data-item-order="-364537" transform="translate(227.015625, 284)"><g id="cp_0_g-0_1_18ntsfe14l0bgn-stroke" fill="none" stroke-linecap="round" stroke-linejoin="round" stroke-miterlimit="4" stroke="#a3a3a3" stroke-width="2" stroke-opacity="1"><g><path d="M 10 202C 10 208.6274 15.3726 214 22 214M 166.71875 214L 22 214M 166.71875 214C 173.34615 214 178.71875 208.6274 178.71875 202M 178.71875 10L 178.71875 202M 10 202L 10 10M 178.71875 10L 10 10"></path></g></g></g><g id="g-root-cp_1-1_cell-1-1_18ntsfe14l0bgo-fill" data-item-order="-364516" transform="translate(239.015625, 296)"></g><g id="g-root-cp_1-1_cell-1-1_18ntsfe14l0bgo-stroke" data-item-order="-364516" transform="translate(239.015625, 296)"><g id="cp_1-1_cell-1-1_18ntsfe14l0bgo-stroke" fill="none" stroke-linecap="round" stroke-linejoin="round" stroke-miterlimit="4" stroke="#484848" stroke-width="2" stroke-opacity="1"><g><path d="M 10 22L 10 16C 10 12.6863 12.6863 10 16 10L 22 10M 154.71875 22L 154.71875 46M 10 46L 10 22M 22 10L 142.71875 10M 10 46L 10 52C 10 55.3137 12.6863 58 16 58L 22 58M 154.71875 22L 154.71875 16C 154.71875 12.6863 152.03245 10 148.71875 10L 142.71875 10M 142.71875 58L 22 58M 154.71875 46L 154.71875 52C 154.71875 55.3137 152.03245 58 148.71875 58L 142.71875 58"></path></g></g></g><g id="g-root-cp_2-1_cell-2-1_13yn60a14l1nnl-fill" data-item-order="-364498" transform="translate(239.015625, 356)"></g><g id="g-root-cp_2-1_cell-2-1_13yn60a14l1nnl-stroke" data-item-order="-364498" transform="translate(239.015625, 356)"><g id="cp_2-1_cell-2-1_13yn60a14l1nnl-stroke" fill="none" stroke-linecap="round" stroke-linejoin="round" stroke-miterlimit="4" stroke="#484848" stroke-width="2" stroke-opacity="1"><g><path d="M 10 22L 10 16C 10 12.6863 12.6863 10 16 10L 22 10M 154.71875 22L 154.71875 58M 10 58L 10 22M 22 10L 142.71875 10M 10 58L 10 64C 10 67.3137 12.6863 70 16 70L 22 70M 154.71875 22L 154.71875 16C 154.71875 12.6863 152.03245 10 148.71875 10L 142.71875 10M 142.71875 70L 22 70M 154.71875 58L 154.71875 64C 154.71875 67.3137 152.03245 70 148.71875 70L 142.71875 70"></path></g></g></g><g id="g-root-cp_3-1_cell-3-1_13yn60a14l1nnm-fill" data-item-order="-364480" transform="translate(239.015625, 428)"></g><g id="g-root-cp_3-1_cell-3-1_13yn60a14l1nnm-stroke" data-item-order="-364480" transform="translate(239.015625, 428)"><g id="cp_3-1_cell-3-1_13yn60a14l1nnm-stroke" fill="none" stroke-linecap="round" stroke-linejoin="round" stroke-miterlimit="4" stroke="#484848" stroke-width="2" stroke-opacity="1"><g><path d="M 10 22L 10 16C 10 12.6863 12.6863 10 16 10L 22 10M 154.71875 22L 154.71875 46M 10 46L 10 22M 22 10L 142.71875 10M 10 46L 10 52C 10 55.3137 12.6863 58 16 58L 22 58M 154.71875 22L 154.71875 16C 154.71875 12.6863 152.03245 10 148.71875 10L 142.71875 10M 142.71875 58L 22 58M 154.71875 46L 154.71875 52C 154.71875 55.3137 152.03245 58 148.71875 58L 142.71875 58"></path></g></g></g><g id="g-root-cp_1_g-1_2_v305re14l1ogb-fill" data-item-order="-364461" transform="translate(419.734375, 92)"><g id="cp_1_g-1_2_v305re14l1ogb-fill-merged" stroke="none" fill="#fff2e5" fill-opacity="1"><g><path d="M178.719 22 V202 H10 V22C10 15.396 15.396 10 22 10 H166.719C173.335 10 178.719 15.384 178.719 22"></path></g></g></g><g id="g-root-cp_1_g-1_2_v305re14l1ogb-stroke" data-item-order="-364461" transform="translate(419.734375, 92)"><g id="cp_1_g-1_2_v305re14l1ogb-stroke" fill="none" stroke-linecap="round" stroke-linejoin="round" stroke-miterlimit="4" stroke="#de8431" stroke-width="2" stroke-opacity="1"><g><path d="M 22 10C 15.373 10 10 15.373 10 22M 178.71875 202L 178.71875 22M 10 22L 10 202M 22 10L 166.71875 10M 178.71875 22C 178.71875 15.3826 173.33615 10 166.71875 10"></path></g></g></g><g id="g-root-cp_0_g-0_2_qn6nmy14l1p8k-fill" data-item-order="-364433" transform="translate(419.734375, 284)"><g id="cp_0_g-0_2_qn6nmy14l1p8k-fill-merged" stroke="none" fill="#f5f5f5" fill-opacity="1"><g><path d="M10 202 V10 H178.719 V202C178.719 208.627 173.346 214 166.719 214 H22C15.373 214 10 208.627 10 202"></path></g></g></g><g id="g-root-cp_0_g-0_2_qn6nmy14l1p8k-stroke" data-item-order="-364433" transform="translate(419.734375, 284)"><g id="cp_0_g-0_2_qn6nmy14l1p8k-stroke" fill="none" stroke-linecap="round" stroke-linejoin="round" stroke-miterlimit="4" stroke="#a3a3a3" stroke-width="2" stroke-opacity="1"><g><path d="M 10 202C 10 208.6274 15.3726 214 22 214M 166.71875 214L 22 214M 166.71875 214C 173.34615 214 178.71875 208.6274 178.71875 202M 178.71875 10L 178.71875 202M 10 202L 10 10M 178.71875 10L 10 10"></path></g></g></g><g id="g-root-cp_1-2_cell-1-2_hrjne214l1q19-fill" data-item-order="-364412" transform="translate(431.734375, 296)"></g><g id="g-root-cp_1-2_cell-1-2_hrjne214l1q19-stroke" data-item-order="-364412" transform="translate(431.734375, 296)"><g id="cp_1-2_cell-1-2_hrjne214l1q19-stroke" fill="none" stroke-linecap="round" stroke-linejoin="round" stroke-miterlimit="4" stroke="#484848" stroke-width="2" stroke-opacity="1"><g><path d="M 10 22L 10 16C 10 12.6863 12.6863 10 16 10L 22 10M 154.71875 22L 154.71875 46M 10 46L 10 22M 22 10L 142.71875 10M 10 46L 10 52C 10 55.3137 12.6863 58 16 58L 22 58M 154.71875 22L 154.71875 16C 154.71875 12.6863 152.03245 10 148.71875 10L 142.71875 10M 142.71875 58L 22 58M 154.71875 46L 154.71875 52C 154.71875 55.3137 152.03245 58 148.71875 58L 142.71875 58"></path></g></g></g><g id="g-root-cp_2-2_cell-2-2_hrjne214l1q1a-fill" data-item-order="-364394" transform="translate(431.734375, 356)"></g><g id="g-root-cp_2-2_cell-2-2_hrjne214l1q1a-stroke" data-item-order="-364394" transform="translate(431.734375, 356)"><g id="cp_2-2_cell-2-2_hrjne214l1q1a-stroke" fill="none" stroke-linecap="round" stroke-linejoin="round" stroke-miterlimit="4" stroke="#484848" stroke-width="2" stroke-opacity="1"><g><path d="M 10 22L 10 16C 10 12.6863 12.6863 10 16 10L 22 10M 154.71875 22L 154.71875 58M 10 58L 10 22M 22 10L 142.71875 10M 10 58L 10 64C 10 67.3137 12.6863 70 16 70L 22 70M 154.71875 22L 154.71875 16C 154.71875 12.6863 152.03245 10 148.71875 10L 142.71875 10M 142.71875 70L 22 70M 154.71875 58L 154.71875 64C 154.71875 67.3137 152.03245 70 148.71875 70L 142.71875 70"></path></g></g></g><g id="g-root-cp_3-2_cell-3-2_dccmcq14l1nnr-fill" data-item-order="-364376" transform="translate(431.734375, 428)"></g><g id="g-root-cp_3-2_cell-3-2_dccmcq14l1nnr-stroke" data-item-order="-364376" transform="translate(431.734375, 428)"><g id="cp_3-2_cell-3-2_dccmcq14l1nnr-stroke" fill="none" stroke-linecap="round" stroke-linejoin="round" stroke-miterlimit="4" stroke="#484848" stroke-width="2" stroke-opacity="1"><g><path d="M 10 22L 10 16C 10 12.6863 12.6863 10 16 10L 22 10M 154.71875 22L 154.71875 46M 10 46L 10 22M 22 10L 142.71875 10M 10 46L 10 52C 10 55.3137 12.6863 58 16 58L 22 58M 154.71875 22L 154.71875 16C 154.71875 12.6863 152.03245 10 148.71875 10L 142.71875 10M 142.71875 58L 22 58M 154.71875 46L 154.71875 52C 154.71875 55.3137 152.03245 58 148.71875 58L 142.71875 58"></path></g></g></g><g id="g-root-cp_1_g-1_3_dccmcq14l1nns-fill" data-item-order="-364357" transform="translate(612.453125, 92)"><g id="cp_1_g-1_3_dccmcq14l1nns-fill-merged" stroke="none" fill="#ffeceb" fill-opacity="1"><g><path d="M178.719 22 V202 H10 V22C10 15.396 15.396 10 22 10 H166.719C173.335 10 178.719 15.384 178.719 22"></path></g></g></g><g id="g-root-cp_1_g-1_3_dccmcq14l1nns-stroke" data-item-order="-364357" transform="translate(612.453125, 92)"><g id="cp_1_g-1_3_dccmcq14l1nns-stroke" fill="none" stroke-linecap="round" stroke-linejoin="round" stroke-miterlimit="4" stroke="#e55753" stroke-width="2" stroke-opacity="1"><g><path d="M 22 10C 15.373 10 10 15.373 10 22M 178.71875 202L 178.71875 22M 10 22L 10 202M 22 10L 166.71875 10M 178.71875 22C 178.71875 15.3826 173.33615 10 166.71875 10"></path></g></g></g><g id="g-root-cp_0_g-0_3_8wj48a14l1og1-fill" data-item-order="-364327" transform="translate(612.453125, 284)"><g id="cp_0_g-0_3_8wj48a14l1og1-fill-merged" stroke="none" fill="#f5f5f5" fill-opacity="1"><g><path d="M10 202 V10 H178.719 V202C178.719 208.627 173.346 214 166.719 214 H22C15.373 214 10 208.627 10 202"></path></g></g></g><g id="g-root-cp_0_g-0_3_8wj48a14l1og1-stroke" data-item-order="-364327" transform="translate(612.453125, 284)"><g id="cp_0_g-0_3_8wj48a14l1og1-stroke" fill="none" stroke-linecap="round" stroke-linejoin="round" stroke-miterlimit="4" stroke="#a3a3a3" stroke-width="2" stroke-opacity="1"><g><path d="M 10 202C 10 208.6274 15.3726 214 22 214M 166.71875 214L 22 214M 166.71875 214C 173.34615 214 178.71875 208.6274 178.71875 202M 178.71875 10L 178.71875 202M 10 202L 10 10M 178.71875 10L 10 10"></path></g></g></g><g id="g-root-cp_1-3_cell-1-3_w3ze14l1p8q-fill" data-item-order="-364306" transform="translate(624.453125, 296)"></g><g id="g-root-cp_1-3_cell-1-3_w3ze14l1p8q-stroke" data-item-order="-364306" transform="translate(624.453125, 296)"><g id="cp_1-3_cell-1-3_w3ze14l1p8q-stroke" fill="none" stroke-linecap="round" stroke-linejoin="round" stroke-miterlimit="4" stroke="#484848" stroke-width="2" stroke-opacity="1"><g><path d="M 10 22L 10 16C 10 12.6863 12.6863 10 16 10L 22 10M 154.71875 22L 154.71875 46M 10 46L 10 22M 22 10L 142.71875 10M 10 46L 10 52C 10 55.3137 12.6863 58 16 58L 22 58M 154.71875 22L 154.71875 16C 154.71875 12.6863 152.03245 10 148.71875 10L 142.71875 10M 142.71875 58L 22 58M 154.71875 46L 154.71875 52C 154.71875 55.3137 152.03245 58 148.71875 58L 142.71875 58"></path></g></g></g><g id="g-root-cp_2-3_cell-2-3_w3ze14l1p8r-fill" data-item-order="-364288" transform="translate(624.453125, 356)"></g><g id="g-root-cp_2-3_cell-2-3_w3ze14l1p8r-stroke" data-item-order="-364288" transform="translate(624.453125, 356)"><g id="cp_2-3_cell-2-3_w3ze14l1p8r-stroke" fill="none" stroke-linecap="round" stroke-linejoin="round" stroke-miterlimit="4" stroke="#484848" stroke-width="2" stroke-opacity="1"><g><path d="M 10 22L 10 16C 10 12.6863 12.6863 10 16 10L 22 10M 154.71875 22L 154.71875 58M 10 58L 10 22M 22 10L 142.71875 10M 10 58L 10 64C 10 67.3137 12.6863 70 16 70L 22 70M 154.71875 22L 154.71875 16C 154.71875 12.6863 152.03245 10 148.71875 10L 142.71875 10M 142.71875 70L 22 70M 154.71875 58L 154.71875 64C 154.71875 67.3137 152.03245 70 148.71875 70L 142.71875 70"></path></g></g></g><g id="g-root-cp_3-3_cell-3-3_1um6nu214l1ptw-fill" data-item-order="-364270" transform="translate(624.453125, 428)"></g><g id="g-root-cp_3-3_cell-3-3_1um6nu214l1ptw-stroke" data-item-order="-364270" transform="translate(624.453125, 428)"><g id="cp_3-3_cell-3-3_1um6nu214l1ptw-stroke" fill="none" stroke-linecap="round" stroke-linejoin="round" stroke-miterlimit="4" stroke="#484848" stroke-width="2" stroke-opacity="1"><g><path d="M 10 22L 10 16C 10 12.6863 12.6863 10 16 10L 22 10M 154.71875 22L 154.71875 46M 10 46L 10 22M 22 10L 142.71875 10M 10 46L 10 52C 10 55.3137 12.6863 58 16 58L 22 58M 154.71875 22L 154.71875 16C 154.71875 12.6863 152.03245 10 148.71875 10L 142.71875 10M 142.71875 58L 22 58M 154.71875 46L 154.71875 52C 154.71875 55.3137 152.03245 58 148.71875 58L 142.71875 58"></path></g></g></g><g id="g-root-tx_easier_1upb19m14l34el-fill" data-item-order="0" transform="translate(288.81640625, 311)"><g id="tx_easier_1upb19m14l34el-fill-merged" stroke="none" fill="#969696" fill-opacity="1"><g><text style="font: 15px Roboto, sans-serif; white-space: pre;" transform="translate(32.55859375, 19)" font-size="15px" font-family="Roboto, sans-serif"><tspan x="-20.56" y="8.5" dominant-baseline="ideographic">Easier</tspan></text></g></g></g><g id="g-root-tx_easier_1upb19m14l34el-stroke" data-item-order="0" transform="translate(288.81640625, 311)"></g><g id="g-root-tx_maliciou_92rv3e14l4hl5-fill" data-item-order="0" transform="translate(636.453125, 443)"><g id="tx_maliciou_92rv3e14l4hl5-fill-merged" stroke="none" fill="#969696" fill-opacity="1"><g><text style="font: 15px Roboto, sans-serif; white-space: pre;" transform="translate(70.359375, 19)" font-size="15px" font-family="Roboto, sans-serif"><tspan x="-58.36" y="8.5" dominant-baseline="ideographic">Malicious after t2</tspan></text></g></g></g><g id="g-root-tx_maliciou_92rv3e14l4hl5-stroke" data-item-order="0" transform="translate(636.453125, 443)"></g><g id="g-root-tx_integrat_1lr64oa14l1ngt-fill" data-item-order="0" transform="translate(91.0234375, 308)"><g id="tx_integrat_1lr64oa14l1ngt-fill-merged" stroke="none" fill="#969696" fill-opacity="1"><g><text style="font: 20px Roboto, sans-serif; white-space: pre;" transform="translate(109.9921875, 22)" font-size="20px" font-family="Roboto, sans-serif"><tspan x="-97.99" y="11.5" dominant-baseline="ideographic">Integration</tspan></text></g></g></g><g id="g-root-tx_integrat_1lr64oa14l1ngt-stroke" data-item-order="0" transform="translate(91.0234375, 308)"></g><g id="g-root-tx_inblocke_90a3u14l3401-fill" data-item-order="0" transform="translate(442.52734375, 176)"><g id="tx_inblocke_90a3u14l3401-fill-merged" stroke="none" fill="#de8431" fill-opacity="1"><g><text style="font: 20px Roboto, sans-serif; white-space: pre;" transform="translate(71.56640625, 58)" font-size="20px" font-family="Roboto, sans-serif"><tspan x="-37.54" y="-24.5" dominant-baseline="ideographic">In-block </tspan><tspan x="-59.57" y="-0.5" dominant-baseline="ideographic">Enforcement </tspan><tspan x="-42.43" y="23.5" dominant-baseline="ideographic">(Credible </tspan><tspan x="-30.07" y="47.5" dominant-baseline="ideographic">Layer)</tspan></text></g></g></g><g id="g-root-tx_inblocke_90a3u14l3401-stroke" data-item-order="0" transform="translate(442.52734375, 176)"></g><g id="g-root-tx_intuitio_dild7u14l4gsv-fill" data-item-order="0" transform="translate(667.51953125, 311)"><g id="tx_intuitio_dild7u14l4gsv-fill-merged" stroke="none" fill="#969696" fill-opacity="1"><g><text style="font: 15px Roboto, sans-serif; white-space: pre;" transform="translate(39.29296875, 19)" font-size="15px" font-family="Roboto, sans-serif"><tspan x="-27.29" y="8.5" dominant-baseline="ideographic">Intuition</tspan></text></g></g></g><g id="g-root-tx_intuitio_dild7u14l4gsv-stroke" data-item-order="0" transform="translate(667.51953125, 311)"></g><g id="g-root-tx_apirpcme_4jtzje14l33t0-fill" data-item-order="0" transform="translate(256.66796875, 176)"><g id="tx_apirpcme_4jtzje14l33t0-fill-merged" stroke="none" fill="#e0cb15" fill-opacity="1"><g><text style="font: 20px Roboto, sans-serif; white-space: pre;" transform="translate(64.70703125, 46)" font-size="20px" font-family="Roboto, sans-serif"><tspan x="-52.71" y="-12.5" dominant-baseline="ideographic">API / RPC / </tspan><tspan x="-44.74" y="11.5" dominant-baseline="ideographic">Mempool </tspan><tspan x="-46.65" y="35.5" dominant-baseline="ideographic">Screening</tspan></text></g></g></g><g id="g-root-tx_apirpcme_4jtzje14l33t0-stroke" data-item-order="0" transform="translate(256.66796875, 176)"></g><g id="g-root-tx_timingby_qtfei214l4idq-fill" data-item-order="0" transform="translate(629.25390625, 176)"><g id="tx_timingby_qtfei214l4idq-fill-merged" stroke="none" fill="#e55753" fill-opacity="1"><g><text style="font: 20px Roboto, sans-serif; white-space: pre;" transform="translate(77.55859375, 22)" font-size="20px" font-family="Roboto, sans-serif"><tspan x="-65.56" y="11.5" dominant-baseline="ideographic">Timing Bypass</tspan></text></g></g></g><g id="g-root-tx_timingby_qtfei214l4idq-stroke" data-item-order="0" transform="translate(629.25390625, 176)"></g><g id="g-root-ic_1_zs6s6i14l34lp-fill" data-item-order="0" transform="translate(672.8125, 116)"></g><g id="g-root-ic_1_zs6s6i14l34lp-stroke" data-item-order="0" transform="translate(672.8125, 116)"><g id="ic_1_zs6s6i14l34lp-stroke" fill="none" stroke-linecap="round" stroke-linejoin="round" stroke-miterlimit="4" stroke="#e55753" stroke-width="2" stroke-opacity="1"><g><path d="M 33.900002 37C 35.556801 37 36.900002 35.656799 36.900002 34C 36.900002 32.343201 35.556801 31 33.900002 31C 32.243 31 30.9 32.343201 30.9 34C 30.9 35.656799 32.243 37 33.900002 37ZM 27.500099 44C 24.3001 41.799999 22.1001 38.200001 22.1001 34C 22.1001 27.4 27.500099 22 34.099998 22C 37.5 22 40.5 23.4 42.5 25.6L 36.099998 31.799601M 45.900002 34C 45.900002 34.799999 45.900002 35.599998 45.700001 36.400002M 42.700001 42.1992C 40.5 44.599201 37.5 45.999199 33.900002 45.999199M 51 47C 51 49.200001 49.200001 51 47 51L 21 51C 18.799999 51 17 49.200001 17 47L 17 21C 17 18.799999 18.799999 17 21 17L 47 17C 49.200001 17 51 18.799999 51 21L 51 47ZM 11.5 20.5L 17 20.5M 11.5 29.5L 17 29.5M 11.5 38.5L 17 38.5M 51 29.5L 56.5 29.5M 51 38.5L 56.5 38.5M 11.5 47.5L 17 47.5M 56.5 20.5L 51 20.5M 56.5 47.5L 51 47.5M 47.399799 56.5L 47.399799 51M 38.466599 56.5L 38.466599 51M 29.533319 56.5L 29.533319 51M 38.466599 17L 38.466599 11.5M 29.533319 17L 29.533319 11.5M 20.6001 56.5L 20.6001 51M 47.399799 11.5L 47.399799 17M 20.6001 11.5L 20.6001 17"></path></g></g></g><g id="g-root-tx_stateval_1hbcmju14l1o92-fill" data-item-order="0" transform="translate(46.703125, 374)"><g id="tx_stateval_1hbcmju14l1o92-fill-merged" stroke="none" fill="#969696" fill-opacity="1"><g><text style="font: 20px Roboto, sans-serif; white-space: pre;" transform="translate(154.3125, 22)" font-size="20px" font-family="Roboto, sans-serif"><tspan x="-142.31" y="11.5" dominant-baseline="ideographic">State Validation</tspan></text></g></g></g><g id="g-root-tx_stateval_1hbcmju14l1o92-stroke" data-item-order="0" transform="translate(46.703125, 374)"></g><g id="g-root-tx_preblock_1hegzze14l32tq-fill" data-item-order="0" transform="translate(254.72265625, 368)"><g id="tx_preblock_1hegzze14l32tq-fill-merged" stroke="none" fill="#969696" fill-opacity="1"><g><text style="font: 15px Roboto, sans-serif; white-space: pre;" transform="translate(66.65234375, 28)" font-size="15px" font-family="Roboto, sans-serif"><tspan x="-54.65" y="-0.5" dominant-baseline="ideographic">Pre-block, exact </tspan><tspan x="-50.84" y="17.5" dominant-baseline="ideographic">state unknown</tspan></text></g></g></g><g id="g-root-tx_preblock_1hegzze14l32tq-stroke" data-item-order="0" transform="translate(254.72265625, 368)"></g><g id="g-root-tx_exactsta_18ntsfe14l33sz-fill" data-item-order="0" transform="translate(454.34765625, 368)"><g id="tx_exactsta_18ntsfe14l33sz-fill-merged" stroke="none" fill="#969696" fill-opacity="1"><g><text style="font: 15px Roboto, sans-serif; white-space: pre;" transform="translate(59.74609375, 28)" font-size="15px" font-family="Roboto, sans-serif"><tspan x="-47.75" y="-0.5" dominant-baseline="ideographic">Exact state of </tspan><tspan x="-34.22" y="17.5" dominant-baseline="ideographic">execution</tspan></text></g></g></g><g id="g-root-tx_exactsta_18ntsfe14l33sz-stroke" data-item-order="0" transform="translate(454.34765625, 368)"></g><g id="g-root-tx_maliciou_hyevca14l4gsg-fill" data-item-order="0" transform="translate(643.12109375, 368)"><g id="tx_maliciou_hyevca14l4gsg-fill-merged" stroke="none" fill="#969696" fill-opacity="1"><g><text style="font: 15px Roboto, sans-serif; white-space: pre;" transform="translate(63.69140625, 28)" font-size="15px" font-family="Roboto, sans-serif"><tspan x="-51.69" y="-0.5" dominant-baseline="ideographic">Malicious after </tspan><tspan x="-24.71" y="17.5" dominant-baseline="ideographic">honest</tspan></text></g></g></g><g id="g-root-tx_maliciou_hyevca14l4gsg-stroke" data-item-order="0" transform="translate(643.12109375, 368)"></g><g id="g-root-tx_bypassdi_18fpmay14l1p1r-fill" data-item-order="0" transform="translate(39.953125, 440)"><g id="tx_bypassdi_18fpmay14l1p1r-fill-merged" stroke="none" fill="#969696" fill-opacity="1"><g><text style="font: 20px Roboto, sans-serif; white-space: pre;" transform="translate(161.0625, 22)" font-size="20px" font-family="Roboto, sans-serif"><tspan x="-149.06" y="11.5" dominant-baseline="ideographic">Bypass Difficulty</tspan></text></g></g></g><g id="g-root-tx_bypassdi_18fpmay14l1p1r-stroke" data-item-order="0" transform="translate(39.953125, 440)"></g><g id="g-root-ic_chec_1cynhuy14l33m0-fill" data-item-order="0" transform="translate(480.09375, 116)"></g><g id="g-root-ic_chec_1cynhuy14l33m0-stroke" data-item-order="0" transform="translate(480.09375, 116)"><g id="ic_chec_1cynhuy14l33m0-stroke" fill="none" stroke-linecap="round" stroke-linejoin="round" stroke-miterlimit="4" stroke="#de8431" stroke-width="2" stroke-opacity="1"><g><path d="M 45.900002 24.400139L 21.900021 24.400139L 21.900021 56.4002L 45.900002 56.4002L 45.900002 24.400139ZM 49.900002 35.5998L 56.299999 35.5998M 49.900002 43.5998L 56.299999 43.5998M 49.900002 51.5998L 54.299999 51.5998C 55.5 51.5998 56.299999 50.799801 56.299999 49.5998L 56.299999 29.599859C 56.299999 28.39986 55.5 27.599859 54.299999 27.599859L 49.900002 27.599859M 22.900021 34.999802L 45.900002 34.999802M 22.900021 45.999802L 45.900002 45.999802M 17.899981 35.5998L 11.5 35.5998M 17.899981 43.5998L 11.5 43.5998M 17.9 51.5998L 13.5 51.5998C 12.3 51.5998 11.5 50.799801 11.5 49.5998L 11.5 29.599859C 11.5 28.39986 12.3 27.599859 13.5 27.599859L 17.9 27.599859M 10 10M 30.9 13.59986L 33.900002 16.399839L 38.900002 11.599854"></path></g></g></g><g id="g-root-tx_canbebyp_1cynhuy14l33lz-fill" data-item-order="0" transform="translate(252.40234375, 443)"><g id="tx_canbebyp_1cynhuy14l33lz-fill-merged" stroke="none" fill="#969696" fill-opacity="1"><g><text style="font: 15px Roboto, sans-serif; white-space: pre;" transform="translate(68.97265625, 19)" font-size="15px" font-family="Roboto, sans-serif"><tspan x="-56.97" y="8.5" dominant-baseline="ideographic">Can be bypassed</tspan></text></g></g></g><g id="g-root-tx_canbebyp_1cynhuy14l33lz-stroke" data-item-order="0" transform="translate(252.40234375, 443)"></g><g id="g-root-ic_1_zkp35614l1ngh-fill" data-item-order="0" transform="translate(287.375, 116)"></g><g id="g-root-ic_1_zkp35614l1ngh-stroke" data-item-order="0" transform="translate(287.375, 116)"><g id="ic_1_zkp35614l1ngh-stroke" fill="none" stroke-linecap="round" stroke-linejoin="round" stroke-miterlimit="4" stroke="#e0cb15" stroke-width="2" stroke-opacity="1"><g><path d="M 34.400002 24.10014C 38.818398 24.10014 42.400002 22.667461 42.400002 20.90016C 42.400002 19.132839 38.818398 17.70014 34.400002 17.70014C 29.981741 17.70014 26.400021 19.132839 26.400021 20.90016C 26.400021 22.667461 29.981741 24.10014 34.400002 24.10014ZM 26.400021 20.89986L 26.400021 33.699799C 26.400021 35.499802 30 36.899799 34.400002 36.899799C 38.799999 36.899799 42.400002 35.499802 42.400002 33.699799L 42.400002 20.89986M 56.5 11.499954L 51.400002 11.499954L 51.400002 44.5L 56.5 44.5M 56.5 33.5L 51.400002 33.5M 51.400002 22.49996L 56.5 22.49996M 11.5 44.5L 16.400021 44.5L 16.400021 11.499954L 11.5 11.499954M 11.5 32.5L 16.400021 32.5M 16.400021 21.49996L 11.5 21.49996M 11.5 56.5C 14.48672 56.5 17.473461 56.5 20.46018 53.5C 23.44692 56.5 26.43364 56.5 27.230101 56.5C 28.02656 56.5 31.013201 56.5 34 53.5C 36.986801 56.5 39.9734 56.5 40.77 56.5C 41.566399 56.5 44.553001 56.5 47.539799 53.5C 50.5266 56.5 53.513199 56.5 56.5 56.5M 16.400021 27.30024L 20.400021 27.30024M 47.599998 27.30024L 51.400002 27.30024M 26.3999 27.138081C 26.3999 28.829519 29.859381 30.2134 34.400002 30.2134C 38.940399 30.2134 42.400002 28.829519 42.400002 27.138081"></path></g></g></g><g id="g-root-tx_harderto_18ntsfe14l33t0-fill" data-item-order="0" transform="translate(445.3125, 443)"><g id="tx_harderto_18ntsfe14l33t0-fill-merged" stroke="none" fill="#969696" fill-opacity="1"><g><text style="font: 15px Roboto, sans-serif; white-space: pre;" transform="translate(68.78125, 19)" font-size="15px" font-family="Roboto, sans-serif"><tspan x="-56.78" y="8.5" dominant-baseline="ideographic">Harder to bypass</tspan></text></g></g></g><g id="g-root-tx_harderto_18ntsfe14l33t0-stroke" data-item-order="0" transform="translate(445.3125, 443)"></g><g id="g-root-tx_comparis_13zw46i14l1pu0-fill" data-item-order="0" transform="translate(221.2578125, 38)"><g id="tx_comparis_13zw46i14l1pu0-fill-merged" stroke="none" fill="#484848" fill-opacity="1"><g><text style="font: bold 25px Roboto, sans-serif; white-space: pre;" transform="translate(184.8359375, 25)" font-weight="bold" font-size="25px" font-family="Roboto, sans-serif"><tspan x="-172.84" y="14.5" dominant-baseline="ideographic">Comparison of Design Schools</tspan></text></g></g></g><g id="g-root-tx_comparis_13zw46i14l1pu0-stroke" data-item-order="0" transform="translate(221.2578125, 38)"></g><g id="g-root-tx_heavier_1lzaasq14l3282-fill" data-item-order="0" transform="translate(476.765625, 311)"><g id="tx_heavier_1lzaasq14l3282-fill-merged" stroke="none" fill="#969696" fill-opacity="1"><g><text style="font: 15px Roboto, sans-serif; white-space: pre;" transform="translate(37.328125, 19)" font-size="15px" font-family="Roboto, sans-serif"><tspan x="-25.33" y="8.5" dominant-baseline="ideographic">Heavier</tspan></text></g></g></g><g id="g-root-tx_heavier_1lzaasq14l3282-stroke" data-item-order="0" transform="translate(476.765625, 311)"></g></g></g></svg>