<?xml version="1.0" encoding="utf-8" standalone="yes"?>
<!DOCTYPE svg PUBLIC "-//W3C//DTD SVG 1.1//EN" "http://www.w3.org/Graphics/SVG/1.1/DTD/svg11.dtd">
<svg style="fill:none;stroke:none;fill-rule:evenodd;clip-rule:evenodd;stroke-linecap:round;stroke-linejoin:round;stroke-miterlimit:1.5;" version="1.1" xmlns="http://www.w3.org/2000/svg" xmlns:xlink="http://www.w3.org/1999/xlink" width="900" height="606" viewBox="0 0 900 606"><style class="text-font-style fontImports" data-font-family="Roboto">@import url(https://fonts.googleapis.com/css2?family=Roboto:wght@400;700&amp;amp;display=block);</style><g id="items" style="isolation: isolate"><g id="blend" style="mix-blend-mode: normal"><g id="g-root-cp_-1_Common_1luwjjd140vi8f-fill" data-item-order="-434510" transform="translate(38, 116)"><g id="cp_-1_Common_1luwjjd140vi8f-fill-merged" stroke="none" fill="#f5f5f5" fill-opacity="1"><g><path d="M34 382 V370 H382 V382 H394 V394 H406 V418 H10 V394 H22 V382 H34 M382 106 V118 H34 V106 H22 V94 H10 V82L208 10L406 82 V94 H394 V106 H382"></path></g></g></g><g id="g-root-cp_-1_Common_1luwjjd140vi8f-stroke" data-item-order="-434510" transform="translate(38, 116)"><g id="cp_-1_Common_1luwjjd140vi8f-stroke" fill="none" stroke-linecap="round" stroke-linejoin="round" stroke-miterlimit="4" stroke="#969696" stroke-width="2" stroke-opacity="1"><g><path d="M 10 394L 22 394L 394 394L 406 394L 406 418L 10 418L 10 394ZM 34 370L 382 370L 382 382L 34 382L 34 370ZM 208 10L 406 82L 406 94L 394 94L 22 94L 10 94L 10 82L 208 10ZM 34 118L 382 118L 382 106L 34 106L 34 118ZM 22 94L 22 106L 34 106L 382 106L 394 106L 394 94L 22 94ZM 382 382L 34 382L 22 382L 22 394L 394 394L 394 382L 382 382Z"></path></g></g></g><g id="g-root-cp_4_g-4_1hfpii1140vfuw-fill" data-item-order="-434506" transform="translate(326, 224)"><g id="cp_4_g-4_1hfpii1140vfuw-fill-merged" stroke="none" fill="#f3f0ff" fill-opacity="1"><g><path d="M82 250 V262 H10 V250 H16 V238 H22 V34 H16 V22 H10 V10 H82 V22 H76 V34 H70 V238 H76 V250 H82"></path></g></g></g><g id="g-root-cp_4_g-4_1hfpii1140vfuw-stroke" data-item-order="-434506" transform="translate(326, 224)"><g id="cp_4_g-4_1hfpii1140vfuw-stroke" fill="none" stroke-linecap="round" stroke-linejoin="round" stroke-miterlimit="4" stroke="#7f64ea" stroke-width="2" stroke-opacity="1"><g><path d="M 22 34L 70 34L 70 238L 22 238L 22 34ZM 16 22L 76 22L 82 22L 82 10L 10 10L 10 22L 16 22ZM 76 250L 16 250L 10 250L 10 262L 82 262L 82 250L 76 250ZM 76 250L 76 238L 70 238L 22 238L 16 238L 16 250L 76 250ZM 76 22L 16 22L 16 34L 22 34L 70 34L 76 34L 76 22Z"></path></g></g></g><g id="g-root-cp_4_g-4_1_1hfpii1140vfux-fill" data-item-order="-434502" transform="translate(326, 224)"><g id="cp_4_g-4_1_1hfpii1140vfux-fill-merged" stroke="none" fill="#f3f0ff" fill-opacity="1"><g><path d="M82 250 V262 H10 V250 H16 V238 H22 V34 H16 V22 H10 V10 H82 V22 H76 V34 H70 V238 H76 V250 H82"></path></g></g></g><g id="g-root-cp_4_g-4_1_1hfpii1140vfux-stroke" data-item-order="-434502" transform="translate(326, 224)"><g id="cp_4_g-4_1_1hfpii1140vfux-stroke" fill="none" stroke-linecap="round" stroke-linejoin="round" stroke-miterlimit="4" stroke="#7f64ea" stroke-width="2" stroke-opacity="1"><g><path d="M 22 34L 70 34L 70 238L 22 238L 22 34ZM 16 22L 76 22L 82 22L 82 10L 10 10L 10 22L 16 22ZM 76 250L 16 250L 10 250L 10 262L 82 262L 82 250L 76 250ZM 76 250L 76 238L 70 238L 22 238L 16 238L 16 250L 76 250ZM 76 22L 16 22L 16 34L 22 34L 70 34L 76 34L 76 22Z"></path></g></g></g><g id="g-root-cp_3_g-3_1hfpii1140vfuy-fill" data-item-order="-434498" transform="translate(242, 224)"><g id="cp_3_g-3_1hfpii1140vfuy-fill-merged" stroke="none" fill="#e8f9ff" fill-opacity="1"><g><path d="M82 250 V262 H10 V250 H16 V238 H22 V34 H16 V22 H10 V10 H82 V22 H76 V34 H70 V238 H76 V250 H82"></path></g></g></g><g id="g-root-cp_3_g-3_1hfpii1140vfuy-stroke" data-item-order="-434498" transform="translate(242, 224)"><g id="cp_3_g-3_1hfpii1140vfuy-stroke" fill="none" stroke-linecap="round" stroke-linejoin="round" stroke-miterlimit="4" stroke="#1eabda" stroke-width="2" stroke-opacity="1"><g><path d="M 22 34L 70 34L 70 238L 22 238L 22 34ZM 16 22L 76 22L 82 22L 82 10L 10 10L 10 22L 16 22ZM 76 250L 16 250L 10 250L 10 262L 82 262L 82 250L 76 250ZM 76 250L 76 238L 70 238L 22 238L 16 238L 16 250L 76 250ZM 76 22L 16 22L 16 34L 22 34L 70 34L 76 34L 76 22Z"></path></g></g></g><g id="g-root-cp_2_g-2_1czw0dl140vgn7-fill" data-item-order="-434494" transform="translate(158, 224)"><g id="cp_2_g-2_1czw0dl140vgn7-fill-merged" stroke="none" fill="#f4ffdc" fill-opacity="1"><g><path d="M82 250 V262 H10 V250 H16 V238 H22 V34 H16 V22 H10 V10 H82 V22 H76 V34 H70 V238 H76 V250 H82"></path></g></g></g><g id="g-root-cp_2_g-2_1czw0dl140vgn7-stroke" data-item-order="-434494" transform="translate(158, 224)"><g id="cp_2_g-2_1czw0dl140vgn7-stroke" fill="none" stroke-linecap="round" stroke-linejoin="round" stroke-miterlimit="4" stroke="#92bd39" stroke-width="2" stroke-opacity="1"><g><path d="M 22 34L 70 34L 70 238L 22 238L 22 34ZM 16 22L 76 22L 82 22L 82 10L 10 10L 10 22L 16 22ZM 76 250L 16 250L 10 250L 10 262L 82 262L 82 250L 76 250ZM 76 250L 76 238L 70 238L 22 238L 16 238L 16 250L 76 250ZM 76 22L 16 22L 16 34L 22 34L 70 34L 76 34L 76 22Z"></path></g></g></g><g id="g-root-cp_1_g-1_1czw0dl140vgn8-fill" data-item-order="-434490" transform="translate(74, 224)"><g id="cp_1_g-1_1czw0dl140vgn8-fill-merged" stroke="none" fill="#e3fff2" fill-opacity="1"><g><path d="M82 250 V262 H10 V250 H16 V238 H22 V34 H16 V22 H10 V10 H82 V22 H76 V34 H70 V238 H76 V250 H82"></path></g></g></g><g id="g-root-cp_1_g-1_1czw0dl140vgn8-stroke" data-item-order="-434490" transform="translate(74, 224)"><g id="cp_1_g-1_1czw0dl140vgn8-stroke" fill="none" stroke-linecap="round" stroke-linejoin="round" stroke-miterlimit="4" stroke="#3cc583" stroke-width="2" stroke-opacity="1"><g><path d="M 22 34L 70 34L 70 238L 22 238L 22 34ZM 16 22L 76 22L 82 22L 82 10L 10 10L 10 22L 16 22ZM 76 250L 16 250L 10 250L 10 262L 82 262L 82 250L 76 250ZM 76 250L 76 238L 70 238L 22 238L 16 238L 16 250L 76 250ZM 76 22L 16 22L 16 34L 22 34L 70 34L 76 34L 76 22Z"></path></g></g></g><g id="g-root-tx_designpr_144904p140vhfx-fill" data-item-order="0" transform="translate(196.18359375, 38)"><g id="tx_designpr_144904p140vhfx-fill-merged" stroke="none" fill="#484848" fill-opacity="1"><g><text style="font: bold 25px Roboto, sans-serif; white-space: pre;" transform="translate(253.81640625, 25)" font-weight="bold" font-size="25px" font-family="Roboto, sans-serif"><tspan x="-241.82" y="14.5" dominant-baseline="ideographic">Design Principles for Emergency Response</tspan></text></g></g></g><g id="g-root-tx_designpr_144904p140vhfx-stroke" data-item-order="0" transform="translate(196.18359375, 38)"></g><g id="g-root-ic_bust_mdlgq1140vgnc-fill" data-item-order="0" transform="translate(470, 140)"></g><g id="g-root-ic_bust_mdlgq1140vgnc-stroke" data-item-order="0" transform="translate(470, 140)"><g id="ic_bust_mdlgq1140vgnc-stroke" fill="none" stroke-linecap="round" stroke-linejoin="round" stroke-miterlimit="4" stroke="#3cc583" stroke-width="2" stroke-opacity="1"><g><path d="M 49.526001 49.740002L 56.844002 57.057999M 33.295998 43.085999C 33.295998 48.320553 37.539444 52.563999 42.773998 52.563999C 48.008553 52.563999 52.251999 48.320553 52.251999 43.085999C 52.251999 37.851444 48.008553 33.608002 42.773998 33.608002C 37.539444 33.608002 33.295998 37.851444 33.295998 43.085999M 11.584 54.194L 12.654 54.194M 17.119999 54.194L 18.189999 54.194M 24.612 54.194L 25.684 54.194M 40.669998 46.700001L 41.739998 45.630001M 42.810001 40.278L 42.810001 38.672001M 32.167999 29.837999L 33.237999 30.908001M 31.035999 54.194L 32.106003 54.194M 21.327696 22.727135L 22.973843 21.080988C 23.954964 20.1061 25.539854 20.108631 26.517862 21.086647L 28.113092 22.681881C 29.545677 24.114456 29.548206 26.436346 28.11875 27.872042L 28.11875 27.872042C 26.683964 29.306828 24.357716 29.306829 22.92293 27.872042L 21.327696 26.27681C 20.347481 25.296593 20.347481 23.70735 21.327696 22.727135ZM 16.527557 17.468136L 17.714081 16.28161C 17.714081 16.28161 19.719437 14.276257 21.724794 16.28161L 22.744442 17.301258C 22.744442 17.301258 24.749796 19.306612 22.744442 21.311968L 21.557915 22.498493C 21.557915 22.498493 19.552559 24.503849 17.547207 22.498493L 16.527557 21.478846C 16.527557 21.478846 14.522202 19.47349 16.527557 17.468136M 11.164 15.948C 10.964 17.468 14.04 20.397999 15.896 18.222M 16.162001 10.95C 17.68 10.75 20.610001 13.828 18.434 15.682M 22.66 17.216L 24.493999 13.426001M 26.524 21.08L 28.864 17.386M 17.462 22.411999L 13.674 24.248001M 21.327999 26.278L 17.632 28.618"></path></g></g></g><g id="g-root-tx_precisio_zofi09140vi86-fill" data-item-order="0" transform="translate(530, 140)"><g id="tx_precisio_zofi09140vi86-fill-merged" stroke="none" fill="#3cc583" fill-opacity="1"><g><text style="font: 20px Roboto, sans-serif; white-space: pre;" transform="translate(10, 22)" font-size="20px" font-family="Roboto, sans-serif"><tspan x="2" y="11.5" dominant-baseline="ideographic">Precision</tspan></text></g></g></g><g id="g-root-tx_precisio_zofi09140vi86-stroke" data-item-order="0" transform="translate(530, 140)"></g><g id="g-root-tx_emphasiz_qteyuh140vfv3-fill" data-item-order="0" transform="translate(530, 176)"><g id="tx_emphasiz_qteyuh140vfv3-fill-merged" stroke="none" fill="#484848" fill-opacity="1"><g><text style="font: 15px Roboto, sans-serif; white-space: pre;" transform="translate(10, 28)" font-size="15px" font-family="Roboto, sans-serif"><tspan x="2" y="-0.5" dominant-baseline="ideographic">Emphasizes the importance of specific </tspan><tspan x="2" y="17.5" dominant-baseline="ideographic">and detailed design choices.</tspan></text></g></g></g><g id="g-root-tx_emphasiz_qteyuh140vfv3-stroke" data-item-order="0" transform="translate(530, 176)"></g><g id="g-root-ic_3_1cw55ux140ya6k-fill" data-item-order="0" transform="translate(470, 236)"></g><g id="g-root-ic_3_1cw55ux140ya6k-stroke" data-item-order="0" transform="translate(470, 236)"><g id="ic_3_1cw55ux140ya6k-stroke" fill="none" stroke-linecap="round" stroke-linejoin="round" stroke-miterlimit="4" stroke="#92bd39" stroke-width="2" stroke-opacity="1"><g><path d="M 23.873039 44.5C 28.291321 44.5 31.872999 40.918198 31.872999 36.5C 31.872999 32.081802 28.291321 28.5 23.873039 28.5C 19.45476 28.5 15.87304 32.081802 15.87304 36.5C 15.87304 40.918198 19.45476 44.5 23.873039 44.5ZM 11.5 56.5C 13.187099 51.277401 18.0889 47.5 23.87298 47.5C 29.657061 47.5 34.5588 51.277401 36.246002 56.5M 56.5 35.395599L 51.5 35.395599C 48.5 35.395599 45.700001 33.395599 44.900002 30.395599C 44.099998 27.395599 41.299999 25.395599 38.299999 25.395599L 34.900002 25.395599C 33.299999 25.395599 31.9 23.9956 31.9 22.395599C 31.9 20.795601 33.299999 19.395599 34.900002 19.395599L 44.900002 19.395599C 45.5 19.395599 46.099998 18.9956 46.5 18.395599C 46.700001 17.795601 46.699799 16.995621 46.0998 16.595619C 44.899799 15.39562 44.899799 13.5956 46.0998 12.3956C 47.299801 11.195606 49.099998 11.195606 50.299999 12.3956L 56.5 18.595619"></path></g></g></g><g id="g-root-tx_delegati_1q7lo89140y8lm-fill" data-item-order="0" transform="translate(530, 236)"><g id="tx_delegati_1q7lo89140y8lm-fill-merged" stroke="none" fill="#92bd39" fill-opacity="1"><g><text style="font: 20px Roboto, sans-serif; white-space: pre;" transform="translate(10, 22)" font-size="20px" font-family="Roboto, sans-serif"><tspan x="2" y="11.5" dominant-baseline="ideographic">Delegation</tspan></text></g></g></g><g id="g-root-tx_delegati_1q7lo89140y8lm-stroke" data-item-order="0" transform="translate(530, 236)"></g><g id="g-root-tx_highligh_1lrs63t140y9dv-fill" data-item-order="0" transform="translate(530, 272)"><g id="tx_highligh_1lrs63t140y9dv-fill-merged" stroke="none" fill="#484848" fill-opacity="1"><g><text style="font: 15px Roboto, sans-serif; white-space: pre;" transform="translate(10, 28)" font-size="15px" font-family="Roboto, sans-serif"><tspan x="2" y="-0.5" dominant-baseline="ideographic">Highlights the strategic use of </tspan><tspan x="2" y="17.5" dominant-baseline="ideographic">delegation with clear boundaries.</tspan></text></g></g></g><g id="g-root-tx_highligh_1lrs63t140y9dv-stroke" data-item-order="0" transform="translate(530, 272)"></g><g id="g-root-ic_hamm_m9um7d140ya6n-fill" data-item-order="0" transform="translate(470, 332)"></g><g id="g-root-ic_hamm_m9um7d140ya6n-stroke" data-item-order="0" transform="translate(470, 332)"><g id="ic_hamm_m9um7d140ya6n-stroke" fill="none" stroke-linecap="round" stroke-linejoin="round" stroke-miterlimit="4" stroke="#1eabda" stroke-width="2" stroke-opacity="1"><g><path d="M 31 55.799999C 31 56.352283 30.552284 56.799999 30 56.799999L 12 56.799999C 11.447716 56.799999 11 56.352283 11 55.799999L 11 52.799999C 11 51.695431 11.895431 50.799999 13 50.799999L 29 50.799999C 30.10457 50.799999 31 51.695431 31 52.799999ZM 29 50.799999L 13 50.799999L 13 48.799999C 13 47.695431 13.895431 46.799999 15 46.799999L 27 46.799999C 28.10457 46.799999 29 47.695431 29 48.799999ZM 24.000582 26.799421L 35.000336 15.79967L 42.00069 22.800026L 31.000938 33.799778ZM 24 26.799999L 23 25.799999C 21.116001 23.92 18.110001 26.91 20 28.799999L 29 37.799999C 30.886 39.686001 33.891998 36.692001 32 34.799999L 31 33.799999M 42 22.799999L 43 23.799999C 44.886002 25.686001 47.891998 22.692001 46 20.799999L 37 11.8C 35.115997 9.92 32.110001 12.91 34 14.8L 35 15.8M 36.5 28.298L 57 48.798"></path></g></g></g><g id="g-root-tx_governan_18gbnqh140yayt-fill" data-item-order="0" transform="translate(530, 332)"><g id="tx_governan_18gbnqh140yayt-fill-merged" stroke="none" fill="#1eabda" fill-opacity="1"><g><text style="font: 20px Roboto, sans-serif; white-space: pre;" transform="translate(10, 22)" font-size="20px" font-family="Roboto, sans-serif"><tspan x="2" y="11.5" dominant-baseline="ideographic">Governance</tspan></text></g></g></g><g id="g-root-tx_governan_18gbnqh140yayt-stroke" data-item-order="0" transform="translate(530, 332)"></g><g id="g-root-tx_stresses_zlb4kp140y8lq-fill" data-item-order="0" transform="translate(530, 368)"><g id="tx_stresses_zlb4kp140y8lq-fill-merged" stroke="none" fill="#484848" fill-opacity="1"><g><text style="font: 15px Roboto, sans-serif; white-space: pre;" transform="translate(10, 28)" font-size="15px" font-family="Roboto, sans-serif"><tspan x="2" y="-0.5" dominant-baseline="ideographic">Stresses the role of strong governance </tspan><tspan x="2" y="17.5" dominant-baseline="ideographic">in managing emergencies.</tspan></text></g></g></g><g id="g-root-tx_stresses_zlb4kp140y8lq-stroke" data-item-order="0" transform="translate(530, 368)"></g><g id="g-root-ic_key_4pftnt140yayq-fill" data-item-order="0" transform="translate(470, 428)"></g><g id="g-root-ic_key_4pftnt140yayq-stroke" data-item-order="0" transform="translate(470, 428)"><g id="ic_key_4pftnt140yayq-stroke" fill="none" stroke-linecap="round" stroke-linejoin="round" stroke-miterlimit="4" stroke="#7f64ea" stroke-width="2" stroke-opacity="1"><g><path d="M 10 10M 34.107399 31.171801L 50.618599 14.66258L 56.043201 20.087059M 16.988577 48.303425C 21.682343 52.999481 29.294586 53.000412 33.989498 48.3055C 38.68441 43.610588 38.683479 35.998344 33.987423 31.304577C 29.293657 26.608519 21.681416 26.60759 16.986502 31.302502C 12.29159 35.997414 12.292519 43.609657 16.988577 48.303425M 10 10M 43.572201 21.710941L 48.997601 27.13624M 25.488281 34L 25.488281 40.026398L 30.3722 42.521599"></path></g></g></g><g id="g-root-tx_override_i0wc15140y9ds-fill" data-item-order="0" transform="translate(530, 428)"><g id="tx_override_i0wc15140y9ds-fill-merged" stroke="none" fill="#7f64ea" fill-opacity="1"><g><text style="font: 20px Roboto, sans-serif; white-space: pre;" transform="translate(10, 22)" font-size="20px" font-family="Roboto, sans-serif"><tspan x="2" y="11.5" dominant-baseline="ideographic">Overrides</tspan></text></g></g></g><g id="g-root-tx_override_i0wc15140y9ds-stroke" data-item-order="0" transform="translate(530, 428)"></g><g id="g-root-tx_outlines_959bs9140ya6h-fill" data-item-order="0" transform="translate(530, 464)"><g id="tx_outlines_959bs9140ya6h-fill-merged" stroke="none" fill="#484848" fill-opacity="1"><g><text style="font: 15px Roboto, sans-serif; white-space: pre;" transform="translate(10, 28)" font-size="15px" font-family="Roboto, sans-serif"><tspan x="2" y="-0.5" dominant-baseline="ideographic">Outlines the need for controlled and </tspan><tspan x="2" y="17.5" dominant-baseline="ideographic">auditable emergency overrides.</tspan></text></g></g></g><g id="g-root-tx_outlines_959bs9140ya6h-stroke" data-item-order="0" transform="translate(530, 464)"></g></g></g></svg>