<?xml version="1.0" encoding="utf-8" standalone="yes"?>
<!DOCTYPE svg PUBLIC "-//W3C//DTD SVG 1.1//EN" "http://www.w3.org/Graphics/SVG/1.1/DTD/svg11.dtd">
<svg style="fill:none;stroke:none;fill-rule:evenodd;clip-rule:evenodd;stroke-linecap:round;stroke-linejoin:round;stroke-miterlimit:1.5;" version="1.1" xmlns="http://www.w3.org/2000/svg" xmlns:xlink="http://www.w3.org/1999/xlink" width="792" height="534" viewBox="0 0 792 534"><style class="text-font-style fontImports" data-font-family="Roboto">@import url(https://fonts.googleapis.com/css2?family=Roboto:wght@400;700&amp;amp;display=block);</style><g id="items" style="isolation: isolate"><g id="blend" style="mix-blend-mode: normal"><g id="g-root-cp_3_g-3_1uto0ca15euv49-fill" data-item-order="-325862" transform="translate(268.79998779296875, 330.171875)"><g id="cp_3_g-3_1uto0ca15euv49-fill-merged" stroke="none" fill="#f4ffdc" fill-opacity="1"><g><path d="M205.567 39.491C183.151 30.214 157.746 39.161 145.829 59.506C144.709 61.396 143.719 63.385 142.86 65.465C142.17 67.134 141.58 68.824 141.09 70.524C134.371 93.698 146.019 118.712 168.834 128.159C193.319 138.307 221.393 126.68 231.531 102.196C241.679 77.702 230.052 49.639 205.567 39.491"></path></g></g></g><g id="g-root-cp_3_g-3_1uto0ca15euv49-stroke" data-item-order="-325862" transform="translate(268.79998779296875, 330.171875)"><g id="cp_3_g-3_1uto0ca15euv49-stroke" fill="none" stroke-linecap="round" stroke-linejoin="round" stroke-miterlimit="4" stroke="#92bd39" stroke-width="2" stroke-opacity="1"><g><path d="M 205.566651 39.491237C 183.151251 30.213537 157.746451 39.161337 145.828851 59.506237C 144.709151 61.395837 143.719351 63.385337 142.859551 65.464737C 142.169651 67.134337 141.579751 68.823937 141.089851 70.523537C 134.371251 93.697737 146.018851 118.711537 168.834151 128.159137C 193.319151 138.306637 221.393351 126.679537 231.531351 102.195637C 241.679251 77.701737 230.051551 49.638737 205.566651 39.491237ZM 142.88 65.37L 10 10"></path></g></g></g><g id="g-root-cp_2_g-2_1uto0ca15euv44-fill" data-item-order="-325856" transform="translate(278, 236.001953125)"><g id="cp_2_g-2_1uto0ca15euv44-fill-merged" stroke="none" fill="#e3fff2" fill-opacity="1"><g><path d="M202 106C228.51 106 250 84.51 250 58C250 31.49 228.51 10 202 10C175.49 10 154 31.49 154 58C154 84.51 175.49 106 202 106"></path></g></g></g><g id="g-root-cp_2_g-2_1uto0ca15euv44-stroke" data-item-order="-325856" transform="translate(278, 236.001953125)"><g id="cp_2_g-2_1uto0ca15euv44-stroke" fill="none" stroke-linecap="round" stroke-linejoin="round" stroke-miterlimit="4" stroke="#3cc583" stroke-width="2" stroke-opacity="1"><g><path d="M 202 106C 228.5097 106 250 84.5097 250 58C 250 31.4903 228.5097 10 202 10C 175.4903 10 154 31.4903 154 58C 154 84.5097 175.4903 106 202 106ZM 154 58L 10 58"></path></g></g></g><g id="g-root-cp_1_g-1_1uto0ca15euv40-fill" data-item-order="-325850" transform="translate(268.7999572753906, 116)"><g id="cp_1_g-1_1uto0ca15euv40-fill-merged" stroke="none" fill="#e8f9ff" fill-opacity="1"><g><path d="M205.567 102.337C183.151 111.615 157.746 102.667 145.829 82.322C144.709 80.433 143.719 78.443 142.86 76.364C142.17 74.694 141.58 73.005 141.09 71.305C134.371 48.131 146.019 23.117 168.834 13.669C193.319 3.522 221.393 15.149 231.531 39.633C241.679 64.127 230.052 92.19 205.567 102.337"></path></g></g></g><g id="g-root-cp_1_g-1_1uto0ca15euv40-stroke" data-item-order="-325850" transform="translate(268.7999572753906, 116)"><g id="cp_1_g-1_1uto0ca15euv40-stroke" fill="none" stroke-linecap="round" stroke-linejoin="round" stroke-miterlimit="4" stroke="#1eabda" stroke-width="2" stroke-opacity="1"><g><path d="M 205.566682 102.337376C 183.151282 111.615076 157.746482 102.667276 145.828882 82.322376C 144.709182 80.432776 143.719382 78.443276 142.859582 76.363876C 142.169682 74.694276 141.579782 73.004676 141.089882 71.305076C 134.371282 48.130876 146.018882 23.117076 168.834182 13.669476C 193.319182 3.521976 221.393382 15.149076 231.531382 39.632976C 241.679282 64.126876 230.051682 92.189876 205.566682 102.337376ZM 142.880031 76.483398L 10.000031 131.843398"></path></g></g></g><g id="g-root-cp_0_g-0_1uto0ca15euv42-fill" data-item-order="-325844" transform="translate(38, 164.001953125)"><g id="cp_0_g-0_1uto0ca15euv42-fill-merged" stroke="none" fill="#f5f5f5" fill-opacity="1"><g><path d="M250 130C250 132.01 249.95 134.01 249.85 136C249.26 147.99 246.91 159.52 243.05 170.33C241.7 174.12 240.17 177.82 238.46 181.42C233.4 192.07 226.81 201.86 218.98 210.5C216.3 213.47 213.47 216.3 210.5 218.98C189.22 238.26 160.98 250 130 250C63.73 250 10 196.27 10 130C10 63.73 63.73 10 130 10C160.98 10 189.22 21.74 210.5 41.02C213.47 43.7 216.3 46.53 218.98 49.5C226.81 58.14 233.4 67.93 238.46 78.58C240.17 82.18 241.7 85.88 243.05 89.67C246.91 100.48 249.26 112.01 249.85 124C249.95 125.99 250 127.99 250 130"></path></g></g></g><g id="g-root-cp_0_g-0_1uto0ca15euv42-stroke" data-item-order="-325844" transform="translate(38, 164.001953125)"><g id="cp_0_g-0_1uto0ca15euv42-stroke" fill="none" stroke-linecap="round" stroke-linejoin="round" stroke-miterlimit="4" stroke="#a3a3a3" stroke-width="2" stroke-opacity="1"><g><path d="M 250 130C 250 132.01 249.95 134.01 249.85 136C 249.26 147.99 246.91 159.52 243.05 170.33C 241.7 174.12 240.17 177.82 238.46 181.42C 233.4 192.07 226.81 201.86 218.98 210.5C 216.3 213.47 213.47 216.3 210.5 218.98C 189.22 238.26 160.98 250 130 250C 63.73 250 10 196.27 10 130C 10 63.73 63.73 10 130 10C 160.98 10 189.22 21.74 210.5 41.02C 213.47 43.7 216.3 46.53 218.98 49.5C 226.81 58.14 233.4 67.93 238.46 78.58C 240.17 82.18 241.7 85.88 243.05 89.67C 246.91 100.48 249.26 112.01 249.85 124C 249.95 125.99 250 127.99 250 130Z"></path></g></g></g><g id="g-root-tx_unveilin_1qdui7u15euv4f-fill" data-item-order="0" transform="translate(98.1171875, 38)"><g id="tx_unveilin_1qdui7u15euv4f-fill-merged" stroke="none" fill="#484848" fill-opacity="1"><g><text style="font: bold 25px Roboto, sans-serif; white-space: pre;" transform="translate(297.8828125, 25)" font-weight="bold" font-size="25px" font-family="Roboto, sans-serif"><tspan x="-285.88" y="14.5" dominant-baseline="ideographic">Unveiling the Impact of Gnosis Forum Consultation</tspan></text></g></g></g><g id="g-root-tx_unveilin_1qdui7u15euv4f-stroke" data-item-order="0" transform="translate(98.1171875, 38)"></g><g id="g-root-ic_bloc_1uto0ca15euv41-fill" data-item-order="0" transform="translate(422, 140)"></g><g id="g-root-ic_bloc_1uto0ca15euv41-stroke" data-item-order="0" transform="translate(422, 140)"><g id="ic_bloc_1uto0ca15euv41-stroke" fill="none" stroke-linecap="round" stroke-linejoin="round" stroke-miterlimit="4" stroke="#1eabda" stroke-width="2" stroke-opacity="1"><g><path d="M 37 47C 37 52.522846 41.477154 57 47 57C 52.522846 57 57 52.522846 57 47C 57 41.477154 52.522846 37 47 37C 41.477154 37 37 41.477154 37 47ZM 10 10M 54.07 39.93L 39.928001 54.071999M 11 37C 11.019445 35.143372 11.403379 33.308643 12.13 31.6C 12.93 30 16.256001 28.9 20.436001 27.351999C 21.566 26.934 21.380001 23.984001 20.880001 23.431999C 19.268551 21.685833 18.479071 19.334854 18.709999 16.969999C 18.565205 15.46426 19.052738 13.966075 20.055944 12.833911C 21.059151 11.701747 22.487778 11.037463 24 11C 25.512222 11.037463 26.940847 11.701747 27.944054 12.833911C 28.947262 13.966075 29.434793 15.46426 29.289999 16.969999C 29.521515 19.335524 28.731993 21.687351 27.119999 23.433998C 26.620001 23.986 26.434 26.936001 27.563999 27.354C 31.743999 28.902 35.071999 30.007999 35.870003 31.601999C 36.596619 33.310646 36.980553 35.14537 37 37.001999ZM 31.823999 11.474C 32.506039 11.159061 33.248764 10.997273 34 11C 35.512222 11.037463 36.940849 11.701747 37.944054 12.833911C 38.947262 13.966075 39.434792 15.46426 39.290001 16.969999C 39.521515 19.335524 38.731995 21.687351 37.119999 23.433998C 36.620003 23.986 36.433998 26.936001 37.563999 27.354C 41.743999 28.902 45.071999 30.007999 45.869999 31.601999C 45.931999 31.726 45.990002 31.851999 46.046001 31.98"></path></g></g></g><g id="g-root-tx_movesfro_1uto0ca15euv43-fill" data-item-order="0" transform="translate(518, 128)"><g id="tx_movesfro_1uto0ca15euv43-fill-merged" stroke="none" fill="#1eabda" fill-opacity="1"><g><text style="font: 20px Roboto, sans-serif; white-space: pre;" transform="translate(10, 46)" font-size="20px" font-family="Roboto, sans-serif"><tspan x="2" y="-12.5" dominant-baseline="ideographic">Moves from Ad Hoc </tspan><tspan x="2" y="11.5" dominant-baseline="ideographic">to Specified </tspan><tspan x="2" y="35.5" dominant-baseline="ideographic">Constraints</tspan></text></g></g></g><g id="g-root-tx_movesfro_1uto0ca15euv43-stroke" data-item-order="0" transform="translate(518, 128)"></g><g id="g-root-tx_gnosisfo_1uto0ca15euv45-fill" data-item-order="0" transform="translate(91.44921875, 227)"><g id="tx_gnosisfo_1uto0ca15euv45-fill-merged" stroke="none" fill="#4e88e7" fill-opacity="1"><g><text style="font: 20px Roboto, sans-serif; white-space: pre;" transform="translate(76.55078125, 34)" font-size="20px" font-family="Roboto, sans-serif"><tspan x="-64.55" y="-0.5" dominant-baseline="ideographic">Gnosis Forum </tspan><tspan x="-58.96" y="23.5" dominant-baseline="ideographic">Consultation</tspan></text></g></g></g><g id="g-root-tx_gnosisfo_1uto0ca15euv45-stroke" data-item-order="0" transform="translate(91.44921875, 227)"></g><g id="g-root-ic_1_1uto0ca15euv46-fill" data-item-order="0" transform="translate(446, 260)"></g><g id="g-root-ic_1_1uto0ca15euv46-stroke" data-item-order="0" transform="translate(446, 260)"><g id="ic_1_1uto0ca15euv46-stroke" fill="none" stroke-linecap="round" stroke-linejoin="round" stroke-miterlimit="4" stroke="#3cc583" stroke-width="2" stroke-opacity="1"><g><path d="M 44 52.438C 44 54.647141 45.790859 56.438 48 56.438C 50.209141 56.438 52 54.647141 52 52.438C 52 50.228863 50.209141 48.438 48 48.438C 45.790859 48.438 44 50.228863 44 52.438ZM 16 52.438C 16 54.647141 17.790861 56.438 20 56.438C 22.209139 56.438 24 54.647141 24 52.438C 24 50.228863 22.209139 48.438 20 48.438C 17.790861 48.438 16 50.228863 16 52.438ZM 16 52.438L 12 52.438C 11.447716 52.438 11 51.990284 11 51.438L 11 31.438C 11 30.885715 11.447716 30.438 12 30.438L 32 30.438C 32.552284 30.438 33 30.885715 33 31.438L 33 48.438M 44 52.438L 24 52.438M 52 52.438L 56 52.438C 56.552284 52.438 57 51.990284 57 51.438L 57 43.852001C 56.999943 43.586315 56.894161 43.331573 56.706001 43.144001L 53 39.438L 48.285999 30.952C 48.109566 30.634722 47.775036 30.437984 47.411999 30.438L 40 30.438C 39.447716 30.438 39 30.885715 39 31.438L 39 48.438M 57 48.438L 11 48.438M 39 34.438L 33 34.438M 56 11.562L 12.406 30.438M 53 39.438L 39 39.438M 41 30.438L 41 28.438C 41 27.333431 41.895432 26.438 43 26.438L 45 26.438C 46.104568 26.438 47 27.333431 47 28.438L 47 30.438"></path></g></g></g><g id="g-root-tx_makeseme_1uto0ca15euv47-fill" data-item-order="0" transform="translate(542, 248)"><g id="tx_makeseme_1uto0ca15euv47-fill-merged" stroke="none" fill="#3cc583" fill-opacity="1"><g><text style="font: 20px Roboto, sans-serif; white-space: pre;" transform="translate(10, 46)" font-size="20px" font-family="Roboto, sans-serif"><tspan x="2" y="-12.5" dominant-baseline="ideographic">Makes Emergency </tspan><tspan x="2" y="11.5" dominant-baseline="ideographic">Authority Legible and </tspan><tspan x="2" y="35.5" dominant-baseline="ideographic">Contestable</tspan></text></g></g></g><g id="g-root-tx_makeseme_1uto0ca15euv47-stroke" data-item-order="0" transform="translate(542, 248)"></g><g id="g-root-tx_forumcon_1uto0ca15euv48-fill" data-item-order="0" transform="translate(80.75390625, 287)"><g id="tx_forumcon_1uto0ca15euv48-fill-merged" stroke="none" fill="#507fcc" fill-opacity="1"><g><text style="font: 15px Roboto, sans-serif; white-space: pre;" transform="translate(87.24609375, 37)" font-size="15px" font-family="Roboto, sans-serif"><tspan x="-75.25" y="-9.5" dominant-baseline="ideographic">Forum consultation to </tspan><tspan x="-67.26" y="8.5" dominant-baseline="ideographic">address emergency </tspan><tspan x="-56.7" y="26.5" dominant-baseline="ideographic">authority issues.</tspan></text></g></g></g><g id="g-root-tx_forumcon_1uto0ca15euv48-stroke" data-item-order="0" transform="translate(80.75390625, 287)"></g><g id="g-root-ic_writ_1uto0ca15euv4a-fill" data-item-order="0" transform="translate(422, 380)"></g><g id="g-root-ic_writ_1uto0ca15euv4a-stroke" data-item-order="0" transform="translate(422, 380)"><g id="ic_writ_1uto0ca15euv4a-stroke" fill="none" stroke-linecap="round" stroke-linejoin="round" stroke-miterlimit="4" stroke="#92bd39" stroke-width="2" stroke-opacity="1"><g><path d="M 38 51L 13 51C 11.895431 51 11 50.104568 11 49L 11 13C 11 11.895431 11.895431 11 13 11L 41 11C 42.104568 11 43 11.895431 43 13L 43 25M 23 17L 35 17M 23 23L 35 23M 23 29L 28 29M 17 16.5C 17.276142 16.5 17.5 16.723858 17.5 17C 17.5 17.276142 17.276142 17.5 17 17.5C 16.723858 17.5 16.5 17.276142 16.5 17C 16.5 16.723858 16.723858 16.5 17 16.5M 17 22.5C 17.276142 22.5 17.5 22.723858 17.5 23C 17.5 23.276142 17.276142 23.5 17 23.5C 16.723858 23.5 16.5 23.276142 16.5 23C 16.5 22.723858 16.723858 22.5 17 22.5M 17 28.5C 17.276142 28.5 17.5 28.723858 17.5 29C 17.5 29.276142 17.276142 29.5 17 29.5C 16.723858 29.5 16.5 29.276142 16.5 29C 16.5 28.723858 16.723858 28.5 17 28.5M 44.84 30.34C 44.84 30.34 43.639999 28.34 39.620003 29.42C 33.84 30.860001 32.419998 37.279999 32.299999 38.02M 29.18 39.940002L 25.619999 45.639999L 32.299999 45.060001M 40.440002 40L 51.060001 33.5C 52.163898 32.543274 52.418209 30.930513 51.662285 29.680517C 50.906357 28.430521 49.359974 27.906717 48 28.440001L 29.18 40L 32.299999 45.119999L 36 42.82M 46.200001 41.779999L 38.580002 39.52C 37.782471 39.222481 36.88562 39.394005 36.254162 39.964817C 35.6227 40.535629 35.361794 41.410664 35.577545 42.234085C 35.793293 43.057507 36.449764 43.692173 37.279999 43.880001L 42.080002 45.459999C 42.528664 48.148449 44.574711 50.289661 47.240002 50.860001L 47.419998 50.860001L 48 57M 57 57C 57 57 54.740002 39.419998 49.119999 34.760002"></path></g></g></g><g id="g-root-tx_createsa_1uto0ca15euv4b-fill" data-item-order="0" transform="translate(518, 356)"><g id="tx_createsa_1uto0ca15euv4b-fill-merged" stroke="none" fill="#92bd39" fill-opacity="1"><g><text style="font: 20px Roboto, sans-serif; white-space: pre;" transform="translate(10, 58)" font-size="20px" font-family="Roboto, sans-serif"><tspan x="2" y="-24.5" dominant-baseline="ideographic">Creates a Record of </tspan><tspan x="2" y="-0.5" dominant-baseline="ideographic">Assumptions, </tspan><tspan x="2" y="23.5" dominant-baseline="ideographic">Tradeoffs, and </tspan><tspan x="2" y="47.5" dominant-baseline="ideographic">Objections</tspan></text></g></g></g><g id="g-root-tx_createsa_1uto0ca15euv4b-stroke" data-item-order="0" transform="translate(518, 356)"></g></g></g></svg>