<?xml version="1.0" encoding="utf-8" standalone="yes"?>
<!DOCTYPE svg PUBLIC "-//W3C//DTD SVG 1.1//EN" "http://www.w3.org/Graphics/SVG/1.1/DTD/svg11.dtd">
<svg style="fill:none;stroke:none;fill-rule:evenodd;clip-rule:evenodd;stroke-linecap:round;stroke-linejoin:round;stroke-miterlimit:1.5;" version="1.1" xmlns="http://www.w3.org/2000/svg" xmlns:xlink="http://www.w3.org/1999/xlink" width="696" height="534" viewBox="0 0 696 534"><style class="text-font-style fontImports" data-font-family="Roboto">@import url(https://fonts.googleapis.com/css2?family=Roboto:wght@400;700&amp;amp;display=block);</style><g id="items" style="isolation: isolate"><g id="blend" style="mix-blend-mode: normal"><g id="g-root-cp_0_g-0_zpome114kuo0c-fill" data-item-order="-283724" transform="translate(26, 356)"><g id="cp_0_g-0_zpome114kuo0c-fill-merged" stroke="none" fill="#f5f5f5" fill-opacity="1"><g><path d="M10 10 H634 V22 H10 V10"></path></g></g><g id="cp_0_g-0_zpome114kuo0c-fill-merged" stroke="none" fill="#f5f5f5" fill-opacity="1"><g><path d="M321.106 23.789C321.474 23.052 322.526 23.052 322.894 23.789L369.276 116.553C369.609 117.218 369.125 118 368.382 118 H275.618C274.875 118 274.391 117.218 274.724 116.553L321.106 23.789"></path></g></g></g><g id="g-root-cp_0_g-0_zpome114kuo0c-stroke" data-item-order="-283724" transform="translate(26, 356)"><g id="cp_0_g-0_zpome114kuo0c-stroke" fill="none" stroke-linecap="round" stroke-linejoin="round" stroke-miterlimit="4" stroke="#a3a3a3" stroke-width="2" stroke-opacity="1"><g><path d="M 10 10L 634 10L 634 22L 10 22L 10 10Z"></path></g></g><g id="cp_0_g-0_zpome114kuo0c-stroke" fill="none" stroke-linecap="round" stroke-linejoin="round" stroke-miterlimit="4" stroke="#a3a3a3" stroke-width="2" stroke-opacity="1"><g><path d="M 321.10553 23.788868C 321.47413 23.051768 322.52593 23.051768 322.89443 23.788868L 369.27643 116.552768C 369.60883 117.217668 369.12533 117.999968 368.38193 117.999968L 275.61803 117.999968C 274.87463 117.999968 274.39113 117.217668 274.72363 116.552768L 321.10553 23.788868Z"></path></g></g></g><g id="g-root-tx_balancin_v9v49l14kuosl-fill" data-item-order="0" transform="translate(102.9921875, 38)"><g id="tx_balancin_v9v49l14kuosl-fill-merged" stroke="none" fill="#484848" fill-opacity="1"><g><text style="font: bold 25px Roboto, sans-serif; white-space: pre;" transform="translate(245.0078125, 25)" font-weight="bold" font-size="25px" font-family="Roboto, sans-serif"><tspan x="-233.01" y="14.5" dominant-baseline="ideographic">Balancing Crisis and Normal Mode Needs</tspan></text></g></g></g><g id="g-root-tx_balancin_v9v49l14kuosl-stroke" data-item-order="0" transform="translate(102.9921875, 38)"></g><g id="g-root-ic_grou_hz12zd14kun7r-fill" data-item-order="0" transform="translate(32, 116)"></g><g id="g-root-ic_grou_hz12zd14kun7r-stroke" data-item-order="0" transform="translate(32, 116)"><g id="ic_grou_hz12zd14kun7r-stroke" fill="none" stroke-linecap="round" stroke-linejoin="round" stroke-miterlimit="4" stroke="#e55753" stroke-width="2" stroke-opacity="1"><g><path d="M 16.5 49C 13.73858 49 11.5 46.761398 11.5 44C 11.5 41.238602 13.73858 39 16.5 39C 19.261421 39 21.5 41.238602 21.5 44C 21.5 46.761398 19.261421 49 16.5 49ZM 25.06134 55.993599C 23.587421 53.0336 20.5312 51 17 51C 14.928761 51 13.02094 51.6996 11.5 52.875599M 51.5 49C 54.261398 49 56.5 46.761398 56.5 44C 56.5 41.238602 54.261398 39 51.5 39C 48.738602 39 46.5 41.238602 46.5 44C 46.5 46.761398 48.738602 49 51.5 49ZM 42.9384 55.993599C 44.412399 53.0336 47.468601 51 50.999802 51C 53.070999 51 54.978802 51.6996 56.499802 52.875599M 34 49C 37.865997 49 41 45.866001 41 42C 41 38.134003 37.865997 35 34 35C 30.134001 35 27 38.134003 27 42C 27 45.866001 30.134001 49 34 49ZM 24.63184 56.5C 26.83102 53.756599 30.2104 52 33.999802 52C 37.789398 52 41.1688 53.756599 43.368 56.5M 10 10M 26 11.5L 42 27.5M 10 10M 26 27.5L 42 11.5"></path></g></g></g><g id="g-root-tx_userneed_meul3t14kumfi-fill" data-item-order="0" transform="translate(92, 116)"><g id="tx_userneed_meul3t14kumfi-fill-merged" stroke="none" fill="#484848" fill-opacity="1"><g><text style="font: 20px Roboto, sans-serif; white-space: pre;" transform="translate(10, 34)" font-size="20px" font-family="Roboto, sans-serif"><tspan x="2" y="-0.5" dominant-baseline="ideographic">User Needs </tspan><tspan x="2" y="23.5" dominant-baseline="ideographic">Containment</tspan></text></g></g></g><g id="g-root-tx_userneed_meul3t14kumfi-stroke" data-item-order="0" transform="translate(92, 116)"></g><g id="g-root-ic_stca_v4vbkp14kw3k1-fill" data-item-order="0" transform="translate(428, 140)"></g><g id="g-root-ic_stca_v4vbkp14kw3k1-stroke" data-item-order="0" transform="translate(428, 140)"><g id="ic_stca_v4vbkp14kw3k1-stroke" fill="none" stroke-linecap="round" stroke-linejoin="round" stroke-miterlimit="4" stroke="#3cc583" stroke-width="2" stroke-opacity="1"><g><path d="M 57 15.826C 48.948002 15.634 29.712 16.6 29.712 23.799999C 29.712 31 57 30.261999 57 41.068001C 57 51.874001 40.818001 56.212002 33.75 56.212002M 36.799999 11.788C 32.762001 11.788 12.568 14.488 12.568 22.894001C 12.568 32.493999 34.781998 31.441999 34.781998 41.068001C 34.781998 47.779999 19.636 49.146 12.568 49.146M 52.264 24.068001C 52.265812 22.755413 51.420662 21.591537 50.171967 21.187012C 48.923271 20.782486 47.556198 21.229692 46.787998 22.293999C 46.107773 20.889557 44.675888 20.005989 43.115536 20.027851C 41.555183 20.049713 40.148613 20.973049 39.508003 22.396C 39.082886 22.170172 38.609367 22.050762 38.127998 22.048C 37.047031 22.046879 36.047558 22.622471 35.506001 23.558001M 29.344 39.482002C 28.390308 39.644718 27.572308 40.254501 27.143999 41.122002C 26.242922 39.848537 24.686172 39.211746 23.150923 39.488621C 21.615673 39.765495 20.379452 40.905991 19.98 42.414001C 19.52285 42.261868 19.035782 42.22208 18.560001 42.298M 23.948 39.424C 23.55946 37.466984 21.983751 35.964798 20.010416 35.670143C 18.037083 35.375488 16.091282 36.351849 15.148 38.110001C 14.327509 36.581245 12.735015 35.625286 11 35.620003M 56.506001 25.237999C 56.169502 25.400408 55.866299 25.624249 55.612 25.898001C 54.596375 24.53734 52.835979 23.960575 51.21209 24.45644C 49.5882 24.952305 48.450287 26.414085 48.368 28.110001C 47.177738 27.233843 45.603104 27.080296 44.265999 27.709999"></path></g></g></g><g id="g-root-tx_userneed_140ibtl14kw1zi-fill" data-item-order="0" transform="translate(488, 140)"><g id="tx_userneed_140ibtl14kw1zi-fill-merged" stroke="none" fill="#484848" fill-opacity="1"><g><text style="font: 20px Roboto, sans-serif; white-space: pre;" transform="translate(10, 34)" font-size="20px" font-family="Roboto, sans-serif"><tspan x="2" y="-0.5" dominant-baseline="ideographic">User Needs </tspan><tspan x="2" y="23.5" dominant-baseline="ideographic">Continuity</tspan></text></g></g></g><g id="g-root-tx_userneed_140ibtl14kw1zi-stroke" data-item-order="0" transform="translate(488, 140)"></g><g id="g-root-ic_gate_1ly136h14kunt1-fill" data-item-order="0" transform="translate(32, 200)"></g><g id="g-root-ic_gate_1ly136h14kunt1-stroke" data-item-order="0" transform="translate(32, 200)"><g id="ic_gate_1ly136h14kunt1-stroke" fill="none" stroke-linecap="round" stroke-linejoin="round" stroke-miterlimit="4" stroke="#e55753" stroke-width="2" stroke-opacity="1"><g><path d="M 57 56.776001C 52 57.818001 48.880001 52.818001 48.880001 52.818001L 48.880001 52.818001C 47.308384 55.316471 44.588852 56.860619 41.638 56.930004C 38.708382 56.789452 36.020691 55.262539 34.400002 52.818001L 34.400002 52.818001C 32.828773 55.315887 30.110136 56.859955 27.160002 56.930004C 24.232605 56.789177 21.547462 55.262028 19.93 52.817997L 19.93 52.818001C 19.93 52.818001 15.93 57.902 11.02 56.858002M 57 48.776001C 52 49.818001 48.880001 44.818001 48.880001 44.818001L 48.880001 44.818001C 47.308384 47.316471 44.588852 48.860619 41.638 48.93C 38.708382 48.789452 36.020691 47.262539 34.400002 44.818001L 34.400002 44.818001C 32.828773 47.315887 30.110136 48.859955 27.160002 48.93C 24.232605 48.789177 21.547462 47.262028 19.93 44.817997L 19.93 44.818001C 19.93 44.818001 15.93 49.902 11.02 48.858002M 23 11L 23 47.743999M 45 11L 45 48.202M 11 35L 57 35M 33 35C 23 30 23 15 23 15C 23 15 23 30 13 35M 55 35C 45 30 45 15 45 15C 45 15 45 30 35 35"></path></g></g></g><g id="g-root-tx_integrat_8djkp14kumf6-fill" data-item-order="0" transform="translate(92, 200)"><g id="tx_integrat_8djkp14kumf6-fill-merged" stroke="none" fill="#484848" fill-opacity="1"><g><text style="font: 20px Roboto, sans-serif; white-space: pre;" transform="translate(10, 34)" font-size="20px" font-family="Roboto, sans-serif"><tspan x="2" y="-0.5" dominant-baseline="ideographic">Integrator Goals </tspan><tspan x="2" y="23.5" dominant-baseline="ideographic">Continuity</tspan></text></g></g></g><g id="g-root-tx_integrat_8djkp14kumf6-stroke" data-item-order="0" transform="translate(92, 200)"></g><g id="g-root-ic_game_v8m63d14kw0sv-fill" data-item-order="0" transform="translate(428, 224)"></g><g id="g-root-ic_game_v8m63d14kw0sv-stroke" data-item-order="0" transform="translate(428, 224)"><g id="ic_game_v8m63d14kw0sv-stroke" fill="none" stroke-linecap="round" stroke-linejoin="round" stroke-miterlimit="4" stroke="#3cc583" stroke-width="2" stroke-opacity="1"><g><path d="M 41.094002 26.6L 38.129997 31.15C 37.862778 31.560284 37.423759 31.827084 36.936504 31.875303C 36.449249 31.923523 35.966454 31.74795 35.624001 31.397999L 29.4 25.042C 29.057693 24.691435 28.892923 24.204494 28.952023 23.718102C 29.01112 23.231709 29.287704 22.798393 29.704002 22.540001L 34.316002 19.674L 37.776001 16.284L 40.739998 11.734C 41.007217 11.323714 41.446236 11.056915 41.933491 11.008696C 42.420746 10.960475 42.903542 11.136049 43.245998 11.486L 49.467999 17.837999C 49.810497 18.18829 49.975597 18.675037 49.916889 19.161409C 49.858185 19.647781 49.582008 20.081264 49.166004 20.34L 44.554001 23.200001ZM 45.612 23.014L 56.105999 33.732002C 57.457642 35.113625 57.434368 37.329071 56.054001 38.681999L 56.054001 38.681999C 54.672371 40.033642 52.456924 40.010368 51.104 38.629997L 40.610001 27.912001M 31.893999 57L 31.893999 44.498001C 31.894001 39.527435 27.864563 35.498001 22.894001 35.498001L 22.894001 35.498001C 17.923437 35.498001 13.894 39.527435 13.894 44.498001L 13.894 57M 20.408001 50L 22.880001 52L 25.382 50.056M 19.894001 43.998001L 19.894001 45.998001M 25.894001 43.998001L 25.894001 45.998001M 10.894 57L 34.702 57M 20.394001 19.832001L 22.394001 22.832001M 16.394001 27.832001L 20.394001 28.832001M 39.374001 29.236L 31.638 21.338001M 42.532001 24.956001L 36.076 18.364M 47.290001 21.506001L 39.534 13.584"></path></g></g></g><g id="g-root-tx_integrat_18jg7dl14kw2do-fill" data-item-order="0" transform="translate(488, 224)"><g id="tx_integrat_18jg7dl14kw2do-fill-merged" stroke="none" fill="#484848" fill-opacity="1"><g><text style="font: 20px Roboto, sans-serif; white-space: pre;" transform="translate(10, 34)" font-size="20px" font-family="Roboto, sans-serif"><tspan x="2" y="-0.5" dominant-baseline="ideographic">Integrator Goals </tspan><tspan x="2" y="23.5" dominant-baseline="ideographic">Legitimacy</tspan></text></g></g></g><g id="g-root-tx_integrat_18jg7dl14kw2do-stroke" data-item-order="0" transform="translate(488, 224)"></g><g id="g-root-ic_hand_4hbtqx14kw1dv-fill" data-item-order="0" transform="translate(32, 284)"></g><g id="g-root-ic_hand_4hbtqx14kw1dv-stroke" data-item-order="0" transform="translate(32, 284)"><g id="ic_hand_4hbtqx14kw1dv-stroke" fill="none" stroke-linecap="round" stroke-linejoin="round" stroke-miterlimit="4" stroke="#e55753" stroke-width="2" stroke-opacity="1"><g><path d="M 12.066 54.812L 25.610001 48.686001L 25.610001 48.686001C 27.885725 50.173409 30.659685 50.694378 33.32 50.133999L 45.164001 47.646M 33.778 23.571999L 36.799999 17.656C 36.84 17.576 36.877998 17.493999 36.91 17.41C 37.458172 16.048225 36.967701 14.488871 35.738701 13.686079C 34.509697 12.883286 32.884693 13.060799 31.858 14.110001L 22.642 23.51C 20.390617 25.818184 19.164894 28.936571 19.242001 32.16L 19.216 32.115997L 12.066 35.599998M 44.557999 47.116001C 38.734818 49.597542 31.97168 47.475506 28.60998 42.112068C 25.24828 36.748627 26.286512 29.736841 31.058216 25.577713C 35.829918 21.418583 42.917797 21.347462 47.771999 25.41M 39.676003 34.793999L 35.515999 29.084M 43.521999 23.049999L 45.883999 16.728001M 43.827999 15.962L 48.257999 17.616001M 50.316002 30.143999L 52.934002 30.143999C 52.934002 30.143999 55.934002 30.143999 55.934002 33.143997L 55.934002 33.143997C 55.934002 33.143997 55.934002 36.143997 52.934002 36.143997L 50.316002 36.143997C 50.316002 36.143997 47.316002 36.143997 47.316002 33.143997L 47.316002 33.143997C 47.316002 33.143997 47.316002 30.143999 50.316002 30.143999M 50.316002 24.144001L 52.934002 24.144001C 52.934002 24.144001 55.934002 24.144001 55.934002 27.144001L 55.934002 27.144001C 55.934002 27.144001 55.934002 30.144001 52.934002 30.144001L 50.316002 30.144001C 50.316002 30.144001 47.316002 30.144001 47.316002 27.144001L 47.316002 27.144001C 47.316002 27.144001 47.316002 24.144001 50.316002 24.144001M 50.316002 36.143997L 52.934002 36.143997C 52.934002 36.143997 55.934002 36.143997 55.934002 39.143997L 55.934002 39.143997C 55.934002 39.143997 55.934002 42.143997 52.934002 42.143997L 50.316002 42.143997C 50.316002 42.143997 47.316002 42.143997 47.316002 39.143997L 47.316002 39.143997C 47.316002 39.143997 47.316002 36.143997 50.316002 36.143997M 46.816002 42.144001L 49.312004 42.144001C 49.312004 42.144001 52.312004 42.144001 52.312004 45.144001L 52.312004 45.144001C 52.312004 45.144001 52.312004 48.144001 49.312004 48.144001L 46.816002 48.144001C 46.816002 48.144001 43.816002 48.144001 43.816002 45.144001L 43.816002 45.144001C 43.816002 45.144001 43.816002 42.144001 46.816002 42.144001"></path></g></g></g><g id="g-root-tx_timetoco_8wius914kw3rc-fill" data-item-order="0" transform="translate(92, 284)"><g id="tx_timetoco_8wius914kw3rc-fill-merged" stroke="none" fill="#484848" fill-opacity="1"><g><text style="font: 20px Roboto, sans-serif; white-space: pre;" transform="translate(10, 34)" font-size="20px" font-family="Roboto, sans-serif"><tspan x="2" y="-0.5" dominant-baseline="ideographic">Time-to-Contain </tspan><tspan x="2" y="23.5" dominant-baseline="ideographic">Dominates</tspan></text></g></g></g><g id="g-root-tx_timetoco_8wius914kw3rc-stroke" data-item-order="0" transform="translate(92, 284)"></g><g id="g-root-ic_bulb_vbqjix14kw1z9-fill" data-item-order="0" transform="translate(428, 296)"></g><g id="g-root-ic_bulb_vbqjix14kw1z9-stroke" data-item-order="0" transform="translate(428, 296)"><g id="ic_bulb_vbqjix14kw1z9-stroke" fill="none" stroke-linecap="round" stroke-linejoin="round" stroke-miterlimit="4" stroke="#3cc583" stroke-width="2" stroke-opacity="1"><g><path d="M 29 51.004002L 39 51.004002M 29 55.004002L 39 55.004002M 34 55.004002L 34 57.004002M 29 46C 29 46.552284 29.447716 47 30 47L 38 47C 38.552284 47 39 46.552284 39 46L 39 44.321999C 46.521084 42.439865 51.84816 35.751518 52 28C 51.715763 18.338646 43.661823 10.732143 34 11C 24.338177 10.732143 16.284235 18.338646 16 28C 16.151844 35.751518 21.478918 42.439865 29 44.322002ZM 37 23L 33.599998 23C 32.446991 22.991116 31.425859 23.742687 31.091608 24.846222C 30.757359 25.949757 31.189842 27.141613 32.153999 27.774L 35.834 30.226C 36.796234 30.857191 37.229076 32.045841 36.898022 33.14798C 36.566963 34.250114 35.550777 35.00351 34.400002 35L 31 35M 35 23.004L 35 21.004M 33 37.003998L 33 35.003998"></path></g></g></g><g id="g-root-tx_powercos_18mkkt514kw3k2-fill" data-item-order="0" transform="translate(488, 308)"><g id="tx_powercos_18mkkt514kw3k2-fill-merged" stroke="none" fill="#484848" fill-opacity="1"><g><text style="font: 20px Roboto, sans-serif; white-space: pre;" transform="translate(10, 22)" font-size="20px" font-family="Roboto, sans-serif"><tspan x="2" y="11.5" dominant-baseline="ideographic">Power Cost</tspan></text></g></g></g><g id="g-root-tx_powercos_18mkkt514kw3k2-stroke" data-item-order="0" transform="translate(488, 308)"></g><g id="g-root-tx_crisismo_1ibmh14kxfkf-fill" data-item-order="0" transform="translate(85.05859375, 416)"><g id="tx_crisismo_1ibmh14kxfkf-fill-merged" stroke="none" fill="#484848" fill-opacity="1"><g><text style="font: 20px Roboto, sans-serif; white-space: pre;" transform="translate(64.94140625, 22)" font-size="20px" font-family="Roboto, sans-serif"><tspan x="-52.94" y="11.5" dominant-baseline="ideographic">Crisis Mode</tspan></text></g></g></g><g id="g-root-tx_crisismo_1ibmh14kxfkf-stroke" data-item-order="0" transform="translate(85.05859375, 416)"></g><g id="g-root-tx_normalmo_8wius914kxhxi-fill" data-item-order="0" transform="translate(476.27734375, 416)"><g id="tx_normalmo_8wius914kxhxi-fill-merged" stroke="none" fill="#484848" fill-opacity="1"><g><text style="font: 20px Roboto, sans-serif; white-space: pre;" transform="translate(72.72265625, 22)" font-size="20px" font-family="Roboto, sans-serif"><tspan x="-60.72" y="11.5" dominant-baseline="ideographic">Normal Mode</tspan></text></g></g></g><g id="g-root-tx_normalmo_8wius914kxhxi-stroke" data-item-order="0" transform="translate(476.27734375, 416)"></g></g></g></svg>