<?xml version="1.0" encoding="utf-8" standalone="yes"?>
<!DOCTYPE svg PUBLIC "-//W3C//DTD SVG 1.1//EN" "http://www.w3.org/Graphics/SVG/1.1/DTD/svg11.dtd">
<svg style="fill:none;stroke:none;fill-rule:evenodd;clip-rule:evenodd;stroke-linecap:round;stroke-linejoin:round;stroke-miterlimit:1.5;" version="1.1" xmlns="http://www.w3.org/2000/svg" xmlns:xlink="http://www.w3.org/1999/xlink" width="696" height="870" viewBox="0 0 696 870"><style class="text-font-style fontImports" data-font-family="Roboto">@import url(https://fonts.googleapis.com/css2?family=Roboto:wght@400;700&amp;amp;display=block);</style><g id="items" style="isolation: isolate"><g id="blend" style="mix-blend-mode: normal"><g id="g-root-cp_0_g-0_detn3u15f7hu6-fill" data-item-order="-501542" transform="translate(206, 416)"><g id="cp_0_g-0_detn3u15f7hu6-fill-merged" stroke="none" fill="#f5f5f5" fill-opacity="1"><g><path d="M267.902 83.865C261.29 79.012 252.026 80.478 247.21 87.141L206.834 143.025C206.095 144.047 204.781 144.472 203.589 144.065C202.165 143.585 201.352 142.082 201.713 140.617L225.381 44.934C227.361 36.935 222.527 28.831 214.595 26.836C206.657 24.841 198.621 29.712 196.641 37.711L173.388 131.719C172.728 134.379 170.32 136.226 167.601 136.152C164.454 136.066 161.954 133.467 161.954 130.302L162.076 24.952C162.089 16.706 155.464 10.012 147.281 10C139.098 9.988 132.462 16.669 132.45 24.915L132.327 133.449C132.327 135.204 131.136 136.725 129.449 137.144C127.536 137.612 125.587 136.528 124.97 134.644L95.575 44.977C93.008 37.144 84.63 32.895 76.863 35.482C69.096 38.068 64.879 46.517 67.446 54.344L91.578 127.956C97.023 144.576 99.413 162.09 98.276 179.554C98.233 180.219 98.185 180.89 98.136 181.555C96.907 197.283 77.566 203.872 67.067 192.171C64.433 189.234 61.53 186.032 58.34 182.565C53.176 176.943 46.668 172.694 39.39 170.514C32.557 168.469 23.91 167.663 14.695 171.228C10.038 173.032 8.48 178.895 11.694 182.737C16.381 188.335 24.283 196.531 35.827 204.617C46.931 212.394 58.841 234.877 83.09 256.22C87.973 260.519 96.069 266.658 102.046 270.599C103.103 271.295 103.996 272.219 104.668 273.303C105.536 274.707 106 276.326 106 277.983 V382 H202 V279.701C202 274.362 203.552 269.134 206.534 264.719C214.082 253.554 231.706 225.498 229.421 173.864C229.115 166.936 231.156 160.101 235.208 154.497L271.16 104.734C275.975 98.065 274.521 88.73 267.909 83.871"></path></g></g></g><g id="g-root-cp_0_g-0_detn3u15f7hu6-stroke" data-item-order="-501542" transform="translate(206, 416)"><g id="cp_0_g-0_detn3u15f7hu6-stroke" fill="none" stroke-linecap="round" stroke-linejoin="round" stroke-miterlimit="4" stroke="#a3a3a3" stroke-width="2" stroke-opacity="1"><g><path d="M 115 191.1604C 115 191.1604 163.0954 207.7846 161.9809 252.1932M 120 159.1909C 120 159.1909 140.6927 193.361 210 188.8046M 267.9025 83.8649C 261.2902 79.0124 252.0258 80.478 247.2102 87.141L 206.8341 143.0246C 206.0947 144.0468 204.7808 144.4717 203.5891 144.0653C 202.1652 143.585 201.3524 142.0824 201.713 140.6168L 225.3813 44.9342C 227.3613 36.935 222.5274 28.8311 214.5952 26.8359C 206.6569 24.8407 198.6208 29.7117 196.6408 37.7109L 173.388 131.7185C 172.728 134.3788 170.3202 136.2262 167.6008 136.1523C 164.4535 136.0661 161.9541 133.4674 161.9541 130.3022L 162.0763 24.9516C 162.0885 16.7061 155.4641 10.0123 147.2813 10C 139.0985 9.9877 132.4619 16.6691 132.4496 24.9146L 132.3274 133.4489C 132.3274 135.204 131.1358 136.725 129.4491 137.1437C 127.5363 137.6117 125.5869 136.5279 124.9696 134.6436L 95.5752 44.9773C 93.0085 37.1444 84.6302 32.8954 76.863 35.4817C 69.0958 38.0681 64.8791 46.5168 67.4458 54.3436L 91.5785 127.956C 97.0235 144.5764 99.413 162.0897 98.2763 179.5537C 98.2335 180.2188 98.1846 180.89 98.1357 181.555C 96.9074 197.2825 77.5658 203.8715 67.0669 192.1714C 64.433 189.234 61.5302 186.0319 58.3402 182.5649C 53.1763 176.9427 46.668 172.6937 39.3896 170.5138C 32.5574 168.4693 23.9102 167.6626 14.6946 171.2281C 10.038 173.0324 8.4796 178.8948 11.6941 182.7374C 16.3813 188.3349 24.283 196.5312 35.8269 204.6166C 46.9307 212.3941 58.8413 234.8769 83.0902 256.2205C 87.973 260.5187 96.0694 266.6582 102.0461 270.5993C 103.1033 271.2952 103.9956 272.2189 104.6678 273.3027C 105.5356 274.7067 106 276.3263 106 277.9828L 106 382L 202 382L 202 279.7008C 202 274.3619 203.5522 269.1337 206.5344 264.7185C 214.0817 253.5541 231.7063 225.4983 229.4208 173.8637C 229.1152 166.936 231.1563 160.1006 235.208 154.4969L 271.1597 104.7343C 275.9752 98.0652 274.5208 88.7297 267.9086 83.8711L 267.9025 83.8649Z"></path></g></g></g><g id="g-root-cp_1_g-1_3zltm15f7g9b-fill" data-item-order="-501536" transform="translate(38.16999816894531, 116.4765625)"><g id="cp_1_g-1_3zltm15f7g9b-fill-merged" stroke="none" fill="#ffeceb" fill-opacity="1"><g><path d="M240.663 304.533L239.573 280.763L239.093 270.173C242.163 267.913 245.183 265.523 248.123 262.993C308.323 211.013 314.983 120.083 262.993 59.893C211.013 -0.307 120.083 -6.967 59.893 45.023C-0.307 97.003 -6.967 187.933 45.023 248.123C87.323 297.113 155.433 310.643 211.763 285.963L220.643 291.673L240.663 304.553"></path></g></g></g><g id="g-root-cp_1_g-1_3zltm15f7g9b-stroke" data-item-order="-501536" transform="translate(38.16999816894531, 116.4765625)"><g id="cp_1_g-1_3zltm15f7g9b-stroke" fill="none" stroke-linecap="round" stroke-linejoin="round" stroke-miterlimit="4" stroke="#e55753" stroke-width="2" stroke-opacity="1"><g><path d="M 240.663015 304.5331L 239.573015 280.7631L 239.093015 270.1731C 242.163015 267.9131 245.183015 265.523 248.123015 262.993C 308.323015 211.013 314.983015 120.083 262.993015 59.893C 211.013015 -0.307 120.083015 -6.967 59.893015 45.023C -0.306985 97.003 -6.966985 187.933 45.023015 248.123C 87.323015 297.113 155.433015 310.643 211.763015 285.963L 220.643015 291.6731L 240.663015 304.553L 240.663015 304.5331Z"></path></g></g></g><g id="g-root-cp_2_g-2_4jt3y215f7g8w-fill" data-item-order="-501532" transform="translate(349.4990234375, 116)"><g id="cp_2_g-2_4jt3y215f7g8w-fill-merged" stroke="none" fill="#edf4ff" fill-opacity="1"><g><path d="M69.645 305.86L89.465 292.68L98.295 286.81C101.815 288.29 105.415 289.63 109.105 290.85C184.665 315.67 266.035 274.53 290.845 198.98C315.655 123.42 274.525 42.05 198.965 17.23C123.405 -7.59 42.035 33.55 17.225 109.1C-2.965 170.6 20.525 235.94 70.685 271.51L70.355 282.06L69.625 305.85"></path></g></g></g><g id="g-root-cp_2_g-2_4jt3y215f7g8w-stroke" data-item-order="-501532" transform="translate(349.4990234375, 116)"><g id="cp_2_g-2_4jt3y215f7g8w-stroke" fill="none" stroke-linecap="round" stroke-linejoin="round" stroke-miterlimit="4" stroke="#4e88e7" stroke-width="2" stroke-opacity="1"><g><path d="M 69.6448 305.8604L 89.4649 292.6804L 98.2948 286.8103C 101.8148 288.2903 105.4148 289.6303 109.1048 290.8503C 184.6648 315.6703 266.0348 274.5303 290.8448 198.9803C 315.6548 123.4203 274.5248 42.0503 198.9648 17.2303C 123.4048 -7.5897 42.0348 33.5503 17.2248 109.1003C -2.9652 170.6003 20.5248 235.9403 70.6848 271.5103L 70.3548 282.0603L 69.6248 305.8503L 69.6448 305.8604Z"></path></g></g></g><g id="g-root-tx_shouldia_1upa5oa15f7guh-fill" data-item-order="0" transform="translate(159.296875, 38)"><g id="tx_shouldia_1upa5oa15f7guh-fill-merged" stroke="none" fill="#484848" fill-opacity="1"><g><text style="font: bold 25px Roboto, sans-serif; white-space: pre;" transform="translate(188.703125, 25)" font-weight="bold" font-size="25px" font-family="Roboto, sans-serif"><tspan x="-176.7" y="14.5" dominant-baseline="ideographic">Should I act or remain inactive?</tspan></text></g></g></g><g id="g-root-tx_shouldia_1upa5oa15f7guh-stroke" data-item-order="0" transform="translate(159.296875, 38)"></g><g id="g-root-tx_act_dhy0je15f7j0k-fill" data-item-order="0" transform="translate(164.96875, 215)"><g id="tx_act_dhy0je15f7j0k-fill-merged" stroke="none" fill="#e55753" fill-opacity="1"><g><text style="font: 20px Roboto, sans-serif; white-space: pre;" transform="translate(27.03125, 22)" font-size="20px" font-family="Roboto, sans-serif"><tspan x="-15.03" y="11.5" dominant-baseline="ideographic">Act</tspan></text></g></g></g><g id="g-root-tx_act_dhy0je15f7j0k-stroke" data-item-order="0" transform="translate(164.96875, 215)"></g><g id="g-root-tx_remainin_1448k6y15f7j0i-fill" data-item-order="0" transform="translate(421.1875, 206)"><g id="tx_remainin_1448k6y15f7j0i-fill-merged" stroke="none" fill="#4e88e7" fill-opacity="1"><g><text style="font: 20px Roboto, sans-serif; white-space: pre;" transform="translate(82.8125, 22)" font-size="20px" font-family="Roboto, sans-serif"><tspan x="-70.81" y="11.5" dominant-baseline="ideographic">Remain Inactive</tspan></text></g></g></g><g id="g-root-tx_remainin_1448k6y15f7j0i-stroke" data-item-order="0" transform="translate(421.1875, 206)"></g><g id="g-root-tx_createsa_4mxhdm15f7gnh-fill" data-item-order="0" transform="translate(96.07421875, 251)"><g id="tx_createsa_4mxhdm15f7gnh-fill-merged" stroke="none" fill="#c64b47" fill-opacity="1"><g><text style="font: 15px Roboto, sans-serif; white-space: pre;" transform="translate(95.92578125, 37)" font-size="15px" font-family="Roboto, sans-serif"><tspan x="-66.23" y="-9.5" dominant-baseline="ideographic">Creates a signature, </tspan><tspan x="-83.93" y="8.5" dominant-baseline="ideographic">making actions traceable </tspan><tspan x="-68.04" y="26.5" dominant-baseline="ideographic">and potentially risky.</tspan></text></g></g></g><g id="g-root-tx_createsa_4mxhdm15f7gnh-stroke" data-item-order="0" transform="translate(96.07421875, 251)"></g><g id="g-root-tx_createsa_qteiwq15f7hfn-fill" data-item-order="0" transform="translate(413.49609375, 242)"><g id="tx_createsa_qteiwq15f7hfn-fill-merged" stroke="none" fill="#507fcc" fill-opacity="1"><g><text style="font: 15px Roboto, sans-serif; white-space: pre;" transform="translate(90.50390625, 46)" font-size="15px" font-family="Roboto, sans-serif"><tspan x="-63.39" y="-18.5" dominant-baseline="ideographic">Creates ambiguity, </tspan><tspan x="-73.11" y="-0.5" dominant-baseline="ideographic">offering career safety </tspan><tspan x="-78.5" y="17.5" dominant-baseline="ideographic">but potentially harming </tspan><tspan x="-40.57" y="35.5" dominant-baseline="ideographic">the system.</tspan></text></g></g></g><g id="g-root-tx_createsa_qteiwq15f7hfn-stroke" data-item-order="0" transform="translate(413.49609375, 242)"></g></g></g></svg>