<?xml version="1.0" encoding="utf-8" standalone="yes"?>
<!DOCTYPE svg PUBLIC "-//W3C//DTD SVG 1.1//EN" "http://www.w3.org/Graphics/SVG/1.1/DTD/svg11.dtd">
<svg style="fill:none;stroke:none;fill-rule:evenodd;clip-rule:evenodd;stroke-linecap:round;stroke-linejoin:round;stroke-miterlimit:1.5;" version="1.1" xmlns="http://www.w3.org/2000/svg" xmlns:xlink="http://www.w3.org/1999/xlink" width="789" height="648" viewBox="0 0 789 648"><style class="text-font-style fontImports" data-font-family="Roboto">@import url(https://fonts.googleapis.com/css2?family=Roboto:wght@400;700&amp;amp;display=block);</style><g id="items" style="isolation: isolate"><g id="blend" style="mix-blend-mode: normal"><g id="g-root-cp_0-0_g-0-0_18gy4qi141awpb-fill" data-item-order="-408619" transform="translate(26.015625, 104)"><g id="cp_0-0_g-0-0_18gy4qi141awpb-fill-merged" stroke="none" fill="#f4ffdc" fill-opacity="1"><g><path d="M192.336 76C192.336 79.314 189.65 82 186.336 82 H180.336 H16C12.686 82 10 79.314 10 76 V16C10 12.686 12.686 10 16 10 H186.336C189.65 10 192.336 12.686 192.336 16 V76"></path></g></g></g><g id="g-root-cp_0-0_g-0-0_18gy4qi141awpb-stroke" data-item-order="-408619" transform="translate(26.015625, 104)"><g id="cp_0-0_g-0-0_18gy4qi141awpb-stroke" fill="none" stroke-linecap="round" stroke-linejoin="round" stroke-miterlimit="4" stroke="#92bd39" stroke-width="2" stroke-opacity="1"><g><path d="M 10 22L 10 16C 10 12.6863 12.6863 10 16 10L 22 10M 192.335938 22L 192.335938 70M 10 70L 10 22M 22 10L 180.335938 10M 10 70L 10 76C 10 79.3137 12.6863 82 16 82L 22 82M 192.335938 22L 192.335938 16C 192.335938 12.6863 189.649637 10 186.335938 10L 180.335938 10M 180.335938 82.000004L 22 82.000004M 192.335938 70L 192.335938 76C 192.335938 79.3137 189.649637 82 186.335938 82L 180.335938 82"></path></g></g></g><g id="g-root-cp_1-0_g-1-0_1cwrmuy141awp3-fill" data-item-order="-408587" transform="translate(26.015625, 188)"><g id="cp_1-0_g-1-0_1cwrmuy141awp3-fill-merged" stroke="none" fill="#fffbda" fill-opacity="1"><g><path d="M192.336 82C192.336 85.314 189.65 88 186.336 88 H180.336 H16C12.686 88 10 85.314 10 82 V16C10 12.686 12.686 10 16 10 H186.336C189.65 10 192.336 12.686 192.336 16 V82"></path></g></g></g><g id="g-root-cp_1-0_g-1-0_1cwrmuy141awp3-stroke" data-item-order="-408587" transform="translate(26.015625, 188)"><g id="cp_1-0_g-1-0_1cwrmuy141awp3-stroke" fill="none" stroke-linecap="round" stroke-linejoin="round" stroke-miterlimit="4" stroke="#e0cb15" stroke-width="2" stroke-opacity="1"><g><path d="M 10 22L 10 16C 10 12.6863 12.6863 10 16 10L 22 10M 192.335938 22L 192.335938 76M 10 76L 10 22M 22 10L 180.335938 10M 10 76L 10 82C 10 85.3137 12.6863 88 16 88L 22 88M 192.335938 22L 192.335938 16C 192.335938 12.6863 189.649637 10 186.335938 10L 180.335938 10M 180.335938 88L 22 88M 192.335938 76L 192.335938 82C 192.335938 85.3137 189.649637 88 186.335938 88L 180.335938 88"></path></g></g></g><g id="g-root-cp_2-0_g-2-0_18gy4qi141axhj-fill" data-item-order="-408551" transform="translate(26.015625, 278)"><g id="cp_2-0_g-2-0_18gy4qi141axhj-fill-merged" stroke="none" fill="#fff2e5" fill-opacity="1"><g><path d="M192.336 64C192.336 67.314 189.65 70 186.336 70 H180.336 H16C12.686 70 10 67.314 10 64 V16C10 12.686 12.686 10 16 10 H186.336C189.65 10 192.336 12.686 192.336 16 V64"></path></g></g></g><g id="g-root-cp_2-0_g-2-0_18gy4qi141axhj-stroke" data-item-order="-408551" transform="translate(26.015625, 278)"><g id="cp_2-0_g-2-0_18gy4qi141axhj-stroke" fill="none" stroke-linecap="round" stroke-linejoin="round" stroke-miterlimit="4" stroke="#de8431" stroke-width="2" stroke-opacity="1"><g><path d="M 10 22L 10 16C 10 12.6863 12.6863 10 16 10L 22 10M 192.335938 22L 192.335938 58M 10 58L 10 22M 22 10L 180.335938 10M 10 58L 10 64C 10 67.3137 12.6863 70 16 70L 22 70M 192.335938 22L 192.335938 16C 192.335938 12.6863 189.649637 10 186.335938 10L 180.335938 10M 180.335938 70L 22 70M 192.335938 58L 192.335938 64C 192.335938 67.3137 189.649637 70 186.335938 70L 180.335938 70"></path></g></g></g><g id="g-root-cp_3-0_g-3-0_18gy4qi141axhr-fill" data-item-order="-408515" transform="translate(26.015625, 350)"><g id="cp_3-0_g-3-0_18gy4qi141axhr-fill-merged" stroke="none" fill="#ffeceb" fill-opacity="1"><g><path d="M192.336 64C192.336 67.314 189.65 70 186.336 70 H180.336 H16C12.686 70 10 67.314 10 64 V16C10 12.686 12.686 10 16 10 H186.336C189.65 10 192.336 12.686 192.336 16 V64"></path></g></g></g><g id="g-root-cp_3-0_g-3-0_18gy4qi141axhr-stroke" data-item-order="-408515" transform="translate(26.015625, 350)"><g id="cp_3-0_g-3-0_18gy4qi141axhr-stroke" fill="none" stroke-linecap="round" stroke-linejoin="round" stroke-miterlimit="4" stroke="#e55753" stroke-width="2" stroke-opacity="1"><g><path d="M 10 22L 10 16C 10 12.6863 12.6863 10 16 10L 22 10M 192.335938 22L 192.335938 58M 10 58L 10 22M 22 10L 180.335938 10M 10 58L 10 64C 10 67.3137 12.6863 70 16 70L 22 70M 192.335938 22L 192.335938 16C 192.335938 12.6863 189.649637 10 186.335938 10L 180.335938 10M 180.335938 70L 22 70M 192.335938 58L 192.335938 64C 192.335938 67.3137 189.649637 70 186.335938 70L 180.335938 70"></path></g></g></g><g id="g-root-cp_4-0_g-4-0_1cwrmuy141axhj-fill" data-item-order="-408479" transform="translate(26.015625, 422)"><g id="cp_4-0_g-4-0_1cwrmuy141axhj-fill-merged" stroke="none" fill="#ffebf7" fill-opacity="1"><g><path d="M192.336 64C192.336 67.314 189.65 70 186.336 70 H180.336 H16C12.686 70 10 67.314 10 64 V16C10 12.686 12.686 10 16 10 H186.336C189.65 10 192.336 12.686 192.336 16 V64"></path></g></g></g><g id="g-root-cp_4-0_g-4-0_1cwrmuy141axhj-stroke" data-item-order="-408479" transform="translate(26.015625, 422)"><g id="cp_4-0_g-4-0_1cwrmuy141axhj-stroke" fill="none" stroke-linecap="round" stroke-linejoin="round" stroke-miterlimit="4" stroke="#de58a9" stroke-width="2" stroke-opacity="1"><g><path d="M 10 22L 10 16C 10 12.6863 12.6863 10 16 10L 22 10M 192.335938 22L 192.335938 58M 10 58L 10 22M 22 10L 180.335938 10M 10 58L 10 64C 10 67.3137 12.6863 70 16 70L 22 70M 192.335938 22L 192.335938 16C 192.335938 12.6863 189.649637 10 186.335938 10L 180.335938 10M 180.335938 70L 22 70M 192.335938 58L 192.335938 64C 192.335938 67.3137 189.649637 70 186.335938 70L 180.335938 70"></path></g></g></g><g id="g-root-cp_5-0_g-5-0_1cwrmuy141axhr-fill" data-item-order="-408443" transform="translate(26.015625, 494)"><g id="cp_5-0_g-5-0_1cwrmuy141axhr-fill-merged" stroke="none" fill="#faf0ff" fill-opacity="1"><g><path d="M192.336 82C192.336 85.314 189.65 88 186.336 88 H180.336 H16C12.686 88 10 85.314 10 82 V16C10 12.686 12.686 10 16 10 H186.336C189.65 10 192.336 12.686 192.336 16 V82"></path></g></g></g><g id="g-root-cp_5-0_g-5-0_1cwrmuy141axhr-stroke" data-item-order="-408443" transform="translate(26.015625, 494)"><g id="cp_5-0_g-5-0_1cwrmuy141axhr-stroke" fill="none" stroke-linecap="round" stroke-linejoin="round" stroke-miterlimit="4" stroke="#ba5de5" stroke-width="2" stroke-opacity="1"><g><path d="M 10 22L 10 16C 10 12.6863 12.6863 10 16 10L 22 10M 192.335938 22L 192.335938 76M 10 76L 10 22M 22 10L 180.335938 10M 10 76L 10 82C 10 85.3137 12.6863 88 16 88L 22 88M 192.335938 22L 192.335938 16C 192.335938 12.6863 189.649637 10 186.335938 10L 180.335938 10M 180.335938 88L 22 88M 192.335938 76L 192.335938 82C 192.335938 85.3137 189.649637 88 186.335938 88L 180.335938 88"></path></g></g></g><g id="g-root-cp_0-1_g-0-1_1cwrmuy141awow-fill" data-item-order="-408403" transform="translate(220.3515625, 104)"><g id="cp_0-1_g-0-1_1cwrmuy141awow-fill-merged" stroke="none" fill="#f5f5f5" fill-opacity="1"><g><path d="M170.719 76C170.719 79.314 168.032 82 164.719 82 H158.719 H16C12.686 82 10 79.314 10 76 V16C10 12.686 12.686 10 16 10 H164.719C168.032 10 170.719 12.686 170.719 16 V76"></path></g></g></g><g id="g-root-cp_0-1_g-0-1_1cwrmuy141awow-stroke" data-item-order="-408403" transform="translate(220.3515625, 104)"><g id="cp_0-1_g-0-1_1cwrmuy141awow-stroke" fill="none" stroke-linecap="round" stroke-linejoin="round" stroke-miterlimit="4" stroke="#a3a3a3" stroke-width="2" stroke-opacity="1"><g><path d="M 10 22L 10 16C 10 12.6863 12.6863 10 16 10L 22 10M 170.71875 22L 170.71875 70M 10 70L 10 22M 22 10L 158.71875 10M 10 70L 10 76C 10 79.3137 12.6863 82 16 82L 22 82M 170.71875 22L 170.71875 16C 170.71875 12.6863 168.03245 10 164.71875 10L 158.71875 10M 158.71875 82L 22 82M 170.71875 70L 170.71875 76C 170.71875 79.3137 168.03245 82 164.71875 82L 158.71875 82"></path></g></g></g><g id="g-root-cp_1-1_g-1-1_1cwrmuy141awp4-fill" data-item-order="-408367" transform="translate(220.3515625, 188)"><g id="cp_1-1_g-1-1_1cwrmuy141awp4-fill-merged" stroke="none" fill="#fffbda" fill-opacity="1"><g><path d="M170.719 82C170.719 85.314 168.032 88 164.719 88 H158.719 H16C12.686 88 10 85.314 10 82 V16C10 12.686 12.686 10 16 10 H164.719C168.032 10 170.719 12.686 170.719 16 V82"></path></g></g></g><g id="g-root-cp_1-1_g-1-1_1cwrmuy141awp4-stroke" data-item-order="-408367" transform="translate(220.3515625, 188)"><g id="cp_1-1_g-1-1_1cwrmuy141awp4-stroke" fill="none" stroke-linecap="round" stroke-linejoin="round" stroke-miterlimit="4" stroke="#e0cb15" stroke-width="2" stroke-opacity="1"><g><path d="M 10 22L 10 16C 10 12.6863 12.6863 10 16 10L 22 10M 170.71875 22L 170.71875 76M 10 76L 10 22M 22 10L 158.71875 10M 10 76L 10 82C 10 85.3137 12.6863 88 16 88L 22 88M 170.71875 22L 170.71875 16C 170.71875 12.6863 168.03245 10 164.71875 10L 158.71875 10M 158.71875 88L 22 88M 170.71875 76L 170.71875 82C 170.71875 85.3137 168.03245 88 164.71875 88L 158.71875 88"></path></g></g></g><g id="g-root-cp_2-1_g-2-1_18gy4qi141axhk-fill" data-item-order="-408335" transform="translate(220.3515625, 278)"><g id="cp_2-1_g-2-1_18gy4qi141axhk-fill-merged" stroke="none" fill="#fff2e5" fill-opacity="1"><g><path d="M170.719 64C170.719 67.314 168.032 70 164.719 70 H158.719 H16C12.686 70 10 67.314 10 64 V16C10 12.686 12.686 10 16 10 H164.719C168.032 10 170.719 12.686 170.719 16 V64"></path></g></g></g><g id="g-root-cp_2-1_g-2-1_18gy4qi141axhk-stroke" data-item-order="-408335" transform="translate(220.3515625, 278)"><g id="cp_2-1_g-2-1_18gy4qi141axhk-stroke" fill="none" stroke-linecap="round" stroke-linejoin="round" stroke-miterlimit="4" stroke="#de8431" stroke-width="2" stroke-opacity="1"><g><path d="M 10 22L 10 16C 10 12.6863 12.6863 10 16 10L 22 10M 170.71875 22L 170.71875 58M 10 58L 10 22M 22 10L 158.71875 10M 10 58L 10 64C 10 67.3137 12.6863 70 16 70L 22 70M 170.71875 22L 170.71875 16C 170.71875 12.6863 168.03245 10 164.71875 10L 158.71875 10M 158.71875 70L 22 70M 170.71875 58L 170.71875 64C 170.71875 67.3137 168.03245 70 164.71875 70L 158.71875 70"></path></g></g></g><g id="g-root-cp_3-1_g-3-1_1cwrmuy141axhc-fill" data-item-order="-408303" transform="translate(220.3515625, 350)"><g id="cp_3-1_g-3-1_1cwrmuy141axhc-fill-merged" stroke="none" fill="#ffeceb" fill-opacity="1"><g><path d="M170.719 64C170.719 67.314 168.032 70 164.719 70 H158.719 H16C12.686 70 10 67.314 10 64 V16C10 12.686 12.686 10 16 10 H164.719C168.032 10 170.719 12.686 170.719 16 V64"></path></g></g></g><g id="g-root-cp_3-1_g-3-1_1cwrmuy141axhc-stroke" data-item-order="-408303" transform="translate(220.3515625, 350)"><g id="cp_3-1_g-3-1_1cwrmuy141axhc-stroke" fill="none" stroke-linecap="round" stroke-linejoin="round" stroke-miterlimit="4" stroke="#e55753" stroke-width="2" stroke-opacity="1"><g><path d="M 10 22L 10 16C 10 12.6863 12.6863 10 16 10L 22 10M 170.71875 22L 170.71875 58M 10 58L 10 22M 22 10L 158.71875 10M 10 58L 10 64C 10 67.3137 12.6863 70 16 70L 22 70M 170.71875 22L 170.71875 16C 170.71875 12.6863 168.03245 10 164.71875 10L 158.71875 10M 158.71875 70L 22 70M 170.71875 58L 170.71875 64C 170.71875 67.3137 168.03245 70 164.71875 70L 158.71875 70"></path></g></g></g><g id="g-root-cp_4-1_g-4-1_1cwrmuy141axhk-fill" data-item-order="-408271" transform="translate(220.3515625, 422)"><g id="cp_4-1_g-4-1_1cwrmuy141axhk-fill-merged" stroke="none" fill="#ffebf7" fill-opacity="1"><g><path d="M170.719 64C170.719 67.314 168.032 70 164.719 70 H158.719 H16C12.686 70 10 67.314 10 64 V16C10 12.686 12.686 10 16 10 H164.719C168.032 10 170.719 12.686 170.719 16 V64"></path></g></g></g><g id="g-root-cp_4-1_g-4-1_1cwrmuy141axhk-stroke" data-item-order="-408271" transform="translate(220.3515625, 422)"><g id="cp_4-1_g-4-1_1cwrmuy141axhk-stroke" fill="none" stroke-linecap="round" stroke-linejoin="round" stroke-miterlimit="4" stroke="#de58a9" stroke-width="2" stroke-opacity="1"><g><path d="M 10 22L 10 16C 10 12.6863 12.6863 10 16 10L 22 10M 170.71875 22L 170.71875 58M 10 58L 10 22M 22 10L 158.71875 10M 10 58L 10 64C 10 67.3137 12.6863 70 16 70L 22 70M 170.71875 22L 170.71875 16C 170.71875 12.6863 168.03245 10 164.71875 10L 158.71875 10M 158.71875 70L 22 70M 170.71875 58L 170.71875 64C 170.71875 67.3137 168.03245 70 164.71875 70L 158.71875 70"></path></g></g></g><g id="g-root-cp_5-1_g-5-1_1hcl4ze141axhc-fill" data-item-order="-408239" transform="translate(220.3515625, 494)"><g id="cp_5-1_g-5-1_1hcl4ze141axhc-fill-merged" stroke="none" fill="#faf0ff" fill-opacity="1"><g><path d="M170.719 82C170.719 85.314 168.032 88 164.719 88 H158.719 H16C12.686 88 10 85.314 10 82 V16C10 12.686 12.686 10 16 10 H164.719C168.032 10 170.719 12.686 170.719 16 V82"></path></g></g></g><g id="g-root-cp_5-1_g-5-1_1hcl4ze141axhc-stroke" data-item-order="-408239" transform="translate(220.3515625, 494)"><g id="cp_5-1_g-5-1_1hcl4ze141axhc-stroke" fill="none" stroke-linecap="round" stroke-linejoin="round" stroke-miterlimit="4" stroke="#ba5de5" stroke-width="2" stroke-opacity="1"><g><path d="M 10 22L 10 16C 10 12.6863 12.6863 10 16 10L 22 10M 170.71875 22L 170.71875 76M 10 76L 10 22M 22 10L 158.71875 10M 10 76L 10 82C 10 85.3137 12.6863 88 16 88L 22 88M 170.71875 22L 170.71875 16C 170.71875 12.6863 168.03245 10 164.71875 10L 158.71875 10M 158.71875 88L 22 88M 170.71875 76L 170.71875 82C 170.71875 85.3137 168.03245 88 164.71875 88L 158.71875 88"></path></g></g></g><g id="g-root-cp_0-2_g-0-2_1cwrmuy141awox-fill" data-item-order="-408205" transform="translate(393.0703125, 104)"><g id="cp_0-2_g-0-2_1cwrmuy141awox-fill-merged" stroke="none" fill="#f5f5f5" fill-opacity="1"><g><path d="M177.312 76C177.312 79.314 174.626 82 171.312 82 H165.312 H16C12.686 82 10 79.314 10 76 V16C10 12.686 12.686 10 16 10 H171.312C174.626 10 177.312 12.686 177.312 16 V76"></path></g></g></g><g id="g-root-cp_0-2_g-0-2_1cwrmuy141awox-stroke" data-item-order="-408205" transform="translate(393.0703125, 104)"><g id="cp_0-2_g-0-2_1cwrmuy141awox-stroke" fill="none" stroke-linecap="round" stroke-linejoin="round" stroke-miterlimit="4" stroke="#a3a3a3" stroke-width="2" stroke-opacity="1"><g><path d="M 10 22L 10 16C 10 12.6863 12.6863 10 16 10L 22 10M 177.312469 22L 177.312469 70M 10 70L 10 22M 22 10L 165.312469 10M 10 70L 10 76C 10 79.3137 12.6863 82 16 82L 22 82M 177.312469 22L 177.312469 16C 177.312469 12.6863 174.626169 10 171.312469 10L 165.312469 10M 165.312469 82L 22 82M 177.312469 70L 177.312469 76C 177.312469 79.3137 174.626169 82 171.312469 82L 165.312469 82"></path></g></g></g><g id="g-root-cp_1-2_g-1-2_1cwrmuy141awp5-fill" data-item-order="-408169" transform="translate(393.0703125, 188)"><g id="cp_1-2_g-1-2_1cwrmuy141awp5-fill-merged" stroke="none" fill="#fffbda" fill-opacity="1"><g><path d="M177.312 82C177.312 85.314 174.626 88 171.312 88 H165.312 H16C12.686 88 10 85.314 10 82 V16C10 12.686 12.686 10 16 10 H171.312C174.626 10 177.312 12.686 177.312 16 V82"></path></g></g></g><g id="g-root-cp_1-2_g-1-2_1cwrmuy141awp5-stroke" data-item-order="-408169" transform="translate(393.0703125, 188)"><g id="cp_1-2_g-1-2_1cwrmuy141awp5-stroke" fill="none" stroke-linecap="round" stroke-linejoin="round" stroke-miterlimit="4" stroke="#e0cb15" stroke-width="2" stroke-opacity="1"><g><path d="M 10 22L 10 16C 10 12.6863 12.6863 10 16 10L 22 10M 177.312469 22L 177.312469 76M 10 76L 10 22M 22 10L 165.312469 10M 10 76L 10 82C 10 85.3137 12.6863 88 16 88L 22 88M 177.312469 22L 177.312469 16C 177.312469 12.6863 174.626169 10 171.312469 10L 165.312469 10M 165.312469 88L 22 88M 177.312469 76L 177.312469 82C 177.312469 85.3137 174.626169 88 171.312469 88L 165.312469 88"></path></g></g></g><g id="g-root-cp_2-2_g-2-2_18gy4qi141axhl-fill" data-item-order="-408137" transform="translate(393.0703125, 278)"><g id="cp_2-2_g-2-2_18gy4qi141axhl-fill-merged" stroke="none" fill="#fff2e5" fill-opacity="1"><g><path d="M177.312 64C177.312 67.314 174.626 70 171.312 70 H165.312 H16C12.686 70 10 67.314 10 64 V16C10 12.686 12.686 10 16 10 H171.312C174.626 10 177.312 12.686 177.312 16 V64"></path></g></g></g><g id="g-root-cp_2-2_g-2-2_18gy4qi141axhl-stroke" data-item-order="-408137" transform="translate(393.0703125, 278)"><g id="cp_2-2_g-2-2_18gy4qi141axhl-stroke" fill="none" stroke-linecap="round" stroke-linejoin="round" stroke-miterlimit="4" stroke="#de8431" stroke-width="2" stroke-opacity="1"><g><path d="M 10 22L 10 16C 10 12.6863 12.6863 10 16 10L 22 10M 177.312469 22L 177.312469 58M 10 58L 10 22M 22 10L 165.312469 10M 10 58L 10 64C 10 67.3137 12.6863 70 16 70L 22 70M 177.312469 22L 177.312469 16C 177.312469 12.6863 174.626169 10 171.312469 10L 165.312469 10M 165.312469 70L 22 70M 177.312469 58L 177.312469 64C 177.312469 67.3137 174.626169 70 171.312469 70L 165.312469 70"></path></g></g></g><g id="g-root-cp_3-2_g-3-2_1cwrmuy141axhd-fill" data-item-order="-408105" transform="translate(393.0703125, 350)"><g id="cp_3-2_g-3-2_1cwrmuy141axhd-fill-merged" stroke="none" fill="#ffeceb" fill-opacity="1"><g><path d="M177.312 64C177.312 67.314 174.626 70 171.312 70 H165.312 H16C12.686 70 10 67.314 10 64 V16C10 12.686 12.686 10 16 10 H171.312C174.626 10 177.312 12.686 177.312 16 V64"></path></g></g></g><g id="g-root-cp_3-2_g-3-2_1cwrmuy141axhd-stroke" data-item-order="-408105" transform="translate(393.0703125, 350)"><g id="cp_3-2_g-3-2_1cwrmuy141axhd-stroke" fill="none" stroke-linecap="round" stroke-linejoin="round" stroke-miterlimit="4" stroke="#e55753" stroke-width="2" stroke-opacity="1"><g><path d="M 10 22L 10 16C 10 12.6863 12.6863 10 16 10L 22 10M 177.312469 22L 177.312469 58M 10 58L 10 22M 22 10L 165.312469 10M 10 58L 10 64C 10 67.3137 12.6863 70 16 70L 22 70M 177.312469 22L 177.312469 16C 177.312469 12.6863 174.626169 10 171.312469 10L 165.312469 10M 165.312469 70L 22 70M 177.312469 58L 177.312469 64C 177.312469 67.3137 174.626169 70 171.312469 70L 165.312469 70"></path></g></g></g><g id="g-root-cp_4-2_g-4-2_1cwrmuy141axhl-fill" data-item-order="-408073" transform="translate(393.0703125, 422)"><g id="cp_4-2_g-4-2_1cwrmuy141axhl-fill-merged" stroke="none" fill="#ffebf7" fill-opacity="1"><g><path d="M177.312 64C177.312 67.314 174.626 70 171.312 70 H165.312 H16C12.686 70 10 67.314 10 64 V16C10 12.686 12.686 10 16 10 H171.312C174.626 10 177.312 12.686 177.312 16 V64"></path></g></g></g><g id="g-root-cp_4-2_g-4-2_1cwrmuy141axhl-stroke" data-item-order="-408073" transform="translate(393.0703125, 422)"><g id="cp_4-2_g-4-2_1cwrmuy141axhl-stroke" fill="none" stroke-linecap="round" stroke-linejoin="round" stroke-miterlimit="4" stroke="#de58a9" stroke-width="2" stroke-opacity="1"><g><path d="M 10 22L 10 16C 10 12.6863 12.6863 10 16 10L 22 10M 177.312469 22L 177.312469 58M 10 58L 10 22M 22 10L 165.312469 10M 10 58L 10 64C 10 67.3137 12.6863 70 16 70L 22 70M 177.312469 22L 177.312469 16C 177.312469 12.6863 174.626169 10 171.312469 10L 165.312469 10M 165.312469 70L 22 70M 177.312469 58L 177.312469 64C 177.312469 67.3137 174.626169 70 171.312469 70L 165.312469 70"></path></g></g></g><g id="g-root-cp_5-2_g-5-2_1hcl4ze141axhd-fill" data-item-order="-408041" transform="translate(393.0703125, 494)"><g id="cp_5-2_g-5-2_1hcl4ze141axhd-fill-merged" stroke="none" fill="#faf0ff" fill-opacity="1"><g><path d="M177.312 82C177.312 85.314 174.626 88 171.312 88 H165.312 H16C12.686 88 10 85.314 10 82 V16C10 12.686 12.686 10 16 10 H171.312C174.626 10 177.312 12.686 177.312 16 V82"></path></g></g></g><g id="g-root-cp_5-2_g-5-2_1hcl4ze141axhd-stroke" data-item-order="-408041" transform="translate(393.0703125, 494)"><g id="cp_5-2_g-5-2_1hcl4ze141axhd-stroke" fill="none" stroke-linecap="round" stroke-linejoin="round" stroke-miterlimit="4" stroke="#ba5de5" stroke-width="2" stroke-opacity="1"><g><path d="M 10 22L 10 16C 10 12.6863 12.6863 10 16 10L 22 10M 177.312469 22L 177.312469 76M 10 76L 10 22M 22 10L 165.312469 10M 10 76L 10 82C 10 85.3137 12.6863 88 16 88L 22 88M 177.312469 22L 177.312469 16C 177.312469 12.6863 174.626169 10 171.312469 10L 165.312469 10M 165.312469 88L 22 88M 177.312469 76L 177.312469 82C 177.312469 85.3137 174.626169 88 171.312469 88L 165.312469 88"></path></g></g></g><g id="g-root-cp_0-3_g-0-3_1cwrmuy141awoy-fill" data-item-order="-408007" transform="translate(572.3828125, 104)"><g id="cp_0-3_g-0-3_1cwrmuy141awoy-fill-merged" stroke="none" fill="#f5f5f5" fill-opacity="1"><g><path d="M179.906 76C179.906 79.314 177.22 82 173.906 82 H167.906 H16C12.686 82 10 79.314 10 76 V16C10 12.686 12.686 10 16 10 H173.906C177.22 10 179.906 12.686 179.906 16 V76"></path></g></g></g><g id="g-root-cp_0-3_g-0-3_1cwrmuy141awoy-stroke" data-item-order="-408007" transform="translate(572.3828125, 104)"><g id="cp_0-3_g-0-3_1cwrmuy141awoy-stroke" fill="none" stroke-linecap="round" stroke-linejoin="round" stroke-miterlimit="4" stroke="#a3a3a3" stroke-width="2" stroke-opacity="1"><g><path d="M 10 22L 10 16C 10 12.6863 12.6863 10 16 10L 22 10M 179.90625 22L 179.90625 70M 10 70L 10 22M 22 10L 167.90625 10M 10 70L 10 76C 10 79.3137 12.6863 82 16 82L 22 82M 179.90625 22L 179.90625 16C 179.90625 12.6863 177.21995 10 173.90625 10L 167.90625 10M 167.90625 82L 22 82M 179.90625 70L 179.90625 76C 179.90625 79.3137 177.21995 82 173.90625 82L 167.90625 82"></path></g></g></g><g id="g-root-cp_1-3_g-1-3_1cwrmuy141awp6-fill" data-item-order="-407969" transform="translate(572.3828125, 188)"><g id="cp_1-3_g-1-3_1cwrmuy141awp6-fill-merged" stroke="none" fill="#fffbda" fill-opacity="1"><g><path d="M179.906 82C179.906 85.314 177.22 88 173.906 88 H167.906 H16C12.686 88 10 85.314 10 82 V16C10 12.686 12.686 10 16 10 H173.906C177.22 10 179.906 12.686 179.906 16 V82"></path></g></g></g><g id="g-root-cp_1-3_g-1-3_1cwrmuy141awp6-stroke" data-item-order="-407969" transform="translate(572.3828125, 188)"><g id="cp_1-3_g-1-3_1cwrmuy141awp6-stroke" fill="none" stroke-linecap="round" stroke-linejoin="round" stroke-miterlimit="4" stroke="#e0cb15" stroke-width="2" stroke-opacity="1"><g><path d="M 10 22L 10 16C 10 12.6863 12.6863 10 16 10L 22 10M 179.90625 22L 179.90625 76M 10 76L 10 22M 22 10L 167.90625 10M 10 76L 10 82C 10 85.3137 12.6863 88 16 88L 22 88M 179.90625 22L 179.90625 16C 179.90625 12.6863 177.21995 10 173.90625 10L 167.90625 10M 167.90625 88L 22 88M 179.90625 76L 179.90625 82C 179.90625 85.3137 177.21995 88 173.90625 88L 167.90625 88"></path></g></g></g><g id="g-root-cp_2-3_g-2-3_18gy4qi141axhm-fill" data-item-order="-407937" transform="translate(572.3828125, 278)"><g id="cp_2-3_g-2-3_18gy4qi141axhm-fill-merged" stroke="none" fill="#fff2e5" fill-opacity="1"><g><path d="M179.906 64C179.906 67.314 177.22 70 173.906 70 H167.906 H16C12.686 70 10 67.314 10 64 V16C10 12.686 12.686 10 16 10 H173.906C177.22 10 179.906 12.686 179.906 16 V64"></path></g></g></g><g id="g-root-cp_2-3_g-2-3_18gy4qi141axhm-stroke" data-item-order="-407937" transform="translate(572.3828125, 278)"><g id="cp_2-3_g-2-3_18gy4qi141axhm-stroke" fill="none" stroke-linecap="round" stroke-linejoin="round" stroke-miterlimit="4" stroke="#de8431" stroke-width="2" stroke-opacity="1"><g><path d="M 10 22L 10 16C 10 12.6863 12.6863 10 16 10L 22 10M 179.90625 22L 179.90625 58M 10 58L 10 22M 22 10L 167.90625 10M 10 58L 10 64C 10 67.3137 12.6863 70 16 70L 22 70M 179.90625 22L 179.90625 16C 179.90625 12.6863 177.21995 10 173.90625 10L 167.90625 10M 167.90625 70L 22 70M 179.90625 58L 179.90625 64C 179.90625 67.3137 177.21995 70 173.90625 70L 167.90625 70"></path></g></g></g><g id="g-root-cp_3-3_g-3-3_1cwrmuy141axhe-fill" data-item-order="-407905" transform="translate(572.3828125, 350)"><g id="cp_3-3_g-3-3_1cwrmuy141axhe-fill-merged" stroke="none" fill="#ffeceb" fill-opacity="1"><g><path d="M179.906 64C179.906 67.314 177.22 70 173.906 70 H167.906 H16C12.686 70 10 67.314 10 64 V16C10 12.686 12.686 10 16 10 H173.906C177.22 10 179.906 12.686 179.906 16 V64"></path></g></g></g><g id="g-root-cp_3-3_g-3-3_1cwrmuy141axhe-stroke" data-item-order="-407905" transform="translate(572.3828125, 350)"><g id="cp_3-3_g-3-3_1cwrmuy141axhe-stroke" fill="none" stroke-linecap="round" stroke-linejoin="round" stroke-miterlimit="4" stroke="#e55753" stroke-width="2" stroke-opacity="1"><g><path d="M 10 22L 10 16C 10 12.6863 12.6863 10 16 10L 22 10M 179.90625 22L 179.90625 58M 10 58L 10 22M 22 10L 167.90625 10M 10 58L 10 64C 10 67.3137 12.6863 70 16 70L 22 70M 179.90625 22L 179.90625 16C 179.90625 12.6863 177.21995 10 173.90625 10L 167.90625 10M 167.90625 70L 22 70M 179.90625 58L 179.90625 64C 179.90625 67.3137 177.21995 70 173.90625 70L 167.90625 70"></path></g></g></g><g id="g-root-cp_4-3_g-4-3_1cwrmuy141axhm-fill" data-item-order="-407873" transform="translate(572.3828125, 422)"><g id="cp_4-3_g-4-3_1cwrmuy141axhm-fill-merged" stroke="none" fill="#ffebf7" fill-opacity="1"><g><path d="M179.906 64C179.906 67.314 177.22 70 173.906 70 H167.906 H16C12.686 70 10 67.314 10 64 V16C10 12.686 12.686 10 16 10 H173.906C177.22 10 179.906 12.686 179.906 16 V64"></path></g></g></g><g id="g-root-cp_4-3_g-4-3_1cwrmuy141axhm-stroke" data-item-order="-407873" transform="translate(572.3828125, 422)"><g id="cp_4-3_g-4-3_1cwrmuy141axhm-stroke" fill="none" stroke-linecap="round" stroke-linejoin="round" stroke-miterlimit="4" stroke="#de58a9" stroke-width="2" stroke-opacity="1"><g><path d="M 10 22L 10 16C 10 12.6863 12.6863 10 16 10L 22 10M 179.90625 22L 179.90625 58M 10 58L 10 22M 22 10L 167.90625 10M 10 58L 10 64C 10 67.3137 12.6863 70 16 70L 22 70M 179.90625 22L 179.90625 16C 179.90625 12.6863 177.21995 10 173.90625 10L 167.90625 10M 167.90625 70L 22 70M 179.90625 58L 179.90625 64C 179.90625 67.3137 177.21995 70 173.90625 70L 167.90625 70"></path></g></g></g><g id="g-root-cp_5-3_g-5-3_18gy4qi141aya2-fill" data-item-order="-407841" transform="translate(572.3828125, 494)"><g id="cp_5-3_g-5-3_18gy4qi141aya2-fill-merged" stroke="none" fill="#faf0ff" fill-opacity="1"><g><path d="M179.906 82C179.906 85.314 177.22 88 173.906 88 H167.906 H16C12.686 88 10 85.314 10 82 V16C10 12.686 12.686 10 16 10 H173.906C177.22 10 179.906 12.686 179.906 16 V82"></path></g></g></g><g id="g-root-cp_5-3_g-5-3_18gy4qi141aya2-stroke" data-item-order="-407841" transform="translate(572.3828125, 494)"><g id="cp_5-3_g-5-3_18gy4qi141aya2-stroke" fill="none" stroke-linecap="round" stroke-linejoin="round" stroke-miterlimit="4" stroke="#ba5de5" stroke-width="2" stroke-opacity="1"><g><path d="M 10 22L 10 16C 10 12.6863 12.6863 10 16 10L 22 10M 179.90625 22L 179.90625 76M 10 76L 10 22M 22 10L 167.90625 10M 10 76L 10 82C 10 85.3137 12.6863 88 16 88L 22 88M 179.90625 22L 179.90625 16C 179.90625 12.6863 177.21995 10 173.90625 10L 167.90625 10M 167.90625 88L 22 88M 179.90625 76L 179.90625 82C 179.90625 85.3137 177.21995 88 173.90625 88L 167.90625 88"></path></g></g></g><g id="g-root-tx_governan_18gy4qi141axhq-fill" data-item-order="0" transform="translate(584.3828125, 290)"><g id="tx_governan_18gy4qi141axhq-fill-merged" stroke="none" fill="#de8431" fill-opacity="1"><g><text style="font: 15px Roboto, sans-serif; white-space: pre;" transform="translate(82.953125, 28)" font-size="15px" font-family="Roboto, sans-serif"><tspan x="-70.95" y="-0.5" dominant-baseline="ideographic">Governance changes </tspan><tspan x="-37.51" y="17.5" dominant-baseline="ideographic">asset rules</tspan></text></g></g></g><g id="g-root-tx_governan_18gy4qi141axhq-stroke" data-item-order="0" transform="translate(584.3828125, 290)"></g><g id="g-root-tx_delegate_18gy4qi141axhp-fill" data-item-order="0" transform="translate(419.09765625, 290)"><g id="tx_delegate_18gy4qi141axhp-fill-merged" stroke="none" fill="#de8431" fill-opacity="1"><g><text style="font: 15px Roboto, sans-serif; white-space: pre;" transform="translate(67.62890625, 28)" font-size="15px" font-family="Roboto, sans-serif"><tspan x="-55.63" y="-0.5" dominant-baseline="ideographic">Delegated asset </tspan><tspan x="-37.91" y="17.5" dominant-baseline="ideographic">committee</tspan></text></g></g></g><g id="g-root-tx_delegate_18gy4qi141axhp-stroke" data-item-order="0" transform="translate(419.09765625, 290)"></g><g id="g-root-tx_issuerad_18gy4qi141axho-fill" data-item-order="0" transform="translate(232.3515625, 290)"><g id="tx_issuerad_18gy4qi141axho-fill-merged" stroke="none" fill="#de8431" fill-opacity="1"><g><text style="font: 15px Roboto, sans-serif; white-space: pre;" transform="translate(78.359375, 28)" font-size="15px" font-family="Roboto, sans-serif"><tspan x="-66.36" y="-0.5" dominant-baseline="ideographic">Issuer/admin asset </tspan><tspan x="-29.1" y="17.5" dominant-baseline="ideographic">controls</tspan></text></g></g></g><g id="g-root-tx_issuerad_18gy4qi141axho-stroke" data-item-order="0" transform="translate(232.3515625, 290)"></g><g id="g-root-tx_asset_18gy4qi141axhn-fill" data-item-order="0" transform="translate(38.015625, 296)"><g id="tx_asset_18gy4qi141axhn-fill-merged" stroke="none" fill="#de8431" fill-opacity="1"><g><text style="font: 20px Roboto, sans-serif; white-space: pre;" transform="translate(10, 22)" font-size="20px" font-family="Roboto, sans-serif"><tspan x="2" y="11.5" dominant-baseline="ideographic">Asset</tspan></text></g></g></g><g id="g-root-tx_asset_18gy4qi141axhn-stroke" data-item-order="0" transform="translate(38.015625, 296)"></g><g id="g-root-tx_governan_18gy4qi141axhi-fill" data-item-order="0" transform="translate(601.66796875, 200)"><g id="tx_governan_18gy4qi141axhi-fill-merged" stroke="none" fill="#e0cb15" fill-opacity="1"><g><text style="font: 15px Roboto, sans-serif; white-space: pre;" transform="translate(65.66796875, 37)" font-size="15px" font-family="Roboto, sans-serif"><tspan x="-53.67" y="-9.5" dominant-baseline="ideographic">Governance-led </tspan><tspan x="-19.97" y="8.5" dominant-baseline="ideographic">chain </tspan><tspan x="-52.33" y="26.5" dominant-baseline="ideographic">reconfiguration</tspan></text></g></g></g><g id="g-root-tx_governan_18gy4qi141axhi-stroke" data-item-order="0" transform="translate(601.66796875, 200)"></g><g id="g-root-tx_protocol_1cwrmuy141axhf-fill" data-item-order="0" transform="translate(38.015625, 368)"><g id="tx_protocol_1cwrmuy141axhf-fill-merged" stroke="none" fill="#e55753" fill-opacity="1"><g><text style="font: 20px Roboto, sans-serif; white-space: pre;" transform="translate(10, 22)" font-size="20px" font-family="Roboto, sans-serif"><tspan x="2" y="11.5" dominant-baseline="ideographic">Protocol</tspan></text></g></g></g><g id="g-root-tx_protocol_1cwrmuy141axhf-stroke" data-item-order="0" transform="translate(38.015625, 368)"></g><g id="g-root-tx_adminpau_1cwrmuy141axhg-fill" data-item-order="0" transform="translate(248.09375, 362)"><g id="tx_adminpau_1cwrmuy141axhg-fill-merged" stroke="none" fill="#e55753" fill-opacity="1"><g><text style="font: 15px Roboto, sans-serif; white-space: pre;" transform="translate(62.6171875, 28)" font-size="15px" font-family="Roboto, sans-serif"><tspan x="-50.62" y="-0.5" dominant-baseline="ideographic">Admin pause / </tspan><tspan x="-34.73" y="17.5" dominant-baseline="ideographic">shutdown</tspan></text></g></g></g><g id="g-root-tx_adminpau_1cwrmuy141axhg-stroke" data-item-order="0" transform="translate(248.09375, 362)"></g><g id="g-root-tx_security_1cwrmuy141axhh-fill" data-item-order="0" transform="translate(419.87890625, 362)"><g id="tx_security_1cwrmuy141axhh-fill-merged" stroke="none" fill="#e55753" fill-opacity="1"><g><text style="font: 15px Roboto, sans-serif; white-space: pre;" transform="translate(66.84765625, 28)" font-size="15px" font-family="Roboto, sans-serif"><tspan x="-54.85" y="-0.5" dominant-baseline="ideographic">Security-council </tspan><tspan x="-22.14" y="17.5" dominant-baseline="ideographic">pause</tspan></text></g></g></g><g id="g-root-tx_security_1cwrmuy141axhh-stroke" data-item-order="0" transform="translate(419.87890625, 362)"></g><g id="g-root-tx_daoadmin_1cwrmuy141axhi-fill" data-item-order="0" transform="translate(592.88671875, 362)"><g id="tx_daoadmin_1cwrmuy141axhi-fill-merged" stroke="none" fill="#e55753" fill-opacity="1"><g><text style="font: 15px Roboto, sans-serif; white-space: pre;" transform="translate(74.44921875, 28)" font-size="15px" font-family="Roboto, sans-serif"><tspan x="-62.45" y="-0.5" dominant-baseline="ideographic">DAO-administered </tspan><tspan x="-61.24" y="17.5" dominant-baseline="ideographic">emergency action</tspan></text></g></g></g><g id="g-root-tx_daoadmin_1cwrmuy141axhi-stroke" data-item-order="0" transform="translate(592.88671875, 362)"></g><g id="g-root-tx_councilc_18gy4qi141axhh-fill" data-item-order="0" transform="translate(406.23828125, 209)"><g id="tx_councilc_18gy4qi141axhh-fill-merged" stroke="none" fill="#e0cb15" fill-opacity="1"><g><text style="font: 15px Roboto, sans-serif; white-space: pre;" transform="translate(80.48828125, 28)" font-size="15px" font-family="Roboto, sans-serif"><tspan x="-68.49" y="-0.5" dominant-baseline="ideographic">Council-coordinated </tspan><tspan x="-50.91" y="17.5" dominant-baseline="ideographic">network action</tspan></text></g></g></g><g id="g-root-tx_councilc_18gy4qi141axhh-stroke" data-item-order="0" transform="translate(406.23828125, 209)"></g><g id="g-root-tx_keytrigg_1cwrmuy141awp8-fill" data-item-order="0" transform="translate(232.6171875, 209)"><g id="tx_keytrigg_1cwrmuy141awp8-fill-merged" stroke="none" fill="#e0cb15" fill-opacity="1"><g><text style="font: 15px Roboto, sans-serif; white-space: pre;" transform="translate(78.09375, 28)" font-size="15px" font-family="Roboto, sans-serif"><tspan x="-66.09" y="-0.5" dominant-baseline="ideographic">Key-triggered chain-</tspan><tspan x="-51.29" y="17.5" dominant-baseline="ideographic">wide restriction</tspan></text></g></g></g><g id="g-root-tx_keytrigg_1cwrmuy141awp8-stroke" data-item-order="0" transform="translate(232.6171875, 209)"></g><g id="g-root-tx_network_1cwrmuy141awp7-fill" data-item-order="0" transform="translate(38.015625, 215)"><g id="tx_network_1cwrmuy141awp7-fill-merged" stroke="none" fill="#e0cb15" fill-opacity="1"><g><text style="font: 20px Roboto, sans-serif; white-space: pre;" transform="translate(10, 22)" font-size="20px" font-family="Roboto, sans-serif"><tspan x="2" y="11.5" dominant-baseline="ideographic">Network</tspan></text></g></g></g><g id="g-root-tx_network_1cwrmuy141awp7-stroke" data-item-order="0" transform="translate(38.015625, 215)"></g><g id="g-root-tx_governan_1cwrmuy141awp2-fill" data-item-order="0" transform="translate(599.91796875, 116)"><g id="tx_governan_1cwrmuy141awp2-fill-merged" stroke="none" fill="#969696" fill-opacity="1"><g><text style="font: 20px Roboto, sans-serif; white-space: pre;" transform="translate(67.41796875, 34)" font-size="20px" font-family="Roboto, sans-serif"><tspan x="-55.42" y="-0.5" dominant-baseline="ideographic">Governance </tspan><tspan x="-38.64" y="23.5" dominant-baseline="ideographic">Process</tspan></text></g></g></g><g id="g-root-tx_governan_1cwrmuy141awp2-stroke" data-item-order="0" transform="translate(599.91796875, 116)"></g><g id="g-root-tx_module_1cwrmuy141axhn-fill" data-item-order="0" transform="translate(38.015625, 440)"><g id="tx_module_1cwrmuy141axhn-fill-merged" stroke="none" fill="#de58a9" fill-opacity="1"><g><text style="font: 20px Roboto, sans-serif; white-space: pre;" transform="translate(10, 22)" font-size="20px" font-family="Roboto, sans-serif"><tspan x="2" y="11.5" dominant-baseline="ideographic">Module</tspan></text></g></g></g><g id="g-root-tx_module_1cwrmuy141axhn-stroke" data-item-order="0" transform="translate(38.015625, 440)"></g><g id="g-root-tx_admindis_1cwrmuy141axho-fill" data-item-order="0" transform="translate(239.4921875, 434)"><g id="tx_admindis_1cwrmuy141axho-fill-merged" stroke="none" fill="#de58a9" fill-opacity="1"><g><text style="font: 15px Roboto, sans-serif; white-space: pre;" transform="translate(71.21875, 28)" font-size="15px" font-family="Roboto, sans-serif"><tspan x="-59.22" y="-0.5" dominant-baseline="ideographic">Admin disables a </tspan><tspan x="-25.48" y="17.5" dominant-baseline="ideographic">feature</tspan></text></g></g></g><g id="g-root-tx_admindis_1cwrmuy141axho-stroke" data-item-order="0" transform="translate(239.4921875, 434)"></g><g id="g-root-tx_delegate_1cwrmuy141axhp-fill" data-item-order="0" transform="translate(413.52734375, 434)"><g id="tx_delegate_1cwrmuy141axhp-fill-merged" stroke="none" fill="#de58a9" fill-opacity="1"><g><text style="font: 15px Roboto, sans-serif; white-space: pre;" transform="translate(73.19921875, 28)" font-size="15px" font-family="Roboto, sans-serif"><tspan x="-61.2" y="-0.5" dominant-baseline="ideographic">Delegated feature-</tspan><tspan x="-51.89" y="17.5" dominant-baseline="ideographic">specific pauses</tspan></text></g></g></g><g id="g-root-tx_delegate_1cwrmuy141axhp-stroke" data-item-order="0" transform="translate(413.52734375, 434)"></g><g id="g-root-tx_governan_1cwrmuy141axhq-fill" data-item-order="0" transform="translate(587.17578125, 434)"><g id="tx_governan_1cwrmuy141axhq-fill-merged" stroke="none" fill="#de58a9" fill-opacity="1"><g><text style="font: 15px Roboto, sans-serif; white-space: pre;" transform="translate(80.16015625, 28)" font-size="15px" font-family="Roboto, sans-serif"><tspan x="-68.16" y="-0.5" dominant-baseline="ideographic">Governance toggles </tspan><tspan x="-66.89" y="17.5" dominant-baseline="ideographic">module parameters</tspan></text></g></g></g><g id="g-root-tx_governan_1cwrmuy141axhq-stroke" data-item-order="0" transform="translate(587.17578125, 434)"></g><g id="g-root-tx_delegate_1cwrmuy141awp1-fill" data-item-order="0" transform="translate(405.0703125, 128)"><g id="tx_delegate_1cwrmuy141awp1-fill-merged" stroke="none" fill="#969696" fill-opacity="1"><g><text style="font: 20px Roboto, sans-serif; white-space: pre;" transform="translate(81.65625, 22)" font-size="20px" font-family="Roboto, sans-serif"><tspan x="-69.66" y="11.5" dominant-baseline="ideographic">Delegated Body</tspan></text></g></g></g><g id="g-root-tx_delegate_1cwrmuy141awp1-stroke" data-item-order="0" transform="translate(405.0703125, 128)"></g><g id="g-root-tx_signerse_1cwrmuy141awp0-fill" data-item-order="0" transform="translate(253.51953125, 128)"><g id="tx_signerse_1cwrmuy141awp0-fill-merged" stroke="none" fill="#969696" fill-opacity="1"><g><text style="font: 20px Roboto, sans-serif; white-space: pre;" transform="translate(57.19140625, 22)" font-size="20px" font-family="Roboto, sans-serif"><tspan x="-45.19" y="11.5" dominant-baseline="ideographic">Signer Set</tspan></text></g></g></g><g id="g-root-tx_signerse_1cwrmuy141awp0-stroke" data-item-order="0" transform="translate(253.51953125, 128)"></g><g id="g-root-tx_scopeaut_1cwrmuy141awoz-fill" data-item-order="0" transform="translate(38.015625, 128)"><g id="tx_scopeaut_1cwrmuy141awoz-fill-merged" stroke="none" fill="#92bd39" fill-opacity="1"><g><text style="font: 20px Roboto, sans-serif; white-space: pre;" transform="translate(89.16796875, 22)" font-size="20px" font-family="Roboto, sans-serif"><tspan x="-77.17" y="11.5" dominant-baseline="ideographic">Scope / Authority</tspan></text></g></g></g><g id="g-root-tx_scopeaut_1cwrmuy141awoz-stroke" data-item-order="0" transform="translate(38.015625, 128)"></g><g id="g-root-tx_governan_18gy4qi141aya6-fill" data-item-order="0" transform="translate(588.4453125, 506)"><g id="tx_governan_18gy4qi141aya6-fill-merged" stroke="none" fill="#ba5de5" fill-opacity="1"><g><text style="font: 15px Roboto, sans-serif; white-space: pre;" transform="translate(78.890625, 37)" font-size="15px" font-family="Roboto, sans-serif"><tspan x="-43.64" y="-9.5" dominant-baseline="ideographic">Governance-</tspan><tspan x="-66.89" y="8.5" dominant-baseline="ideographic">authorized targeted </tspan><tspan x="-22.56" y="26.5" dominant-baseline="ideographic">action</tspan></text></g></g></g><g id="g-root-tx_governan_18gy4qi141aya6-stroke" data-item-order="0" transform="translate(588.4453125, 506)"></g><g id="g-root-tx_account_18gy4qi141aya3-fill" data-item-order="0" transform="translate(38.015625, 521)"><g id="tx_account_18gy4qi141aya3-fill-merged" stroke="none" fill="#ba5de5" fill-opacity="1"><g><text style="font: 20px Roboto, sans-serif; white-space: pre;" transform="translate(10, 22)" font-size="20px" font-family="Roboto, sans-serif"><tspan x="2" y="11.5" dominant-baseline="ideographic">Account</tspan></text></g></g></g><g id="g-root-tx_account_18gy4qi141aya3-stroke" data-item-order="0" transform="translate(38.015625, 521)"></g><g id="g-root-tx_keybased_18gy4qi141aya4-fill" data-item-order="0" transform="translate(232.6015625, 515)"><g id="tx_keybased_18gy4qi141aya4-fill-merged" stroke="none" fill="#ba5de5" fill-opacity="1"><g><text style="font: 15px Roboto, sans-serif; white-space: pre;" transform="translate(78.109375, 28)" font-size="15px" font-family="Roboto, sans-serif"><tspan x="-66.11" y="-0.5" dominant-baseline="ideographic">Key-based targeted </tspan><tspan x="-35.63" y="17.5" dominant-baseline="ideographic">restriction</tspan></text></g></g></g><g id="g-root-tx_keybased_18gy4qi141aya4-stroke" data-item-order="0" transform="translate(232.6015625, 515)"></g><g id="g-root-tx_delegate_18gy4qi141aya5-fill" data-item-order="0" transform="translate(409.49609375, 515)"><g id="tx_delegate_18gy4qi141aya5-fill-merged" stroke="none" fill="#ba5de5" fill-opacity="1"><g><text style="font: 15px Roboto, sans-serif; white-space: pre;" transform="translate(77.23046875, 28)" font-size="15px" font-family="Roboto, sans-serif"><tspan x="-65.23" y="-0.5" dominant-baseline="ideographic">Delegated targeted </tspan><tspan x="-41.7" y="17.5" dominant-baseline="ideographic">remediation</tspan></text></g></g></g><g id="g-root-tx_delegate_18gy4qi141aya5-stroke" data-item-order="0" transform="translate(409.49609375, 515)"></g><g id="g-root-tx_scopevsa_18gy4qi141awpa-fill" data-item-order="0" transform="translate(201.19921875, 38)"><g id="tx_scopevsa_18gy4qi141awpa-fill-merged" stroke="none" fill="#484848" fill-opacity="1"><g><text style="font: bold 25px Roboto, sans-serif; white-space: pre;" transform="translate(192.953125, 25)" font-weight="bold" font-size="25px" font-family="Roboto, sans-serif"><tspan x="-180.95" y="14.5" dominant-baseline="ideographic">Scope vs. Authority Comparison</tspan></text></g></g></g><g id="g-root-tx_scopevsa_18gy4qi141awpa-stroke" data-item-order="0" transform="translate(201.19921875, 38)"></g></g></g></svg>