<?xml version="1.0" encoding="utf-8" standalone="yes"?>
<!DOCTYPE svg PUBLIC "-//W3C//DTD SVG 1.1//EN" "http://www.w3.org/Graphics/SVG/1.1/DTD/svg11.dtd">
<svg style="fill:none;stroke:none;fill-rule:evenodd;clip-rule:evenodd;stroke-linecap:round;stroke-linejoin:round;stroke-miterlimit:1.5;" version="1.1" xmlns="http://www.w3.org/2000/svg" xmlns:xlink="http://www.w3.org/1999/xlink" width="1056" height="557" viewBox="0 0 1056 557"><style class="text-font-style fontImports" data-font-family="Roboto">@import url(https://fonts.googleapis.com/css2?family=Roboto:wght@400;700&amp;amp;display=block);</style><g id="items" style="isolation: isolate"><g id="blend" style="mix-blend-mode: normal"><g id="g-root-cp_3_g-3_1hgcfay168xssv-fill" data-item-order="-464678" transform="translate(50, 319)"><g id="cp_3_g-3_1hgcfay168xssv-fill-merged" stroke="none" fill="#ffeceb" fill-opacity="1"><g><path d="M406 41L526 10L718 11L636 166 V58 H526L406 149 H10 V41 H406"></path></g></g></g><g id="g-root-cp_3_g-3_1hgcfay168xssv-stroke" data-item-order="-464678" transform="translate(50, 319)"><g id="cp_3_g-3_1hgcfay168xssv-stroke" fill="none" stroke-linecap="round" stroke-linejoin="round" stroke-miterlimit="4" stroke="#e55753" stroke-width="2" stroke-opacity="1"><g><path d="M 406 41L 526 10L 718 11L 636 166L 636 58L 526 58L 406 149L 10 149L 10 41L 406 41Z"></path></g></g></g><g id="g-root-cp_2_g-2_1hgcfay168xssr-fill" data-item-order="-464674" transform="translate(50, 242)"><g id="cp_2_g-2_1hgcfay168xssr-fill-merged" stroke="none" fill="#e3fff2" fill-opacity="1"><g><path d="M10 10 H406L526 40 H717.826L730 64L717.826 88 H526L406 118 H10 V10"></path></g></g></g><g id="g-root-cp_2_g-2_1hgcfay168xssr-stroke" data-item-order="-464674" transform="translate(50, 242)"><g id="cp_2_g-2_1hgcfay168xssr-stroke" fill="none" stroke-linecap="round" stroke-linejoin="round" stroke-miterlimit="4" stroke="#3cc583" stroke-width="2" stroke-opacity="1"><g><path d="M 10 10L 406 10L 526 40L 717.8261 40L 730 64L 717.8261 88L 526 88L 406 118L 10 118L 10 10Z"></path></g></g></g><g id="g-root-cp_1_g-1_1hgcfay168xssn-fill" data-item-order="-464670" transform="translate(50, 116)"><g id="cp_1_g-1_1hgcfay168xssn-fill-merged" stroke="none" fill="#fffbda" fill-opacity="1"><g><path d="M406 136L526 166 H718L636 10 V118 H526L406 28 H10 V136 H406"></path></g></g></g><g id="g-root-cp_1_g-1_1hgcfay168xssn-stroke" data-item-order="-464670" transform="translate(50, 116)"><g id="cp_1_g-1_1hgcfay168xssn-stroke" fill="none" stroke-linecap="round" stroke-linejoin="round" stroke-miterlimit="4" stroke="#e0cb15" stroke-width="2" stroke-opacity="1"><g><path d="M 406 136L 526 166L 718 166L 636 10L 636 118L 526 118L 406 28L 10 28L 10 136L 406 136Z"></path></g></g></g><g id="g-root-tx_building_1hgcfay168xssm-fill" data-item-order="0" transform="translate(320.49609375, 38)"><g id="tx_building_1hgcfay168xssm-fill-merged" stroke="none" fill="#484848" fill-opacity="1"><g><text style="font: bold 25px Roboto, sans-serif; white-space: pre;" transform="translate(207.50390625, 25)" font-weight="bold" font-size="25px" font-family="Roboto, sans-serif"><tspan x="-195.5" y="14.5" dominant-baseline="ideographic">Building Trust through Governance</tspan></text></g></g></g><g id="g-root-tx_building_1hgcfay168xssm-stroke" data-item-order="0" transform="translate(320.49609375, 38)"></g><g id="g-root-ic_2_1hgcfay168xsso-fill" data-item-order="0" transform="translate(74, 164)"></g><g id="g-root-ic_2_1hgcfay168xsso-stroke" data-item-order="0" transform="translate(74, 164)"><g id="ic_2_1hgcfay168xsso-stroke" fill="none" stroke-linecap="round" stroke-linejoin="round" stroke-miterlimit="4" stroke="#e0cb15" stroke-width="2" stroke-opacity="1"><g><path d="M 49.5 37.5C 49.5 47.900002 40.900002 56.5 30.5 56.5C 20.1 56.5 11.5 47.900002 11.5 37.5C 11.5 27.1 20.1 18.5 30.5 18.5M 38.099998 48.099998L 23.1 48.099998C 21.5 48.099998 20.1 45.900002 20.1 43.099998C 20.1 40.299999 21.5 38.099998 23.1 38.099998L 38.099998 38.099998C 39.700001 38.099998 41.099998 40.299999 41.099998 43.099998C 41.099998 45.900002 39.700001 48.099998 38.099998 48.099998ZM 20.1 43.099998L 41.099998 43.099998M 26.700001 38.099998L 26.700001 48.099998M 34.299999 48.099998L 34.299999 38.099998M 41.900002 14.3L 45.900002 16.9L 49.900002 14.3M 45.900002 32.900002L 45.900002 11.5M 41.900002 30.1L 45.900002 27.5L 49.900002 30.1M 53.900002 18.299999L 51.299999 22.299999L 53.900002 26.1M 35.299999 22.299999L 56.5 22.299999M 37.900002 18.299999L 40.700001 22.299999L 37.900002 26.1M 24.25 32.900002C 23.835787 32.900002 23.5 32.564217 23.5 32.150002C 23.5 31.735786 23.835787 31.400002 24.25 31.400002M 24.25 32.900002C 24.664215 32.900002 25 32.564217 25 32.150002C 25 31.735786 24.664215 31.400002 24.25 31.400002M 36.849998 32.900002C 36.435787 32.900002 36.099998 32.564217 36.099998 32.150002C 36.099998 31.735786 36.435787 31.400002 36.849998 31.400002M 36.849998 32.900002C 37.264214 32.900002 37.599998 32.564217 37.599998 32.150002C 37.599998 31.735786 37.264214 31.400002 36.849998 31.400002"></path></g></g></g><g id="g-root-tx_optimist_1hgcfay168xssp-fill" data-item-order="0" transform="translate(134, 152)"><g id="tx_optimist_1hgcfay168xssp-fill-merged" stroke="none" fill="#e0cb15" fill-opacity="1"><g><text style="font: 20px Roboto, sans-serif; white-space: pre;" transform="translate(10, 22)" font-size="20px" font-family="Roboto, sans-serif"><tspan x="2" y="11.5" dominant-baseline="ideographic">Optimistic Freeze</tspan></text></g></g></g><g id="g-root-tx_optimist_1hgcfay168xssp-stroke" data-item-order="0" transform="translate(134, 152)"></g><g id="g-root-tx_rapidact_1hgcfay168xssq-fill" data-item-order="0" transform="translate(134, 188)"><g id="tx_rapidact_1hgcfay168xssq-fill-merged" stroke="none" fill="#ab9e2b" fill-opacity="1"><g><text style="font: 15px Roboto, sans-serif; white-space: pre;" transform="translate(10, 28)" font-size="15px" font-family="Roboto, sans-serif"><tspan x="2" y="-0.5" dominant-baseline="ideographic">Rapid action followed by governance </tspan><tspan x="2" y="17.5" dominant-baseline="ideographic">approval.</tspan></text></g></g></g><g id="g-root-tx_rapidact_1hgcfay168xssq-stroke" data-item-order="0" transform="translate(134, 188)"></g><g id="g-root-ic_chec_1hgcfay168xsss-fill" data-item-order="0" transform="translate(74, 272)"></g><g id="g-root-ic_chec_1hgcfay168xsss-stroke" data-item-order="0" transform="translate(74, 272)"><g id="ic_chec_1hgcfay168xsss-stroke" fill="none" stroke-linecap="round" stroke-linejoin="round" stroke-miterlimit="4" stroke="#3cc583" stroke-width="2" stroke-opacity="1"><g><path d="M 33.059998 44.993999C 33.060001 51.621418 38.432587 56.993999 45.060001 56.993999C 51.68742 56.993999 57.060001 51.621418 57.060001 44.993999C 57.060001 38.366585 51.68742 32.994003 45.060001 32.994003C 38.432587 32.994003 33.060001 38.366585 33.060001 44.993999ZM 50.400002 41.506001L 44.599998 49.254002C 44.338993 49.601555 43.94006 49.818806 43.506496 49.849503C 43.072933 49.880196 42.647373 49.721317 42.34 49.414001L 39.34 46.414001M 29.059999 47L 15.059999 47C 12.850861 47 11.059999 45.209141 11.059999 43L 11.059999 15.012C 11.059999 12.802861 12.850861 11.012 15.059999 11.012L 43.060001 11.012C 45.269138 11.012 47.060001 12.802861 47.060001 15.012L 47.060001 29.011999M 11.059999 23.012001L 47.060001 23.012001M 11.059999 34.993999L 31.059999 34.993999M 35.059998 11.012L 35.059998 31.011999M 23.060001 11.012L 23.060001 46.993999"></path></g></g></g><g id="g-root-tx_preregis_1hgcfay168xsst-fill" data-item-order="0" transform="translate(134, 269)"><g id="tx_preregis_1hgcfay168xsst-fill-merged" stroke="none" fill="#3cc583" fill-opacity="1"><g><text style="font: 20px Roboto, sans-serif; white-space: pre;" transform="translate(10, 22)" font-size="20px" font-family="Roboto, sans-serif"><tspan x="2" y="11.5" dominant-baseline="ideographic">Pre-registered Action Registry</tspan></text></g></g></g><g id="g-root-tx_preregis_1hgcfay168xsst-stroke" data-item-order="0" transform="translate(134, 269)"></g><g id="g-root-tx_legitima_1hgcfay168xssu-fill" data-item-order="0" transform="translate(794, 277.5)"><g id="tx_legitima_1hgcfay168xssu-fill-merged" stroke="none" fill="#484848" fill-opacity="1"><g><text style="font: 30px Roboto, sans-serif; white-space: pre;" transform="translate(10, 28)" font-size="30px" font-family="Roboto, sans-serif"><tspan x="2" y="17.5" dominant-baseline="ideographic">Legitimacy</tspan></text></g></g></g><g id="g-root-tx_legitima_1hgcfay168xssu-stroke" data-item-order="0" transform="translate(794, 277.5)"></g><g id="g-root-tx_authorit_1lw5xfe168xssg-fill" data-item-order="0" transform="translate(134, 305)"><g id="tx_authorit_1lw5xfe168xssg-fill-merged" stroke="none" fill="#449a70" fill-opacity="1"><g><text style="font: 15px Roboto, sans-serif; white-space: pre;" transform="translate(10, 19)" font-size="15px" font-family="Roboto, sans-serif"><tspan x="2" y="8.5" dominant-baseline="ideographic">Authority defined by pre-approved actions.</tspan></text></g></g></g><g id="g-root-tx_authorit_1lw5xfe168xssg-stroke" data-item-order="0" transform="translate(134, 305)"></g><g id="g-root-ic_1_1lw5xfe168xssh-fill" data-item-order="0" transform="translate(74, 380)"></g><g id="g-root-ic_1_1lw5xfe168xssh-stroke" data-item-order="0" transform="translate(74, 380)"><g id="ic_1_1lw5xfe168xssh-stroke" fill="none" stroke-linecap="round" stroke-linejoin="round" stroke-miterlimit="4" stroke="#e55753" stroke-width="2" stroke-opacity="1"><g><path d="M 33 45.001999C 33 51.629417 38.372581 57.002003 45 57.002003C 51.627419 57.002003 57 51.629417 57 45.002003C 57 38.374584 51.627419 33.001999 45 33.001999C 38.372581 33.001999 33 38.374584 33 45.002003ZM 49.242001 40.760002L 40.757999 49.243999M 49.242001 49.243999L 40.757999 40.760002M 29 47L 13 47C 11.895431 47 11 46.104568 11 45L 11 17C 11 15.895431 11.895431 15 13 15L 49 15C 50.104568 15 51 15.895431 51 17L 51 30M 21 11.002L 21 21.001999M 41 11.002L 41 21.001999M 11 25.001999L 51 25.001999"></path></g></g></g><g id="g-root-tx_nonretro_1lw5xfe168xssi-fill" data-item-order="0" transform="translate(134, 368)"><g id="tx_nonretro_1lw5xfe168xssi-fill-merged" stroke="none" fill="#e55753" fill-opacity="1"><g><text style="font: 20px Roboto, sans-serif; white-space: pre;" transform="translate(10, 22)" font-size="20px" font-family="Roboto, sans-serif"><tspan x="2" y="11.5" dominant-baseline="ideographic">Non-retroactivity</tspan></text></g></g></g><g id="g-root-tx_nonretro_1lw5xfe168xssi-stroke" data-item-order="0" transform="translate(134, 368)"></g><g id="g-root-tx_prevents_1lw5xfe168xssj-fill" data-item-order="0" transform="translate(134, 404)"><g id="tx_prevents_1lw5xfe168xssj-fill-merged" stroke="none" fill="#c64b47" fill-opacity="1"><g><text style="font: 15px Roboto, sans-serif; white-space: pre;" transform="translate(10, 28)" font-size="15px" font-family="Roboto, sans-serif"><tspan x="2" y="-0.5" dominant-baseline="ideographic">Prevents retroactive changes to governance </tspan><tspan x="2" y="17.5" dominant-baseline="ideographic">parameters.</tspan></text></g></g></g><g id="g-root-tx_prevents_1lw5xfe168xssj-stroke" data-item-order="0" transform="translate(134, 404)"></g></g></g></svg>