<?xml version="1.0" encoding="utf-8" standalone="yes"?>
<!DOCTYPE svg PUBLIC "-//W3C//DTD SVG 1.1//EN" "http://www.w3.org/Graphics/SVG/1.1/DTD/svg11.dtd">
<svg style="fill:none;stroke:none;fill-rule:evenodd;clip-rule:evenodd;stroke-linecap:round;stroke-linejoin:round;stroke-miterlimit:1.5;" version="1.1" xmlns="http://www.w3.org/2000/svg" xmlns:xlink="http://www.w3.org/1999/xlink" width="1032" height="606" viewBox="0 0 1032 606"><style class="text-font-style fontImports" data-font-family="Roboto">@import url(https://fonts.googleapis.com/css2?family=Roboto:wght@400;700&amp;amp;display=block);</style><g id="items" style="isolation: isolate"><g id="blend" style="mix-blend-mode: normal"><g id="g-root-cp_1_g-1_mgpb6215f8utp-fill" data-item-order="-501802" transform="translate(14, 164)"><g id="cp_1_g-1_mgpb6215f8utp-fill-merged" stroke="none" fill="#edf4ff" fill-opacity="1"><g><path d="M82 10 H139.6L154 34L139.6 58 H82L96.4 34L82 10 M38.8 10 H67.6L82 34L67.6 58 H38.8L53.2 34L38.8 10 M10 10 H24.4L38.8 34L24.4 58 H10L24.4 34L10 10 M82 34 H53.2 M38.8 34 H24.4 M96.4 34 H154"></path></g></g></g><g id="g-root-cp_1_g-1_mgpb6215f8utp-stroke" data-item-order="-501802" transform="translate(14, 164)"><g id="cp_1_g-1_mgpb6215f8utp-stroke" fill="none" stroke-linecap="round" stroke-linejoin="round" stroke-miterlimit="4" stroke="#4e88e7" stroke-width="2" stroke-opacity="1"><g><path d="M 82 10L 139.6 10L 154 34L 139.6 58L 82 58L 96.4 34L 82 10ZM 38.8 10L 67.6 10L 82 34L 67.6 58L 38.8 58L 53.2 34L 38.8 10ZM 10 10L 24.4 10L 38.8 34L 24.4 58L 10 58L 24.4 34L 10 10ZM 82 34L 53.2 34M 38.8 34L 24.4 34M 96.4 34L 154 34M 82 70L 82 154"></path></g></g></g><g id="g-root-cp_2_g-2_mgpb6215f8utq-fill" data-item-order="-501786" transform="translate(182, 164)"><g id="cp_2_g-2_mgpb6215f8utq-fill-merged" stroke="none" fill="#e8f9ff" fill-opacity="1"><g><path d="M82 10 H139.6L154 34L139.6 58 H82L96.4 34L82 10 M38.8 10 H67.6L82 34L67.6 58 H38.8L53.2 34L38.8 10 M10 10 H24.4L38.8 34L24.4 58 H10L24.4 34L10 10 M82 34 H53.2 M38.8 34 H24.4 M96.4 34 H154"></path></g></g></g><g id="g-root-cp_2_g-2_mgpb6215f8utq-stroke" data-item-order="-501786" transform="translate(182, 164)"><g id="cp_2_g-2_mgpb6215f8utq-stroke" fill="none" stroke-linecap="round" stroke-linejoin="round" stroke-miterlimit="4" stroke="#1eabda" stroke-width="2" stroke-opacity="1"><g><path d="M 82 10L 139.6 10L 154 34L 139.6 58L 82 58L 96.4 34L 82 10ZM 38.8 10L 67.6 10L 82 34L 67.6 58L 38.8 58L 53.2 34L 38.8 10ZM 10 10L 24.4 10L 38.8 34L 24.4 58L 10 58L 24.4 34L 10 10ZM 82 34L 53.2 34M 38.8 34L 24.4 34M 96.4 34L 154 34M 82 70L 82 226"></path></g></g></g><g id="g-root-cp_3_g-3_mgpb6215f8utr-fill" data-item-order="-501770" transform="translate(350, 164)"><g id="cp_3_g-3_mgpb6215f8utr-fill-merged" stroke="none" fill="#e3fff2" fill-opacity="1"><g><path d="M82 10 H139.6L154 34L139.6 58 H82L96.4 34L82 10 M38.8 10 H67.6L82 34L67.6 58 H38.8L53.2 34L38.8 10 M10 10 H24.4L38.8 34L24.4 58 H10L24.4 34L10 10 M82 34 H53.2 M38.8 34 H24.4 M96.4 34 H154"></path></g></g></g><g id="g-root-cp_3_g-3_mgpb6215f8utr-stroke" data-item-order="-501770" transform="translate(350, 164)"><g id="cp_3_g-3_mgpb6215f8utr-stroke" fill="none" stroke-linecap="round" stroke-linejoin="round" stroke-miterlimit="4" stroke="#3cc583" stroke-width="2" stroke-opacity="1"><g><path d="M 82 10L 139.6 10L 154 34L 139.6 58L 82 58L 96.4 34L 82 10ZM 38.8 10L 67.6 10L 82 34L 67.6 58L 38.8 58L 53.2 34L 38.8 10ZM 10 10L 24.4 10L 38.8 34L 24.4 58L 10 58L 24.4 34L 10 10ZM 82 34L 53.2 34M 38.8 34L 24.4 34M 96.4 34L 154 34M 82 70L 82 154"></path></g></g></g><g id="g-root-cp_4_g-4_qwitai15f8utc-fill" data-item-order="-501754" transform="translate(518, 164)"><g id="cp_4_g-4_qwitai15f8utc-fill-merged" stroke="none" fill="#f4ffdc" fill-opacity="1"><g><path d="M82 10 H139.6L154 34L139.6 58 H82L96.4 34L82 10 M38.8 10 H67.6L82 34L67.6 58 H38.8L53.2 34L38.8 10 M10 10 H24.4L38.8 34L24.4 58 H10L24.4 34L10 10 M82 34 H53.2 M38.8 34 H24.4 M96.4 34 H154"></path></g></g></g><g id="g-root-cp_4_g-4_qwitai15f8utc-stroke" data-item-order="-501754" transform="translate(518, 164)"><g id="cp_4_g-4_qwitai15f8utc-stroke" fill="none" stroke-linecap="round" stroke-linejoin="round" stroke-miterlimit="4" stroke="#92bd39" stroke-width="2" stroke-opacity="1"><g><path d="M 82 10L 139.6 10L 154 34L 139.6 58L 82 58L 96.4 34L 82 10ZM 38.8 10L 67.6 10L 82 34L 67.6 58L 38.8 58L 53.2 34L 38.8 10ZM 10 10L 24.4 10L 38.8 34L 24.4 58L 10 58L 24.4 34L 10 10ZM 82 34L 53.2 34M 38.8 34L 24.4 34M 96.4 34L 154 34M 82 70L 82 226"></path></g></g></g><g id="g-root-cp_5_g-5_qwitai15f8utd-fill" data-item-order="-501738" transform="translate(686, 164)"><g id="cp_5_g-5_qwitai15f8utd-fill-merged" stroke="none" fill="#fffbda" fill-opacity="1"><g><path d="M82 10 H139.6L154 34L139.6 58 H82L96.4 34L82 10 M38.8 10 H67.6L82 34L67.6 58 H38.8L53.2 34L38.8 10 M10 10 H24.4L38.8 34L24.4 58 H10L24.4 34L10 10 M82 34 H53.2 M38.8 34 H24.4 M96.4 34 H154"></path></g></g></g><g id="g-root-cp_5_g-5_qwitai15f8utd-stroke" data-item-order="-501738" transform="translate(686, 164)"><g id="cp_5_g-5_qwitai15f8utd-stroke" fill="none" stroke-linecap="round" stroke-linejoin="round" stroke-miterlimit="4" stroke="#e0cb15" stroke-width="2" stroke-opacity="1"><g><path d="M 82 10L 139.6 10L 154 34L 139.6 58L 82 58L 96.4 34L 82 10ZM 38.8 10L 67.6 10L 82 34L 67.6 58L 38.8 58L 53.2 34L 38.8 10ZM 10 10L 24.4 10L 38.8 34L 24.4 58L 10 58L 24.4 34L 10 10ZM 82 34L 53.2 34M 38.8 34L 24.4 34M 96.4 34L 154 34M 82 70L 82 154"></path></g></g></g><g id="g-root-cp_6_g-6_qwitai15f8ute-fill" data-item-order="-501722" transform="translate(854, 164)"><g id="cp_6_g-6_qwitai15f8ute-fill-merged" stroke="none" fill="#fff2e5" fill-opacity="1"><g><path d="M82 10 H139.6L154 34L139.6 58 H82L96.4 34L82 10 M38.8 10 H67.6L82 34L67.6 58 H38.8L53.2 34L38.8 10 M10 10 H24.4L38.8 34L24.4 58 H10L24.4 34L10 10 M82 34 H53.2 M38.8 34 H24.4 M96.4 34 H154"></path></g></g></g><g id="g-root-cp_6_g-6_qwitai15f8ute-stroke" data-item-order="-501722" transform="translate(854, 164)"><g id="cp_6_g-6_qwitai15f8ute-stroke" fill="none" stroke-linecap="round" stroke-linejoin="round" stroke-miterlimit="4" stroke="#de8431" stroke-width="2" stroke-opacity="1"><g><path d="M 82 10L 139.6 10L 154 34L 139.6 58L 82 58L 96.4 34L 82 10ZM 38.8 10L 67.6 10L 82 34L 67.6 58L 38.8 58L 53.2 34L 38.8 10ZM 10 10L 24.4 10L 38.8 34L 24.4 58L 10 58L 24.4 34L 10 10ZM 82 34L 53.2 34M 38.8 34L 24.4 34M 96.4 34L 154 34M 82 70L 82 226"></path></g></g></g><g id="g-root-tx_daochain_mgpb6215f8utm-fill" data-item-order="0" transform="translate(536.171875, 92)"><g id="tx_daochain_mgpb6215f8utm-fill-merged" stroke="none" fill="#92bd39" fill-opacity="1"><g><text style="font: 20px Roboto, sans-serif; white-space: pre;" transform="translate(63.828125, 34)" font-size="20px" font-family="Roboto, sans-serif"><tspan x="-51.83" y="-0.5" dominant-baseline="ideographic">DAO/Chain </tspan><tspan x="-40.83" y="23.5" dominant-baseline="ideographic">Decision</tspan></text></g></g></g><g id="g-root-tx_daochain_mgpb6215f8utm-stroke" data-item-order="0" transform="translate(536.171875, 92)"></g><g id="g-root-tx_instrume_mgpb6215f8utn-fill" data-item-order="0" transform="translate(702.8828125, 92)"><g id="tx_instrume_mgpb6215f8utn-fill-merged" stroke="none" fill="#e0cb15" fill-opacity="1"><g><text style="font: 20px Roboto, sans-serif; white-space: pre;" transform="translate(65.1171875, 34)" font-size="20px" font-family="Roboto, sans-serif"><tspan x="-48.73" y="-0.5" dominant-baseline="ideographic">Instrument </tspan><tspan x="-53.12" y="23.5" dominant-baseline="ideographic">Intervention</tspan></text></g></g></g><g id="g-root-tx_instrume_mgpb6215f8utn-stroke" data-item-order="0" transform="translate(702.8828125, 92)"></g><g id="g-root-tx_exploref_mgpb6215f8uto-fill" data-item-order="0" transform="translate(874.21875, 92)"><g id="tx_exploref_mgpb6215f8uto-fill-merged" stroke="none" fill="#de8431" fill-opacity="1"><g><text style="font: 20px Roboto, sans-serif; white-space: pre;" transform="translate(61.78125, 34)" font-size="20px" font-family="Roboto, sans-serif"><tspan x="-33" y="-0.5" dominant-baseline="ideographic">Explore </tspan><tspan x="-49.78" y="23.5" dominant-baseline="ideographic">Framework</tspan></text></g></g></g><g id="g-root-tx_exploref_mgpb6215f8uto-stroke" data-item-order="0" transform="translate(874.21875, 92)"></g><g id="g-root-tx_measures_mgpb6215f8utl-fill" data-item-order="0" transform="translate(374.66796875, 92)"><g id="tx_measures_mgpb6215f8utl-fill-merged" stroke="none" fill="#3cc583" fill-opacity="1"><g><text style="font: 20px Roboto, sans-serif; white-space: pre;" transform="translate(57.33203125, 34)" font-size="20px" font-family="Roboto, sans-serif"><tspan x="-38.75" y="-0.5" dominant-baseline="ideographic">Measure </tspan><tspan x="-45.33" y="23.5" dominant-baseline="ideographic">Sentiment</tspan></text></g></g></g><g id="g-root-tx_measures_mgpb6215f8utl-stroke" data-item-order="0" transform="translate(374.66796875, 92)"></g><g id="g-root-tx_publishc_vbpubu15f8x6o-fill" data-item-order="0" transform="translate(200.8125, 92)"><g id="tx_publishc_vbpubu15f8x6o-fill-merged" stroke="none" fill="#484848" fill-opacity="1"><g><text style="font: 20px Roboto, sans-serif; white-space: pre;" transform="translate(63.1875, 34)" font-size="20px" font-family="Roboto, sans-serif"><tspan x="-32.97" y="-0.5" dominant-baseline="ideographic">Publish </tspan><tspan x="-51.19" y="23.5" dominant-baseline="ideographic">Constraints</tspan></text></g></g></g><g id="g-root-tx_publishc_vbpubu15f8x6o-stroke" data-item-order="0" transform="translate(200.8125, 92)"></g><g id="g-root-tx_protocol_qvwc7e15f8x73-fill" data-item-order="0" transform="translate(43.96875, 92)"><g id="tx_protocol_qvwc7e15f8x73-fill-merged" stroke="none" fill="#484848" fill-opacity="1"><g><text style="font: 20px Roboto, sans-serif; white-space: pre;" transform="translate(52.03125, 34)" font-size="20px" font-family="Roboto, sans-serif"><tspan x="-40.03" y="-0.5" dominant-baseline="ideographic">Protocol </tspan><tspan x="-33.17" y="23.5" dominant-baseline="ideographic">Choice</tspan></text></g></g></g><g id="g-root-tx_protocol_qvwc7e15f8x73-stroke" data-item-order="0" transform="translate(43.96875, 92)"></g><g id="g-root-tx_nextstep_qvwc7e15f8x72-fill" data-item-order="0" transform="translate(234.578125, 38)"><g id="tx_nextstep_qvwc7e15f8x72-fill-merged" stroke="none" fill="#484848" fill-opacity="1"><g><text style="font: bold 25px Roboto, sans-serif; white-space: pre;" transform="translate(281.421875, 25)" font-weight="bold" font-size="25px" font-family="Roboto, sans-serif"><tspan x="-269.42" y="14.5" dominant-baseline="ideographic">Next Steps for Protocol and DAO/Chain Builders</tspan></text></g></g></g><g id="g-root-tx_nextstep_qvwc7e15f8x72-stroke" data-item-order="0" transform="translate(234.578125, 38)"></g><g id="g-root-tx_decidebe_mgpb6215f8vly-fill" data-item-order="0" transform="translate(522.84765625, 476)"><g id="tx_decidebe_mgpb6215f8vly-fill-merged" stroke="none" fill="#484848" fill-opacity="1"><g><text style="font: 15px Roboto, sans-serif; white-space: pre;" transform="translate(77.15234375, 46)" font-size="15px" font-family="Roboto, sans-serif"><tspan x="-53.94" y="-18.5" dominant-baseline="ideographic">Decide between </tspan><tspan x="-63.12" y="-0.5" dominant-baseline="ideographic">prevention posture </tspan><tspan x="-32.68" y="17.5" dominant-baseline="ideographic">or narrow </tspan><tspan x="-65.15" y="35.5" dominant-baseline="ideographic">intervention regime</tspan></text></g></g></g><g id="g-root-tx_decidebe_mgpb6215f8vly-stroke" data-item-order="0" transform="translate(522.84765625, 476)"></g><g id="g-root-tx_selectce_qwitai15f8utf-fill" data-item-order="0" transform="translate(24.44921875, 320)"><g id="tx_selectce_qwitai15f8utf-fill-merged" stroke="none" fill="#4e88e7" fill-opacity="1"><g><text style="font: 20px Roboto, sans-serif; white-space: pre;" transform="translate(71.55078125, 46)" font-size="20px" font-family="Roboto, sans-serif"><tspan x="-59.55" y="-12.5" dominant-baseline="ideographic">Select Cell in </tspan><tspan x="-38.1" y="11.5" dominant-baseline="ideographic">Scope × </tspan><tspan x="-42.77" y="35.5" dominant-baseline="ideographic">Authority</tspan></text></g></g></g><g id="g-root-tx_selectce_qwitai15f8utf-stroke" data-item-order="0" transform="translate(24.44921875, 320)"></g><g id="g-root-tx_measures_qwitai15f8utg-fill" data-item-order="0" transform="translate(369.48828125, 320)"><g id="tx_measures_qwitai15f8utg-fill-merged" stroke="none" fill="#3cc583" fill-opacity="1"><g><text style="font: 20px Roboto, sans-serif; white-space: pre;" transform="translate(62.51171875, 58)" font-size="20px" font-family="Roboto, sans-serif"><tspan x="-40.64" y="-24.5" dominant-baseline="ideographic">Measure </tspan><tspan x="-49.35" y="-0.5" dominant-baseline="ideographic">Sentiment; </tspan><tspan x="-41.54" y="23.5" dominant-baseline="ideographic">Calibrate </tspan><tspan x="-50.51" y="47.5" dominant-baseline="ideographic">Legitimacy</tspan></text></g></g></g><g id="g-root-tx_measures_qwitai15f8utg-stroke" data-item-order="0" transform="translate(369.48828125, 320)"></g><g id="g-root-tx_boundins_qwitai15f8uth-fill" data-item-order="0" transform="translate(686, 320)"><g id="tx_boundins_qwitai15f8uth-fill-merged" stroke="none" fill="#e0cb15" fill-opacity="1"><g><text style="font: 20px Roboto, sans-serif; white-space: pre;" transform="translate(82.74609375, 58)" font-size="20px" font-family="Roboto, sans-serif"><tspan x="-31.83" y="-24.5" dominant-baseline="ideographic">Bound, </tspan><tspan x="-70.75" y="-0.5" dominant-baseline="ideographic">Instrument, and </tspan><tspan x="-24.58" y="23.5" dominant-baseline="ideographic">Audit </tspan><tspan x="-54.08" y="47.5" dominant-baseline="ideographic">Intervention</tspan></text></g></g></g><g id="g-root-tx_boundins_qwitai15f8uth-stroke" data-item-order="0" transform="translate(686, 320)"></g><g id="g-root-tx_chooseyo_qwitai15f8uti-fill" data-item-order="0" transform="translate(16.03125, 404)"><g id="tx_chooseyo_qwitai15f8uti-fill-merged" stroke="none" fill="#484848" fill-opacity="1"><g><text style="font: 15px Roboto, sans-serif; white-space: pre;" transform="translate(79.96875, 37)" font-size="15px" font-family="Roboto, sans-serif"><tspan x="-62.96" y="-9.5" dominant-baseline="ideographic">Choose your cell in </tspan><tspan x="-39.13" y="8.5" dominant-baseline="ideographic">the Scope × </tspan><tspan x="-67.97" y="26.5" dominant-baseline="ideographic">Authority framework</tspan></text></g></g></g><g id="g-root-tx_chooseyo_qwitai15f8uti-stroke" data-item-order="0" transform="translate(16.03125, 404)"></g><g id="g-root-tx_publishc_qwitai15f8utj-fill" data-item-order="0" transform="translate(188.46875, 392)"><g id="tx_publishc_qwitai15f8utj-fill-merged" stroke="none" fill="#1eabda" fill-opacity="1"><g><text style="font: 20px Roboto, sans-serif; white-space: pre;" transform="translate(75.53125, 46)" font-size="20px" font-family="Roboto, sans-serif"><tspan x="-32.97" y="-12.5" dominant-baseline="ideographic">Publish </tspan><tspan x="-51.19" y="11.5" dominant-baseline="ideographic">Constraints </tspan><tspan x="-63.53" y="35.5" dominant-baseline="ideographic">and Runbooks</tspan></text></g></g></g><g id="g-root-tx_publishc_qwitai15f8utj-stroke" data-item-order="0" transform="translate(188.46875, 392)"></g><g id="g-root-tx_decidepr_mgpb6215f8vls-fill" data-item-order="0" transform="translate(523.01953125, 392)"><g id="tx_decidepr_mgpb6215f8vls-fill-merged" stroke="none" fill="#92bd39" fill-opacity="1"><g><text style="font: 20px Roboto, sans-serif; white-space: pre;" transform="translate(76.98046875, 46)" font-size="20px" font-family="Roboto, sans-serif"><tspan x="-32.96" y="-12.5" dominant-baseline="ideographic">Decide </tspan><tspan x="-64.98" y="11.5" dominant-baseline="ideographic">Prevention vs. </tspan><tspan x="-55.31" y="35.5" dominant-baseline="ideographic">Intervention</tspan></text></g></g></g><g id="g-root-tx_decidepr_mgpb6215f8vls-stroke" data-item-order="0" transform="translate(523.01953125, 392)"></g><g id="g-root-tx_exploret_mgpb6215f8vlt-fill" data-item-order="0" transform="translate(871.8515625, 392)"><g id="tx_exploret_mgpb6215f8vlt-fill-merged" stroke="none" fill="#de8431" fill-opacity="1"><g><text style="font: 20px Roboto, sans-serif; white-space: pre;" transform="translate(64.1484375, 34)" font-size="20px" font-family="Roboto, sans-serif"><tspan x="-51.93" y="-0.5" dominant-baseline="ideographic">Explore the </tspan><tspan x="-52.15" y="23.5" dominant-baseline="ideographic">Framework</tspan></text></g></g></g><g id="g-root-tx_exploret_mgpb6215f8vlt-stroke" data-item-order="0" transform="translate(871.8515625, 392)"></g><g id="g-root-tx_measures_mgpb6215f8vlu-fill" data-item-order="0" transform="translate(353.80078125, 428)"><g id="tx_measures_mgpb6215f8vlu-fill-merged" stroke="none" fill="#484848" fill-opacity="1"><g><text style="font: 15px Roboto, sans-serif; white-space: pre;" transform="translate(78.19921875, 46)" font-size="15px" font-family="Roboto, sans-serif"><tspan x="-66.2" y="-18.5" dominant-baseline="ideographic">Measure sentiment </tspan><tspan x="-44.95" y="-0.5" dominant-baseline="ideographic">and calibrate </tspan><tspan x="-36.11" y="17.5" dominant-baseline="ideographic">legitimacy </tspan><tspan x="-45.18" y="35.5" dominant-baseline="ideographic">assumptions</tspan></text></g></g></g><g id="g-root-tx_measures_mgpb6215f8vlu-stroke" data-item-order="0" transform="translate(353.80078125, 428)"></g><g id="g-root-tx_ifinterv_mgpb6215f8vlv-fill" data-item-order="0" transform="translate(686.76171875, 428)"><g id="tx_ifinterv_mgpb6215f8vlv-fill-merged" stroke="none" fill="#484848" fill-opacity="1"><g><text style="font: 15px Roboto, sans-serif; white-space: pre;" transform="translate(81.984375, 37)" font-size="15px" font-family="Roboto, sans-serif"><tspan x="-69.98" y="-9.5" dominant-baseline="ideographic">If intervention exists, </tspan><tspan x="-67.6" y="8.5" dominant-baseline="ideographic">bound it, instrument </tspan><tspan x="-45.8" y="26.5" dominant-baseline="ideographic">it, and audit it</tspan></text></g></g></g><g id="g-root-tx_ifinterv_mgpb6215f8vlv-stroke" data-item-order="0" transform="translate(686.76171875, 428)"></g><g id="g-root-tx_visitlif_mgpb6215f8vlw-fill" data-item-order="0" transform="translate(855.609375, 452)"><g id="tx_visitlif_mgpb6215f8vlw-fill-merged" stroke="none" fill="#484848" fill-opacity="1"><g><text style="font: 15px Roboto, sans-serif; white-space: pre;" transform="translate(80.390625, 37)" font-size="15px" font-family="Roboto, sans-serif"><tspan x="-68.39" y="-9.5" dominant-baseline="ideographic">Visit lif-research.org </tspan><tspan x="-47.02" y="8.5" dominant-baseline="ideographic">to explore the </tspan><tspan x="-61.94" y="26.5" dominant-baseline="ideographic">framework further</tspan></text></g></g></g><g id="g-root-tx_visitlif_mgpb6215f8vlw-stroke" data-item-order="0" transform="translate(855.609375, 452)"></g><g id="g-root-tx_publishy_mgpb6215f8vlx-fill" data-item-order="0" transform="translate(198.390625, 476)"><g id="tx_publishy_mgpb6215f8vlx-fill-merged" stroke="none" fill="#484848" fill-opacity="1"><g><text style="font: 15px Roboto, sans-serif; white-space: pre;" transform="translate(65.609375, 46)" font-size="15px" font-family="Roboto, sans-serif"><tspan x="-42.9" y="-18.5" dominant-baseline="ideographic">Publish your </tspan><tspan x="-34.39" y="-0.5" dominant-baseline="ideographic">protocol's </tspan><tspan x="-53.61" y="17.5" dominant-baseline="ideographic">constraints and </tspan><tspan x="-33.12" y="35.5" dominant-baseline="ideographic">runbooks</tspan></text></g></g></g><g id="g-root-tx_publishy_mgpb6215f8vlx-stroke" data-item-order="0" transform="translate(198.390625, 476)"></g></g></g></svg>