<?xml version="1.0" encoding="utf-8" standalone="yes"?>
<!DOCTYPE svg PUBLIC "-//W3C//DTD SVG 1.1//EN" "http://www.w3.org/Graphics/SVG/1.1/DTD/svg11.dtd">
<svg style="fill:none;stroke:none;fill-rule:evenodd;clip-rule:evenodd;stroke-linecap:round;stroke-linejoin:round;stroke-miterlimit:1.5;" version="1.1" xmlns="http://www.w3.org/2000/svg" xmlns:xlink="http://www.w3.org/1999/xlink" width="694" height="594" viewBox="0 0 694 594"><style class="text-font-style fontImports" data-font-family="Roboto">@import url(https://fonts.googleapis.com/css2?family=Roboto:wght@400;700&amp;amp;display=block);</style><g id="items" style="isolation: isolate"><g id="blend" style="mix-blend-mode: normal"><g id="g-root-cp_-1_boxed_content_left_hv9j6x17n026f-fill" data-item-order="-321698" transform="translate(14, 320)"><g id="cp_-1_boxed_content_left_hv9j6x17n026f-fill-merged" stroke="none" fill="#c8ffe5" fill-opacity="1"><g><path d="M286 166L322 88.003L286 10 V22 H10 V154 H286 V166"></path></g></g></g><g id="g-root-cp_-1_boxed_content_left_hv9j6x17n026f-stroke" data-item-order="-321698" transform="translate(14, 320)"><g id="cp_-1_boxed_content_left_hv9j6x17n026f-stroke" fill="none" stroke-linecap="round" stroke-linejoin="round" stroke-miterlimit="4" stroke="#3cc583" stroke-width="2" stroke-opacity="1"><g><path d="M 22 22L 286 22M 286 154L 22 154M 286 10L 322 88.002602L 286 166M 286 10L 286 22M 286 166.0488L 286 154M 22 154L 10 154L 10 22L 22 22"></path></g></g></g><g id="g-root-cp_-1_boxed_content_right_4kfhwp17n00lk-fill" data-item-order="-321666" transform="translate(350, 320)"><g id="cp_-1_boxed_content_right_4kfhwp17n00lk-fill-merged" stroke="none" fill="#ffd9d8" fill-opacity="1"><g><path d="M46 10L10 87.997L46 166 V154 H320 V22 H46 V10"></path></g></g></g><g id="g-root-cp_-1_boxed_content_right_4kfhwp17n00lk-stroke" data-item-order="-321666" transform="translate(350, 320)"><g id="cp_-1_boxed_content_right_4kfhwp17n00lk-stroke" fill="none" stroke-linecap="round" stroke-linejoin="round" stroke-miterlimit="4" stroke="#e55753" stroke-width="2" stroke-opacity="1"><g><path d="M 46 22L 310 22M 310 154L 46 154M 46 166L 10 87.997398L 46 10M 310 22L 320 22L 320 154L 310 154M 46 10L 46 22M 46 166L 46 154"></path></g></g></g><g id="g-root-cp_-1_line_4kfhwp17n00ll-fill" data-item-order="-321633" transform="translate(338, 374)"></g><g id="g-root-cp_-1_line_4kfhwp17n00ll-stroke" data-item-order="-321633" transform="translate(338, 374)"><g id="cp_-1_line_4kfhwp17n00ll-stroke" fill="none" stroke-linecap="round" stroke-linejoin="round" stroke-miterlimit="4" stroke="#484848" stroke-width="2" stroke-dasharray="5.0, 7.0" stroke-opacity="1"><g><path d="M 10 58L 10 10"></path></g></g></g><g id="g-root-tx_exploiti_4lzs917n01du-fill" data-item-order="0" transform="translate(167.4453125, 38)"><g id="tx_exploiti_4lzs917n01du-fill-merged" stroke="none" fill="#484848" fill-opacity="1"><g><text style="font: bold 25px Roboto, sans-serif; white-space: pre;" transform="translate(179.5546875, 25)" font-weight="bold" font-size="25px" font-family="Roboto, sans-serif"><tspan x="-167.55" y="14.5" dominant-baseline="ideographic">Exploit Incidents (2016-2026)</tspan></text></g></g></g><g id="g-root-tx_exploiti_4lzs917n01du-stroke" data-item-order="0" transform="translate(167.4453125, 38)"></g><g id="g-root-ic_warn_hx4yg917n016u-fill" data-item-order="0" transform="translate(74, 116)"></g><g id="g-root-ic_warn_hx4yg917n016u-stroke" data-item-order="0" transform="translate(74, 116)"><g id="ic_warn_hx4yg917n016u-stroke" fill="none" stroke-linecap="round" stroke-linejoin="round" stroke-miterlimit="4" stroke="#484848" stroke-width="2" stroke-opacity="1"><g><path d="M 150.248001 174C 151.35257 174 152.248001 174.895432 152.248001 176C 152.248001 177.104568 151.35257 178 150.248001 178C 149.143433 178 148.248001 177.104568 148.248001 176C 148.248001 174.895432 149.143433 174 150.248001 174M 150.248001 158.031998L 150.248001 134.031998M 156.951996 110.056C 155.630539 107.581398 153.053345 106.036003 150.248001 106.036003C 147.442673 106.036003 144.865463 107.581398 143.544006 110.056L 103.096001 187.128006C 101.879669 189.438507 101.977058 192.220215 103.351997 194.440002C 104.731087 196.676498 107.172501 198.03653 109.800003 198.031998L 190.695999 198.031998C 193.325928 198.03775 195.770294 196.67775 197.151993 194.439987C 198.521194 192.217804 198.615479 189.437851 197.399994 187.127991ZM 78.248001 198L 22.248001 198C 17.829721 198 14.248 194.418274 14.248 190L 14.248 22C 14.248 17.581722 17.829721 14 22.248001 14L 128.59201 14C 130.721634 14.015265 132.757278 14.879047 134.248001 16.4L 163.904007 46C 165.404388 47.499943 166.247543 49.534443 166.248001 51.655998L 166.248001 78M 38.248001 54.032001L 38.248001 86.031998M 110.248001 54.032001L 110.248001 86.031998M 86.248001 110.031998L 86.248001 142.031998M 134.248001 54.032001L 134.248001 86.031998M 74.248001 54C 80.87542 54 86.248001 59.372585 86.248001 66L 86.248001 74C 86.248001 80.627419 80.87542 86 74.248001 86C 67.62059 86 62.248001 80.627419 62.248001 74L 62.248001 66C 62.248001 59.372585 67.62059 54 74.248001 54ZM 50.248001 110C 56.87542 110 62.248001 115.372589 62.248001 122L 62.248001 130C 62.248001 136.627411 56.87542 142 50.248001 142C 43.620583 142 38.248001 136.627411 38.248001 130L 38.248001 122C 38.248001 115.372589 43.620583 110 50.248001 110Z"></path></g></g></g><g id="g-root-ic_moun_v2z71l17n1gr1-fill" data-item-order="0" transform="translate(412, 116.25)"></g><g id="g-root-ic_moun_v2z71l17n1gr1-stroke" data-item-order="0" transform="translate(412, 116.25)"><g id="ic_moun_v2z71l17n1gr1-stroke" fill="none" stroke-linecap="round" stroke-linejoin="round" stroke-miterlimit="4" stroke="#484848" stroke-width="2" stroke-opacity="1"><g><path d="M 198 186L 18 186C 15.790861 186 14 184.209137 14 182L 14 26M 112.975998 134.18399C 114.431999 142.184006 116.639999 162 138 162M 34 162C 45.57655 161.984573 55.492233 153.707474 57.576 142.320007L 67.175995 89.751999C 68.376434 83.213867 72.873352 77.761841 79.06369 75.339462C 85.254028 72.917084 92.256943 73.869049 97.576004 77.856003M 74 162C 85.576546 161.984573 95.492233 153.707474 97.576004 142.320007L 107.176003 89.751999C 108.911362 80.708267 116.82328 74.170189 126.032005 74.170189C 135.240723 74.170189 143.152649 80.708267 144.888 89.751999L 154.488007 142.320007C 156.567368 153.683823 166.447601 161.953781 178 162"></path></g></g></g><g id="g-root-tx_705_znshux17n01zg-fill" data-item-order="0" transform="translate(233.6640625, 344)"><g id="tx_705_znshux17n01zg-fill-merged" stroke="none" fill="#3cc583" fill-opacity="1"><g><text style="font: 30px Roboto, sans-serif; white-space: pre;" transform="translate(64.5859375, 28)" font-size="30px" font-family="Roboto, sans-serif"><tspan x="-52.59" y="17.5" dominant-baseline="ideographic">705</tspan></text></g></g></g><g id="g-root-tx_705_znshux17n01zg-stroke" data-item-order="0" transform="translate(233.6640625, 344)"></g><g id="g-root-tx_document_1qa31ih17n01zf-fill" data-item-order="0" transform="translate(27.75, 344)"><g id="tx_document_1qa31ih17n01zf-fill-merged" stroke="none" fill="#3cc583" fill-opacity="1"><g><text style="font: 30px Roboto, sans-serif; white-space: pre;" transform="translate(10, 46)" font-size="30px" font-family="Roboto, sans-serif"><tspan x="2" y="-0.5" dominant-baseline="ideographic">Documented </tspan><tspan x="2" y="35.5" dominant-baseline="ideographic">Incidents</tspan></text></g></g></g><g id="g-root-tx_document_1qa31ih17n01zf-stroke" data-item-order="0" transform="translate(27.75, 344)"></g><g id="g-root-tx_133_1ha2pnt17n1edf-fill" data-item-order="0" transform="translate(410.3800048828125, 344)"><g id="tx_133_1ha2pnt17n1edf-fill-merged" stroke="none" fill="#e55753" fill-opacity="1"><g><text style="font: 30px Roboto, sans-serif; white-space: pre;" transform="translate(10, 28)" font-size="30px" font-family="Roboto, sans-serif"><tspan x="2" y="17.5" dominant-baseline="ideographic">1.33</tspan></text></g></g></g><g id="g-root-tx_133_1ha2pnt17n1edf-stroke" data-item-order="0" transform="translate(410.3800048828125, 344)"></g><g id="g-root-tx_powerlaw_13ym7ah17n1fyc-fill" data-item-order="0" transform="translate(496.8699951171875, 344)"><g id="tx_powerlaw_13ym7ah17n1fyc-fill-merged" stroke="none" fill="#e55753" fill-opacity="1"><g><text style="font: 30px Roboto, sans-serif; white-space: pre;" transform="translate(138.75, 64)" font-size="30px" font-family="Roboto, sans-serif"><tspan x="-86.47" y="-18.5" dominant-baseline="ideographic">Power </tspan><tspan x="-57.02" y="17.5" dominant-baseline="ideographic">Law </tspan><tspan x="-126.75" y="53.5" dominant-baseline="ideographic">Exponent</tspan></text></g></g></g><g id="g-root-tx_powerlaw_13ym7ah17n1fyc-stroke" data-item-order="0" transform="translate(496.8699951171875, 344)"></g><g id="g-root-tx_totalinc_mcygkp17n00el-fill" data-item-order="0" transform="translate(48.77734375, 488)"><g id="tx_totalinc_mcygkp17n00el-fill-merged" stroke="none" fill="#484848" fill-opacity="1"><g><text style="font: 20px Roboto, sans-serif; white-space: pre;" transform="translate(119.22265625, 22)" font-size="20px" font-family="Roboto, sans-serif"><tspan x="-107.22" y="11.5" dominant-baseline="ideographic">Total incidents recorded</tspan></text></g></g></g><g id="g-root-tx_totalinc_mcygkp17n00el-stroke" data-item-order="0" transform="translate(48.77734375, 488)"></g><g id="g-root-tx_valuefor_m97m2117n1gjy-fill" data-item-order="0" transform="translate(411.36328125, 488)"><g id="tx_valuefor_m97m2117n1gjy-fill-merged" stroke="none" fill="#484848" fill-opacity="1"><g><text style="font: 20px Roboto, sans-serif; white-space: pre;" transform="translate(116.63671875, 34)" font-size="20px" font-family="Roboto, sans-serif"><tspan x="-104.64" y="-0.5" dominant-baseline="ideographic">α value for heavy-tailed </tspan><tspan x="-31.4" y="23.5" dominant-baseline="ideographic">losses</tspan></text></g></g></g><g id="g-root-tx_valuefor_m97m2117n1gjy-stroke" data-item-order="0" transform="translate(411.36328125, 488)"></g></g></g></svg>