<?xml version="1.0" encoding="utf-8" standalone="yes"?>
<!DOCTYPE svg PUBLIC "-//W3C//DTD SVG 1.1//EN" "http://www.w3.org/Graphics/SVG/1.1/DTD/svg11.dtd">
<svg style="fill:none;stroke:none;fill-rule:evenodd;clip-rule:evenodd;stroke-linecap:round;stroke-linejoin:round;stroke-miterlimit:1.5;" version="1.1" xmlns="http://www.w3.org/2000/svg" xmlns:xlink="http://www.w3.org/1999/xlink" width="912" height="768" viewBox="0 0 912 768"><style class="text-font-style fontImports" data-font-family="Roboto">@import url(https://fonts.googleapis.com/css2?family=Roboto:wght@400;700&amp;amp;display=block);</style><g id="items" style="isolation: isolate"><g id="blend" style="mix-blend-mode: normal"><g id="g-root-cp_1_g-1_1umt8cjb68oi3-fill" data-item-order="-580594" transform="translate(392, 116)"><g id="cp_1_g-1_1umt8cjb68oi3-fill-merged" stroke="none" fill="#edf4ff" fill-opacity="1"><g><path d="M52 94C75.196 94 94 75.196 94 52C94 28.804 75.196 10 52 10C28.804 10 10 28.804 10 52C10 75.196 28.804 94 52 94 M52 78.25C66.497 78.25 78.25 66.497 78.25 52C78.25 37.502 66.497 25.75 52 25.75C37.502 25.75 25.75 37.502 25.75 52C25.75 66.497 37.502 78.25 52 78.25"></path></g></g></g><g id="g-root-cp_1_g-1_1umt8cjb68oi3-stroke" data-item-order="-580594" transform="translate(392, 116)"><g id="cp_1_g-1_1umt8cjb68oi3-stroke" fill="none" stroke-linecap="round" stroke-linejoin="round" stroke-miterlimit="4" stroke="#4e88e7" stroke-width="2" stroke-opacity="1"><g><path d="M 52 94C 75.196 94 94 75.196 94 52C 94 28.804 75.196 10 52 10C 28.804 10 10 28.804 10 52C 10 75.196 28.804 94 52 94ZM 52 78.25C 66.4975 78.25 78.25 66.4975 78.25 52C 78.25 37.5025 66.4975 25.75 52 25.75C 37.5025 25.75 25.75 37.5025 25.75 52C 25.75 66.4975 37.5025 78.25 52 78.25Z"></path></g></g></g><g id="g-root-sy_1_Subtract_1q6zq83b68pac-fill" data-item-order="-580587" transform="translate(476, 158)"></g><g id="g-root-sy_1_Subtract_1q6zq83b68pac-stroke" data-item-order="-580587" transform="translate(476, 158)"><g id="sy_1_Subtract_1q6zq83b68pac-stroke" fill="none" stroke-linecap="round" stroke-linejoin="round" stroke-miterlimit="4" stroke="#4e88e7" stroke-width="2" stroke-opacity="1"><g><path d="M 49.375 10L 10 10"></path></g></g></g><g id="g-root-sy_1_Subtract-start_1hbcpz7b68q31-fill" data-item-order="-580585" transform="translate(515.375, 155.375)"></g><g id="g-root-sy_1_Subtract-start_1hbcpz7b68q31-stroke" data-item-order="-580585" transform="translate(515.375, 155.375)"><g id="sy_1_Subtract-start_1hbcpz7b68q31-stroke" fill="none" stroke-linecap="round" stroke-linejoin="round" stroke-miterlimit="4" stroke="#484848" stroke-width="2" stroke-opacity="1"><g><path d="M 12.625 10C 14.0738 10 15.25 11.1762 15.25 12.625C 15.25 14.0738 14.0738 15.25 12.625 15.25C 11.1762 15.25 10 14.0738 10 12.625C 10 11.1762 11.1762 10 12.625 10Z"></path></g></g></g><g id="g-root-sy_1_Subtract_1_1hbcpz7b68q32-fill" data-item-order="-580581" transform="translate(353, 158)"></g><g id="g-root-sy_1_Subtract_1_1hbcpz7b68q32-stroke" data-item-order="-580581" transform="translate(353, 158)"><g id="sy_1_Subtract_1_1hbcpz7b68q32-stroke" fill="none" stroke-linecap="round" stroke-linejoin="round" stroke-miterlimit="4" stroke="#4e88e7" stroke-width="2" stroke-opacity="1"><g><path d="M 10 10L 49 10"></path></g></g></g><g id="g-root-sy_1_Subtract-start_1_1hbcpz7b68q33-fill" data-item-order="-580579" transform="translate(347, 155)"></g><g id="g-root-sy_1_Subtract-start_1_1hbcpz7b68q33-stroke" data-item-order="-580579" transform="translate(347, 155)"><g id="sy_1_Subtract-start_1_1hbcpz7b68q33-stroke" fill="none" stroke-linecap="round" stroke-linejoin="round" stroke-miterlimit="4" stroke="#484848" stroke-width="2" stroke-opacity="1"><g><path d="M 13 10C 11.3443 10 10 11.3443 10 13C 10 14.6557 11.3443 16 13 16C 14.6557 16 16 14.6557 16 13C 16 11.3443 14.6557 10 13 10Z"></path></g></g></g><g id="g-root-cp_1_lines_1cvj7urb68qvc-fill" data-item-order="-580566" transform="translate(426, 199.25)"><g id="cp_1_lines_1cvj7urb68qvc-fill-merged" stroke="none" fill="#edf4ff" fill-opacity="1"><g><path d="M10 71.5C12.591 70.983 15.266 70.713 18 70.713C20.734 70.713 23.409 70.983 26 71.5 V10C23.409 10.517 20.734 10.787 18 10.787C15.266 10.787 12.591 10.517 10 10 V71.5"></path></g></g></g><g id="g-root-cp_1_lines_1cvj7urb68qvc-stroke" data-item-order="-580566" transform="translate(426, 199.25)"><g id="cp_1_lines_1cvj7urb68qvc-stroke" fill="none" stroke-linecap="round" stroke-linejoin="round" stroke-miterlimit="4" stroke="#4e88e7" stroke-width="2" stroke-opacity="1"><g><path d="M 10 16L 10 10C 12.5913 10.5167 15.2656 10.7871 18 10.7871C 20.7344 10.7871 23.4087 10.5167 26 10.000001L 26 16M 26 65.5L 26 71.5C 23.4087 70.9833 20.7344 70.7129 18 70.7129C 15.2656 70.7129 12.5913 70.9833 10 71.5L 10 65.5M 26 65.5L 26 16M 10 16L 10 65.5"></path></g></g></g><g id="g-root-cp_2_g-2_18gc6tfb68oht-fill" data-item-order="-580536" transform="translate(392, 260)"><g id="cp_2_g-2_18gc6tfb68oht-fill-merged" stroke="none" fill="#e8f9ff" fill-opacity="1"><g><path d="M52 94C75.196 94 94 75.196 94 52C94 28.804 75.196 10 52 10C28.804 10 10 28.804 10 52C10 75.196 28.804 94 52 94 M52 78.25C66.497 78.25 78.25 66.497 78.25 52C78.25 37.502 66.497 25.75 52 25.75C37.502 25.75 25.75 37.502 25.75 52C25.75 66.497 37.502 78.25 52 78.25"></path></g></g></g><g id="g-root-cp_2_g-2_18gc6tfb68oht-stroke" data-item-order="-580536" transform="translate(392, 260)"><g id="cp_2_g-2_18gc6tfb68oht-stroke" fill="none" stroke-linecap="round" stroke-linejoin="round" stroke-miterlimit="4" stroke="#1eabda" stroke-width="2" stroke-opacity="1"><g><path d="M 52 94C 75.196 94 94 75.196 94 52C 94 28.804 75.196 10 52 10C 28.804 10 10 28.804 10 52C 10 75.196 28.804 94 52 94ZM 52 78.25C 66.4975 78.25 78.25 66.4975 78.25 52C 78.25 37.5025 66.4975 25.75 52 25.75C 37.5025 25.75 25.75 37.5025 25.75 52C 25.75 66.4975 37.5025 78.25 52 78.25Z"></path></g></g></g><g id="g-root-sy_2_Subtract_18gc6tfb68ohu-fill" data-item-order="-580529" transform="translate(476, 302)"></g><g id="g-root-sy_2_Subtract_18gc6tfb68ohu-stroke" data-item-order="-580529" transform="translate(476, 302)"><g id="sy_2_Subtract_18gc6tfb68ohu-stroke" fill="none" stroke-linecap="round" stroke-linejoin="round" stroke-miterlimit="4" stroke="#1eabda" stroke-width="2" stroke-opacity="1"><g><path d="M 49.375 10L 10 10"></path></g></g></g><g id="g-root-sy_2_Subtract-start_zkp6kjb68paj-fill" data-item-order="-580527" transform="translate(515.375, 299.375)"></g><g id="g-root-sy_2_Subtract-start_zkp6kjb68paj-stroke" data-item-order="-580527" transform="translate(515.375, 299.375)"><g id="sy_2_Subtract-start_zkp6kjb68paj-stroke" fill="none" stroke-linecap="round" stroke-linejoin="round" stroke-miterlimit="4" stroke="#484848" stroke-width="2" stroke-opacity="1"><g><path d="M 12.625 10C 14.0738 10 15.25 11.1762 15.25 12.625C 15.25 14.0738 14.0738 15.25 12.625 15.25C 11.1762 15.25 10 14.0738 10 12.625C 10 11.1762 11.1762 10 12.625 10Z"></path></g></g></g><g id="g-root-sy_2_Subtract_1_zkp6kjb68pak-fill" data-item-order="-580523" transform="translate(353, 302)"></g><g id="g-root-sy_2_Subtract_1_zkp6kjb68pak-stroke" data-item-order="-580523" transform="translate(353, 302)"><g id="sy_2_Subtract_1_zkp6kjb68pak-stroke" fill="none" stroke-linecap="round" stroke-linejoin="round" stroke-miterlimit="4" stroke="#1eabda" stroke-width="2" stroke-opacity="1"><g><path d="M 10 10L 49 10"></path></g></g></g><g id="g-root-sy_2_Subtract-start_1_zkp6kjb68pal-fill" data-item-order="-580521" transform="translate(347, 299)"></g><g id="g-root-sy_2_Subtract-start_1_zkp6kjb68pal-stroke" data-item-order="-580521" transform="translate(347, 299)"><g id="sy_2_Subtract-start_1_zkp6kjb68pal-stroke" fill="none" stroke-linecap="round" stroke-linejoin="round" stroke-miterlimit="4" stroke="#484848" stroke-width="2" stroke-opacity="1"><g><path d="M 13 10C 11.3443 10 10 11.3443 10 13C 10 14.6557 11.3443 16 13 16C 14.6557 16 16 14.6557 16 13C 16 11.3443 14.6557 10 13 10Z"></path></g></g></g><g id="g-root-cp_2_lines_1_v4vog3b68q2u-fill" data-item-order="-580514" transform="translate(426, 343.25)"><g id="cp_2_lines_1_v4vog3b68q2u-fill-merged" stroke="none" fill="#e8f9ff" fill-opacity="1"><g><path d="M10 89.5C12.591 88.983 15.266 88.713 18 88.713C20.734 88.713 23.409 88.983 26 89.5 V10C23.409 10.517 20.734 10.787 18 10.787C15.266 10.787 12.591 10.517 10 10 V89.5"></path></g></g></g><g id="g-root-cp_2_lines_1_v4vog3b68q2u-stroke" data-item-order="-580514" transform="translate(426, 343.25)"><g id="cp_2_lines_1_v4vog3b68q2u-stroke" fill="none" stroke-linecap="round" stroke-linejoin="round" stroke-miterlimit="4" stroke="#1eabda" stroke-width="2" stroke-opacity="1"><g><path d="M 10 16L 10 10C 12.5913 10.5167 15.2656 10.7871 18 10.7871C 20.7344 10.7871 23.4087 10.5167 26 10.000001L 26 16M 26 83.5L 26 89.5C 23.4087 88.9833 20.7344 88.7129 18 88.7129C 15.2656 88.7129 12.5913 88.9833 10 89.5L 10 83.5M 26 83.5L 26 16M 10 16L 10 83.5"></path></g></g></g><g id="g-root-cp_3_g-3_v4vog3b68q2v-fill" data-item-order="-580492" transform="translate(392, 422)"><g id="cp_3_g-3_v4vog3b68q2v-fill-merged" stroke="none" fill="#fff2e5" fill-opacity="1"><g><path d="M52 94C75.196 94 94 75.196 94 52C94 28.804 75.196 10 52 10C28.804 10 10 28.804 10 52C10 75.196 28.804 94 52 94 M52 78.25C66.497 78.25 78.25 66.497 78.25 52C78.25 37.502 66.497 25.75 52 25.75C37.502 25.75 25.75 37.502 25.75 52C25.75 66.497 37.502 78.25 52 78.25"></path></g></g></g><g id="g-root-cp_3_g-3_v4vog3b68q2v-stroke" data-item-order="-580492" transform="translate(392, 422)"><g id="cp_3_g-3_v4vog3b68q2v-stroke" fill="none" stroke-linecap="round" stroke-linejoin="round" stroke-miterlimit="4" stroke="#de8431" stroke-width="2" stroke-opacity="1"><g><path d="M 52 94C 75.196 94 94 75.196 94 52C 94 28.804 75.196 10 52 10C 28.804 10 10 28.804 10 52C 10 75.196 28.804 94 52 94ZM 52 78.25C 66.4975 78.25 78.25 66.4975 78.25 52C 78.25 37.5025 66.4975 25.75 52 25.75C 37.5025 25.75 25.75 37.5025 25.75 52C 25.75 66.4975 37.5025 78.25 52 78.25Z"></path></g></g></g><g id="g-root-sy_3_Subtract_qp26bnb68qv4-fill" data-item-order="-580485" transform="translate(476, 464)"></g><g id="g-root-sy_3_Subtract_qp26bnb68qv4-stroke" data-item-order="-580485" transform="translate(476, 464)"><g id="sy_3_Subtract_qp26bnb68qv4-stroke" fill="none" stroke-linecap="round" stroke-linejoin="round" stroke-miterlimit="4" stroke="#de8431" stroke-width="2" stroke-opacity="1"><g><path d="M 49.375 10L 10 10"></path></g></g></g><g id="g-root-sy_3_Subtract-start_qp26bnb68qv5-fill" data-item-order="-580483" transform="translate(515.375, 461.375)"></g><g id="g-root-sy_3_Subtract-start_qp26bnb68qv5-stroke" data-item-order="-580483" transform="translate(515.375, 461.375)"><g id="sy_3_Subtract-start_qp26bnb68qv5-stroke" fill="none" stroke-linecap="round" stroke-linejoin="round" stroke-miterlimit="4" stroke="#484848" stroke-width="2" stroke-opacity="1"><g><path d="M 12.625 10C 14.0738 10 15.25 11.1762 15.25 12.625C 15.25 14.0738 14.0738 15.25 12.625 15.25C 11.1762 15.25 10 14.0738 10 12.625C 10 11.1762 11.1762 10 12.625 10Z"></path></g></g></g><g id="g-root-sy_3_Subtract_1_hu1n5vb68oi2-fill" data-item-order="-580479" transform="translate(353, 464)"></g><g id="g-root-sy_3_Subtract_1_hu1n5vb68oi2-stroke" data-item-order="-580479" transform="translate(353, 464)"><g id="sy_3_Subtract_1_hu1n5vb68oi2-stroke" fill="none" stroke-linecap="round" stroke-linejoin="round" stroke-miterlimit="4" stroke="#de8431" stroke-width="2" stroke-opacity="1"><g><path d="M 10 10L 49 10"></path></g></g></g><g id="g-root-sy_3_Subtract-start_1_hu1n5vb68oi3-fill" data-item-order="-580477" transform="translate(347, 461)"></g><g id="g-root-sy_3_Subtract-start_1_hu1n5vb68oi3-stroke" data-item-order="-580477" transform="translate(347, 461)"><g id="sy_3_Subtract-start_1_hu1n5vb68oi3-stroke" fill="none" stroke-linecap="round" stroke-linejoin="round" stroke-miterlimit="4" stroke="#484848" stroke-width="2" stroke-opacity="1"><g><path d="M 13 10C 11.3443 10 10 11.3443 10 13C 10 14.6557 11.3443 16 13 16C 14.6557 16 16 14.6557 16 13C 16 11.3443 14.6557 10 13 10Z"></path></g></g></g><g id="g-root-cp_3_lines_2_de851fb68pac-fill" data-item-order="-580464" transform="translate(426, 505.25)"><g id="cp_3_lines_2_de851fb68pac-fill-merged" stroke="none" fill="#fff2e5" fill-opacity="1"><g><path d="M10 71.5C12.591 70.983 15.266 70.713 18 70.713C20.734 70.713 23.409 70.983 26 71.5 V10C23.409 10.517 20.734 10.787 18 10.787C15.266 10.787 12.591 10.517 10 10 V71.5"></path></g></g></g><g id="g-root-cp_3_lines_2_de851fb68pac-stroke" data-item-order="-580464" transform="translate(426, 505.25)"><g id="cp_3_lines_2_de851fb68pac-stroke" fill="none" stroke-linecap="round" stroke-linejoin="round" stroke-miterlimit="4" stroke="#de8431" stroke-width="2" stroke-opacity="1"><g><path d="M 10 16L 10 10C 12.5913 10.5167 15.2656 10.7871 18 10.7871C 20.7344 10.7871 23.4087 10.5167 26 10.000001L 26 16M 26 65.5L 26 71.5C 23.4087 70.9833 20.7344 70.7129 18 70.7129C 15.2656 70.7129 12.5913 70.9833 10 71.5L 10 65.5M 26 65.5L 26 16M 10 16L 10 65.5"></path></g></g></g><g id="g-root-cp_4_g-4_de851fb68pad-fill" data-item-order="-580436" transform="translate(392, 566)"><g id="cp_4_g-4_de851fb68pad-fill-merged" stroke="none" fill="#e3fff2" fill-opacity="1"><g><path d="M52 94C75.196 94 94 75.196 94 52C94 28.804 75.196 10 52 10C28.804 10 10 28.804 10 52C10 75.196 28.804 94 52 94 M52 78.25C66.497 78.25 78.25 66.497 78.25 52C78.25 37.502 66.497 25.75 52 25.75C37.502 25.75 25.75 37.502 25.75 52C25.75 66.497 37.502 78.25 52 78.25"></path></g></g></g><g id="g-root-cp_4_g-4_de851fb68pad-stroke" data-item-order="-580436" transform="translate(392, 566)"><g id="cp_4_g-4_de851fb68pad-stroke" fill="none" stroke-linecap="round" stroke-linejoin="round" stroke-miterlimit="4" stroke="#3cc583" stroke-width="2" stroke-opacity="1"><g><path d="M 52 94C 75.196 94 94 75.196 94 52C 94 28.804 75.196 10 52 10C 28.804 10 10 28.804 10 52C 10 75.196 28.804 94 52 94ZM 52 78.25C 66.4975 78.25 78.25 66.4975 78.25 52C 78.25 37.5025 66.4975 25.75 52 25.75C 37.5025 25.75 25.75 37.5025 25.75 52C 25.75 66.4975 37.5025 78.25 52 78.25Z"></path></g></g></g><g id="g-root-sy_4_Subtract_4il4sjb68q32-fill" data-item-order="-580429" transform="translate(476, 608)"></g><g id="g-root-sy_4_Subtract_4il4sjb68q32-stroke" data-item-order="-580429" transform="translate(476, 608)"><g id="sy_4_Subtract_4il4sjb68q32-stroke" fill="none" stroke-linecap="round" stroke-linejoin="round" stroke-miterlimit="4" stroke="#3cc583" stroke-width="2" stroke-opacity="1"><g><path d="M 49.375 10L 10 10"></path></g></g></g><g id="g-root-sy_4_Subtract-start_4il4sjb68q33-fill" data-item-order="-580427" transform="translate(515.375, 605.375)"></g><g id="g-root-sy_4_Subtract-start_4il4sjb68q33-stroke" data-item-order="-580427" transform="translate(515.375, 605.375)"><g id="sy_4_Subtract-start_4il4sjb68q33-stroke" fill="none" stroke-linecap="round" stroke-linejoin="round" stroke-miterlimit="4" stroke="#484848" stroke-width="2" stroke-opacity="1"><g><path d="M 12.625 10C 14.0738 10 15.25 11.1762 15.25 12.625C 15.25 14.0738 14.0738 15.25 12.625 15.25C 11.1762 15.25 10 14.0738 10 12.625C 10 11.1762 11.1762 10 12.625 10Z"></path></g></g></g><g id="g-root-sy_4_Subtract_1_8yemwzb68q2o-fill" data-item-order="-580423" transform="translate(353, 608)"></g><g id="g-root-sy_4_Subtract_1_8yemwzb68q2o-stroke" data-item-order="-580423" transform="translate(353, 608)"><g id="sy_4_Subtract_1_8yemwzb68q2o-stroke" fill="none" stroke-linecap="round" stroke-linejoin="round" stroke-miterlimit="4" stroke="#3cc583" stroke-width="2" stroke-opacity="1"><g><path d="M 10 10L 49 10"></path></g></g></g><g id="g-root-sy_4_Subtract-start_1_2rmo3b68qvd-fill" data-item-order="-580421" transform="translate(347, 605)"></g><g id="g-root-sy_4_Subtract-start_1_2rmo3b68qvd-stroke" data-item-order="-580421" transform="translate(347, 605)"><g id="sy_4_Subtract-start_1_2rmo3b68qvd-stroke" fill="none" stroke-linecap="round" stroke-linejoin="round" stroke-miterlimit="4" stroke="#484848" stroke-width="2" stroke-opacity="1"><g><path d="M 13 10C 11.3443 10 10 11.3443 10 13C 10 14.6557 11.3443 16 13 16C 14.6557 16 16 14.6557 16 13C 16 11.3443 14.6557 10 13 10Z"></path></g></g></g><g id="g-root-tx_adminkey_dccps3b6bhtt-fill" data-item-order="0" transform="translate(52.0625, 332)"><g id="tx_adminkey_dccps3b6bhtt-fill-merged" stroke="none" fill="#484848" fill-opacity="1"><g><text style="font: 15px Roboto, sans-serif; white-space: pre;" transform="translate(235.9375, 37)" font-size="15px" font-family="Roboto, sans-serif"><tspan x="-223.94" y="-9" dominant-baseline="ideographic">Admin keys used for network and </tspan><tspan x="-222.08" y="9" dominant-baseline="ideographic">account interventions, significant </tspan><tspan x="-75.53" y="27" dominant-baseline="ideographic">money lost</tspan></text></g></g></g><g id="g-root-tx_adminkey_dccps3b6bhtt-stroke" data-item-order="0" transform="translate(52.0625, 332)"></g><g id="g-root-ic_bloc_1lqjr0jb6cy6g-fill" data-item-order="0" transform="translate(530, 434)"></g><g id="g-root-ic_bloc_1lqjr0jb6cy6g-stroke" data-item-order="0" transform="translate(530, 434)"><g id="ic_bloc_1lqjr0jb6cy6g-stroke" fill="none" stroke-linecap="round" stroke-linejoin="round" stroke-miterlimit="4" stroke="#de8431" stroke-width="2" stroke-opacity="1"><g><path d="M 25.5 39.200001C 25.5 40.400002 24.700001 41.200001 23.5 41.200001L 13.5 41.200001C 12.3 41.200001 11.5 40.400002 11.5 39.200001L 11.5 28C 11.5 26.799999 12.3 26 13.5 26L 23.5 26C 24.700001 26 25.5 26.799999 25.5 28L 25.5 39.200001ZM 45.5 39.200001C 45.5 40.400002 44.700001 41.200001 43.5 41.200001L 33.5 41.200001C 32.299999 41.200001 31.5 40.400002 31.5 39.200001L 31.5 28C 31.5 26.799999 32.299999 26 33.5 26L 43.5 26C 44.700001 26 45.5 26.799999 45.5 28L 45.5 39.200001ZM 17.099861 19.79998C 21.099861 14.99998 27.09984 12 33.899799 12C 40.299801 12 46.0998 14.8 50.0998 19M 51.700001 47C 47.700001 52.400002 41.299999 56 34.099998 56C 26.90004 56 20.5 52.400002 16.5 47M 25.5 33.5998L 31.5 33.5998M 45.5 33.5998L 56.5 33.5998L 52.5 29.599859M 10 10M 56.5 33.5998L 52.5 37.5998M 18.500061 35.806C 19.71846 35.806 20.706181 34.818398 20.706181 33.599998C 20.706181 32.381599 19.71846 31.393801 18.500061 31.393801C 17.28166 31.393801 16.29394 32.381599 16.29394 33.599998C 16.29394 34.818398 17.28166 35.806 18.500061 35.806ZM 38.5 35.806C 39.718399 35.806 40.7062 34.818398 40.7062 33.599998C 40.7062 32.381599 39.718399 31.393801 38.5 31.393801C 37.281601 31.393801 36.293999 32.381599 36.293999 33.599998C 36.293999 34.818398 37.281601 35.806 38.5 35.806Z"></path></g></g></g><g id="g-root-tx_2023_qvax6rb6bj7x-fill" data-item-order="0" transform="translate(300.265625, 452)"><g id="tx_2023_qvax6rb6bj7x-fill-merged" stroke="none" fill="#484848" fill-opacity="1"><g><text style="font: 15px Roboto, sans-serif; white-space: pre;" transform="translate(47.734375, 19)" font-size="15px" font-family="Roboto, sans-serif"><tspan x="-35.73" y="9" dominant-baseline="ideographic">2023</tspan></text></g></g></g><g id="g-root-tx_2023_qvax6rb6bj7x-stroke" data-item-order="0" transform="translate(300.265625, 452)"></g><g id="g-root-tx_20212022_zp2i6bb6bjez-fill" data-item-order="0" transform="translate(530, 290)"><g id="tx_20212022_zp2i6bb6bjez-fill-merged" stroke="none" fill="#484848" fill-opacity="1"><g><text style="font: 15px Roboto, sans-serif; white-space: pre;" transform="translate(10, 19)" font-size="15px" font-family="Roboto, sans-serif"><tspan x="2" y="9" dominant-baseline="ideographic">2021–2022</tspan></text></g></g></g><g id="g-root-tx_20212022_zp2i6bb6bjez-stroke" data-item-order="0" transform="translate(530, 290)"></g><g id="g-root-tx_3_1hiuf0jb6cyrt-fill" data-item-order="0" transform="translate(423.5625, 446)"><g id="tx_3_1hiuf0jb6cyrt-fill-merged" stroke="none" fill="#484848" fill-opacity="1"><g><text style="font: 30px Roboto, sans-serif; white-space: pre;" transform="translate(20.4375, 28)" font-size="30px" font-family="Roboto, sans-serif"><tspan x="-8.44" y="17" dominant-baseline="ideographic">3</tspan></text></g></g></g><g id="g-root-tx_3_1hiuf0jb6cyrt-stroke" data-item-order="0" transform="translate(423.5625, 446)"></g><g id="g-root-tx_20162020_zntk03b68qh7-fill" data-item-order="0" transform="translate(256.703125, 146)"><g id="tx_20162020_zntk03b68qh7-fill-merged" stroke="none" fill="#484848" fill-opacity="1"><g><text style="font: 15px Roboto, sans-serif; white-space: pre;" transform="translate(91.296875, 19)" font-size="15px" font-family="Roboto, sans-serif"><tspan x="-79.3" y="9" dominant-baseline="ideographic">2016–2020</tspan></text></g></g></g><g id="g-root-tx_20162020_zntk03b68qh7-stroke" data-item-order="0" transform="translate(256.703125, 146)"></g><g id="g-root-tx_1_qvax6rb6a5tz-fill" data-item-order="0" transform="translate(423.5625, 140)"><g id="tx_1_qvax6rb6a5tz-fill-merged" stroke="none" fill="#484848" fill-opacity="1"><g><text style="font: 30px Roboto, sans-serif; white-space: pre;" transform="translate(20.4375, 28)" font-size="30px" font-family="Roboto, sans-serif"><tspan x="-8.44" y="17" dominant-baseline="ideographic">1</tspan></text></g></g></g><g id="g-root-tx_1_qvax6rb6a5tz-stroke" data-item-order="0" transform="translate(423.5625, 140)"></g><g id="g-root-tx_systemic_1lynx4zb6bklq-fill" data-item-order="0" transform="translate(590, 434)"><g id="tx_systemic_1lynx4zb6bklq-fill-merged" stroke="none" fill="#de8431" fill-opacity="1"><g><text style="font: 20px Roboto, sans-serif; white-space: pre;" transform="translate(10, 34)" font-size="20px" font-family="Roboto, sans-serif"><tspan x="2" y="0" dominant-baseline="ideographic">Systemic Contagion &amp; </tspan><tspan x="2" y="24" dominant-baseline="ideographic">Reactive Governance</tspan></text></g></g></g><g id="g-root-tx_systemic_1lynx4zb6bklq-stroke" data-item-order="0" transform="translate(590, 434)"></g><g id="g-root-tx_2_1qd8h37b6bif8-fill" data-item-order="0" transform="translate(423.5625, 284)"><g id="tx_2_1qd8h37b6bif8-fill-merged" stroke="none" fill="#484848" fill-opacity="1"><g><text style="font: 30px Roboto, sans-serif; white-space: pre;" transform="translate(20.4375, 28)" font-size="30px" font-family="Roboto, sans-serif"><tspan x="-8.44" y="17" dominant-baseline="ideographic">2</tspan></text></g></g></g><g id="g-root-tx_2_1qd8h37b6bif8-stroke" data-item-order="0" transform="translate(423.5625, 284)"></g><g id="g-root-tx_majorpro_hrjqtfb6cxlb-fill" data-item-order="0" transform="translate(590, 494)"><g id="tx_majorpro_hrjqtfb6cxlb-fill-merged" stroke="none" fill="#484848" fill-opacity="1"><g><text style="font: 15px Roboto, sans-serif; white-space: pre;" transform="translate(10, 28)" font-size="15px" font-family="Roboto, sans-serif"><tspan x="2" y="0" dominant-baseline="ideographic">Major protocol and module </tspan><tspan x="2" y="18" dominant-baseline="ideographic">failures, governance-led responses</tspan></text></g></g></g><g id="g-root-tx_majorpro_hrjqtfb6cxlb-stroke" data-item-order="0" transform="translate(590, 494)"></g><g id="g-root-ic_pres_v497czb6ebkc-fill" data-item-order="0" transform="translate(290, 578)"></g><g id="g-root-ic_pres_v497czb6ebkc-stroke" data-item-order="0" transform="translate(290, 578)"><g id="ic_pres_v497czb6ebkc-stroke" fill="none" stroke-linecap="round" stroke-linejoin="round" stroke-miterlimit="4" stroke="#3cc583" stroke-width="2" stroke-opacity="1"><g><path d="M 14.5 35.5C 14.5 37.432999 16.067003 39 18 39C 19.932997 39 21.5 37.432999 21.5 35.5C 21.5 33.567005 19.932997 32 18 32C 16.067003 32 14.5 33.567005 14.5 35.5ZM 24.246 44.223999C 22.79771 41.663864 19.937777 40.242119 17.022465 40.632999C 14.107151 41.02388 11.722743 43.148777 11 46M 46.5 35.5C 46.5 37.432999 48.067005 39 50 39C 51.932999 39 53.5 37.432999 53.5 35.5C 53.5 33.567005 51.932999 32 50 32C 48.067005 32 46.5 33.567005 46.5 35.5ZM 43.754002 44.223999C 45.20229 41.663864 48.062225 40.242119 50.977539 40.632999C 53.892849 41.02388 56.277256 43.148777 57 46M 30.5 16.5C 30.500002 18.432997 32.067005 20 34 20C 35.932999 20 37.5 18.432997 37.5 16.5C 37.5 14.567003 35.932999 13 34 13C 32.067005 13 30.500002 14.567003 30.500002 16.5ZM 41 27C 40.184052 23.800182 37.302212 21.560986 34 21.560986C 30.697788 21.560986 27.815947 23.800182 27 27M 45.498001 52.599998C 45.618061 53.188168 45.467579 53.799156 45.088104 54.264294C 44.70863 54.729431 44.140297 54.999523 43.540001 55L 24.459999 55C 23.859705 54.999523 23.29137 54.729431 22.911896 54.264294C 22.532421 53.799156 22.381941 53.188168 22.501999 52.599998L 26.667999 32.599998C 26.857958 31.669403 27.676214 31.000755 28.625999 31L 39.374001 31C 40.323784 31.000755 41.142044 31.669403 41.332001 32.599998ZM 38.835999 49.858002C 38.877182 50.145077 38.791702 50.435894 38.601734 50.655033C 38.411766 50.874168 38.136017 51.000038 37.846001 51L 30.153999 51C 29.863983 51.000038 29.588234 50.874168 29.398266 50.655033C 29.208296 50.435894 29.122818 50.145077 29.164 49.858002L 29.878 44.858002C 29.948643 44.365562 30.370522 43.999935 30.868 44L 37.132 44C 37.629478 43.999935 38.051357 44.365562 38.122002 44.858002Z"></path></g></g></g><g id="g-root-tx_blockcha_1uo26irb68rgi-fill" data-item-order="0" transform="translate(109.765625, 38)"><g id="tx_blockcha_1uo26irb68rgi-fill-merged" stroke="none" fill="#484848" fill-opacity="1"><g><text style="font: bold 25px Roboto, sans-serif; white-space: pre;" transform="translate(346.234375, 25)" font-weight="bold" font-size="25px" font-family="Roboto, sans-serif"><tspan x="-334.23" y="14" dominant-baseline="ideographic">Blockchain Emergency Interventions Timeline (2016–2026)</tspan></text></g></g></g><g id="g-root-tx_blockcha_1uo26irb68rgi-stroke" data-item-order="0" transform="translate(109.765625, 38)"></g><g id="g-root-tx_institut_m7d8xvb6eayq-fill" data-item-order="0" transform="translate(64.25, 578)"><g id="tx_institut_m7d8xvb6eayq-fill-merged" stroke="none" fill="#3cc583" fill-opacity="1"><g><text style="font: 20px Roboto, sans-serif; white-space: pre;" transform="translate(223.75, 34)" font-size="20px" font-family="Roboto, sans-serif"><tspan x="-143.91" y="0" dominant-baseline="ideographic">Institutionalized </tspan><tspan x="-211.75" y="24" dominant-baseline="ideographic">Emergency Governance</tspan></text></g></g></g><g id="g-root-tx_institut_m7d8xvb6eayq-stroke" data-item-order="0" transform="translate(64.25, 578)"></g><g id="g-root-tx_delegate_1um6r9fb6earn-fill" data-item-order="0" transform="translate(52.640625, 638)"><g id="tx_delegate_1um6r9fb6earn-fill-merged" stroke="none" fill="#484848" fill-opacity="1"><g><text style="font: 15px Roboto, sans-serif; white-space: pre;" transform="translate(235.359375, 28)" font-size="15px" font-family="Roboto, sans-serif"><tspan x="-223.36" y="0" dominant-baseline="ideographic">Delegated bodies and signer sets </tspan><tspan x="-215.09" y="18" dominant-baseline="ideographic">for rapid, systemic interventions</tspan></text></g></g></g><g id="g-root-tx_delegate_1um6r9fb6earn-stroke" data-item-order="0" transform="translate(52.640625, 638)"></g><g id="g-root-ic_chai_1hi7xxfb68pae-fill" data-item-order="0" transform="translate(530, 128)"></g><g id="g-root-ic_chai_1hi7xxfb68pae-stroke" data-item-order="0" transform="translate(530, 128)"><g id="ic_chai_1hi7xxfb68pae-stroke" fill="none" stroke-linecap="round" stroke-linejoin="round" stroke-miterlimit="4" stroke="#4e88e7" stroke-width="2" stroke-opacity="1"><g><path d="M 22.5 37.5C 22.5 38.700001 21.700001 39.5 20.5 39.5L 13.5 39.5C 12.3 39.5 11.5 38.700001 11.5 37.5L 11.5 30.5C 11.5 29.299999 12.3 28.5 13.5 28.5L 20.5 28.5C 21.700001 28.5 22.5 29.299999 22.5 30.5L 22.5 37.5ZM 22.5 54.5C 22.5 55.700001 21.700001 56.5 20.5 56.5L 13.5 56.5C 12.3 56.5 11.5 55.700001 11.5 54.5L 11.5 47.5C 11.5 46.299999 12.3 45.5 13.5 45.5L 20.5 45.5C 21.700001 45.5 22.5 46.299999 22.5 47.5L 22.5 54.5ZM 39.5 54.5C 39.5 55.700001 38.700001 56.5 37.5 56.5L 30.5 56.5C 29.299999 56.5 28.5 55.700001 28.5 54.5L 28.5 47.5C 28.5 46.299999 29.299999 45.5 30.5 45.5L 37.5 45.5C 38.700001 45.5 39.5 46.299999 39.5 47.5L 39.5 54.5ZM 56.5 20.5C 56.5 21.700001 55.700001 22.5 54.5 22.5L 47.5 22.5C 46.299999 22.5 45.5 21.700001 45.5 20.5L 45.5 13.5C 45.5 12.3 46.299999 11.5 47.5 11.5L 54.5 11.5C 55.700001 11.5 56.5 12.3 56.5 13.5L 56.5 20.5ZM 39.5 20.5C 39.5 21.700001 38.700001 22.5 37.5 22.5L 30.5 22.5C 29.299999 22.5 28.5 21.700001 28.5 20.5L 28.5 13.5C 28.5 12.3 29.299999 11.5 30.5 11.5L 37.5 11.5C 38.700001 11.5 39.5 12.3 39.5 13.5L 39.5 20.5ZM 39.5 37.5C 39.5 38.700001 38.700001 39.5 37.5 39.5L 30.5 39.5C 29.299999 39.5 28.5 38.700001 28.5 37.5L 28.5 30.5C 28.5 29.299999 29.299999 28.5 30.5 28.5L 37.5 28.5C 38.700001 28.5 39.5 29.299999 39.5 30.5L 39.5 37.5ZM 56.5 37.5C 56.5 38.700001 55.700001 39.5 54.5 39.5L 47.5 39.5C 46.299999 39.5 45.5 38.700001 45.5 37.5L 45.5 30.5C 45.5 29.299999 46.299999 28.5 47.5 28.5L 54.5 28.5C 55.700001 28.5 56.5 29.299999 56.5 30.5L 56.5 37.5ZM 22.5 34.099998L 28.5 34.099998M 39.5 34.099998L 45.5 34.099998M 10 10M 39.5 17.1001L 45.5 17.1001M 10 10M 51.0998 22.5L 51.0998 28.5M 10 10M 17.099861 39.5L 17.099861 45.5M 10 10M 22.5 51.099998L 28.5 51.099998"></path></g></g></g><g id="g-root-tx_4_1lpx9xfb6fs3y-fill" data-item-order="0" transform="translate(423.5625, 590)"><g id="tx_4_1lpx9xfb6fs3y-fill-merged" stroke="none" fill="#484848" fill-opacity="1"><g><text style="font: 30px Roboto, sans-serif; white-space: pre;" transform="translate(20.4375, 28)" font-size="30px" font-family="Roboto, sans-serif"><tspan x="-8.44" y="17" dominant-baseline="ideographic">4</tspan></text></g></g></g><g id="g-root-tx_4_1lpx9xfb6fs3y-stroke" data-item-order="0" transform="translate(423.5625, 590)"></g><g id="g-root-tx_genesisa_1urt11fb68op8-fill" data-item-order="0" transform="translate(590, 128)"><g id="tx_genesisa_1urt11fb68op8-fill-merged" stroke="none" fill="#4e88e7" fill-opacity="1"><g><text style="font: 20px Roboto, sans-serif; white-space: pre;" transform="translate(10, 34)" font-size="20px" font-family="Roboto, sans-serif"><tspan x="2" y="0" dominant-baseline="ideographic">Genesis &amp; Ad-Hoc </tspan><tspan x="2" y="24" dominant-baseline="ideographic">Interventions</tspan></text></g></g></g><g id="g-root-tx_genesisa_1urt11fb68op8-stroke" data-item-order="0" transform="translate(590, 128)"></g><g id="g-root-ic_pent_1lr683nb6bhmq-fill" data-item-order="0" transform="translate(290, 272)"></g><g id="g-root-ic_pent_1lr683nb6bhmq-stroke" data-item-order="0" transform="translate(290, 272)"><g id="ic_pent_1lr683nb6bhmq-stroke" fill="none" stroke-linecap="round" stroke-linejoin="round" stroke-miterlimit="4" stroke="#1eabda" stroke-width="2" stroke-opacity="1"><g><path d="M 32.8284 12.88536C 33.5294 12.37606 34.4786 12.37606 35.179398 12.88536L 55.657398 27.763439C 56.358398 28.27272 56.6516 29.175461 56.383999 29.9995L 48.562 54.0728C 48.294399 54.896801 47.526402 55.4548 46.66 55.4548L 21.347839 55.4548C 20.4814 55.4548 19.71348 54.896801 19.44574 54.0728L 11.623864 29.9995C 11.356114 29.175461 11.64943 28.27272 12.3504 27.763439L 32.8284 12.88536ZM 10 10M 32.091801 37.687599L 41.514198 25.07144L 45.240002 27.85412M 25.151394 46.98703C 27.717878 48.903793 31.352268 48.377094 33.269032 45.810608C 35.185795 43.244125 34.659092 39.609734 32.092606 37.69297C 29.526125 35.776207 25.891735 36.30291 23.974972 38.869392C 22.058208 41.435879 22.584911 45.070267 25.151394 46.98703M 10 10M 37.898399 29.914061L 41.624802 32.697201"></path></g></g></g><g id="g-root-tx_20242026_mgqd8jb6ecxx-fill" data-item-order="0" transform="translate(530, 596)"><g id="tx_20242026_mgqd8jb6ecxx-fill-merged" stroke="none" fill="#484848" fill-opacity="1"><g><text style="font: 15px Roboto, sans-serif; white-space: pre;" transform="translate(10, 19)" font-size="15px" font-family="Roboto, sans-serif"><tspan x="2" y="9" dominant-baseline="ideographic">2024–2026</tspan></text></g></g></g><g id="g-root-tx_20242026_mgqd8jb6ecxx-stroke" data-item-order="0" transform="translate(530, 596)"></g><g id="g-root-tx_earlyint_qu1z0jb68qa5-fill" data-item-order="0" transform="translate(590, 188)"><g id="tx_earlyint_qu1z0jb68qa5-fill-merged" stroke="none" fill="#484848" fill-opacity="1"><g><text style="font: 15px Roboto, sans-serif; white-space: pre;" transform="translate(10, 28)" font-size="15px" font-family="Roboto, sans-serif"><tspan x="2" y="0" dominant-baseline="ideographic">Early interventions with limited </tspan><tspan x="2" y="18" dominant-baseline="ideographic">scope and governance</tspan></text></g></g></g><g id="g-root-tx_earlyint_qu1z0jb68qa5-stroke" data-item-order="0" transform="translate(590, 188)"></g><g id="g-root-tx_preinsti_18ntvurb6a5mw-fill" data-item-order="0" transform="translate(57.328125, 272)"><g id="tx_preinsti_18ntvurb6a5mw-fill-merged" stroke="none" fill="#1eabda" fill-opacity="1"><g><text style="font: 20px Roboto, sans-serif; white-space: pre;" transform="translate(230.671875, 34)" font-size="20px" font-family="Roboto, sans-serif"><tspan x="-218.67" y="0" dominant-baseline="ideographic">Pre-Institutional / Admin </tspan><tspan x="-44.56" y="24" dominant-baseline="ideographic">Keys</tspan></text></g></g></g><g id="g-root-tx_preinsti_18ntvurb6a5mw-stroke" data-item-order="0" transform="translate(57.328125, 272)"></g></g></g></svg>