<?xml version="1.0" encoding="utf-8" standalone="yes"?>
<!DOCTYPE svg PUBLIC "-//W3C//DTD SVG 1.1//EN" "http://www.w3.org/Graphics/SVG/1.1/DTD/svg11.dtd">
<svg style="fill:none;stroke:none;fill-rule:evenodd;clip-rule:evenodd;stroke-linecap:round;stroke-linejoin:round;stroke-miterlimit:1.5;" version="1.1" xmlns="http://www.w3.org/2000/svg" xmlns:xlink="http://www.w3.org/1999/xlink" width="1020" height="840" viewBox="0 0 1020 840"><style class="text-font-style fontImports" data-font-family="Roboto">@import url(https://fonts.googleapis.com/css2?family=Roboto:wght@400;700&amp;amp;display=block);</style><g id="items" style="isolation: isolate"><g id="blend" style="mix-blend-mode: normal"><g id="g-root-cp_3_g-3_1luabuh17n00lr-fill" data-item-order="999276842" transform="translate(182.89898681640625, 468.9150390625)"><g id="cp_3_g-3_1luabuh17n00lr-fill-merged" stroke="none" fill="#ffeceb" fill-opacity="1"><g><path d="M69.825 173.245C67.81 172.605 66.794 172.283 62.846 171.029L63.872 146.703C61.995 145.441 60.79 144.63 59.585 143.82C58.382 143.01 57.179 142.201 55.305 140.94L33.105 151.021C31.837 149.495 31.02 148.513 30.365 147.725C28.98 146.059 28.316 145.26 25.635 142.038L39.681 122.15L38.705 119.894C37.622 117.389 37.007 115.968 35.588 112.688L11.424 109.186C11.047 106.126 10.88 104.762 10.712 103.397C10.544 102.033 10.376 100.668 10 97.609L32.61 88.476C32.978 86.252 33.214 84.825 33.45 83.397C33.686 81.969 33.922 80.542 34.29 78.318L15.833 62.343C17.174 59.57 17.772 58.333 18.37 57.097C18.968 55.86 19.566 54.623 20.908 51.85L44.904 56.37C46.881 54.192 47.934 53.031 49.269 51.56C49.98 50.776 50.771 49.904 51.824 48.743L44.936 25.369C49.177 22.78 49.633 22.502 52.402 20.812C53.07 20.404 53.874 19.914 54.897 19.289L72.661 36.028L82.625 33.353L89.49 10C90.704 10.028 91.654 10.049 92.443 10.067C95.668 10.141 96.213 10.153 101.176 10.266L107.067 33.907L116.91 37.033L135.351 21.116C137.914 22.84 139.058 23.608 140.201 24.378C141.345 25.147 142.488 25.916 145.051 27.64L137.199 50.68C138.642 52.415 139.569 53.529 140.495 54.643C141.424 55.759 142.352 56.875 143.798 58.614L167.959 55.187L172.594 65.9L153.492 81.023C153.807 83.589 153.993 85.102 154.198 86.768C154.351 88.009 154.514 89.336 154.749 91.247L176.959 101.397L175.057 112.897L150.77 115.301C149.904 117.091 149.311 118.316 148.751 119.475C148.042 120.941 147.384 122.301 146.288 124.568L159.495 145.073C157.424 147.355 156.5 148.373 155.577 149.391C154.653 150.409 153.729 151.427 151.658 153.71L129.897 142.632L121.098 148.001 V172.351L118.498 173.052C115.168 173.946 114.739 174.061 109.828 175.38L97.502 154.337C93.037 154.236 91.73 154.207 87.343 154.107 H87.18L73.991 174.567L69.825 173.245 M105.819 57.26C85.605 50.869 64.057 62.04 57.691 82.21C51.325 102.381 62.552 123.915 82.766 130.306C102.98 136.697 124.529 125.527 130.894 105.356C137.26 85.185 126.034 63.652 105.819 57.26"></path></g></g></g><g id="g-root-cp_3_g-3_1luabuh17n00lr-stroke" data-item-order="999276842" transform="translate(182.89898681640625, 468.9150390625)"><g id="cp_3_g-3_1luabuh17n00lr-stroke" fill="none" stroke-linecap="round" stroke-linejoin="round" stroke-miterlimit="4" stroke="#e55753" stroke-width="2" stroke-opacity="1"><g><path d="M 69.825 173.2447C 67.81 172.605 66.7942 172.2825 62.8461 171.029L 62.8501 171.0296L 63.8724 146.7034C 61.9948 145.4406 60.7903 144.6303 59.5851 143.8195C 58.3823 143.0104 57.1789 142.2008 55.3051 140.9404L 33.1052 151.0208C 31.837 149.4955 31.0202 148.5131 30.3648 147.7247C 28.9798 146.0589 28.3157 145.2601 25.6355 142.0377L 39.6807 122.1505L 38.705 119.8941C 37.6216 117.3889 37.0073 115.9681 35.5879 112.6882L 11.424 109.1855C 11.0474 106.1261 10.8797 104.7616 10.7119 103.3969C 10.5442 102.0326 10.3764 100.668 10 97.6094L 32.61 88.4757C 32.978 86.2521 33.214 84.8246 33.45 83.397C 33.686 81.9695 33.922 80.542 34.29 78.3184L 15.833 62.3433C 17.1744 59.5703 17.7724 58.3334 18.3704 57.0966C 18.9684 55.8598 19.5664 54.6229 20.9078 51.85L 44.9042 56.37C 46.8809 54.1922 47.934 53.0314 49.2685 51.5603C 49.9798 50.7764 50.7709 49.9043 51.8244 48.7432L 44.9355 25.3691C 49.177 22.78 49.6328 22.5019 52.402 20.8122C 53.0704 20.4043 53.8737 19.9142 54.8975 19.2895L 72.6615 36.0283L 82.6248 33.3525L 89.4903 10C 90.7041 10.0277 91.6536 10.0493 92.4426 10.0673C 95.6683 10.1409 96.2133 10.1533 101.1765 10.2655L 107.0669 33.9073L 116.9102 37.0328L 135.3509 21.116C 137.9141 22.8396 139.0576 23.6085 140.201 24.3776C 141.3446 25.1467 142.488 25.916 145.0513 27.6405L 137.1995 50.6801C 138.6419 52.415 139.5688 53.5294 140.495 54.643C 141.4236 55.7594 142.3515 56.875 143.7976 58.6142L 167.9589 55.1869L 172.5937 65.9004L 153.4916 81.0234C 153.8069 83.5887 153.9932 85.1016 154.1983 86.7678C 154.3511 88.0095 154.5145 89.3364 154.7495 91.2474L 176.9593 101.3973L 175.0566 112.8972L 150.7697 115.3009C 149.9039 117.0914 149.3115 118.3161 148.7511 119.4746C 148.0418 120.9408 147.3838 122.301 146.2878 124.5681L 159.4949 145.0731C 157.4241 147.3555 156.5003 148.3734 155.5766 149.3913C 154.6529 150.4091 153.7292 151.427 151.6584 153.7095L 129.897 142.6315L 121.098 148.0011L 121.1092 172.351L 118.4977 173.052C 115.1682 173.9456 114.7389 174.0608 109.8279 175.3801L 97.5021 154.337C 93.0369 154.2365 91.7302 154.2067 87.3434 154.1068L 87.1799 154.1031L 73.9913 174.5673L 69.825 173.2447ZM 105.8193 57.2603C 85.605 50.8689 64.0568 62.0397 57.6909 82.2104C 51.3251 102.3811 62.5518 123.9147 82.7661 130.306C 102.9804 136.6974 124.5286 125.5267 130.8944 105.3559C 137.2603 85.1852 126.0335 63.6516 105.8193 57.2603Z"></path></g></g></g><g id="g-root-cp_2_g-2_1hegtq117n01e0-fill" data-item-order="999276846" transform="translate(416.1309814453125, 210.65283203125)"><g id="cp_2_g-2_1hegtq117n01e0-fill-merged" stroke="none" fill="#fff2e5" fill-opacity="1"><g><path d="M158.782 146.743C157.404 148.361 156.71 149.177 154.011 152.348L131.819 141.979C129.916 143.229 128.695 144.031 127.474 144.833C126.255 145.633 125.035 146.434 123.136 147.682L123.868 172.145C121.959 172.729 120.729 173.105 119.742 173.407C117.656 174.045 116.656 174.35 112.622 175.585L99.612 154.877 H97.137C94.39 154.94 92.831 154.959 89.233 155.003L76.587 176.026C73.6 175.19 72.267 174.817 70.934 174.444C69.602 174.071 68.27 173.698 65.283 172.863L65.59 148.386C63.668 147.184 62.434 146.413 61.2 145.641C59.966 144.87 58.732 144.099 56.81 142.897L34.799 153.805C32.745 151.489 31.829 150.456 30.912 149.423C29.996 148.391 29.08 147.358 27.026 145.042L40.552 124.568C39.298 121.894 38.629 120.469 37.782 118.664C37.33 117.702 36.828 116.631 36.159 115.206L11.774 112.535C11.018 107.605 10.937 107.075 10.444 103.856C10.325 103.079 10.182 102.145 10 100.955L32.451 90.984L33.839 80.721L14.82 65.32C15.318 64.207 15.707 63.336 16.031 62.612C17.353 59.653 17.576 59.153 19.61 54.6L43.856 58.299L50.585 50.393L42.971 27.151C45.569 25.445 46.727 24.683 47.886 23.922C49.045 23.161 50.204 22.4 52.802 20.694L71.146 36.887C73.318 36.222 74.714 35.796 76.108 35.369C77.506 34.941 78.902 34.514 81.08 33.848L87.289 10.144L99.04 10L105.66 33.547C108.165 34.248 109.642 34.661 111.269 35.117C112.482 35.456 113.777 35.819 115.644 36.341L133.704 19.701L143.644 25.917L136.435 49.34C137.761 50.835 138.669 51.858 139.527 52.826C140.613 54.051 141.62 55.187 143.299 57.079L167.476 52.788C168.791 55.589 169.377 56.839 169.964 58.089C170.55 59.338 171.136 60.588 172.451 63.389L153.703 79.254L155.27 89.482L177.888 98.9L177.523 101.59C177.059 105.02 176.999 105.462 176.316 110.521L151.981 113.789C150.152 117.885 149.616 119.084 147.818 123.108L147.751 123.258L161.63 143.396L158.782 146.743 M65.059 68.497C51.265 84.743 53.263 109.025 69.521 122.731C85.779 136.438 110.141 134.378 123.935 118.131C137.729 101.885 135.731 77.603 119.473 63.897C103.215 50.191 78.852 52.25 65.059 68.497"></path></g></g></g><g id="g-root-cp_2_g-2_1hegtq117n01e0-stroke" data-item-order="999276846" transform="translate(416.1309814453125, 210.65283203125)"><g id="cp_2_g-2_1hegtq117n01e0-stroke" fill="none" stroke-linecap="round" stroke-linejoin="round" stroke-miterlimit="4" stroke="#de8431" stroke-width="2" stroke-opacity="1"><g><path d="M 158.7817 146.7429C 157.4043 148.3614 156.7099 149.1773 154.011 152.3484L 154.0131 152.3449L 131.8188 141.9788C 129.916 143.2287 128.6953 144.0305 127.4738 144.8328C 126.2548 145.6334 125.0351 146.4345 123.1362 147.6819L 123.8681 172.1453C 121.9585 172.7293 120.7285 173.1053 119.7417 173.4071C 117.6562 174.0447 116.6562 174.3505 112.6217 175.585L 99.6121 154.8767L 97.1374 154.9066C 94.3896 154.9399 92.8313 154.9588 89.2335 155.0033L 76.5872 176.0262C 73.5995 175.1903 72.2671 174.8173 70.9344 174.4442C 69.6022 174.0713 68.2697 173.6983 65.2828 172.8626L 65.5896 148.3859C 63.6676 147.1841 62.4336 146.4128 61.1996 145.6415C 59.9656 144.8701 58.7316 144.0988 56.8096 142.897L 34.7985 153.8051C 32.7447 151.489 31.8285 150.4563 30.9123 149.4235C 29.9961 148.3908 29.0799 147.358 27.0261 145.042L 40.5521 124.5682C 39.298 121.8942 38.6293 120.4694 37.7819 118.6638C 37.3303 117.7016 36.828 116.6312 36.1592 115.2059L 11.7736 112.5354C 11.0179 107.6046 10.9368 107.0748 10.4441 103.8559C 10.3251 103.0789 10.1822 102.1452 10 100.9551L 32.4509 90.9845L 33.839 80.721L 14.8203 65.3203C 15.3178 64.2069 15.707 63.3359 16.0305 62.6121C 17.3527 59.6532 17.5762 59.1532 19.6097 54.6001L 43.8557 58.299L 50.5848 50.3929L 42.9713 27.1512C 45.5685 25.4447 46.7271 24.6834 47.8859 23.9222C 49.0447 23.1609 50.2036 22.3998 52.8016 20.6935L 71.1463 36.8866C 73.3182 36.2224 74.7135 35.7955 76.1077 35.3689C 77.5055 34.9412 78.9023 34.5138 81.0797 33.848L 87.289 10.1441L 99.0404 10L 105.6596 33.5469C 108.1646 34.2482 109.6419 34.6615 111.2691 35.1168C 112.4817 35.456 113.7775 35.8185 115.6436 36.3408L 133.7036 19.7015L 143.6439 25.9165L 136.4351 49.3404C 137.7614 50.8355 138.6685 51.8584 139.5265 52.826C 140.6125 54.0506 141.6199 55.1866 143.2993 57.0795L 167.4764 52.7877C 168.7912 55.5893 169.3773 56.8389 169.9636 58.0886C 170.5498 59.3382 171.1361 60.5878 172.4508 63.3895L 153.7032 79.2541L 155.2695 89.4823L 177.8877 98.9005L 177.5235 101.5905C 177.0592 105.0201 176.9993 105.4623 176.3155 110.5214L 151.9811 113.7888C 150.152 117.8852 149.6164 119.0839 147.8183 123.108L 147.7513 123.258L 161.6296 143.3964L 158.7817 146.7429ZM 65.0587 68.497C 51.265 84.7434 53.2628 109.0255 69.5208 122.7315C 85.7788 136.4375 110.1414 134.3779 123.9351 118.1314C 137.7287 101.8849 135.731 77.6028 119.473 63.8969C 103.215 50.1909 78.8524 52.2505 65.0587 68.497Z"></path></g></g></g><g id="g-root-cp_1_g-1_1hegtq117n01e1-fill" data-item-order="999276850" transform="translate(649.8270263671875, 448.666015625)"><g id="cp_1_g-1_1hegtq117n01e1-fill-merged" stroke="none" fill="#fffbda" fill-opacity="1"><g><path d="M49.831 162.592C48.05 161.453 47.153 160.879 43.664 158.646L50.951 135.415C49.464 133.709 48.51 132.615 47.556 131.52C46.604 130.427 45.651 129.333 44.167 127.631L20.115 131.622C19.284 129.82 18.75 128.66 18.321 127.729C17.414 125.762 16.979 124.818 15.224 121.012L33.938 105.437L33.58 103.005C33.182 100.305 32.956 98.774 32.434 95.238L10 85.601C10.428 82.548 10.619 81.187 10.81 79.825C11.002 78.464 11.193 77.102 11.621 74.051L35.824 71.08C36.755 69.027 37.353 67.71 37.95 66.392C38.548 65.074 39.145 63.756 40.076 61.704L26.382 41.496C28.396 39.165 29.294 38.125 30.191 37.085C31.089 36.045 31.987 35.005 34 32.674L56.009 43.25C58.482 41.658 59.8 40.81 61.47 39.734C62.359 39.161 63.349 38.523 64.667 37.674L64.063 13.314C68.83 11.911 69.342 11.76 72.454 10.845C73.206 10.624 74.108 10.358 75.259 10.02L88.085 30.786 H98.402L111.077 10C112.243 10.341 113.154 10.608 113.912 10.829C117.008 11.735 117.532 11.888 122.297 13.281L121.867 37.642L130.566 43.208L152.498 32.607C154.528 34.935 155.434 35.974 156.339 37.013C157.245 38.051 158.15 39.09 160.18 41.42L146.632 61.642C147.576 63.691 148.183 65.007 148.79 66.323C149.398 67.642 150.005 68.959 150.952 71.013L175.177 73.956L176.881 85.504L154.516 95.168C154.156 97.728 153.945 99.237 153.712 100.9C153.538 102.139 153.352 103.463 153.085 105.369L171.911 120.922L167.096 131.537L143.015 127.573C141.715 129.079 140.826 130.108 139.985 131.082C138.92 132.315 137.933 133.458 136.287 135.365L143.737 158.589C141.146 160.258 139.99 161.002 138.835 161.746C137.679 162.49 136.523 163.234 133.932 164.903L115.78 148.57L105.891 151.48L99.599 175.003 H96.895C93.448 175.005 93.004 175.005 87.919 175.009L81.459 151.492C77.172 150.24 75.918 149.873 71.706 148.641 H71.549L53.513 164.948L49.831 162.592 M114.618 59.876C96.747 48.471 73.042 53.684 61.672 71.52C50.303 89.355 55.574 113.061 73.445 124.466C91.316 135.872 115.021 130.659 126.391 112.823C137.76 94.987 132.489 71.282 114.618 59.876"></path></g></g></g><g id="g-root-cp_1_g-1_1hegtq117n01e1-stroke" data-item-order="999276850" transform="translate(649.8270263671875, 448.666015625)"><g id="cp_1_g-1_1hegtq117n01e1-stroke" fill="none" stroke-linecap="round" stroke-linejoin="round" stroke-miterlimit="4" stroke="#e0cb15" stroke-width="2" stroke-opacity="1"><g><path d="M 49.8313 162.5925C 48.0505 161.4531 47.1528 160.8787 43.6636 158.646L 43.6674 158.6476L 50.9509 135.415C 49.4642 133.7092 48.5104 132.6148 47.5561 131.5197C 46.6037 130.4269 45.6508 129.3334 44.1671 127.631L 20.1147 131.6221C 19.2844 129.8205 18.7497 128.6602 18.3207 127.7291C 17.4141 125.7616 16.9793 124.8181 15.2245 121.0118L 33.9383 105.4374L 33.5798 103.0054C 33.1818 100.3051 32.9561 98.7737 32.434 95.2383L 10 85.6008C 10.4281 82.5482 10.6192 81.1868 10.8104 79.8251C 11.0015 78.4639 11.1926 77.1024 11.6206 74.0506L 35.8242 71.08C 36.7552 69.0274 37.3526 67.7096 37.9501 66.3918C 38.5475 65.074 39.1449 63.7563 40.0759 61.7037L 26.3824 41.4958C 28.3959 39.1645 29.2936 38.1246 30.1914 37.0846C 31.0891 36.0447 31.9868 35.0048 34.0002 32.6735L 56.009 43.2503C 58.482 41.6583 59.7997 40.8096 61.4695 39.734C 62.3594 39.1609 63.3493 38.5233 64.6674 37.6744L 64.0629 13.3138C 68.83 11.9107 69.3423 11.76 72.4544 10.8446C 73.2056 10.6236 74.1083 10.3581 75.259 10.0197L 88.0854 30.7858L 98.4018 30.7799L 111.0773 10C 112.2426 10.3409 113.1541 10.6076 113.9117 10.8292C 117.0083 11.7351 117.5316 11.8882 122.2966 13.2811L 121.8674 37.6418L 130.5664 43.2085L 152.4982 32.6068C 154.528 34.9351 155.4335 35.9738 156.339 37.0126C 157.2445 38.0515 158.1499 39.0905 160.1795 41.4196L 146.6321 61.642C 147.5764 63.6911 148.1832 65.0074 148.7897 66.3228C 149.3977 67.6415 150.0052 68.9592 150.9519 71.0135L 175.177 73.9564L 176.881 85.5044L 154.5157 95.1681C 154.1563 97.7276 153.9446 99.2371 153.7115 100.8997C 153.5377 102.1386 153.3521 103.4626 153.0846 105.3693L 171.9106 120.9217L 167.0963 131.5373L 143.0148 127.5732C 141.7151 129.0786 140.8259 130.1082 139.9848 131.0821C 138.9201 132.3149 137.9326 133.4584 136.2872 135.3646L 143.7371 158.5891C 141.1461 160.2578 139.9904 161.0019 138.8347 161.746C 137.679 162.4902 136.5233 163.2343 133.9324 164.903L 115.7797 148.5702L 105.8908 151.4795L 99.5993 175.0026L 96.8954 175.0038C 93.448 175.0053 93.0036 175.0054 87.9185 175.0087L 81.459 151.4925C 77.172 150.2397 75.9175 149.8727 71.7061 148.6408L 71.549 148.5949L 53.5133 164.9483L 49.8313 162.5925ZM 114.6181 59.8762C 96.7468 48.4708 73.0416 53.6838 61.6721 71.5196C 50.3026 89.3554 55.5735 113.0609 73.4448 124.4664C 91.3161 135.8718 115.0212 130.6588 126.3908 112.8229C 137.7603 94.9871 132.4893 71.2816 114.6181 59.8762Z"></path></g></g></g><g id="g-root-cp_0_g-0_143msft17mzzt6-fill" data-item-order="999276854" transform="translate(213.2080078125, 305.57763671875)"><g id="cp_0_g-0_143msft17mzzt6-fill-merged" stroke="none" fill="#f5f5f5" fill-opacity="1"><g><path d="M272.558 85.818L278.304 84.738L290.411 114.464L294.658 114.565L297.326 146.842L313.205 155.858L309.048 176.792C297.943 174.42 286.035 175.226 274.714 179.8C244.538 191.992 229.958 226.34 242.15 256.516C254.342 286.693 288.69 301.273 318.867 289.081C334.304 282.844 345.659 270.809 351.437 256.5L377.432 270.637L385.794 253.139L413.688 258.069L441.23 274.53L439.255 280.164C437.79 284.343 437.532 285.078 434.879 292.65L403.107 288.263L400.184 293.069L400.079 293.242C398.077 296.533 396.944 298.396 393.771 303.611L412.248 329.856L399.08 343.82L371.831 326.88C368.434 329.229 366.515 330.556 364.648 331.848L364.445 331.989C362.512 333.326 360.579 334.663 357.059 337.097L363.276 368.585L345.568 375.978L327.554 349.413L309.903 352.732L302.786 384.02L283.599 383.564L277.931 351.973L274.029 351.045C272.097 350.586 270.645 350.241 269.193 349.896C266.888 349.349 264.603 348.806 260.453 347.82L241.233 373.497C236.412 371.211 234.484 370.297 232.558 369.384C230.631 368.471 228.705 367.557 223.884 365.271L231.545 334.114C228.137 331.511 226.266 330.085 224.395 328.656C222.528 327.231 220.66 325.805 217.261 323.209L189.262 338.837C185.002 333.875 183.876 332.564 182.044 330.429L176.751 324.264L196.415 298.926C194.361 295.167 193.233 293.102 192.105 291.038L191.894 290.653L204.08 274.297L216.642 279.104L230.128 234.946L214.354 273.441L200.647 265.8L184.749 283.426L155.855 286.027C154.324 280.914 153.713 278.871 153.101 276.827C152.489 274.784 151.877 272.74 150.346 267.627L178.611 252.487C178.054 245.702 177.897 243.78 177.506 238.991L177.145 234.573L146.79 224.199L147.578 218.053C148.116 213.857 148.229 212.974 149.234 205.153L181.219 202.834L187.162 185.877L163.64 164.048L167.364 157.929C169.158 154.98 169.853 153.838 173.618 147.649L203.788 158.551L216.111 145.484L203.488 115.974L205.513 114.573C208.472 112.527 209.926 111.521 211.381 110.515C212.791 109.54 214.201 108.564 216.983 106.639L219.272 105.056L242.409 127.293C246.356 125.646 248.524 124.741 250.69 123.837 H250.768C252.913 122.909 255.077 122.005 258.983 120.375L259.443 88.286C267.396 86.789 268.104 86.655 272.558 85.818 M325.655 86.68C328.23 87.291 329.699 87.64 331.168 87.989C333.241 88.482 335.316 88.975 340.506 90.208L339.487 122.283L355.723 129.981L379.861 108.868C383.991 112.022 385.707 113.332 387.359 114.593L387.495 114.698L387.716 114.866C389.341 116.107 391.069 117.426 395.124 120.523L381.156 149.401C383.946 152.651 385.478 154.436 387.01 156.22L387.25 156.501C388.705 158.196 390.22 159.96 392.863 163.04L423.503 153.582C426.063 158.266 427.086 160.138 428.108 162.01C429.131 163.881 430.154 165.754 432.714 170.438L408.212 191.127C409.44 195.23 410.115 197.484 410.79 199.737L410.978 200.366C411.594 202.425 412.253 204.625 413.367 208.347L445.21 212.18C445.646 217.498 445.82 219.624 445.993 221.749C446.167 223.875 446.341 226.001 446.777 231.323L415.978 240.245L415.603 243.165L380.89 241.002L374.163 262.545L352.623 253.3C356.983 240.415 356.926 225.966 351.431 212.364C344.158 194.364 329.003 181.913 311.551 177.384L318.465 153.733L305.216 143.655L304.834 114.806L308.367 114.89L321.831 85.772L325.655 86.68"></path></g></g><g id="cp_0_g-0_143msft17mzzt6-fill-merged" stroke="none" fill="#f5f5f5" fill-opacity="1"><g><path d="M360.182 58.382C360.548 57.367 360.733 56.855 361.451 54.865L373.92 55.797C374.604 54.862 375.043 54.262 375.482 53.662C375.92 53.063 376.358 52.463 377.04 51.53L372.284 40.053C373.091 39.432 373.611 39.033 374.028 38.712C374.91 38.035 375.332 37.71 377.037 36.399L386.982 43.888L388.159 43.429C389.466 42.92 390.207 42.63 391.917 41.963L394.172 29.714C395.749 29.573 396.453 29.511 397.157 29.448C397.861 29.386 398.564 29.323 400.142 29.183L404.404 40.854C405.539 41.078 406.267 41.223 406.995 41.367C407.724 41.511 408.452 41.655 409.587 41.88L418.137 32.748C419.535 33.478 420.159 33.803 420.783 34.129C421.406 34.454 422.03 34.78 423.428 35.51L420.655 47.656C421.735 48.7 422.312 49.256 423.042 49.96C423.431 50.336 423.863 50.753 424.44 51.31L436.57 48.194C437.819 50.398 437.953 50.635 438.768 52.074C438.965 52.421 439.201 52.839 439.503 53.371L430.574 62.137L431.76 67.257L443.619 71.147C443.582 71.765 443.553 72.248 443.529 72.65C443.43 74.292 443.413 74.569 443.262 77.095L431.013 79.698L429.223 84.659L437.046 94.32C436.113 95.596 435.697 96.166 435.28 96.735C434.864 97.305 434.447 97.874 433.513 99.151L421.833 94.764C420.915 95.469 420.326 95.923 419.737 96.376C419.146 96.83 418.556 97.284 417.635 97.991L418.939 110.355L413.351 112.536L405.948 102.551C404.625 102.669 403.845 102.738 402.985 102.815C402.345 102.872 401.661 102.932 400.675 103.02L395.045 114.162L389.177 112.999L388.401 100.588C387.498 100.117 386.881 99.794 386.297 99.489C385.557 99.103 384.871 98.745 383.728 98.149L372.952 104.531C371.819 103.438 371.314 102.95 370.809 102.462C370.304 101.975 369.799 101.487 368.666 100.394L374.764 89.496L372.173 84.924L359.672 84.519L359.362 83.177C358.966 81.466 358.915 81.246 358.33 78.722L369.366 72.798C369.502 70.526 369.542 69.86 369.676 67.628 V67.544L359.424 60.482L360.182 58.382 M419.048 78.669C422.71 68.48 417.382 57.316 407.147 53.734C396.912 50.152 385.645 55.508 381.982 65.697C378.319 75.886 383.647 87.049 393.882 90.632C404.118 94.214 415.385 88.858 419.048 78.669"></path></g></g><g id="cp_0_g-0_143msft17mzzt6-fill-merged" stroke="none" fill="#f5f5f5" fill-opacity="1"><g><path d="M100.118 350.657C100.228 349.583 100.283 349.041 100.499 346.937L112.823 344.825C113.26 343.752 113.541 343.064 113.821 342.375C114.102 341.688 114.382 341 114.818 339.93L107.427 329.944C108.06 329.147 108.468 328.633 108.795 328.221C109.486 327.351 109.818 326.933 111.155 325.249L122.616 330.109L123.647 329.379C124.791 328.569 125.44 328.109 126.939 327.047L126.163 314.617C127.66 314.099 128.327 313.868 128.995 313.637C129.663 313.406 130.33 313.175 131.827 312.658L138.786 322.95C139.941 322.894 140.683 322.858 141.425 322.821C142.166 322.785 142.908 322.749 144.063 322.693L150.15 311.763C151.684 312.133 152.367 312.298 153.051 312.463C153.735 312.628 154.419 312.793 155.952 313.163L156.2 325.619C157.501 326.371 158.194 326.771 159.073 327.278C159.541 327.548 160.062 327.848 160.756 328.249L171.772 322.291C173.517 324.128 173.705 324.325 174.844 325.524C175.119 325.813 175.449 326.161 175.871 326.604L169.328 337.271L171.717 341.952L184.165 342.857C184.278 343.466 184.367 343.942 184.441 344.337C184.742 345.954 184.793 346.227 185.258 348.715L174.002 354.203L173.465 359.45L183.393 366.931C182.797 368.396 182.53 369.049 182.264 369.702C181.998 370.356 181.731 371.009 181.134 372.474L168.74 371.042C168.02 371.949 167.557 372.532 167.095 373.114C166.632 373.697 166.169 374.28 165.447 375.189L169.703 386.871L164.809 390.339L155.21 382.442C153.955 382.876 153.215 383.132 152.399 383.414C151.792 383.624 151.142 383.849 150.207 384.172L147.44 396.345L141.465 396.637L137.71 384.782C136.72 384.543 136.043 384.379 135.402 384.225C134.591 384.029 133.839 383.848 132.586 383.546L123.673 392.345C122.31 391.558 121.701 391.207 121.093 390.856C120.485 390.505 119.877 390.154 118.514 389.368L121.794 377.318L118.175 373.509L105.947 376.141L105.321 374.914C104.523 373.349 104.42 373.148 103.242 370.84L112.517 362.422C112.099 360.184 111.977 359.529 111.567 357.33 V357.248L99.891 352.877L100.118 350.657 M162.143 356.1C163.232 345.328 155.362 335.784 144.564 334.785C133.766 333.785 124.129 341.708 123.04 352.48C121.951 363.252 129.821 372.796 140.619 373.795C151.417 374.795 161.054 366.872 162.143 356.1"></path></g></g><g id="cp_0_g-0_143msft17mzzt6-fill-merged" stroke="none" fill="#f5f5f5" fill-opacity="1"><g><path d="M415.667 352.105C415.385 351.063 415.243 350.538 414.689 348.496L425.438 342.108C425.462 340.95 425.477 340.206 425.493 339.463C425.508 338.721 425.523 337.979 425.547 336.823L415.068 330.149C415.373 329.178 415.57 328.553 415.728 328.051C416.061 326.99 416.221 326.482 416.866 324.43L429.307 324.86L430.008 323.809C430.786 322.643 431.227 321.981 432.246 320.453L427.067 309.126C428.279 308.106 428.819 307.651 429.36 307.196C429.9 306.741 430.441 306.286 431.653 305.267L441.838 312.382C442.896 311.915 443.576 311.616 444.255 311.316C444.935 311.016 445.614 310.717 446.673 310.25L448.438 297.865C450.002 297.661 450.7 297.57 451.397 297.479C452.095 297.388 452.793 297.297 454.357 297.092L459.052 308.633C460.536 308.868 461.326 308.993 462.328 309.152C462.863 309.236 463.457 309.33 464.248 309.455L472.397 299.945C474.685 301.034 474.93 301.151 476.423 301.863C476.784 302.034 477.217 302.241 477.769 302.503L475.483 314.806L479.391 318.32L491.337 314.704C491.661 315.232 491.914 315.644 492.125 315.987C492.986 317.389 493.131 317.625 494.456 319.781L485.915 328.939L487.294 334.03L499.244 337.456C499.212 339.037 499.197 339.742 499.183 340.448C499.168 341.153 499.154 341.859 499.121 343.44L487.037 346.545C486.69 347.65 486.467 348.359 486.244 349.068C486.021 349.779 485.797 350.49 485.449 351.597L493.609 360.978L490.282 365.969L478.491 362.036C477.475 362.891 476.875 363.396 476.215 363.951C475.723 364.365 475.198 364.807 474.441 365.444L476.219 377.801L470.746 380.214L462.992 370.492C461.982 370.624 461.291 370.714 460.638 370.799C459.81 370.907 459.043 371.007 457.765 371.175L452.598 382.583C451.043 382.338 450.349 382.228 449.656 382.118C448.962 382.009 448.269 381.899 446.714 381.653L445.459 369.228L440.714 366.969L430.242 373.808L429.218 372.887C427.912 371.712 427.743 371.561 425.817 369.829L431.459 358.646C430.267 356.707 429.918 356.139 428.748 354.233 V354.162L416.251 354.26L415.667 352.105 M475.523 334.959C472.68 324.512 461.912 318.423 451.473 321.36C441.034 324.296 434.877 335.146 437.72 345.593C440.564 356.04 451.332 362.129 461.771 359.193C472.21 356.256 478.367 345.406 475.523 334.959"></path></g></g><g id="cp_0_g-0_143msft17mzzt6-fill-merged" stroke="none" fill="#f5f5f5" fill-opacity="1"><g><path d="M138.079 59.385C138.047 58.199 138.031 57.602 137.968 55.279L151.114 51.249C151.439 50.02 151.648 49.231 151.856 48.441C152.065 47.653 152.273 46.865 152.598 45.638L143.121 35.798C143.699 34.841 144.071 34.225 144.37 33.73C145.001 32.685 145.303 32.184 146.524 30.161L159.715 33.847L160.736 32.907C161.87 31.864 162.513 31.272 163.997 29.905L161.392 16.475C162.951 15.7 163.647 15.355 164.343 15.01C165.038 14.665 165.734 14.32 167.294 13.546L176.342 23.78C177.594 23.557 178.398 23.413 179.202 23.27C180.006 23.126 180.81 22.982 182.062 22.759L187.156 10C188.881 10.188 189.65 10.272 190.42 10.355C191.189 10.439 191.959 10.522 193.684 10.71L195.716 24.244C197.242 24.879 198.055 25.218 199.086 25.647C199.635 25.875 200.246 26.129 201.059 26.468L212.233 18.433C214.397 20.188 214.63 20.377 216.042 21.523C216.383 21.8 216.793 22.132 217.315 22.556L211.686 35.092L214.955 39.855L228.663 39.095C228.873 39.741 229.037 40.247 229.174 40.668C229.731 42.387 229.825 42.677 230.684 45.322L219.182 52.879L219.339 58.669L231.228 65.425C230.785 67.104 230.587 67.853 230.389 68.601C230.19 69.35 229.992 70.099 229.548 71.779L215.824 71.959C215.167 73.047 214.745 73.747 214.323 74.446C213.901 75.146 213.478 75.847 212.819 76.938L219.115 89.065L214.267 93.528L202.678 86.274C201.37 86.923 200.598 87.306 199.749 87.727C199.116 88.042 198.439 88.377 197.465 88.861L196.169 102.508L189.692 103.664L183.918 91.278C182.804 91.157 182.042 91.074 181.321 90.996C180.409 90.897 179.563 90.804 178.153 90.651L169.675 101.486C168.076 100.821 167.363 100.524 166.65 100.227C165.937 99.93 165.224 99.633 163.625 98.968L165.499 85.383L161.011 81.741L148.044 86.324L147.188 85.076C146.096 83.484 145.955 83.278 144.343 80.931L153.271 70.46C152.498 68.081 152.272 67.385 151.513 65.047 V64.96L138.146 61.836L138.079 59.385 M206.513 56.609C206.177 44.723 196.24 35.433 184.319 35.86C172.399 36.286 163.007 46.268 163.343 58.154C163.679 70.04 173.616 79.33 185.537 78.903C197.458 78.477 206.849 68.495 206.513 56.609"></path></g></g><g id="cp_0_g-0_143msft17mzzt6-fill-merged" stroke="none" fill="#f5f5f5" fill-opacity="1"><g><path d="M10.53 376.655C10.786 375.443 10.915 374.832 11.417 372.457L25.873 371.531C26.507 370.36 26.913 369.609 27.319 368.857C27.725 368.107 28.131 367.356 28.763 366.188L21.452 353.908C22.277 353.075 22.809 352.539 23.236 352.108C24.137 351.198 24.57 350.762 26.314 349.002L38.933 355.924L40.209 355.216C41.626 354.429 42.429 353.983 44.284 352.952L44.89 338.679C46.678 338.269 47.475 338.086 48.272 337.903C49.069 337.72 49.867 337.537 51.654 337.126L58.43 349.704C59.768 349.778 60.627 349.826 61.486 349.874C62.345 349.922 63.204 349.97 64.542 350.045L72.875 338.31C74.597 338.917 75.365 339.187 76.133 339.457C76.901 339.728 77.669 339.998 79.392 340.605L78.173 354.843C79.581 355.856 80.332 356.396 81.284 357.08C81.791 357.444 82.355 357.85 83.106 358.39L96.518 352.92C98.308 355.224 98.5 355.472 99.668 356.977C99.95 357.34 100.288 357.776 100.72 358.333L91.894 369.712L94.081 375.339L108.316 377.869C108.373 378.577 108.418 379.13 108.455 379.59C108.607 381.471 108.633 381.788 108.868 384.682L95.236 389.588L93.984 395.508L104.521 405.236C103.657 406.834 103.271 407.548 102.885 408.261C102.499 408.974 102.114 409.687 101.249 411.286L87.14 408.162C86.201 409.11 85.598 409.719 84.995 410.327C84.391 410.937 83.787 411.546 82.845 412.496L86.339 426.333L80.281 429.699L70.174 419.537C68.675 419.881 67.791 420.084 66.818 420.308C66.092 420.475 65.317 420.653 64.201 420.909L59.543 434.461L52.623 434.075L49.727 420.101C48.615 419.709 47.854 419.442 47.135 419.188C46.224 418.867 45.379 418.57 43.971 418.075L32.64 427.039C31.164 425.978 30.505 425.505 29.847 425.031C29.189 424.558 28.53 424.084 27.054 423.023L32.289 409.673L28.578 404.893L14.17 406.424L13.597 404.949C12.866 403.069 12.772 402.826 11.693 400.053L23.397 391.567C23.185 388.964 23.124 388.202 22.917 385.644 V385.549L10 379.161L10.53 376.655 M81.342 390.325C83.898 378.169 75.98 366.336 63.659 363.897C51.338 361.458 39.277 369.336 36.722 381.492C34.167 393.648 42.084 405.48 54.405 407.919C66.727 410.358 78.787 402.481 81.342 390.325"></path></g></g></g><g id="g-root-cp_0_g-0_143msft17mzzt6-stroke" data-item-order="999276854" transform="translate(213.2080078125, 305.57763671875)"><g id="cp_0_g-0_143msft17mzzt6-stroke" fill="none" stroke-linecap="round" stroke-linejoin="round" stroke-miterlimit="4" stroke="#a3a3a3" stroke-width="2" stroke-opacity="1"><g><path d="M 153.099508 276.8305C 152.487708 274.7872 151.875808 272.7439 150.345108 267.6302L 150.341708 267.627199L 178.610008 252.4906C 178.053608 245.7057 177.896408 243.7829 177.504908 238.9938L 177.143708 234.5758L 146.788208 224.203L 147.576708 218.0565C 148.114908 213.8601 148.228108 212.9775 149.232908 205.1558L 181.217308 202.8374L 187.161008 185.8804L 163.639208 164.051999L 167.362708 157.9327C 169.157108 154.9838 169.852108 153.8418 173.617108 147.6524L 203.787508 158.5542C 206.724008 155.440599 208.336408 153.7307 209.948708 152.0208C 211.561108 150.311 213.173508 148.6011 216.110008 145.4875L 203.486408 115.977L 205.511908 114.5763C 208.471108 112.529999 209.925408 111.5244 211.379508 110.5185C 212.789808 109.5431 214.199908 108.5675 216.982308 106.6425L 219.270108 105.0597L 242.408408 127.2966C 246.354908 125.6492 248.523208 124.743999 250.689608 123.8395L 250.766308 123.8075C 252.911408 122.9119 255.075208 122.0085 258.981608 120.3779L 259.441708 88.2891C 267.395108 86.792 268.102608 86.659 272.557408 85.8216L 278.302208 84.7417L 290.409108 114.467499L 294.656508 114.5681L 297.325008 146.8463L 313.204108 155.862L 309.046808 176.7951C 297.942008 174.4234 286.034208 175.2295 274.713608 179.8034C 244.537008 191.9955 229.957208 226.3434 242.149308 256.5199C 254.341408 286.6965 288.689308 301.2763 318.865908 289.0842C 334.302908 282.8472 345.658408 270.8123 351.436408 256.5039L 377.430808 270.6405L 385.792708 253.143L 413.687908 258.0729L 441.228908 274.5332L 439.253908 280.1675C 437.789108 284.3461 437.531408 285.081499 434.878408 292.6535L 403.106008 288.2666L 400.183008 293.0725L 400.077808 293.2456C 398.076108 296.5368 396.943508 298.398999 393.769808 303.6153L 412.246408 329.8591L 399.079208 343.8229L 371.829108 326.8834C 368.432408 329.2323 366.513908 330.5596 364.647208 331.850999L 364.443508 331.992C 362.510908 333.329 360.578308 334.6661 357.057908 337.1006L 363.274608 368.5888L 345.566808 375.9814L 327.552908 349.416L 318.727508 351.0755L 309.902008 352.7349L 302.784808 384.0228L 283.598008 383.5674L 277.930208 351.9765L 274.028208 351.0491C 272.095508 350.5898 270.643408 350.2448 269.191308 349.8998L 269.166008 349.8937C 266.887408 349.3523 264.601808 348.8092 260.452508 347.823L 241.232108 373.5003C 236.410508 371.2146 234.483908 370.3012 232.557308 369.3877C 230.630808 368.4742 228.704208 367.5608 223.882608 365.2751L 231.544008 334.118C 228.135308 331.5152 226.265808 330.088 224.394208 328.6593C 222.527708 327.2345 220.659208 325.8081 217.259708 323.2123L 189.260408 338.840099C 185.000208 333.8779 183.874708 332.5668 182.042708 330.4324L 176.750408 324.2671L 196.414008 298.929C 194.360008 295.1701 193.231908 293.106 192.103908 291.0419L 191.892908 290.6559L 204.078908 274.300199L 216.640908 279.1082L 230.127008 234.9498L 214.352408 273.4439L 200.646208 265.8038L 184.747908 283.4291L 155.854008 286.0307C 154.323308 280.917099 153.711408 278.8738 153.099508 276.8305ZM 308.365508 114.892999L 321.829508 85.7751L 325.653908 86.6834C 328.229708 87.295 329.698308 87.6438 331.167008 87.9927C 333.240808 88.4854 335.314608 88.9782 340.505608 90.2119L 339.486608 122.2861L 347.604408 126.135299L 355.722208 129.9845L 379.859908 108.8717C 383.990608 112.0256 385.706008 113.3356 387.358208 114.5973L 387.494408 114.7013L 387.715108 114.8698C 389.340208 116.1108 391.067608 117.4299 395.123108 120.5264L 381.154808 149.4047C 383.944908 152.6545 385.476608 154.4392 387.008408 156.2238L 387.249408 156.5046C 388.704108 158.1996 390.218108 159.9635 392.861908 163.0429L 423.501808 153.5854C 426.061908 158.2698 427.084708 160.1416 428.107508 162.0134C 429.130308 163.8851 430.153108 165.7569 432.713208 170.4414L 408.210608 191.1305C 409.438908 195.234 410.113608 197.4873 410.788308 199.7406L 410.976808 200.3701C 411.593108 202.428599 412.251808 204.6285 413.366008 208.3508L 445.209908 212.184C 445.645308 217.5017 445.819008 219.6277 445.992508 221.7523C 446.166308 223.8788 446.339908 226.0039 446.775608 231.3264L 415.976708 240.2485L 415.601808 243.1691L 380.888708 241.0053L 374.161508 262.5487L 352.622508 253.3044C 356.981908 240.4186 356.925608 225.9694 351.430108 212.3676C 344.157608 194.3674 329.001808 181.916599 311.550408 177.3871L 318.463808 153.737L 305.214508 143.6587L 304.832608 114.8093L 308.365508 114.892999ZM 163.639208 164.051999C 165.420008 161.1253 166.514208 159.327 167.362708 157.9327M 203.486408 115.977C 204.233708 115.4602 204.904508 114.9963 205.511908 114.5763M 219.270108 105.0597C 218.413608 105.6522 217.657508 106.1753 216.982308 106.6425M 250.766308 123.8075C 250.740708 123.8182 250.715208 123.828799 250.689608 123.8395M 272.557408 85.8216C 273.974908 85.5552 275.771808 85.2174 278.302208 84.7417M 290.409108 114.467499C 292.081208 114.5071 293.458608 114.5397 294.656508 114.5681M 308.365508 114.892999C 307.016208 114.861 305.858708 114.8336 304.832608 114.8093M 321.829508 85.7751C 323.343808 86.1347 324.592808 86.4314 325.653908 86.6834M 339.486608 122.2861C 343.356008 124.1208 345.480208 125.128 347.604408 126.135299C 349.728608 127.1426 351.852808 128.149799 355.722208 129.9845M 387.008408 156.2238C 387.088608 156.317399 387.168908 156.4109 387.249408 156.5046M 410.788308 199.7406C 410.851008 199.9499 410.913708 200.1593 410.976808 200.3701M 415.976708 240.2485C 415.837008 241.3371 415.713408 242.2999 415.601808 243.1691M 403.106008 288.2666C 401.884608 290.2747 400.965708 291.7857 400.183008 293.0725C 400.147708 293.1307 400.112608 293.1883 400.077808 293.2456M 364.443508 331.992C 364.511408 331.945 364.579308 331.898 364.647208 331.850999M 327.552908 349.416C 323.346508 350.2071 321.037008 350.6413 318.727508 351.0755C 316.417908 351.5097 314.108408 351.9439 309.902008 352.7349M 277.930208 351.9765C 276.409708 351.6151 275.139508 351.3132 274.028208 351.0491M 269.191308 349.8998C 269.182908 349.8977 269.174408 349.8957 269.166008 349.8937M 182.042708 330.4324C 180.884508 329.0831 179.443908 327.4048 176.750408 324.2671M 192.103908 291.0419C 192.033608 290.9134 191.963408 290.7849 191.892908 290.6559M 387.358208 114.5973C 387.403608 114.632 387.449008 114.6666 387.494408 114.7013C 387.567908 114.7574 387.641408 114.8135 387.715108 114.8698"></path></g></g><g id="cp_0_g-0_143msft17mzzt6-stroke" fill="none" stroke-linecap="round" stroke-linejoin="round" stroke-miterlimit="4" stroke="#a3a3a3" stroke-width="2" stroke-opacity="1"><g><path d="M 360.181678 58.382206C 360.548078 57.366606 360.732878 56.854606 361.450978 54.864706L 361.450578 54.866806L 373.920078 55.797006C 374.603878 54.861906 375.042678 54.262006 375.481578 53.661806C 375.919678 53.062806 376.358078 52.463406 377.040478 51.530206L 372.284478 40.052806C 373.091478 39.432406 373.611278 39.032906 374.028378 38.712406C 374.909778 38.035006 375.332378 37.710106 377.037278 36.399206L 386.982178 43.888106L 388.158978 43.429106C 389.465578 42.919506 390.206578 42.630406 391.917278 41.962706L 394.171678 29.713506C 395.749478 29.573206 396.453178 29.510806 397.156978 29.448306C 397.860578 29.385806 398.564278 29.323306 400.141678 29.183106L 404.403978 40.853506C 405.538678 41.078406 406.267078 41.222706 406.995478 41.366906C 407.723878 41.511106 408.452278 41.655406 409.586978 41.880306L 418.136878 32.748006C 419.535278 33.477906 420.158978 33.803306 420.782678 34.128806C 421.406278 34.454206 422.030078 34.779606 423.428278 35.509506L 420.654678 47.656206C 421.735478 48.699706 422.311578 49.255706 423.041578 49.960206C 423.430578 50.335706 423.863378 50.753406 424.439578 51.309506L 436.569678 48.194106C 437.818878 50.398106 437.953078 50.635006 438.768278 52.074006C 438.965078 52.421306 439.201478 52.838706 439.502878 53.370706L 430.573978 62.137206L 431.759578 67.257206L 443.618978 71.147306C 443.581878 71.765106 443.552778 72.248406 443.528678 72.650006C 443.429978 74.291806 443.413278 74.569206 443.261978 77.095306L 431.013278 79.697606L 429.222878 84.658806L 437.046278 94.319806C 436.112978 95.596306 435.696578 96.165806 435.280178 96.735306C 434.863778 97.304806 434.447178 97.874306 433.513478 99.150906L 421.833378 94.763606C 420.915478 95.469106 420.325878 95.922506 419.736678 96.375506C 419.145978 96.829706 418.555678 97.283606 417.635478 97.990806L 418.938878 110.355406L 413.351178 112.535806L 405.947778 102.551306C 404.624778 102.668706 403.844578 102.738106 402.985278 102.814606C 402.344878 102.871506 401.660678 102.932406 400.675078 103.019906L 395.044878 114.161806L 389.176878 112.999106L 388.401378 100.587806C 387.498478 100.116606 386.880878 99.794206 386.296678 99.489306C 385.557378 99.103306 384.871478 98.745306 383.728278 98.148906L 372.951778 104.530806C 371.819078 103.437606 371.313978 102.949906 370.808878 102.462306C 370.303678 101.974706 369.798578 101.487006 368.665878 100.393806L 374.764078 89.495906L 372.173478 84.923706L 359.672178 84.519406L 359.361678 83.177406C 358.965678 81.466406 358.914678 81.245806 358.330078 78.722206L 369.366178 72.798106C 369.502078 70.525506 369.541978 69.860406 369.676178 67.627606L 369.681178 67.544406L 359.423978 60.482106L 360.181678 58.382206ZM 419.047578 78.669006C 422.710478 68.480206 417.382378 57.316406 407.147078 53.734206C 396.911778 50.152106 385.644578 55.508106 381.981678 65.696806C 378.318778 75.885606 383.646978 87.049406 393.882278 90.631506C 404.117578 94.213606 415.384678 88.857706 419.047578 78.669006Z"></path></g></g><g id="cp_0_g-0_143msft17mzzt6-stroke" fill="none" stroke-linecap="round" stroke-linejoin="round" stroke-miterlimit="4" stroke="#a3a3a3" stroke-width="2" stroke-opacity="1"><g><path d="M 100.117962 350.656653C 100.227762 349.582553 100.283162 349.041053 100.498562 346.936553L 100.498662 346.938653L 112.822862 344.824653C 113.260162 343.751853 113.540662 343.063653 113.821462 342.375053C 114.101662 341.687853 114.381962 341.000153 114.818362 339.929553L 107.426962 329.943653C 108.059862 329.146553 108.467662 328.633153 108.794762 328.221253C 109.486062 327.350753 109.817562 326.933253 111.154762 325.248853L 122.615862 330.109453L 123.646662 329.379353C 124.791162 328.568753 125.440262 328.109053 126.938562 327.047253L 126.162762 314.616553C 127.659762 314.098753 128.327462 313.867853 128.995162 313.636953C 129.662762 313.406153 130.330462 313.175353 131.827062 312.657653L 138.786162 322.950253C 139.941462 322.893953 140.683162 322.857653 141.424762 322.821453C 142.166462 322.785153 142.908162 322.748953 144.063462 322.692653L 150.150162 311.763153C 151.683562 312.133153 152.367462 312.298053 153.051362 312.462853C 153.735262 312.627753 154.419162 312.792653 155.952462 313.162553L 156.199862 325.619453C 157.500962 326.370553 158.194362 326.770653 159.073162 327.277653C 159.541462 327.547853 160.062462 327.848353 160.756062 328.248653L 171.772262 322.291153C 173.517462 324.127553 173.704962 324.324953 174.844062 325.523953C 175.119062 325.813353 175.449462 326.161153 175.870562 326.604453L 169.327662 337.270553L 171.716662 341.951653L 184.164962 342.857253C 184.278362 343.465653 184.367062 343.941553 184.440862 344.337153C 184.742262 345.953953 184.793162 346.227153 185.257562 348.714953L 174.002262 354.203153L 173.465162 359.450153L 183.393362 366.931453C 182.796662 368.395853 182.530462 369.049153 182.264162 369.702453C 181.997862 370.355853 181.731462 371.009153 181.134362 372.473753L 168.739762 371.042453C 168.019862 371.949053 167.557362 372.531553 167.095262 373.113753C 166.632062 373.697253 166.169062 374.280453 165.447362 375.189353L 169.703262 386.871253L 164.808962 390.338753L 155.210062 382.441853C 153.954762 382.875853 153.214562 383.131953 152.399262 383.413953C 151.791662 383.624153 151.142462 383.848753 150.207362 384.172153L 147.439862 396.345153L 141.464862 396.636553L 137.709762 384.781553C 136.719762 384.542853 136.042562 384.379453 135.401962 384.224853C 134.591162 384.029253 133.839062 383.847753 132.585562 383.545653L 123.673062 392.345053C 122.309562 391.558253 121.701462 391.207353 121.093362 390.856353C 120.485262 390.505453 119.877162 390.154453 118.513662 389.367753L 121.794262 377.318253L 118.174562 373.508553L 105.946762 376.140653L 105.320762 374.913653C 104.522662 373.349253 104.419762 373.147653 103.242062 370.840353L 112.517162 362.422353C 112.099262 360.184353 111.977062 359.529353 111.567062 357.330453L 111.551762 357.248453L 99.890762 352.877453L 100.117962 350.656653ZM 162.143162 356.099853C 163.232362 345.327553 155.361662 335.784353 144.563762 334.784753C 133.765962 333.785153 124.129162 341.707753 123.039962 352.480053C 121.950762 363.252253 129.821462 372.795553 140.619262 373.795053C 151.417162 374.794653 161.053862 366.872053 162.143162 356.099853Z"></path></g></g><g id="cp_0_g-0_143msft17mzzt6-stroke" fill="none" stroke-linecap="round" stroke-linejoin="round" stroke-miterlimit="4" stroke="#a3a3a3" stroke-width="2" stroke-opacity="1"><g><path d="M 415.667223 352.105438C 415.384923 351.063338 415.242523 350.537938 414.689423 348.496038L 414.690323 348.497938L 425.438323 342.107738C 425.462123 340.949538 425.477423 340.206438 425.492723 339.463038C 425.508023 338.721038 425.523323 337.978638 425.547023 336.822738L 415.067923 330.148938C 415.373223 329.177938 415.569823 328.552538 415.727623 328.050738C 416.061123 326.990238 416.221023 326.481738 416.865623 324.429938L 429.307423 324.860438L 430.008123 323.809438C 430.786123 322.642538 431.227423 321.980738 432.245723 320.452538L 427.066623 309.125538C 428.278623 308.105638 428.819223 307.650838 429.359823 307.195938C 429.900423 306.741238 430.441023 306.286438 431.652623 305.266838L 441.838023 312.381838C 442.896423 311.915238 443.575923 311.615638 444.255323 311.316038C 444.934723 311.016338 445.614123 310.716738 446.672523 310.250138L 448.438223 297.865338C 450.002323 297.661238 450.699923 297.570038 451.397423 297.478838C 452.095023 297.387738 452.792523 297.296538 454.356623 297.092438L 459.051723 308.633338C 460.535523 308.868238 461.326323 308.993238 462.328423 309.151638C 462.862523 309.236038 463.456523 309.329938 464.247523 309.455038L 472.397023 299.945438C 474.684523 301.034338 474.930323 301.151438 476.423423 301.862538C 476.783823 302.034238 477.216923 302.240538 477.768923 302.503438L 475.483023 314.805938L 479.390923 318.319938L 491.336823 314.704338C 491.660823 315.231738 491.914223 315.644238 492.124723 315.987038C 492.985623 317.388538 493.131123 317.625338 494.456123 319.781438L 485.915123 328.938638L 487.294123 334.029538L 499.244023 337.456038C 499.211723 339.037038 499.197323 339.742338 499.182823 340.447738C 499.168323 341.153138 499.153823 341.858538 499.121223 343.439838L 487.036923 346.545338C 486.689623 347.649738 486.466723 348.359338 486.243923 349.068438C 486.020523 349.779238 485.797423 350.489538 485.449223 351.596738L 493.608923 360.977538L 490.282323 365.968638L 478.491023 362.036338C 477.474623 362.891338 476.875323 363.395638 476.215223 363.951138C 475.723423 364.365038 475.197723 364.807438 474.440723 365.444438L 476.219423 377.800738L 470.745623 380.213938L 462.991623 370.492038C 461.981723 370.624038 461.290923 370.714138 460.637523 370.799438C 459.810423 370.907338 459.043323 371.007438 457.764723 371.174638L 452.597723 382.583438C 451.042823 382.337638 450.349323 382.227938 449.655823 382.118238C 448.962323 382.008538 448.268823 381.898738 446.714023 381.652938L 445.458623 369.228138L 440.713923 366.968638L 430.241623 373.807938L 429.217523 372.886838C 427.911823 371.712338 427.743423 371.560938 425.817023 369.828938L 431.459423 358.646238C 430.267223 356.706638 429.918423 356.138938 428.747623 354.233038L 428.703923 354.161938L 416.251023 354.260138L 415.667223 352.105438ZM 475.523423 334.959238C 472.679923 324.512138 461.912023 318.423338 451.473123 321.359838C 441.034223 324.296238 434.876723 335.146138 437.720323 345.593238C 440.563823 356.040338 451.331723 362.129138 461.770623 359.192638C 472.209523 356.256238 478.367023 345.406338 475.523423 334.959238Z"></path></g></g><g id="cp_0_g-0_143msft17mzzt6-stroke" fill="none" stroke-linecap="round" stroke-linejoin="round" stroke-miterlimit="4" stroke="#a3a3a3" stroke-width="2" stroke-opacity="1"><g><path d="M 138.07905 59.384716C 138.04695 58.199316 138.03075 57.601816 137.96785 55.279316L 137.96825 55.281616L 151.11375 51.249416C 151.43895 50.019616 151.64765 49.230616 151.85645 48.441216C 152.06485 47.653316 152.27335 46.865016 152.59795 45.637716L 143.12135 35.798316C 143.69915 34.841216 144.07125 34.224816 144.36985 33.730216C 145.00085 32.685016 145.30335 32.183816 146.52375 30.161416L 159.71465 33.847216L 160.73585 32.907316C 161.86965 31.863816 162.51275 31.272016 163.99695 29.905316L 161.39155 16.474516C 162.95135 15.700416 163.64705 15.355216 164.34285 15.010016C 165.03845 14.664916 165.73415 14.319816 167.29355 13.545916L 176.34185 23.780116C 177.59425 23.556616 178.39815 23.413016 179.20215 23.269516C 180.00615 23.125916 180.81005 22.982316 182.06245 22.758916L 187.15585 10.000216C 188.88095 10.188016 189.65035 10.271616 190.41975 10.355216C 191.18915 10.438816 191.95855 10.522416 193.68365 10.710216L 195.71635 24.243616C 197.24195 24.879116 198.05515 25.217516 199.08555 25.646516C 199.63465 25.875016 200.24555 26.129316 201.05885 26.467916L 212.23345 18.433016C 214.39725 20.188316 214.62975 20.377016 216.04205 21.523116C 216.38295 21.799716 216.79255 22.132216 217.31475 22.555916L 211.68645 35.091816L 214.95505 39.855216L 228.66315 39.094616C 228.87295 39.741416 229.03715 40.247316 229.17355 40.667816C 229.73115 42.386616 229.82545 42.677016 230.68395 45.321516L 219.18215 52.878916L 219.33875 58.669316L 231.22825 65.424716C 230.78455 67.103516 230.58655 67.852516 230.38855 68.601416C 230.19045 69.350416 229.99235 70.099416 229.54815 71.778516L 215.82425 71.958916C 215.16715 73.047416 214.74515 73.746816 214.32335 74.445716C 213.90055 75.146416 213.47805 75.846516 212.81935 76.937816L 219.11525 89.064616L 214.26675 93.528216L 202.67765 86.274016C 201.36975 86.922916 200.59845 87.305616 199.74895 87.727316C 199.11585 88.041516 198.43935 88.377216 197.46505 88.860716L 196.16865 102.508016L 189.69165 103.663916L 183.91755 91.278316C 182.80375 91.157216 182.04185 91.074316 181.32115 90.995816C 180.40895 90.896516 179.56285 90.804416 178.15255 90.651216L 169.67515 101.486316C 168.07635 100.820816 167.36325 100.523916 166.65025 100.227016C 165.93715 99.930016 165.22415 99.633116 163.62535 98.967616L 165.49905 85.382816L 161.01105 81.741216L 148.04415 86.324116L 147.18765 85.075516C 146.09555 83.483616 145.95475 83.278316 144.34345 80.930516L 153.27055 70.460016C 152.49785 68.080916 152.27195 67.384616 151.51345 65.047116L 151.48525 64.960016L 138.14555 61.835516L 138.07905 59.384716ZM 206.51325 56.609016C 206.17715 44.722916 196.24045 35.432916 184.31945 35.859516C 172.39855 36.286116 163.00685 46.267916 163.34305 58.153916C 163.67915 70.040016 173.61585 79.330016 185.53685 78.903416C 197.45775 78.476816 206.84945 68.495116 206.51325 56.609016Z"></path></g></g><g id="cp_0_g-0_143msft17mzzt6-stroke" fill="none" stroke-linecap="round" stroke-linejoin="round" stroke-miterlimit="4" stroke="#a3a3a3" stroke-width="2" stroke-opacity="1"><g><path d="M 10.5298 376.654835C 10.786 375.442835 10.9152 374.831935 11.4174 372.457335L 11.4173 372.459735L 25.8732 371.530935C 26.5065 370.359935 26.9129 369.608735 27.3195 368.857035C 27.7252 368.106835 28.1313 367.356235 28.7633 366.187635L 21.4517 353.908235C 22.2773 353.075135 22.8091 352.538635 23.2358 352.108135C 24.1374 351.198335 24.5698 350.762135 26.3138 349.001535L 38.9334 355.924435L 40.2093 355.215635C 41.626 354.428735 42.4293 353.982535 44.2839 352.951635L 44.8904 338.679435C 46.6778 338.268935 47.475 338.085935 48.2723 337.902835C 49.0694 337.719935 49.8667 337.536835 51.6536 337.126435L 58.43 349.703635C 59.768 349.778435 60.627 349.826235 61.486 349.874135C 62.3449 349.922035 63.2039 349.969835 64.542 350.044635L 72.8746 338.310335C 74.5968 338.916835 75.365 339.187135 76.1331 339.457435C 76.9012 339.727735 77.6694 339.998035 79.3915 340.604535L 78.173 354.842935C 79.5815 355.856135 80.3323 356.395935 81.2837 357.079935C 81.7907 357.444435 82.3547 357.850035 83.1057 358.389935L 96.5182 352.919835C 98.3076 355.224435 98.4998 355.472135 99.6676 356.976735C 99.9495 357.339935 100.2883 357.776435 100.72 358.332735L 91.8935 369.711835L 94.0813 375.338535L 108.3156 377.868935C 108.3729 378.576535 108.4177 379.130035 108.4549 379.590135C 108.6071 381.470635 108.6328 381.788335 108.8675 384.681735L 95.236 389.587935L 93.9839 395.508135L 104.5209 405.235835C 103.6565 406.834435 103.2709 407.547635 102.8852 408.260735C 102.4995 408.973935 102.1137 409.687135 101.2489 411.285835L 87.1398 408.162235C 86.2008 409.109735 85.5976 409.718535 84.9949 410.326935C 84.3907 410.936935 83.7869 411.546435 82.8455 412.496335L 86.3394 426.333035L 80.2814 429.699335L 70.1741 419.537235C 68.6753 419.881335 67.7914 420.084335 66.8179 420.307935C 66.0925 420.474635 65.3173 420.652635 64.2008 420.909035L 59.5426 434.461035L 52.6227 434.074635L 49.7267 420.100735C 48.6148 419.709335 47.8541 419.441535 47.1347 419.188135C 46.224 418.867435 45.3793 418.570035 43.9714 418.074635L 32.6398 427.039335C 31.1637 425.978035 30.5053 425.504535 29.847 425.031035C 29.1887 424.557635 28.5303 424.084135 27.0541 423.022735L 32.2887 409.673435L 28.5776 404.892535L 14.1703 406.423835L 13.5971 404.949035C 12.8662 403.068635 12.772 402.826235 11.6934 400.052735L 23.3969 391.566735C 23.1854 388.963735 23.1237 388.201835 22.9167 385.644435L 22.909 385.549135L 10 379.160635L 10.5298 376.654835ZM 81.3423 390.324735C 83.8976 378.168635 75.9803 366.336435 63.659 363.897435C 51.3376 361.458335 39.2773 369.335935 36.722 381.492035C 34.1667 393.648135 42.0839 405.480235 54.4053 407.919335C 66.7267 410.358335 78.787 402.480835 81.3423 390.324735Z"></path></g></g></g><g id="g-root-tx_dominant_zntabd17n00lf-fill" data-item-order="1000000000" transform="translate(240.9765625, 38)"><g id="tx_dominant_zntabd17n00lf-fill-merged" stroke="none" fill="#484848" fill-opacity="1"><g><text style="font: bold 25px Roboto, sans-serif; white-space: pre;" transform="translate(269.0234375, 25)" font-weight="bold" font-size="25px" font-family="Roboto, sans-serif"><tspan x="-257.02" y="14.5" dominant-baseline="ideographic">Dominant Risk from Rare, High-Stakes Events</tspan></text></g></g></g><g id="g-root-tx_dominant_zntabd17n00lf-stroke" data-item-order="1000000000" transform="translate(240.9765625, 38)"></g><g id="g-root-tx_timepres_dhc8s917mzzta-fill" data-item-order="1000000000" transform="translate(433.70703125, 92)"><g id="tx_timepres_dhc8s917mzzta-fill-merged" stroke="none" fill="#de8431" fill-opacity="1"><g><text style="font: 20px Roboto, sans-serif; white-space: pre;" transform="translate(76.29296875, 22)" font-size="20px" font-family="Roboto, sans-serif"><tspan x="-64.29" y="11.5" dominant-baseline="ideographic">Time Pressure</tspan></text></g></g></g><g id="g-root-tx_timepres_dhc8s917mzzta-stroke" data-item-order="1000000000" transform="translate(433.70703125, 92)"></g><g id="g-root-tx_governan_91iqnt17n00lj-fill" data-item-order="1000000000" transform="translate(432.875, 128)"><g id="tx_governan_91iqnt17n00lj-fill-merged" stroke="none" fill="#484848" fill-opacity="1"><g><text style="font: 15px Roboto, sans-serif; white-space: pre;" transform="translate(77.125, 37)" font-size="15px" font-family="Roboto, sans-serif"><tspan x="-41.56" y="-9.5" dominant-baseline="ideographic">Governance </tspan><tspan x="-65.13" y="8.5" dominant-baseline="ideographic">struggles with rare, </tspan><tspan x="-64.03" y="26.5" dominant-baseline="ideographic">high-stakes events</tspan></text></g></g></g><g id="g-root-tx_governan_91iqnt17n00lj-stroke" data-item-order="1000000000" transform="translate(432.875, 128)"></g><g id="g-root-ic_2_5vqex17n2sxt-fill" data-item-order="1000000000" transform="translate(484, 278)"></g><g id="g-root-ic_2_5vqex17n2sxt-stroke" data-item-order="1000000000" transform="translate(484, 278)"><g id="ic_2_5vqex17n2sxt-stroke" fill="none" stroke-linecap="round" stroke-linejoin="round" stroke-miterlimit="4" stroke="#de8431" stroke-width="2" stroke-opacity="1"><g><path d="M 18.823999 25.994667L 26.005333 25.994667L 31.228001 32.522667M 34.164001 37.092003C 34.163811 38.191551 35.055115 39.083015 36.154667 39.083015C 37.254219 39.083015 38.145527 38.191551 38.145332 37.092003C 38.145527 35.992451 37.254219 35.100986 36.154667 35.100986C 35.055115 35.100986 34.163811 35.992451 34.164001 37.092003M 11.486667 22.284C 11.90276 20.636595 12.596217 19.072031 13.537333 17.657333M 16.726667 14.224C 18.053284 13.159791 19.559088 12.340742 21.173334 11.805333M 25.789333 11.005333C 27.487577 10.991159 29.176655 11.255556 30.789333 11.788M 34.933334 13.964C 36.297615 14.977068 37.484005 16.209869 38.444 17.612M 40.416 21.866667C 40.884499 23.500549 41.074265 25.20171 40.977333 26.898666M 39.972 31.473333C 39.387619 32.986282 38.539352 34.383507 37.466667 35.599998M 31.577335 39.925335C 26.95611 41.770042 21.721027 41.204414 17.600483 38.415188C 13.479939 35.625961 11.0097 30.975805 11.005333 26"></path></g></g></g><g id="g-root-tx_systemfr_4lp8jd17n01ds-fill" data-item-order="1000000000" transform="translate(84.1015625, 479)"><g id="tx_systemfr_4lp8jd17n01ds-fill-merged" stroke="none" fill="#e55753" fill-opacity="1"><g><text style="font: 20px Roboto, sans-serif; white-space: pre;" transform="translate(83.8984375, 34)" font-size="20px" font-family="Roboto, sans-serif"><tspan x="-68.35" y="-0.5" dominant-baseline="ideographic">System </tspan><tspan x="-71.9" y="23.5" dominant-baseline="ideographic">Fragility</tspan></text></g></g></g><g id="g-root-tx_systemfr_4lp8jd17n01ds-stroke" data-item-order="1000000000" transform="translate(84.1015625, 479)"></g><g id="g-root-tx_lossconc_mccry117n026c-fill" data-item-order="1000000000" transform="translate(842, 467)"><g id="tx_lossconc_mccry117n026c-fill-merged" stroke="none" fill="#e0cb15" fill-opacity="1"><g><text style="font: 20px Roboto, sans-serif; white-space: pre;" transform="translate(10, 34)" font-size="20px" font-family="Roboto, sans-serif"><tspan x="2" y="-0.5" dominant-baseline="ideographic">Loss </tspan><tspan x="2" y="23.5" dominant-baseline="ideographic">Concentration</tspan></text></g></g></g><g id="g-root-tx_lossconc_mccry117n026c-stroke" data-item-order="1000000000" transform="translate(842, 467)"></g><g id="g-root-ic_sear_1ur6a9l17n01ze-fill" data-item-order="1000000000" transform="translate(717, 514)"></g><g id="g-root-ic_sear_1ur6a9l17n01ze-stroke" data-item-order="1000000000" transform="translate(717, 514)"><g id="ic_sear_1ur6a9l17n01ze-stroke" fill="none" stroke-linecap="round" stroke-linejoin="round" stroke-miterlimit="4" stroke="#e0cb15" stroke-width="2" stroke-opacity="1"><g><path d="M 10.694667 16.001333C 10.694667 18.946852 16.365726 21.334667 23.361334 21.334667C 30.356941 21.334667 36.028 18.946852 36.028 16.001333C 36.028 13.055815 30.356941 10.668 23.361334 10.668C 16.365726 10.668 10.694667 13.055815 10.694667 16.001333ZM 25.361334 26.6C 24.709333 26.644001 24.041334 26.668001 23.361334 26.668001C 16.366667 26.668001 10.694667 24.281334 10.694667 21.334667M 23.361334 32.666668C 16.366667 32.666668 10.694667 30.280001 10.694667 27.333334M 23.361334 38.666668C 16.366667 38.666668 10.694667 36.279999 10.694667 33.333336L 10.694667 16M 36.028 16.001333L 36.028 23.334667M 26.693335 32.706669C 26.693333 36.041733 29.396936 38.745335 32.732002 38.745335C 36.067062 38.745335 38.770668 36.041733 38.770668 32.706665C 38.770668 29.371603 36.067062 26.667999 32.732002 26.667999C 29.396936 26.667999 26.693333 29.371603 26.693333 32.706665ZM 41.360001 41.334667L 37.029335 37.004002"></path></g></g></g><g id="g-root-ic_gian_1hiu5bt17n2vid-fill" data-item-order="1000000000" transform="translate(250, 536)"></g><g id="g-root-ic_gian_1hiu5bt17n2vid-stroke" data-item-order="1000000000" transform="translate(250, 536)"><g id="ic_gian_1hiu5bt17n2vid-stroke" fill="none" stroke-linecap="round" stroke-linejoin="round" stroke-miterlimit="4" stroke="#e55753" stroke-width="2" stroke-opacity="1"><g><path d="M 15.098666 34.009335L 15.098666 39.044003C 15.098667 40.148571 15.994098 41.044003 17.098667 41.044003C 18.203236 41.044003 19.098667 40.148571 19.098667 39.044003C 19.098667 40.148571 19.994097 41.044003 21.098667 41.044003C 22.203238 41.044003 23.098667 40.148571 23.098667 39.044003L 23.098667 34.009335M 19.098667 39.377335L 19.098667 35.454666M 11 41.044003L 41 41.044003M 31.666668 41.044003L 31.666668 34.494667M 39 34.494667L 39 41.044003M 29.666668 36.377335L 35.333336 31.044001L 41 36.377335M 19.098 10.956L 19.098 10.956C 19.098 10.956 24.385334 10.956 24.385334 16.243999L 24.385334 17.766666C 24.385334 17.766666 24.385334 23.054668 19.098 23.054668L 19.098 23.054668C 19.098 23.054668 13.810667 23.054668 13.810667 17.766666L 13.810667 16.243999C 13.810667 16.243999 13.810667 10.956 19.098 10.956M 15.765333 27.466667L 15.765333 32.380001C 15.765333 33.668667 14.720665 34.713333 13.432 34.713333C 12.143335 34.713333 11.098667 33.668667 11.098667 32.380001L 11.098667 25.380001C 11.095656 24.156456 11.57467 22.980957 12.432 22.108M 22.432001 27.409334L 22.432001 32.377335C 22.432001 33.666 23.476669 34.71067 24.765335 34.71067C 26.053999 34.71067 27.098667 33.666 27.098667 32.377335L 27.098667 25.377335C 27.100613 24.195057 26.651949 23.056473 25.844002 22.193335M 21.676001 18.381332C 20.119455 18.894684 18.439211 18.894684 16.882666 18.381332M 18.101334 18.766666L 17.649334 19.846666M 20.457333 18.766666L 20.909334 19.846666"></path></g></g></g><g id="g-root-tx_onefailu_4lp8jd17n01dt-fill" data-item-order="1000000000" transform="translate(18.546875, 539)"><g id="tx_onefailu_4lp8jd17n01dt-fill-merged" stroke="none" fill="#484848" fill-opacity="1"><g><text style="font: 15px Roboto, sans-serif; white-space: pre;" transform="translate(149.453125, 37)" font-size="15px" font-family="Roboto, sans-serif"><tspan x="-102.13" y="-9.5" dominant-baseline="ideographic">One failure can </tspan><tspan x="-137.45" y="8.5" dominant-baseline="ideographic">negate years of safe </tspan><tspan x="-65.28" y="26.5" dominant-baseline="ideographic">operation</tspan></text></g></g></g><g id="g-root-tx_onefailu_4lp8jd17n01dt-stroke" data-item-order="1000000000" transform="translate(18.546875, 539)"></g><g id="g-root-tx_smallnum_dhc8s917mzzt9-fill" data-item-order="1000000000" transform="translate(842, 527)"><g id="tx_smallnum_dhc8s917mzzt9-fill-merged" stroke="none" fill="#484848" fill-opacity="1"><g><text style="font: 15px Roboto, sans-serif; white-space: pre;" transform="translate(10, 37)" font-size="15px" font-family="Roboto, sans-serif"><tspan x="2" y="-9.5" dominant-baseline="ideographic">Small number of </tspan><tspan x="2" y="8.5" dominant-baseline="ideographic">incidents cause </tspan><tspan x="2" y="26.5" dominant-baseline="ideographic">most losses</tspan></text></g></g></g><g id="g-root-tx_smallnum_dhc8s917mzzt9-stroke" data-item-order="1000000000" transform="translate(842, 527)"></g></g></g></svg>