<?xml version="1.0" encoding="utf-8" standalone="yes"?>
<!DOCTYPE svg PUBLIC "-//W3C//DTD SVG 1.1//EN" "http://www.w3.org/Graphics/SVG/1.1/DTD/svg11.dtd">
<svg style="fill:none;stroke:none;fill-rule:evenodd;clip-rule:evenodd;stroke-linecap:round;stroke-linejoin:round;stroke-miterlimit:1.5;" version="1.1" xmlns="http://www.w3.org/2000/svg" xmlns:xlink="http://www.w3.org/1999/xlink" width="852" height="690" viewBox="0 0 852 690"><style class="text-font-style fontImports" data-font-family="Roboto">@import url(https://fonts.googleapis.com/css2?family=Roboto:wght@400;700&amp;amp;display=block);</style><g id="items" style="isolation: isolate"><g id="blend" style="mix-blend-mode: normal"><g id="g-root-cp_0_g-0_1ur6mx517xatqi-fill" data-item-order="-477566" transform="translate(368, 524)"><g id="cp_0_g-0_1ur6mx517xatqi-fill-merged" stroke="none" fill="#f5f5f5" fill-opacity="1"><g><path d="M94 52C94 75.196 75.196 94 52 94C28.804 94 10 75.196 10 52C10 28.804 28.804 10 52 10C75.196 10 94 28.804 94 52"></path></g></g></g><g id="g-root-cp_0_g-0_1ur6mx517xatqi-stroke" data-item-order="-477566" transform="translate(368, 524)"><g id="cp_0_g-0_1ur6mx517xatqi-stroke" fill="none" stroke-linecap="round" stroke-linejoin="round" stroke-miterlimit="4" stroke="#a3a3a3" stroke-width="2" stroke-opacity="1"><g><path d="M 94 52C 94 75.196 75.196 94 52 94C 28.804 94 10 75.196 10 52C 10 28.804 28.804 10 52 10C 75.196 10 94 28.804 94 52Z"></path></g></g></g><g id="g-root-cp_1_g-1_1qbd4sp17xauir-fill" data-item-order="-477562" transform="translate(368.35498046875, 311.11181640625)"><g id="cp_1_g-1_1qbd4sp17xauir-fill-merged" stroke="none" fill="#edf4ff" fill-opacity="1"><g><path d="M114.095 10C81.146 56.685 10 81.334 10 164.587 V194.888C10 197.097 11.791 198.888 14 198.888 H90.298C92.507 198.888 94.298 197.097 94.298 194.888 V174.283C94.298 120.635 139.059 97.218 174.87 61.425L151.023 41.247C149.336 39.819 146.812 40.03 145.385 41.717L144.272 43.033C144.042 43.305 143.977 43.679 144.081 44.021C145.232 47.791 144.503 52.05 141.768 55.284C137.488 60.344 129.917 60.977 124.856 56.697C119.796 52.417 119.164 44.845 123.444 39.785C126.179 36.551 130.259 35.126 134.168 35.635C134.522 35.681 134.88 35.556 135.11 35.283L136.225 33.965C137.652 32.278 137.441 29.755 135.755 28.328L114.095 10"></path></g></g></g><g id="g-root-cp_1_g-1_1qbd4sp17xauir-stroke" data-item-order="-477562" transform="translate(368.35498046875, 311.11181640625)"><g id="cp_1_g-1_1qbd4sp17xauir-stroke" fill="none" stroke-linecap="round" stroke-linejoin="round" stroke-miterlimit="4" stroke="#4e88e7" stroke-width="2" stroke-opacity="1"><g><path d="M 114.094931 10C 81.146431 56.6849 10.000031 81.3338 10.000031 164.5873L 10.000031 194.8876C 10.000031 197.0968 11.790931 198.8876 14.000031 198.8876L 90.298031 198.8876C 92.507231 198.8876 94.298031 197.0968 94.298031 194.8876L 94.298031 174.2835C 94.298031 120.6349 139.059231 97.2178 174.870131 61.4252L 151.022831 41.2467C 149.336231 39.8195 146.811931 40.0301 145.385031 41.7171L 144.272331 43.0326C 144.041831 43.3052 143.977231 43.6791 144.081431 44.0205C 145.232231 47.791 144.503231 52.0504 141.768031 55.2841C 137.488131 60.3442 129.916531 60.9767 124.856431 56.6967C 119.796331 52.4167 119.163931 44.8451 123.443831 39.785C 126.179031 36.5513 130.258531 35.1259 134.167731 35.6352C 134.521631 35.6813 134.879731 35.5556 135.110231 35.283L 136.225431 33.9646C 137.651831 32.2781 137.441331 29.7547 135.755131 28.3279L 114.094931 10Z"></path></g></g></g><g id="g-root-cp_2_g-2_1hfq4jt17xavbg-fill" data-item-order="-477558" transform="translate(416.7030029296875, 118.01611328125)"><g id="cp_2_g-2_1hfq4jt17xavbg-fill-merged" stroke="none" fill="#e3fff2" fill-opacity="1"><g><path d="M93.422 248.381C89.142 253.441 81.57 254.074 76.51 249.794C71.45 245.514 70.817 237.942 75.097 232.882C77.833 229.648 81.912 228.223 85.821 228.732C86.175 228.778 86.533 228.652 86.764 228.38L87.879 227.062C89.305 225.375 89.095 222.852 87.409 221.425L65.748 203.097C75.677 189.029 82.137 172.961 82.137 152.686C82.137 120.314 66.223 94.711 36.067 85.505L38.04 56.649C38.19 54.46 36.549 52.559 34.361 52.388L32.472 52.24C32.116 52.213 31.775 52.379 31.559 52.663C29.172 55.8 25.289 57.698 21.067 57.368C14.459 56.853 9.521 51.078 10.037 44.471C10.553 37.864 16.327 32.925 22.934 33.441C27.157 33.771 30.698 36.248 32.569 39.718C32.738 40.032 33.05 40.249 33.406 40.277L35.103 40.409C37.321 40.582 39.254 38.913 39.405 36.694L41.231 10C123.284 21.248 170.298 78.471 170.298 153.799C170.298 201.293 150.4 230.658 126.524 254.522L102.676 234.344C100.99 232.917 98.465 233.127 97.039 234.814L95.926 236.13C95.695 236.402 95.631 236.776 95.735 237.117C96.886 240.888 96.157 245.147 93.422 248.381"></path></g></g></g><g id="g-root-cp_2_g-2_1hfq4jt17xavbg-stroke" data-item-order="-477558" transform="translate(416.7030029296875, 118.01611328125)"><g id="cp_2_g-2_1hfq4jt17xavbg-stroke" fill="none" stroke-linecap="round" stroke-linejoin="round" stroke-miterlimit="4" stroke="#3cc583" stroke-width="2" stroke-opacity="1"><g><path d="M 93.4216 248.3811C 89.1416 253.4412 81.57 254.0736 76.5099 249.7936C 71.4499 245.5137 70.8174 237.942 75.0974 232.882C 77.8326 229.6482 81.912 228.2228 85.8212 228.7321C 86.1752 228.7783 86.5332 228.6525 86.7638 228.38L 87.8789 227.0616C 89.3054 225.3751 89.0949 222.8516 87.4087 221.4248L 65.7485 203.097C 75.6768 189.0295 82.1368 172.9612 82.1368 152.6856C 82.1368 120.3139 66.2231 94.7113 36.0665 85.5054L 38.0404 56.6487C 38.1901 54.4596 36.5485 52.5586 34.361 52.3878L 32.4718 52.2404C 32.1159 52.2126 31.7748 52.3787 31.5586 52.6628C 29.1716 55.8002 25.2892 57.698 21.0668 57.3684C 14.4594 56.8527 9.5212 51.0783 10.037 44.4709C 10.5527 37.8636 16.3271 32.9254 22.9344 33.4412C 27.1569 33.7708 30.6977 36.248 32.5691 39.7178C 32.7385 40.0319 33.0498 40.249 33.4056 40.2768L 35.1034 40.4093C 37.3208 40.5824 39.2535 38.9134 39.4053 36.6944L 41.2313 10C 123.2835 21.2476 170.2975 78.4711 170.2975 153.7987C 170.2975 201.293 150.3999 230.6582 126.5237 254.5222L 102.6764 234.3437C 100.9898 232.9165 98.4655 233.1271 97.0386 234.814L 95.9259 236.1296C 95.6954 236.4021 95.6308 236.776 95.735 237.1174C 96.8857 240.888 96.1568 245.1474 93.4216 248.3811Z"></path></g></g></g><g id="g-root-cp_3_g-3_1hfq4jt17xavbh-fill" data-item-order="-477554" transform="translate(253.1317138671875, 116)"><g id="cp_3_g-3_1hfq4jt17xavbh-fill-merged" stroke="none" fill="#ffeceb" fill-opacity="1"><g><path d="M173.17 83.835C182.941 83.835 191.773 85.12 199.637 87.521L201.611 58.664C201.761 56.475 200.119 54.574 197.932 54.403L196.043 54.256C195.687 54.228 195.346 54.394 195.129 54.678C192.742 57.816 188.86 59.713 184.637 59.384C178.03 58.868 173.092 53.094 173.608 46.486C174.124 39.879 179.898 34.941 186.505 35.457C190.728 35.786 194.269 38.263 196.14 41.733C196.309 42.047 196.62 42.264 196.976 42.292L198.674 42.425C200.891 42.598 202.824 40.929 202.976 38.71L204.802 12.015C195.112 10.687 184.934 10 174.286 10C77.744 10 14.166 66.002 10.003 168.38C9.912 170.626 11.721 172.51 13.969 172.51 H90.152C92.276 172.51 94.025 170.841 94.185 168.724C98.107 117.081 123.051 83.835 173.17 83.835"></path></g></g></g><g id="g-root-cp_3_g-3_1hfq4jt17xavbh-stroke" data-item-order="-477554" transform="translate(253.1317138671875, 116)"><g id="cp_3_g-3_1hfq4jt17xavbh-stroke" fill="none" stroke-linecap="round" stroke-linejoin="round" stroke-miterlimit="4" stroke="#e55753" stroke-width="2" stroke-opacity="1"><g><path d="M 173.170202 83.8346C 182.941302 83.8346 191.773502 85.1202 199.637202 87.5208L 201.611102 58.6641C 201.760902 56.475 200.119202 54.574 197.931702 54.4032L 196.042602 54.2557C 195.686702 54.228 195.345502 54.3941 195.129402 54.6782C 192.742302 57.8156 188.860002 59.7134 184.637502 59.3838C 178.030202 58.868 173.092002 53.0936 173.607702 46.4863C 174.123502 39.879 179.897902 34.9408 186.505202 35.4565C 190.727702 35.7861 194.268502 38.2634 196.139802 41.7331C 196.309302 42.0473 196.620502 42.2644 196.976402 42.2921L 198.674102 42.4247C 200.891502 42.5977 202.824302 40.9287 202.976102 38.7098L 204.802102 12.0154C 195.112202 10.6871 184.933702 10 174.286202 10C 77.744402 10 14.166102 66.0021 10.003302 168.3798C 9.912002 170.6259 11.720702 172.5104 13.968702 172.5104L 90.152302 172.5104C 92.275602 172.5104 94.024502 170.8413 94.185302 168.7241C 98.107102 117.0806 123.050602 83.8346 173.170202 83.8346Z"></path></g></g></g><g id="g-root-tx_howtodes_1czwmfd17xaw3q-fill" data-item-order="0" transform="translate(110.20703125, 38)"><g id="tx_howtodes_1czwmfd17xaw3q-fill-merged" stroke="none" fill="#484848" fill-opacity="1"><g><text style="font: bold 25px Roboto, sans-serif; white-space: pre;" transform="translate(315.79296875, 25)" font-weight="bold" font-size="25px" font-family="Roboto, sans-serif"><tspan x="-303.79" y="14.5" dominant-baseline="ideographic">How to design a mechanism for control and authority?</tspan></text></g></g></g><g id="g-root-tx_howtodes_1czwmfd17xaw3q-stroke" data-item-order="0" transform="translate(110.20703125, 38)"></g><g id="g-root-tx_safeguar_1usfl3d17xavwn-fill" data-item-order="0" transform="translate(124.59375, 146)"><g id="tx_safeguar_1usfl3d17xavwn-fill-merged" stroke="none" fill="#e55753" fill-opacity="1"><g><text style="font: 20px Roboto, sans-serif; white-space: pre;" transform="translate(115.40625, 22)" font-size="20px" font-family="Roboto, sans-serif"><tspan x="-103.41" y="11.5" dominant-baseline="ideographic">Safeguards</tspan></text></g></g></g><g id="g-root-tx_safeguar_1usfl3d17xavwn-stroke" data-item-order="0" transform="translate(124.59375, 146)"></g><g id="g-root-ic_secu_1lqiikp186qrre-fill" data-item-order="0" transform="translate(314, 164)"></g><g id="g-root-ic_secu_1lqiikp186qrre-stroke" data-item-order="0" transform="translate(314, 164)"><g id="ic_secu_1lqiikp186qrre-stroke" fill="none" stroke-linecap="round" stroke-linejoin="round" stroke-miterlimit="4" stroke="#e55753" stroke-width="2" stroke-opacity="1"><g><path d="M 28.29475 33.577148C 28.1068 33.650948 27.8974 33.650948 27.7069 33.577148C 24.691631 32.413448 22.70203 29.5147 22.69726 26.280399L 22.69726 23.8981C 22.69726 23.448296 23.06377 23.081785 23.513577 23.081785L 32.488152 23.081785C 32.938 23.081785 33.304451 23.448296 33.304451 23.8981L 33.304451 26.280399C 33.3022 29.512299 31.3102 32.411049 28.29475 33.574749L 28.29475 33.577148ZM 16.8295 27.448C 16.828648 33.618729 21.830772 38.621544 28.001499 38.621544C 34.172226 38.621544 39.174351 33.618729 39.1735 27.448C 39.174351 21.277271 34.172226 16.274458 28.001499 16.274458C 21.830772 16.274458 16.828648 21.277271 16.8295 27.448M 40.184498 14.716C 40.184502 15.9487 41.183804 16.948 42.4165 16.948C 43.6492 16.948 44.648502 15.9487 44.648502 14.716C 44.648502 13.4833 43.6492 12.484 42.4165 12.484C 41.183804 12.484 40.184502 13.4833 40.184502 14.716M 15.8155 14.716C 15.8155 15.9487 14.8162 16.948 13.5835 16.948C 12.350801 16.948 11.351501 15.9487 11.351501 14.716C 11.351501 13.4833 12.350801 12.484 13.5835 12.484C 14.8162 12.484 15.8155 13.4833 15.8155 14.716M 10 10M 22.1875 37L 19.91164 40.2187L 11.382813 40.218552M 10 10M 34.28125 36.742149L 36.727001 40.218552L 44.6497 40.2187M 22.140625 17.89843L 19.910336 14.715324L 15.81343 14.715324M 10 10M 33.859299 17.921875L 36.08815 14.715324L 40.185101 14.715324M 10 10M 41.350601 36.920952L 44.64835 40.2187L 41.350601 43.5163M 14.649415 43.5163L 11.351685 40.2187L 14.649415 36.920952"></path></g></g></g><g id="g-root-tx_ensuresr_14651ft17xavwo-fill" data-item-order="0" transform="translate(14.4453125, 182)"><g id="tx_ensuresr_14651ft17xavwo-fill-merged" stroke="none" fill="#484848" fill-opacity="1"><g><text style="font: 15px Roboto, sans-serif; white-space: pre;" transform="translate(225.5546875, 28)" font-size="15px" font-family="Roboto, sans-serif"><tspan x="-213.55" y="-0.5" dominant-baseline="ideographic">Ensures responsible and secure </tspan><tspan x="-138.63" y="17.5" dominant-baseline="ideographic">execution of control.</tspan></text></g></g></g><g id="g-root-tx_ensuresr_14651ft17xavwo-stroke" data-item-order="0" transform="translate(14.4453125, 182)"></g><g id="g-root-tx_authorit_zqy0eh17xatj5-fill" data-item-order="0" transform="translate(602, 176)"><g id="tx_authorit_zqy0eh17xatj5-fill-merged" stroke="none" fill="#3cc583" fill-opacity="1"><g><text style="font: 20px Roboto, sans-serif; white-space: pre;" transform="translate(10, 22)" font-size="20px" font-family="Roboto, sans-serif"><tspan x="2" y="11.5" dominant-baseline="ideographic">Authority</tspan></text></g></g></g><g id="g-root-tx_authorit_zqy0eh17xatj5-stroke" data-item-order="0" transform="translate(602, 176)"></g><g id="g-root-ic_pres_mdkrd5186pekr-fill" data-item-order="0" transform="translate(506, 212)"></g><g id="g-root-ic_pres_mdkrd5186pekr-stroke" data-item-order="0" transform="translate(506, 212)"><g id="ic_pres_mdkrd5186pekr-stroke" fill="none" stroke-linecap="round" stroke-linejoin="round" stroke-miterlimit="4" stroke="#3cc583" stroke-width="2" stroke-opacity="1"><g><path d="M 13.375 29.125C 13.375 30.574749 14.550253 31.750002 16 31.750002C 17.449747 31.750002 18.625 30.574749 18.625 29.125002C 18.625 27.675255 17.449747 26.500002 16 26.500002C 14.550253 26.500002 13.375 27.675255 13.375 29.125002ZM 20.6845 35.667999C 19.598284 33.747898 17.453333 32.681587 15.266848 32.974751C 13.080363 33.26791 11.292057 34.861584 10.75 37M 37.375 29.125C 37.375 30.574749 38.550255 31.750002 40 31.750002C 41.449749 31.750002 42.625 30.574749 42.625 29.125002C 42.625 27.675255 41.449749 26.500002 40 26.500002C 38.550255 26.500002 37.375 27.675255 37.375 29.125002ZM 35.315502 35.667999C 36.401718 33.747898 38.546669 32.681587 40.733154 32.974751C 42.919636 33.26791 44.707943 34.861584 45.25 37M 25.375 14.875C 25.375002 16.324747 26.550255 17.5 28.000002 17.5C 29.449747 17.5 30.625002 16.324747 30.625002 14.875C 30.625002 13.425253 29.449747 12.25 28.000002 12.25C 26.550255 12.25 25.375002 13.425253 25.375002 14.875ZM 33.25 22.75C 32.638039 20.350138 30.476658 18.67074 28 18.67074C 25.523342 18.67074 23.361959 20.350138 22.75 22.75M 36.623501 41.949997C 36.713547 42.391125 36.600685 42.849365 36.316078 43.198219C 36.031471 43.547073 35.605225 43.749641 35.154999 43.75L 20.844999 43.75C 20.394779 43.749641 19.968527 43.547073 19.683922 43.198219C 19.399315 42.849365 19.286455 42.391125 19.376499 41.949997L 22.500999 26.950001C 22.643469 26.252052 23.25716 25.750566 23.9695 25.75L 32.030502 25.75C 32.74284 25.750566 33.356533 26.252052 33.499001 26.950001ZM 31.627001 39.893501C 31.657887 40.108807 31.593779 40.32692 31.451302 40.491276C 31.308825 40.655624 31.102013 40.750031 30.884501 40.75L 25.115499 40.75C 24.897987 40.750031 24.691175 40.655624 24.548698 40.491276C 24.406221 40.32692 24.342113 40.108807 24.372999 39.893501L 24.908501 36.143501C 24.961483 35.77417 25.277891 35.49995 25.651001 35.5L 30.348999 35.5C 30.722109 35.49995 31.038517 35.77417 31.091499 36.143501Z"></path></g></g></g><g id="g-root-tx_identifi_qvb05l17xaubu-fill" data-item-order="0" transform="translate(602, 212)"><g id="tx_identifi_qvb05l17xaubu-fill-merged" stroke="none" fill="#484848" fill-opacity="1"><g><text style="font: 15px Roboto, sans-serif; white-space: pre;" transform="translate(10, 46)" font-size="15px" font-family="Roboto, sans-serif"><tspan x="2" y="-18.5" dominant-baseline="ideographic">Identifies who can trigger the </tspan><tspan x="2" y="-0.5" dominant-baseline="ideographic">control, such as a signer set, </tspan><tspan x="2" y="17.5" dominant-baseline="ideographic">delegated body or governance </tspan><tspan x="2" y="35.5" dominant-baseline="ideographic">process.</tspan></text></g></g></g><g id="g-root-tx_identifi_qvb05l17xaubu-stroke" data-item-order="0" transform="translate(602, 212)"></g><g id="g-root-ic_1_94ngqx17xatj9-fill" data-item-order="0" transform="translate(416, 392)"></g><g id="g-root-ic_1_94ngqx17xatj9-stroke" data-item-order="0" transform="translate(416, 392)"><g id="ic_1_94ngqx17xatj9-stroke" fill="none" stroke-linecap="round" stroke-linejoin="round" stroke-miterlimit="4" stroke="#4e88e7" stroke-width="2" stroke-opacity="1"><g><path d="M 14.761 36.948997L 11.5 45.25M 16 45.25L 17.3395 37.75M 41.238998 36.948997L 44.5 45.25M 40 45.25L 38.6605 37.75M 31.497999 28.549L 36.91 32.877998M 19.09 32.877998L 24.5005 28.549M 16.466499 31.777L 15.745 24.203499M 25.146999 38.667999L 19.460501 36.0145M 36.537998 36.015999L 30.853001 38.667999M 40.2505 24.25L 39.533501 31.769499M 30.7735 14.893L 38.060501 17.893M 17.938 17.893L 25.228001 14.8915M 13.75 34.75C 13.75 36.406857 15.093145 37.75 16.75 37.75C 18.406855 37.75 19.75 36.406857 19.75 34.75C 19.75 33.093147 18.406855 31.75 16.75 31.75C 15.093145 31.75 13.75 33.093147 13.75 34.75ZM 25 13.75C 25 15.406855 26.343145 16.75 28 16.75C 29.656855 16.75 31 15.406855 31 13.75C 31 12.093145 29.656855 10.75 28 10.75C 26.343145 10.75 25 12.093145 25 13.75ZM 11.5 20.5C 11.5 22.571068 13.178932 24.25 15.25 24.25C 17.321068 24.25 19 22.571068 19 20.5C 19 18.428932 17.321068 16.75 15.25 16.75C 13.178932 16.75 11.5 18.428932 11.5 20.5ZM 36.25 34.75C 36.25 36.406857 37.593143 37.75 39.25 37.75C 40.906857 37.75 42.25 36.406857 42.25 34.75C 42.25 33.093147 40.906857 31.75 39.25 31.75C 37.593143 31.75 36.25 33.093147 36.25 34.75ZM 37 20.5C 37 22.571068 38.678932 24.25 40.75 24.25C 42.821068 24.25 44.5 22.571068 44.5 20.5C 44.5 18.428932 42.821068 16.75 40.75 16.75C 38.678932 16.75 37 18.428932 37 20.5ZM 23.8225 24.078999L 16.75 21.25M 39.25 21.25L 32.1745 24.0805M 28 16.75L 28 21.25M 29.6605 29.931999L 31.75 45.25M 24.25 45.25L 26.3395 29.931999M 23.5 25.75C 23.5 28.235283 25.514719 30.25 28 30.25C 30.485283 30.25 32.5 28.235283 32.5 25.75C 32.5 23.264719 30.485283 21.25 28 21.25C 25.514719 21.25 23.5 23.264719 23.5 25.75Z"></path></g></g></g><g id="g-root-tx_scope_mfhi1517xav43-fill" data-item-order="0" transform="translate(518, 404)"><g id="tx_scope_mfhi1517xav43-fill-merged" stroke="none" fill="#4e88e7" fill-opacity="1"><g><text style="font: 20px Roboto, sans-serif; white-space: pre;" transform="translate(10, 22)" font-size="20px" font-family="Roboto, sans-serif"><tspan x="2" y="11.5" dominant-baseline="ideographic">Scope</tspan></text></g></g></g><g id="g-root-tx_scope_mfhi1517xav43-stroke" data-item-order="0" transform="translate(518, 404)"></g><g id="g-root-tx_determin_djuhs917xavws-fill" data-item-order="0" transform="translate(518, 440)"><g id="tx_determin_djuhs917xavws-fill-merged" stroke="none" fill="#484848" fill-opacity="1"><g><text style="font: 15px Roboto, sans-serif; white-space: pre;" transform="translate(10, 37)" font-size="15px" font-family="Roboto, sans-serif"><tspan x="2" y="-9.5" dominant-baseline="ideographic">Determines the level of </tspan><tspan x="2" y="8.5" dominant-baseline="ideographic">precision for control, ranging </tspan><tspan x="2" y="26.5" dominant-baseline="ideographic">from network to account.</tspan></text></g></g></g><g id="g-root-tx_determin_djuhs917xavws-stroke" data-item-order="0" transform="translate(518, 440)"></g></g></g></svg>