<?xml version="1.0" encoding="utf-8" standalone="yes"?>
<!DOCTYPE svg PUBLIC "-//W3C//DTD SVG 1.1//EN" "http://www.w3.org/Graphics/SVG/1.1/DTD/svg11.dtd">
<svg style="fill:none;stroke:none;fill-rule:evenodd;clip-rule:evenodd;stroke-linecap:round;stroke-linejoin:round;stroke-miterlimit:1.5;" version="1.1" xmlns="http://www.w3.org/2000/svg" xmlns:xlink="http://www.w3.org/1999/xlink" width="1080" height="552" viewBox="0 0 1080 552"><style class="text-font-style fontImports" data-font-family="Roboto">@import url(https://fonts.googleapis.com/css2?family=Roboto:wght@400;700&amp;amp;display=block);</style><g id="items" style="isolation: isolate"><g id="blend" style="mix-blend-mode: normal"><g id="g-root-cp_0_g-0_1lsewl71aerq4h-fill" data-item-order="-456133" transform="translate(20, 278)"></g><g id="g-root-cp_0_g-0_1lsewl71aerq4h-stroke" data-item-order="-456133" transform="translate(20, 278)"><g id="cp_0_g-0_1lsewl71aerq4h-stroke" fill="none" stroke-linecap="round" stroke-linejoin="round" stroke-miterlimit="4" stroke="#484848" stroke-width="2" stroke-opacity="1"><g><path d="M 67 10L 10 10M 127.0307 10L 72.9706 10M 187 10L 133 10M 247 10L 192.9701 10M 307 10L 252.9703 10M 367.0306 10L 312.9701 10M 427.0299 10L 373 10M 487 10L 433 10M 547.0297 10L 492.9801 10M 607.0299 10L 553 10M 667.0306 10L 613 10M 907 10L 853 10M 673 10L 727 10M 733 10L 787 10M 793 10L 847 10M 913 10L 967 10"></path></g></g></g><g id="g-root-sy_0_Vector_1cwrwcb1aerqx6-fill" data-item-order="-456129" transform="translate(983, 278)"></g><g id="g-root-sy_0_Vector_1cwrwcb1aerqx6-stroke" data-item-order="-456129" transform="translate(983, 278)"><g id="sy_0_Vector_1cwrwcb1aerqx6-stroke" fill="none" stroke-linecap="round" stroke-linejoin="round" stroke-miterlimit="4" stroke="#484848" stroke-width="2" stroke-opacity="1"><g><path d="M 65 10L 10 10"></path><path d="M 59 16.5L 65.5 10L 59 3.5" stroke-dasharray="none"></path></g></g></g><g id="g-root-cp_1_g-1_1cwrwcb1aerqx7-fill" data-item-order="-456126" transform="translate(49, 198)"><g id="cp_1_g-1_1cwrwcb1aerqx7-fill-merged" stroke="none" fill="#dce9ff" fill-opacity="1"><g><path d="M10 41C10 23.879 23.879 10 41 10C58.121 10 72 23.879 72 41C72 58.121 58.121 72 41 72C23.879 72 10 58.121 10 41"></path></g></g></g><g id="g-root-cp_1_g-1_1cwrwcb1aerqx7-stroke" data-item-order="-456126" transform="translate(49, 198)"></g><g id="g-root-cp_1_g-1_1_18gye7v1aerrpg-fill" data-item-order="-456121" transform="translate(77, 260)"></g><g id="g-root-cp_1_g-1_1_18gye7v1aerrpg-stroke" data-item-order="-456121" transform="translate(77, 260)"><g id="cp_1_g-1_1_18gye7v1aerrpg-stroke" fill="none" stroke-linecap="round" stroke-linejoin="round" stroke-miterlimit="4" stroke="#484848" stroke-width="2" stroke-opacity="1"><g><path d="M 13 10L 13 25M 16 28C 16 29.6569 14.6568 31 13 31C 11.3431 31 10 29.6569 10 28C 10 26.3431 11.3431 25 13 25C 14.6568 25 16 26.3431 16 28Z"></path></g></g></g><g id="g-root-cp_2_g-2_18gye7v1aerrph-fill" data-item-order="-456116" transform="translate(108, 297)"><g id="cp_2_g-2_18gye7v1aerrph-fill-merged" stroke="none" fill="#ebebeb" fill-opacity="1"><g><path d="M72 41C72 58.121 58.121 72 41 72C23.879 72 10 58.121 10 41C10 23.879 23.879 10 41 10C58.121 10 72 23.879 72 41"></path></g></g></g><g id="g-root-cp_2_g-2_18gye7v1aerrph-stroke" data-item-order="-456116" transform="translate(108, 297)"></g><g id="g-root-cp_2_g-2_1_zlbdyz1aersi6-fill" data-item-order="-456111" transform="translate(137, 275)"></g><g id="g-root-cp_2_g-2_1_zlbdyz1aersi6-stroke" data-item-order="-456111" transform="translate(137, 275)"><g id="cp_2_g-2_1_zlbdyz1aersi6-stroke" fill="none" stroke-linecap="round" stroke-linejoin="round" stroke-miterlimit="4" stroke="#484848" stroke-width="2" stroke-opacity="1"><g><path d="M 13 31L 13 16M 16 13C 16 14.6569 14.6568 16 13 16C 11.3431 16 10 14.6569 10 13C 10 11.3431 11.3431 10 13 10C 14.6568 10 16 11.3431 16 13Z"></path></g></g></g><g id="g-root-cp_3_g-3_v64cxn1aerq4n-fill" data-item-order="-456106" transform="translate(169, 198)"><g id="cp_3_g-3_v64cxn1aerq4n-fill-merged" stroke="none" fill="#d1f4ff" fill-opacity="1"><g><path d="M10 41C10 23.879 23.879 10 41 10C58.121 10 72 23.879 72 41C72 58.121 58.121 72 41 72C23.879 72 10 58.121 10 41"></path></g></g></g><g id="g-root-cp_3_g-3_v64cxn1aerq4n-stroke" data-item-order="-456106" transform="translate(169, 198)"></g><g id="g-root-cp_3_g-3_1_v64cxn1aerq4o-fill" data-item-order="-456101" transform="translate(197, 260)"></g><g id="g-root-cp_3_g-3_1_v64cxn1aerq4o-stroke" data-item-order="-456101" transform="translate(197, 260)"><g id="cp_3_g-3_1_v64cxn1aerq4o-stroke" fill="none" stroke-linecap="round" stroke-linejoin="round" stroke-miterlimit="4" stroke="#484848" stroke-width="2" stroke-opacity="1"><g><path d="M 13 10L 13 25M 16 28C 16 29.6569 14.6568 31 13 31C 11.3431 31 10 29.6569 10 28C 10 26.3431 11.3431 25 13 25C 14.6568 25 16 26.3431 16 28Z"></path></g></g></g><g id="g-root-cp_4_g-4_v64cxn1aerq4p-fill" data-item-order="-456096" transform="translate(229, 296)"><g id="cp_4_g-4_v64cxn1aerq4p-fill-merged" stroke="none" fill="#ffe4cb" fill-opacity="1"><g><path d="M72 41C72 58.121 58.121 72 41 72C23.879 72 10 58.121 10 41C10 23.879 23.879 10 41 10C58.121 10 72 23.879 72 41"></path></g></g></g><g id="g-root-cp_4_g-4_v64cxn1aerq4p-stroke" data-item-order="-456096" transform="translate(229, 296)"></g><g id="g-root-cp_4_g-4_1_qqaut71aerqwy-fill" data-item-order="-456091" transform="translate(256, 275)"></g><g id="g-root-cp_4_g-4_1_qqaut71aerqwy-stroke" data-item-order="-456091" transform="translate(256, 275)"><g id="cp_4_g-4_1_qqaut71aerqwy-stroke" fill="none" stroke-linecap="round" stroke-linejoin="round" stroke-miterlimit="4" stroke="#484848" stroke-width="2" stroke-opacity="1"><g><path d="M 13 31L 13 16M 16 13C 16 14.6569 14.6568 16 13 16C 11.3431 16 10 14.6569 10 13C 10 11.3431 11.3431 10 13 10C 14.6568 10 16 11.3431 16 13Z"></path></g></g></g><g id="g-root-cp_5_g-5_qqaut71aerqwz-fill" data-item-order="-456086" transform="translate(289, 198)"><g id="cp_5_g-5_qqaut71aerqwz-fill-merged" stroke="none" fill="#ffd9d8" fill-opacity="1"><g><path d="M10 41C10 23.879 23.879 10 41 10C58.121 10 72 23.879 72 41C72 58.121 58.121 72 41 72C23.879 72 10 58.121 10 41"></path></g></g></g><g id="g-root-cp_5_g-5_qqaut71aerqwz-stroke" data-item-order="-456086" transform="translate(289, 198)"></g><g id="g-root-cp_5_g-5_1_hunukb1aerrpo-fill" data-item-order="-456081" transform="translate(317, 260)"></g><g id="g-root-cp_5_g-5_1_hunukb1aerrpo-stroke" data-item-order="-456081" transform="translate(317, 260)"><g id="cp_5_g-5_1_hunukb1aerrpo-stroke" fill="none" stroke-linecap="round" stroke-linejoin="round" stroke-miterlimit="4" stroke="#484848" stroke-width="2" stroke-opacity="1"><g><path d="M 13 10L 13 25M 16 28C 16 29.6569 14.6568 31 13 31C 11.3431 31 10 29.6569 10 28C 10 26.3431 11.3431 25 13 25C 14.6568 25 16 26.3431 16 28Z"></path></g></g></g><g id="g-root-cp_6_g-6_hunukb1aerrpp-fill" data-item-order="-456076" transform="translate(349, 296)"><g id="cp_6_g-6_hunukb1aerrpp-fill-merged" stroke="none" fill="#fff8b6" fill-opacity="1"><g><path d="M72 41C72 58.121 58.121 72 41 72C23.879 72 10 58.121 10 41C10 23.879 23.879 10 41 10C58.121 10 72 23.879 72 41"></path></g></g></g><g id="g-root-cp_6_g-6_hunukb1aerrpp-stroke" data-item-order="-456076" transform="translate(349, 296)"></g><g id="g-root-cp_6_g-6_1_hunukb1aerrpq-fill" data-item-order="-456071" transform="translate(378, 275)"></g><g id="g-root-cp_6_g-6_1_hunukb1aerrpq-stroke" data-item-order="-456071" transform="translate(378, 275)"><g id="cp_6_g-6_1_hunukb1aerrpq-stroke" fill="none" stroke-linecap="round" stroke-linejoin="round" stroke-miterlimit="4" stroke="#484848" stroke-width="2" stroke-opacity="1"><g><path d="M 13 31L 13 16M 16 13C 16 14.6569 14.6568 16 13 16C 11.3431 16 10 14.6569 10 13C 10 11.3431 11.3431 10 13 10C 14.6568 10 16 11.3431 16 13Z"></path></g></g></g><g id="g-root-cp_7_g-7_deucfv1aershz-fill" data-item-order="-456066" transform="translate(409, 198)"><g id="cp_7_g-7_deucfv1aershz-fill-merged" stroke="none" fill="#c8ffe5" fill-opacity="1"><g><path d="M10 41C10 23.879 23.879 10 41 10C58.121 10 72 23.879 72 41C72 58.121 58.121 72 41 72C23.879 72 10 58.121 10 41"></path></g></g></g><g id="g-root-cp_7_g-7_deucfv1aershz-stroke" data-item-order="-456066" transform="translate(409, 198)"></g><g id="g-root-cp_7_g-7_1_deucfv1aersi0-fill" data-item-order="-456061" transform="translate(437, 260)"></g><g id="g-root-cp_7_g-7_1_deucfv1aersi0-stroke" data-item-order="-456061" transform="translate(437, 260)"><g id="cp_7_g-7_1_deucfv1aersi0-stroke" fill="none" stroke-linecap="round" stroke-linejoin="round" stroke-miterlimit="4" stroke="#484848" stroke-width="2" stroke-opacity="1"><g><path d="M 13 10L 13 25M 16 28C 16 29.6569 14.6568 31 13 31C 11.3431 31 10 29.6569 10 28C 10 26.3431 11.3431 25 13 25C 14.6568 25 16 26.3431 16 28Z"></path></g></g></g><g id="g-root-cp_8_g-8_deucfv1aersi1-fill" data-item-order="-456056" transform="translate(469, 296)"><g id="cp_8_g-8_deucfv1aersi1-fill-merged" stroke="none" fill="#e9ffb9" fill-opacity="1"><g><path d="M72 41C72 58.121 58.121 72 41 72C23.879 72 10 58.121 10 41C10 23.879 23.879 10 41 10C58.121 10 72 23.879 72 41"></path></g></g></g><g id="g-root-cp_8_g-8_deucfv1aersi1-stroke" data-item-order="-456056" transform="translate(469, 296)"></g><g id="g-root-cp_8_g-8_1_8znbej1aerq4i-fill" data-item-order="-456051" transform="translate(497, 275)"></g><g id="g-root-cp_8_g-8_1_8znbej1aerq4i-stroke" data-item-order="-456051" transform="translate(497, 275)"><g id="cp_8_g-8_1_8znbej1aerq4i-stroke" fill="none" stroke-linecap="round" stroke-linejoin="round" stroke-miterlimit="4" stroke="#484848" stroke-width="2" stroke-opacity="1"><g><path d="M 13 31L 13 16M 16 13C 16 14.6569 14.6568 16 13 16C 11.3431 16 10 14.6569 10 13C 10 11.3431 11.3431 10 13 10C 14.6568 10 16 11.3431 16 13Z"></path></g></g></g><g id="g-root-cp_9_g-9_8znbej1aerq4j-fill" data-item-order="-456046" transform="translate(529, 198)"><g id="cp_9_g-9_8znbej1aerq4j-fill-merged" stroke="none" fill="#f5e0ff" fill-opacity="1"><g><path d="M10 41C10 23.879 23.879 10 41 10C58.121 10 72 23.879 72 41C72 58.121 58.121 72 41 72C23.879 72 10 58.121 10 41"></path></g></g></g><g id="g-root-cp_9_g-9_8znbej1aerq4j-stroke" data-item-order="-456046" transform="translate(529, 198)"></g><g id="g-root-cp_9_g-9_1_8znbej1aerq4k-fill" data-item-order="-456041" transform="translate(557, 260)"></g><g id="g-root-cp_9_g-9_1_8znbej1aerq4k-stroke" data-item-order="-456041" transform="translate(557, 260)"><g id="cp_9_g-9_1_8znbej1aerq4k-stroke" fill="none" stroke-linecap="round" stroke-linejoin="round" stroke-miterlimit="4" stroke="#484848" stroke-width="2" stroke-opacity="1"><g><path d="M 13 10L 13 25M 16 28C 16 29.6569 14.6568 31 13 31C 11.3431 31 10 29.6569 10 28C 10 26.3431 11.3431 25 13 25C 14.6568 25 16 26.3431 16 28Z"></path></g></g></g><g id="g-root-cp_10_g-10_40b5n1aerqx9-fill" data-item-order="-456036" transform="translate(589, 296)"><g id="cp_10_g-10_40b5n1aerqx9-fill-merged" stroke="none" fill="#ffd7ef" fill-opacity="1"><g><path d="M72 41C72 58.121 58.121 72 41 72C23.879 72 10 58.121 10 41C10 23.879 23.879 10 41 10C58.121 10 72 23.879 72 41"></path></g></g></g><g id="g-root-cp_10_g-10_40b5n1aerqx9-stroke" data-item-order="-456036" transform="translate(589, 296)"></g><g id="g-root-cp_10_g-10_1_40b5n1aerqxa-fill" data-item-order="-456031" transform="translate(618, 275)"></g><g id="g-root-cp_10_g-10_1_40b5n1aerqxa-stroke" data-item-order="-456031" transform="translate(618, 275)"><g id="cp_10_g-10_1_40b5n1aerqxa-stroke" fill="none" stroke-linecap="round" stroke-linejoin="round" stroke-miterlimit="4" stroke="#484848" stroke-width="2" stroke-opacity="1"><g><path d="M 13 31L 13 16M 16 13C 16 14.6569 14.6568 16 13 16C 11.3431 16 10 14.6569 10 13C 10 11.3431 11.3431 10 13 10C 14.6568 10 16 11.3431 16 13Z"></path></g></g></g><g id="g-root-cp_11_g-11_1upav0b1aerrif-fill" data-item-order="-456026" transform="translate(649, 198)"><g id="cp_11_g-11_1upav0b1aerrif-fill-merged" stroke="none" fill="#e7e1ff" fill-opacity="1"><g><path d="M10 41C10 23.879 23.879 10 41 10C58.121 10 72 23.879 72 41C72 58.121 58.121 72 41 72C23.879 72 10 58.121 10 41"></path></g></g></g><g id="g-root-cp_11_g-11_1upav0b1aerrif-stroke" data-item-order="-456026" transform="translate(649, 198)"></g><g id="g-root-cp_11_g-11_1_1upav0b1aerrig-fill" data-item-order="-456021" transform="translate(677, 260)"></g><g id="g-root-cp_11_g-11_1_1upav0b1aerrig-stroke" data-item-order="-456021" transform="translate(677, 260)"><g id="cp_11_g-11_1_1upav0b1aerrig-stroke" fill="none" stroke-linecap="round" stroke-linejoin="round" stroke-miterlimit="4" stroke="#484848" stroke-width="2" stroke-opacity="1"><g><path d="M 13 10L 13 25M 16 28C 16 29.6569 14.6568 31 13 31C 11.3431 31 10 29.6569 10 28C 10 26.3431 11.3431 25 13 25C 14.6568 25 16 26.3431 16 28Z"></path></g></g></g><g id="g-root-cp_12_g-12_1upav0b1aerrih-fill" data-item-order="-456016" transform="translate(709, 296)"><g id="cp_12_g-12_1upav0b1aerrih-fill-merged" stroke="none" fill="#ebebeb" fill-opacity="1"><g><path d="M72 41C72 58.121 58.121 72 41 72C23.879 72 10 58.121 10 41C10 23.879 23.879 10 41 10C58.121 10 72 23.879 72 41"></path></g></g></g><g id="g-root-cp_12_g-12_1upav0b1aerrih-stroke" data-item-order="-456016" transform="translate(709, 296)"></g><g id="g-root-cp_12_g-12_1_1q9hcvv1aersaq-fill" data-item-order="-456011" transform="translate(737, 275)"></g><g id="g-root-cp_12_g-12_1_1q9hcvv1aersaq-stroke" data-item-order="-456011" transform="translate(737, 275)"><g id="cp_12_g-12_1_1q9hcvv1aersaq-stroke" fill="none" stroke-linecap="round" stroke-linejoin="round" stroke-miterlimit="4" stroke="#484848" stroke-width="2" stroke-opacity="1"><g><path d="M 13 31L 13 16M 16 13C 16 14.6569 14.6568 16 13 16C 11.3431 16 10 14.6569 10 13C 10 11.3431 11.3431 10 13 10C 14.6568 10 16 11.3431 16 13Z"></path></g></g></g><g id="g-root-cp_13_g-13_1q9hcvv1aersar-fill" data-item-order="-456006" transform="translate(769, 198)"><g id="cp_13_g-13_1q9hcvv1aersar-fill-merged" stroke="none" fill="#ebebeb" fill-opacity="1"><g><path d="M10 41C10 23.879 23.879 10 41 10C58.121 10 72 23.879 72 41C72 58.121 58.121 72 41 72C23.879 72 10 58.121 10 41"></path></g></g></g><g id="g-root-cp_13_g-13_1q9hcvv1aersar-stroke" data-item-order="-456006" transform="translate(769, 198)"></g><g id="g-root-cp_13_g-13_1_1hegtq31aerpxo-fill" data-item-order="-456001" transform="translate(797, 260)"></g><g id="g-root-cp_13_g-13_1_1hegtq31aerpxo-stroke" data-item-order="-456001" transform="translate(797, 260)"><g id="cp_13_g-13_1_1hegtq31aerpxo-stroke" fill="none" stroke-linecap="round" stroke-linejoin="round" stroke-miterlimit="4" stroke="#484848" stroke-width="2" stroke-opacity="1"><g><path d="M 13 10L 13 25M 16 28C 16 29.6569 14.6568 31 13 31C 11.3431 31 10 29.6569 10 28C 10 26.3431 11.3431 25 13 25C 14.6568 25 16 26.3431 16 28Z"></path></g></g></g><g id="g-root-cp_14_g-14_1hegtq31aerpxp-fill" data-item-order="-455996" transform="translate(829, 296)"><g id="cp_14_g-14_1hegtq31aerpxp-fill-merged" stroke="none" fill="#dce9ff" fill-opacity="1"><g><path d="M72 41C72 58.121 58.121 72 41 72C23.879 72 10 58.121 10 41C10 23.879 23.879 10 41 10C58.121 10 72 23.879 72 41"></path></g></g></g><g id="g-root-cp_14_g-14_1hegtq31aerpxp-stroke" data-item-order="-455996" transform="translate(829, 296)"></g><g id="g-root-cp_14_g-14_1_1hegtq31aerpxq-fill" data-item-order="-455991" transform="translate(858, 275)"></g><g id="g-root-cp_14_g-14_1_1hegtq31aerpxq-stroke" data-item-order="-455991" transform="translate(858, 275)"><g id="cp_14_g-14_1_1hegtq31aerpxq-stroke" fill="none" stroke-linecap="round" stroke-linejoin="round" stroke-miterlimit="4" stroke="#484848" stroke-width="2" stroke-opacity="1"><g><path d="M 13 31L 13 16M 16 13C 16 14.6569 14.6568 16 13 16C 11.3431 16 10 14.6569 10 13C 10 11.3431 11.3431 10 13 10C 14.6568 10 16 11.3431 16 13Z"></path></g></g></g><g id="g-root-cp_15_g-15_1cynbln1aerqpz-fill" data-item-order="-455986" transform="translate(889, 198)"><g id="cp_15_g-15_1cynbln1aerqpz-fill-merged" stroke="none" fill="#d1f4ff" fill-opacity="1"><g><path d="M10 41C10 23.879 23.879 10 41 10C58.121 10 72 23.879 72 41C72 58.121 58.121 72 41 72C23.879 72 10 58.121 10 41"></path></g></g></g><g id="g-root-cp_15_g-15_1cynbln1aerqpz-stroke" data-item-order="-455986" transform="translate(889, 198)"></g><g id="g-root-cp_15_g-15_1_1cynbln1aerqq0-fill" data-item-order="-455981" transform="translate(917, 260)"></g><g id="g-root-cp_15_g-15_1_1cynbln1aerqq0-stroke" data-item-order="-455981" transform="translate(917, 260)"><g id="cp_15_g-15_1_1cynbln1aerqq0-stroke" fill="none" stroke-linecap="round" stroke-linejoin="round" stroke-miterlimit="4" stroke="#484848" stroke-width="2" stroke-opacity="1"><g><path d="M 13 10L 13 25M 16 28C 16 29.6569 14.6568 31 13 31C 11.3431 31 10 29.6569 10 28C 10 26.3431 11.3431 25 13 25C 14.6568 25 16 26.3431 16 28Z"></path></g></g></g><g id="g-root-cp_16_g-16_18itth71aerri9-fill" data-item-order="-455976" transform="translate(949, 296)"><g id="cp_16_g-16_18itth71aerri9-fill-merged" stroke="none" fill="#c8ffe5" fill-opacity="1"><g><path d="M72 41C72 58.121 58.121 72 41 72C23.879 72 10 58.121 10 41C10 23.879 23.879 10 41 10C58.121 10 72 23.879 72 41"></path></g></g></g><g id="g-root-cp_16_g-16_18itth71aerri9-stroke" data-item-order="-455976" transform="translate(949, 296)"></g><g id="g-root-cp_16_g-16_1_18itth71aerria-fill" data-item-order="-455971" transform="translate(977, 275)"></g><g id="g-root-cp_16_g-16_1_18itth71aerria-stroke" data-item-order="-455971" transform="translate(977, 275)"><g id="cp_16_g-16_1_18itth71aerria-stroke" fill="none" stroke-linecap="round" stroke-linejoin="round" stroke-miterlimit="4" stroke="#484848" stroke-width="2" stroke-opacity="1"><g><path d="M 13 31L 13 16M 16 13C 16 14.6569 14.6568 16 13 16C 11.3431 16 10 14.6569 10 13C 10 11.3431 11.3431 10 13 10C 14.6568 10 16 11.3431 16 13Z"></path></g></g></g><g id="g-root-ic_1_59chn1af1lhg-fill" data-item-order="0" transform="translate(902, 212)"></g><g id="g-root-ic_1_59chn1af1lhg-stroke" data-item-order="0" transform="translate(902, 212)"><g id="ic_1_59chn1af1lhg-stroke" fill="none" stroke-linecap="round" stroke-linejoin="round" stroke-miterlimit="4" stroke="#1eabda" stroke-width="2" stroke-opacity="1"><g><path d="M 11.125 44.875C 13.36504 44.875 15.605095 44.875 17.845135 42.625C 20.085175 44.875 22.325214 44.875 22.92256 44.875C 23.519905 44.875 25.759901 44.875 28 42.625C 30.240099 44.875 32.480049 44.875 33.077499 44.875C 33.674801 44.875 35.914749 44.875 38.15485 42.625C 40.394951 44.875 42.634899 44.875 44.875 44.875M 11.125 38.574997C 13.36504 38.574997 15.605095 38.574997 17.845135 36.324997C 20.085175 38.574997 22.325214 38.574997 22.92256 38.574997C 23.519905 38.574997 25.759901 38.574997 28 36.324997C 30.240099 38.574997 32.480049 38.574997 33.077499 38.574997C 33.674801 38.574997 35.914749 38.574997 38.15485 36.324997C 40.394951 38.574997 42.634899 38.574997 44.875 38.574997M 28 18.025C 32.639198 18.025 36.400002 16.480375 36.400002 14.575C 36.400002 12.66961 32.639198 11.125 28 11.125C 23.360846 11.125 19.600031 12.66961 19.600031 14.575C 19.600031 16.480375 23.360846 18.025 28 18.025ZM 19.600031 14.575075L 19.600031 28.075001C 19.600031 30.025002 23.350029 31.525002 28 31.525002C 32.650002 31.525002 36.400002 30.025002 36.400002 28.075001L 36.400002 14.575075M 19.600031 23.725225C 19.600031 25.67515 23.350029 27.17515 28 27.17515C 32.650002 27.17515 36.400002 25.67515 36.400002 23.725225M 19.600031 19.225225C 19.600031 21.175224 23.350029 22.675224 28 22.675224C 32.650002 22.675224 36.400002 21.175224 36.400002 19.225225"></path></g></g></g><g id="g-root-ic_refr_3dx8b1aerqpu-fill" data-item-order="0" transform="translate(782, 212)"></g><g id="g-root-ic_refr_3dx8b1aerqpu-stroke" data-item-order="0" transform="translate(782, 212)"><g id="ic_refr_3dx8b1aerqpu-stroke" fill="none" stroke-linecap="round" stroke-linejoin="round" stroke-miterlimit="4" stroke="#969696" stroke-width="2" stroke-opacity="1"><g><path d="M 23.762501 36.509499L 13.996 36.509499C 12.271801 36.508675 10.8745 35.110703 10.8745 33.386501L 10.8745 13.873C 10.8745 12.148801 12.271801 10.750828 13.996 10.75L 37.413998 10.75C 39.138542 10.75 40.536331 12.148458 40.5355 13.873L 40.5355 24.497499M 10.8745 16.8475L 40.5355 16.8475M 10.8745 29.804501L 25.182999 29.804501M 10.8745 23.3365L 40.5355 23.3365M 22.99 16.8475L 22.99 36.509499M 31.674999 16.8475L 31.674999 24.497499M 39.7495 34.048L 45.1255 34.048L 45.1255 27.327999M 44.855499 34.051003C 43.990585 30.059849 40.417923 27.241848 36.335091 27.330376C 32.252258 27.4189 28.805103 30.389111 28.113998 34.413998C 27.253447 38.425529 29.19281 42.515232 32.843498 44.387497C 36.463673 46.163807 40.835613 45.110054 43.249001 41.879501"></path></g></g></g><g id="g-root-ic_sett_1q7m0sb1aeqbrc-fill" data-item-order="0" transform="translate(662, 212)"></g><g id="g-root-ic_sett_1q7m0sb1aeqbrc-stroke" data-item-order="0" transform="translate(662, 212)"><g id="ic_sett_1q7m0sb1aeqbrc-stroke" fill="none" stroke-linecap="round" stroke-linejoin="round" stroke-miterlimit="4" stroke="#7f64ea" stroke-width="2" stroke-opacity="1"><g><path d="M 40.850197 15.717085C 43.114601 15.717085 44.950298 14.68912 44.950298 13.421065C 44.950298 12.152995 43.114601 11.125034 40.850197 11.125034C 38.5858 11.125034 36.750099 12.152995 36.750099 13.421065C 36.750099 14.68912 38.5858 15.717085 40.850197 15.717085ZM 36.750099 13.4209L 36.750099 19.652981C 36.750099 20.964985 38.55415 21.948999 40.850197 21.948999C 43.146248 21.948999 44.950298 20.964985 44.950298 19.652981L 44.950298 13.4209M 28.08205 15.717085C 30.346449 15.717085 32.182152 14.68912 32.182152 13.421065C 32.182152 12.152995 30.346449 11.125034 28.08205 11.125034C 25.81765 11.125034 23.982025 12.152995 23.982025 13.421065C 23.982025 14.68912 25.81765 15.717085 28.08205 15.717085ZM 23.982025 13.4209L 23.982025 19.652981C 23.982025 20.964985 25.785999 21.948999 28.08205 21.948999C 30.378099 21.948999 32.182152 20.964985 32.182152 19.652981L 32.182152 13.4209M 15.149785 15.717085C 17.414185 15.717085 19.24984 14.68912 19.24984 13.421065C 19.24984 12.152995 17.414185 11.125034 15.149785 11.125034C 12.8854 11.125034 11.049744 12.152995 11.049744 13.421065C 11.049744 14.68912 12.8854 15.717085 15.149785 15.717085ZM 19.24984 16.573481C 19.24984 17.841551 17.414185 18.869514 15.149785 18.869514C 12.8854 18.869514 11.049744 17.841551 11.049744 16.573481M 32.182152 16.573481C 32.182152 17.841551 30.346449 18.869514 28.08205 18.869514C 25.81765 18.869514 23.982025 17.841551 23.982025 16.573481M 44.950298 16.573481C 44.950298 17.841551 43.114601 18.869514 40.850197 18.869514C 38.5858 18.869514 36.750099 17.841551 36.750099 16.573481M 11.049744 13.4209L 11.049744 19.652981C 11.049744 20.964985 12.853765 21.948999 15.149785 21.948999C 17.44582 21.948999 19.24984 20.964985 19.24984 19.652981L 19.24984 13.4209M 11.125 44.875C 13.36504 44.875 15.605095 44.875 17.845135 42.625C 20.085175 44.875 22.325214 44.875 22.92256 44.875C 23.519905 44.875 25.759901 44.875 28 42.625C 30.240099 44.875 32.480049 44.875 33.077499 44.875C 33.674801 44.875 35.914749 44.875 38.15485 42.625C 40.394951 44.875 42.634899 44.875 44.875 44.875M 21.32506 40.866997C 21.32506 40.417 21.17506 40.116997 20.875061 39.817001L 20.125061 39.067001C 19.67506 38.616997 19.525061 38.016998 19.82506 37.417C 20.125061 36.817001 20.57506 36.516998 21.32506 36.516998L 22.375061 36.516998C 22.82506 36.516998 23.125044 36.366997 23.425045 36.067001C 23.725044 35.766998 23.875061 35.317001 23.875061 35.016998L 23.875061 33.966999C 23.875061 33.367001 24.175045 32.767002 24.775045 32.466999C 25.375 32.167 25.974998 32.317001 26.424999 32.767002L 27.174999 33.517002C 27.474998 33.817001 27.775002 33.966999 28.224998 33.966999C 28.674999 33.966999 28.974998 33.817001 29.275002 33.517002L 30.025002 32.767002C 30.474998 32.317001 31.075001 32.167 31.674999 32.466999C 32.275002 32.767002 32.575001 33.216999 32.575001 33.966999L 32.575001 35.016998C 32.575001 35.467003 32.724998 35.766998 33.025002 36.067001C 33.325001 36.366997 33.775002 36.516998 34.074997 36.516998L 35.125 36.516998C 35.724998 36.516998 36.324997 36.817001 36.625 37.417C 36.925003 38.016998 36.775002 38.616997 36.324997 39.067001L 35.275002 39.817001C 34.974998 40.116997 34.824997 40.417 34.824997 40.866997M 25.224998 40.867149C 25.224998 39.367149 26.424999 38.017151 28.075001 38.017151C 29.575001 38.017151 30.924999 39.217148 30.924999 40.867149M 10 10M 37.074997 32.310852L 40.824997 29.31085L 40.824997 25.56085M 10 10M 19.075075 32.310852L 15.325075 29.31085L 15.325075 25.56085M 28 29.818899L 28 24.810925"></path></g></g></g><g id="g-root-ic_stai_1hclhmj1aenimc-fill" data-item-order="0" transform="translate(542, 212)"></g><g id="g-root-ic_stai_1hclhmj1aenimc-stroke" data-item-order="0" transform="translate(542, 212)"><g id="ic_stai_1hclhmj1aenimc-stroke" fill="none" stroke-linecap="round" stroke-linejoin="round" stroke-miterlimit="4" stroke="#ba5de5" stroke-width="2" stroke-opacity="1"><g><path d="M 13.75 24.247L 13.75 33.247002M 18.25 24.247L 18.25 33.247002M 27.25 36.246998L 27.25 27.247M 31.75 39.246998L 31.75 30.247M 36.25 42.246998L 36.25 33.247002M 31.893999 26.651501L 42.25 19.747L 42.25 19.75L 45.25 19.747M 37.75 22.747L 37.75 13.747M 33.25 25.747L 33.25 16.747M 28.75 24.684999L 28.75 19.747M 45.25 10.75L 42.699997 10.75C 42.403702 10.749933 42.114021 10.837621 41.8675 11.002L 25.331499 22.025501M 13.75 45.246998L 21.25 45.246998M 15.25 45.25L 15.25 33.247002M 19.75 45.25L 19.75 33.247002M 45.25 36.25L 40.75 36.25L 23.128 24.499001C 22.882423 24.336529 22.594458 24.249931 22.299999 24.25L 12.25 24.25C 11.421573 24.25 10.75 24.921572 10.75 25.75L 10.75 31.75C 10.75 32.578426 11.421573 33.25 12.25 33.25L 22.75 33.25L 40.371998 44.994999C 40.618523 45.159378 40.908199 45.247066 41.204498 45.246998L 45.254501 45.246998M 22.75 33.247002L 22.75 24.317501M 42.25 19.747L 42.25 10.8175M 40.75 45.176498L 40.75 36.246998"></path></g></g></g><g id="g-root-ic_1_4nknsr1af5s08-fill" data-item-order="0" transform="translate(422, 212)"></g><g id="g-root-ic_1_4nknsr1af5s08-stroke" data-item-order="0" transform="translate(422, 212)"><g id="ic_1_4nknsr1af5s08-stroke" fill="none" stroke-linecap="round" stroke-linejoin="round" stroke-miterlimit="4" stroke="#3cc583" stroke-width="2" stroke-opacity="1"><g><path d="M 19.393 40.9375L 11.125 40.9375M 44.875 40.9375L 36.607002 40.9375M 34.037498 34.9375L 44.875 34.9375M 11.125 34.9375L 21.967001 34.9375M 24.400002 32.246502C 22.441757 33.476105 21.252213 35.625217 21.25 37.9375C 21.250025 38.351559 21.28768 38.764759 21.362501 39.172005L 20.380001 39.738998C 19.302906 40.360256 18.933439 41.737083 19.554804 42.814114C 20.176168 43.891144 21.553032 44.260471 22.630001 43.639L 23.614 43.070503C 26.139507 45.229385 29.860493 45.229385 32.386002 43.070503L 33.369999 43.639C 34.446945 44.26017 35.823532 43.89077 36.444805 42.813889C 37.066082 41.737011 36.696815 40.360386 35.619999 39.738998L 34.637497 39.172001C 34.712322 38.764759 34.749977 38.351559 34.75 37.937504C 34.747219 35.625366 33.557816 33.476513 31.599998 32.246502M 25.75 37.9375C 25.75 39.180141 26.75736 40.1875 28 40.1875C 29.242641 40.1875 30.25 39.180141 30.25 37.9375C 30.25 36.694862 29.242641 35.6875 28 35.6875C 26.75736 35.6875 25.75 36.694862 25.75 37.9375M 10 10M 37.402 24.573999L 30.802 12.943C 30.229795 11.935306 29.160322 11.312726 28.001501 11.312726C 26.842678 11.312726 25.773205 11.935306 25.201 12.943L 18.601 24.573999C 18.131863 25.400099 18.137014 26.413258 18.614527 27.234543C 19.092041 28.055828 19.969984 28.561525 20.92 28.562498L 35.079998 28.5625C 36.030548 28.562593 36.90947 28.057318 37.387718 27.235838C 37.865959 26.414358 37.871399 25.400564 37.402 24.573999ZM 28 15.8125L 28 19.5625M 27.25 24.0625C 27.25 24.476713 27.585787 24.8125 28 24.8125C 28.414213 24.8125 28.75 24.476713 28.75 24.0625C 28.75 23.648287 28.414213 23.3125 28 23.3125C 27.585787 23.3125 27.25 23.648287 27.25 24.0625"></path></g></g></g><g id="g-root-ic_warn_940n0b1af1jwm-fill" data-item-order="0" transform="translate(302, 212)"></g><g id="g-root-ic_warn_940n0b1af1jwm-stroke" data-item-order="0" transform="translate(302, 212)"><g id="ic_warn_940n0b1af1jwm-stroke" fill="none" stroke-linecap="round" stroke-linejoin="round" stroke-miterlimit="4" stroke="#e55753" stroke-width="2" stroke-opacity="1"><g><path d="M 36.25 40.75C 36.457108 40.75 36.625 40.917892 36.625 41.125C 36.625 41.332108 36.457108 41.5 36.25 41.5C 36.042892 41.5 35.875 41.332108 35.875 41.125C 35.875 40.917892 36.042892 40.75 36.25 40.75M 36.25 37.743999L 36.25 33.243999M 37.507 28.75C 37.259224 28.286013 36.776001 27.99625 36.25 27.99625C 35.723999 27.99625 35.240776 28.286013 34.993 28.75L 27.409 43.202499C 27.181095 43.635597 27.198772 44.156837 27.4555 44.573502C 27.715345 44.992073 28.173336 45.246323 28.666002 45.245502L 43.834 45.245499C 44.326668 45.246323 44.784657 44.992073 45.044502 44.573502C 45.301224 44.156837 45.318901 43.635597 45.091 43.202499ZM 27.25 37.75L 13.75 37.75C 12.093145 37.75 10.75 36.406857 10.75 34.75L 10.75 13.75C 10.75 12.093145 12.093145 10.75 13.75 10.75L 34.75 10.75C 36.406857 10.75 37.75 12.093145 37.75 13.75L 37.75 24.25M 10.75 19.756001L 37.75 19.756001M 10.75 28.743999L 28.75 28.743999M 28.75 10.756L 28.75 28.743999M 19.75 10.756L 19.75 37.743999"></path></g></g></g><g id="g-root-ic_aler_deucfv1af1jpn-fill" data-item-order="0" transform="translate(182, 212)"></g><g id="g-root-ic_aler_deucfv1af1jpn-stroke" data-item-order="0" transform="translate(182, 212)"><g id="ic_aler_deucfv1af1jpn-stroke" fill="none" stroke-linecap="round" stroke-linejoin="round" stroke-miterlimit="4" stroke="#1eabda" stroke-width="2" stroke-opacity="1"><g><path d="M 36.156998 41.118999L 36.156998 41.118999M 36.156998 37.743999L 36.156998 33.243999M 37.413998 28.743999C 37.166225 28.280012 36.683002 27.99025 36.156998 27.99025C 35.631001 27.99025 35.147774 28.280012 34.900002 28.743999L 27.316 43.201C 27.088095 43.634098 27.105774 44.155338 27.362499 44.571999C 27.622345 44.99057 28.080332 45.24482 28.573 45.243999L 43.740997 45.243999C 44.233665 45.24482 44.691654 44.99057 44.9515 44.571999C 45.208225 44.155338 45.225906 43.634098 44.997997 43.201ZM 25.843 36.25L 13.843 36.25C 12.186146 36.25 10.843 34.906857 10.843 33.25L 10.843 13.75C 10.843 12.093145 12.186146 10.75 13.843 10.75L 36.343002 10.75C 37.999855 10.75 39.343002 12.093145 39.343002 13.75L 39.343002 24.25M 19.202499 18.715L 15.9895 21.990999L 19.202499 25.268499M 30.439001 18.715L 33.652 21.990999L 30.439001 25.268499M 22.841499 26.087502L 26.118999 18.715"></path></g></g></g><g id="g-root-ic_chai_1430bcr1aeujus-fill" data-item-order="0" transform="translate(62, 212)"></g><g id="g-root-ic_chai_1430bcr1aeujus-stroke" data-item-order="0" transform="translate(62, 212)"><g id="ic_chai_1430bcr1aeujus-stroke" fill="none" stroke-linecap="round" stroke-linejoin="round" stroke-miterlimit="4" stroke="#4e88e7" stroke-width="2" stroke-opacity="1"><g><path d="M 19.375 30.625C 19.375 31.525002 18.775 32.125 17.875 32.125L 12.625 32.125C 11.725 32.125 11.125 31.525002 11.125 30.625L 11.125 25.375C 11.125 24.474998 11.725 23.875 12.625 23.875L 17.875 23.875C 18.775 23.875 19.375 24.474998 19.375 25.375L 19.375 30.625ZM 19.375 43.375C 19.375 44.275002 18.775 44.875 17.875 44.875L 12.625 44.875C 11.725 44.875 11.125 44.275002 11.125 43.375L 11.125 38.125C 11.125 37.224998 11.725 36.625 12.625 36.625L 17.875 36.625C 18.775 36.625 19.375 37.224998 19.375 38.125L 19.375 43.375ZM 32.125 43.375C 32.125 44.275002 31.525002 44.875 30.625 44.875L 25.375 44.875C 24.474998 44.875 23.875 44.275002 23.875 43.375L 23.875 38.125C 23.875 37.224998 24.474998 36.625 25.375 36.625L 30.625 36.625C 31.525002 36.625 32.125 37.224998 32.125 38.125L 32.125 43.375ZM 44.875 17.875C 44.875 18.775 44.275002 19.375 43.375 19.375L 38.125 19.375C 37.224998 19.375 36.625 18.775 36.625 17.875L 36.625 12.625C 36.625 11.725 37.224998 11.125 38.125 11.125L 43.375 11.125C 44.275002 11.125 44.875 11.725 44.875 12.625L 44.875 17.875ZM 32.125 17.875C 32.125 18.775 31.525002 19.375 30.625 19.375L 25.375 19.375C 24.474998 19.375 23.875 18.775 23.875 17.875L 23.875 12.625C 23.875 11.725 24.474998 11.125 25.375 11.125L 30.625 11.125C 31.525002 11.125 32.125 11.725 32.125 12.625L 32.125 17.875ZM 32.125 30.625C 32.125 31.525002 31.525002 32.125 30.625 32.125L 25.375 32.125C 24.474998 32.125 23.875 31.525002 23.875 30.625L 23.875 25.375C 23.875 24.474998 24.474998 23.875 25.375 23.875L 30.625 23.875C 31.525002 23.875 32.125 24.474998 32.125 25.375L 32.125 30.625ZM 44.875 30.625C 44.875 31.525002 44.275002 32.125 43.375 32.125L 38.125 32.125C 37.224998 32.125 36.625 31.525002 36.625 30.625L 36.625 25.375C 36.625 24.474998 37.224998 23.875 38.125 23.875L 43.375 23.875C 44.275002 23.875 44.875 24.474998 44.875 25.375L 44.875 30.625ZM 19.375 28.075001L 23.875 28.075001M 32.125 28.075001L 36.625 28.075001M 10 10M 32.125 15.325075L 36.625 15.325075M 10 10M 40.824852 19.375L 40.824852 23.875M 10 10M 15.324895 32.125L 15.324895 36.625M 10 10M 19.375 40.824997L 23.875 40.824997"></path></g></g></g><g id="g-root-tx_182minus_zn6t8b1aet6gz-fill" data-item-order="0" transform="translate(879.0546875, 134)"><g id="tx_182minus_zn6t8b1aet6gz-fill-merged" stroke="none" fill="#484848" fill-opacity="1"><g><text style="font: 10.5px Roboto, sans-serif; white-space: pre;" transform="translate(50.9453125, 28)" font-size="10.5px" font-family="Roboto, sans-serif"><tspan x="-37.51" y="-6" dominant-baseline="ideographic">$182M in USDT </tspan><tspan x="-38.95" y="6" dominant-baseline="ideographic">wallets linked to </tspan><tspan x="-33.96" y="18" dominant-baseline="ideographic">PDVSA frozen</tspan></text></g></g></g><g id="g-root-tx_182minus_zn6t8b1aet6gz-stroke" data-item-order="0" transform="translate(879.0546875, 134)"></g><g id="g-root-tx_39mcount_hunukb1aet6o1-fill" data-item-order="0" transform="translate(755.171875, 122)"><g id="tx_39mcount_hunukb1aet6o1-fill-merged" stroke="none" fill="#484848" fill-opacity="1"><g><text style="font: 10.5px Roboto, sans-serif; white-space: pre;" transform="translate(54.828125, 34)" font-size="10.5px" font-family="Roboto, sans-serif"><tspan x="-42.83" y="-12" dominant-baseline="ideographic">$3.9M counterfeit </tspan><tspan x="-33.8" y="0" dominant-baseline="ideographic">tokens halted, </tspan><tspan x="-25.52" y="12" dominant-baseline="ideographic">addresses </tspan><tspan x="-23.52" y="24" dominant-baseline="ideographic">restricted</tspan></text></g></g></g><g id="g-root-tx_39mcount_hunukb1aet6o1-stroke" data-item-order="0" transform="translate(755.171875, 122)"></g><g id="g-root-tx_207mreco_1q88epn1aet4av-fill" data-item-order="0" transform="translate(634.6328125, 134)"><g id="tx_207mreco_1q88epn1aet4av-fill-merged" stroke="none" fill="#484848" fill-opacity="1"><g><text style="font: 10.5px Roboto, sans-serif; white-space: pre;" transform="translate(55.3671875, 28)" font-size="10.5px" font-family="Roboto, sans-serif"><tspan x="-43.37" y="-6" dominant-baseline="ideographic">$20.7M recovered </tspan><tspan x="-39.8" y="6" dominant-baseline="ideographic">via multisig burn </tspan><tspan x="-27.79" y="18" dominant-baseline="ideographic">and re-mint</tspan></text></g></g></g><g id="g-root-tx_207mreco_1q88epn1aet4av-stroke" data-item-order="0" transform="translate(634.6328125, 134)"></g><g id="g-root-tx_outflows_18fpg1n1aet4hx-fill" data-item-order="0" transform="translate(520.046875, 134)"><g id="tx_outflows_18fpg1n1aet4hx-fill-merged" stroke="none" fill="#484848" fill-opacity="1"><g><text style="font: 10.5px Roboto, sans-serif; white-space: pre;" transform="translate(49.953125, 28)" font-size="10.5px" font-family="Roboto, sans-serif"><tspan x="-37.95" y="-6" dominant-baseline="ideographic">Outflows halted </tspan><tspan x="-37.83" y="6" dominant-baseline="ideographic">during Balancer </tspan><tspan x="-16.91" y="18" dominant-baseline="ideographic">exploit</tspan></text></g></g></g><g id="g-root-tx_outflows_18fpg1n1aet4hx-stroke" data-item-order="0" transform="translate(520.046875, 134)"></g><g id="g-root-tx_cspv6poo_vcd3sr1aersi3-fill" data-item-order="0" transform="translate(392.3125, 134)"><g id="tx_cspv6poo_vcd3sr1aersi3-fill-merged" stroke="none" fill="#484848" fill-opacity="1"><g><text style="font: 10.5px Roboto, sans-serif; white-space: pre;" transform="translate(57.6875, 28)" font-size="10.5px" font-family="Roboto, sans-serif"><tspan x="-43.59" y="-6" dominant-baseline="ideographic">CSPv6 pools auto-</tspan><tspan x="-45.69" y="6" dominant-baseline="ideographic">paused, CSPv5 lost </tspan><tspan x="-14.11" y="18" dominant-baseline="ideographic">funds</tspan></text></g></g></g><g id="g-root-tx_cspv6poo_vcd3sr1aersi3-stroke" data-item-order="0" transform="translate(392.3125, 134)"></g><g id="g-root-tx_justinsu_dkgm7v1aerpjd-fill" data-item-order="0" transform="translate(273.03125, 134)"><g id="tx_justinsu_dkgm7v1aerpjd-fill-merged" stroke="none" fill="#484848" fill-opacity="1"><g><text style="font: 10.5px Roboto, sans-serif; white-space: pre;" transform="translate(56.96875, 28)" font-size="10.5px" font-family="Roboto, sans-serif"><tspan x="-25.64" y="-6" dominant-baseline="ideographic">Justin Sun </tspan><tspan x="-44.97" y="6" dominant-baseline="ideographic">blacklisted, $107M </tspan><tspan x="-15.8" y="18" dominant-baseline="ideographic">frozen</tspan></text></g></g></g><g id="g-root-tx_justinsu_dkgm7v1aerpjd-stroke" data-item-order="0" transform="translate(273.03125, 134)"></g><g id="g-root-tx_220mstol_1ut1piz1aerpjb-fill" data-item-order="0" transform="translate(154.84375, 122)"><g id="tx_220mstol_1ut1piz1aerpjb-fill-merged" stroke="none" fill="#484848" fill-opacity="1"><g><text style="font: 10.5px Roboto, sans-serif; white-space: pre;" transform="translate(55.15625, 34)" font-size="10.5px" font-family="Roboto, sans-serif"><tspan x="-34.36" y="-12" dominant-baseline="ideographic">$220M stolen, </tspan><tspan x="-39.95" y="0" dominant-baseline="ideographic">validators freeze </tspan><tspan x="-43.16" y="12" dominant-baseline="ideographic">funds, community </tspan><tspan x="-32.61" y="24" dominant-baseline="ideographic">vote recovers</tspan></text></g></g></g><g id="g-root-tx_220mstol_1ut1piz1aerpjb-stroke" data-item-order="0" transform="translate(154.84375, 122)"></g><g id="g-root-tx_50mexplo_1d0iquz1aerpqd-fill" data-item-order="0" transform="translate(32.515625, 134)"><g id="tx_50mexplo_1d0iquz1aerpqd-fill-merged" stroke="none" fill="#484848" fill-opacity="1"><g><text style="font: 10.5px Roboto, sans-serif; white-space: pre;" transform="translate(57.484375, 28)" font-size="10.5px" font-family="Roboto, sans-serif"><tspan x="-30.34" y="-6" dominant-baseline="ideographic">$50M exploit </tspan><tspan x="-45.48" y="6" dominant-baseline="ideographic">contained by cross-</tspan><tspan x="-28.17" y="18" dominant-baseline="ideographic">chain pause</tspan></text></g></g></g><g id="g-root-tx_50mexplo_1d0iquz1aerpqd-stroke" data-item-order="0" transform="translate(32.515625, 134)"></g><g id="g-root-tx_tetherus_1q9hcvv1aet6gy-fill" data-item-order="0" transform="translate(883.171875, 100)"><g id="tx_tetherus_1q9hcvv1aet6gy-fill-merged" stroke="none" fill="#1eabda" fill-opacity="1"><g><text style="font: 12px Roboto, sans-serif; white-space: pre;" transform="translate(46.828125, 24)" font-size="12px" font-family="Roboto, sans-serif"><tspan x="-34.83" y="0" dominant-baseline="ideographic">Tether USDT </tspan><tspan x="-22.28" y="14" dominant-baseline="ideographic">Freezes</tspan></text></g></g></g><g id="g-root-tx_tetherus_1q9hcvv1aet6gy-stroke" data-item-order="0" transform="translate(883.171875, 100)"></g><g id="g-root-tx_flowisol_18gye7v1aet6o0-fill" data-item-order="0" transform="translate(760.90625, 88)"><g id="tx_flowisol_18gye7v1aet6o0-fill-merged" stroke="none" fill="#969696" fill-opacity="1"><g><text style="font: 12px Roboto, sans-serif; white-space: pre;" transform="translate(49.09375, 24)" font-size="12px" font-family="Roboto, sans-serif"><tspan x="-37.09" y="0" dominant-baseline="ideographic">Flow Isolated </tspan><tspan x="-25.86" y="14" dominant-baseline="ideographic">Recovery</tspan></text></g></g></g><g id="g-root-tx_flowisol_18gye7v1aet6o0-stroke" data-item-order="0" transform="translate(760.90625, 88)"></g><g id="g-root-tx_stakewis_htewe31aet4hy-fill" data-item-order="0" transform="translate(648.4921875, 86)"><g id="tx_stakewis_htewe31aet4hy-fill-merged" stroke="none" fill="#7f64ea" fill-opacity="1"><g><text style="font: 12px Roboto, sans-serif; white-space: pre;" transform="translate(41.5078125, 31)" font-size="12px" font-family="Roboto, sans-serif"><tspan x="-29.51" y="-7" dominant-baseline="ideographic">StakeWise </tspan><tspan x="-22.85" y="7" dominant-baseline="ideographic">Multisig </tspan><tspan x="-25.87" y="21" dominant-baseline="ideographic">Recovery</tspan></text></g></g></g><g id="g-root-tx_stakewis_htewe31aet4hy-stroke" data-item-order="0" transform="translate(648.4921875, 86)"></g><g id="g-root-tx_gnosisbr_vxq31aet4p0-fill" data-item-order="0" transform="translate(519.375, 100)"><g id="tx_gnosisbr_vxq31aet4p0-fill-merged" stroke="none" fill="#ba5de5" fill-opacity="1"><g><text style="font: 12px Roboto, sans-serif; white-space: pre;" transform="translate(50.625, 24)" font-size="12px" font-family="Roboto, sans-serif"><tspan x="-38.63" y="0" dominant-baseline="ideographic">Gnosis Bridge </tspan><tspan x="-36.45" y="14" dominant-baseline="ideographic">Board Freeze</tspan></text></g></g></g><g id="g-root-tx_gnosisbr_vxq31aet4p0-stroke" data-item-order="0" transform="translate(519.375, 100)"></g><g id="g-root-tx_balancer_1lynngb1aersi2-fill" data-item-order="0" transform="translate(404.4296875, 100)"><g id="tx_balancer_1lynngb1aersi2-fill-merged" stroke="none" fill="#3cc583" fill-opacity="1"><g><text style="font: 12px Roboto, sans-serif; white-space: pre;" transform="translate(45.5703125, 24)" font-size="12px" font-family="Roboto, sans-serif"><tspan x="-33.57" y="0" dominant-baseline="ideographic">Balancer V2 </tspan><tspan x="-19.55" y="14" dominant-baseline="ideographic">Exploit</tspan></text></g></g></g><g id="g-root-tx_balancer_1lynngb1aersi2-stroke" data-item-order="0" transform="translate(404.4296875, 100)"></g><g id="g-root-tx_wlfiblac_146r5vf1aerpjc-fill" data-item-order="0" transform="translate(280.3828125, 114)"><g id="tx_wlfiblac_146r5vf1aerpjc-fill-merged" stroke="none" fill="#e55753" fill-opacity="1"><g><text style="font: 12px Roboto, sans-serif; white-space: pre;" transform="translate(49.6171875, 17)" font-size="12px" font-family="Roboto, sans-serif"><tspan x="-37.62" y="7" dominant-baseline="ideographic">WLFI Blacklist</tspan></text></g></g></g><g id="g-root-tx_wlfiblac_146r5vf1aerpjc-stroke" data-item-order="0" transform="translate(280.3828125, 114)"></g><g id="g-root-tx_suicetus_me877f1aerpqe-fill" data-item-order="0" transform="translate(152.1875, 102)"><g id="tx_suicetus_me877f1aerpqe-fill-merged" stroke="none" fill="#1eabda" fill-opacity="1"><g><text style="font: 12px Roboto, sans-serif; white-space: pre;" transform="translate(57.8125, 17)" font-size="12px" font-family="Roboto, sans-serif"><tspan x="-45.81" y="7" dominant-baseline="ideographic">Sui/Cetus Exploit</tspan></text></g></g></g><g id="g-root-tx_suicetus_me877f1aerpqe-stroke" data-item-order="0" transform="translate(152.1875, 102)"></g><g id="g-root-tx_radiantc_4lp8jf1aerpxg-fill" data-item-order="0" transform="translate(35.9921875, 100)"><g id="tx_radiantc_4lp8jf1aerpxg-fill-merged" stroke="none" fill="#4e88e7" fill-opacity="1"><g><text style="font: 12px Roboto, sans-serif; white-space: pre;" transform="translate(54.0078125, 24)" font-size="12px" font-family="Roboto, sans-serif"><tspan x="-42.01" y="0" dominant-baseline="ideographic">Radiant Capital </tspan><tspan x="-19.55" y="14" dominant-baseline="ideographic">Exploit</tspan></text></g></g></g><g id="g-root-tx_radiantc_4lp8jf1aerpxg-stroke" data-item-order="0" transform="translate(35.9921875, 100)"></g><g id="g-root-tx_blockcha_v7zs6z1aerpxf-fill" data-item-order="0" transform="translate(282.9609375, 38)"><g id="tx_blockcha_v7zs6z1aerpxf-fill-merged" stroke="none" fill="#484848" fill-opacity="1"><g><text style="font: bold 20px Roboto, sans-serif; white-space: pre;" transform="translate(257.0390625, 22)" font-weight="bold" font-size="20px" font-family="Roboto, sans-serif"><tspan x="-245.04" y="12" dominant-baseline="ideographic">Key Blockchain Emergency Interventions (2024–2026)</tspan></text></g></g></g><g id="g-root-tx_blockcha_v7zs6z1aerpxf-stroke" data-item-order="0" transform="translate(282.9609375, 38)"></g><g id="g-root-ic_robo_mdlq4b1af05xh-fill" data-item-order="0" transform="translate(122, 308)"></g><g id="g-root-ic_robo_mdlq4b1af05xh-stroke" data-item-order="0" transform="translate(122, 308)"><g id="ic_robo_mdlq4b1af05xh-stroke" fill="none" stroke-linecap="round" stroke-linejoin="round" stroke-miterlimit="4" stroke="#969696" stroke-width="2" stroke-opacity="1"><g><path d="M 10 10M 27.257801 40.221249L 24.69253 41.709698L 11.331543 33.95665L 11.331543 19.171045L 24.69253 11.417968L 38.053448 19.171045L 38.053448 26.5639M 18.53125 26.564949C 18.53125 29.9632 21.282761 32.724998 24.69136 32.724998C 28.089701 32.724998 30.8515 29.973549 30.8515 26.564949C 30.8515 23.156319 28.099899 20.394535 24.69136 20.394535C 21.293036 20.394535 18.53125 23.146046 18.53125 26.5546L 18.53125 26.564949ZM 35.0905 34.796501L 41.669502 34.796501C 41.669502 34.796501 44.669502 34.796501 44.669502 37.796501L 44.669502 41.5825C 44.669502 41.5825 44.669502 44.5825 41.669502 44.5825L 35.0905 44.5825C 35.0905 44.5825 32.0905 44.5825 32.0905 41.5825L 32.0905 37.796501C 32.0905 37.796501 32.0905 34.796501 35.0905 34.796501M 10 10M 38.379852 30.937151L 38.379852 34.796799M 10 10M 36.317352 38.819801L 36.317352 40.5625M 10 10M 40.442352 38.819801L 40.442352 40.5625"></path></g></g></g><g id="g-root-ic_user_zofrej1af1kwc-fill" data-item-order="0" transform="translate(242, 308)"></g><g id="g-root-ic_user_zofrej1af1kwc-stroke" data-item-order="0" transform="translate(242, 308)"><g id="ic_user_zofrej1af1kwc-stroke" fill="none" stroke-linecap="round" stroke-linejoin="round" stroke-miterlimit="4" stroke="#de8431" stroke-width="2" stroke-opacity="1"><g><path d="M 15.925015 28.075001C 17.875015 30.025002 20.425014 31.375 23.425014 31.375C 24.925014 31.375 26.424999 31.075001 27.625 30.474998M 21.475016 37.375C 24.954414 37.375 27.775002 34.554401 27.775002 31.075001C 27.775002 27.5956 24.954414 24.775015 21.475016 24.775015C 17.995615 24.775015 15.175015 27.5956 15.175015 31.075001C 15.175015 34.554401 17.995615 37.375 21.475016 37.375ZM 21.474985 38.875L 21.474985 44.875M 31.825001 44.875C 29.724998 41.275002 25.825001 38.875 21.474985 38.875C 17.124985 38.875 13.225 41.275002 11.125 44.875M 20.125 20.275015L 20.125 18.775015C 20.125 17.875015 20.725 17.275015 21.625 17.275015L 23.875 17.275015C 24.775002 17.275015 25.375 17.875015 25.375 18.775015L 25.375 21.025015M 42.25 20.875L 42.25 25.375M 31.375 23.875C 30.474998 23.875 29.875 23.275002 29.875 22.375L 29.875 15.625C 29.875 14.725 30.474998 14.125 31.375 14.125L 33.625 14.125C 34.525002 14.125 35.125 14.725 35.125 15.625L 35.125 22.375C 35.125 23.275002 34.525002 23.875 33.625 23.875L 31.375 23.875ZM 32.5 23.875L 32.5 26.875M 32.5 11.125L 32.5 14.125M 41.125 20.875C 40.224998 20.875 39.625 20.275 39.625 19.375L 39.625 12.625C 39.625 11.725 40.224998 11.125 41.125 11.125L 43.375 11.125C 44.275002 11.125 44.875 11.725 44.875 12.625L 44.875 19.375C 44.875 20.275 44.275002 20.875 43.375 20.875L 41.125 20.875Z"></path></g></g></g><g id="g-root-ic_decr_4ms8r1af30uk-fill" data-item-order="0" transform="translate(362, 308)"></g><g id="g-root-ic_decr_4ms8r1af30uk-stroke" data-item-order="0" transform="translate(362, 308)"><g id="ic_decr_4ms8r1af30uk-stroke" fill="none" stroke-linecap="round" stroke-linejoin="round" stroke-miterlimit="4" stroke="#e0cb15" stroke-width="2" stroke-opacity="1"><g><path d="M 45.256001 44.5L 10.756 44.5M 39.25 44.5L 39.25 40.75C 39.25 40.335785 39.585785 40 40 40L 43 40C 43.414215 40 43.75 40.335785 43.75 40.75L 43.75 44.5M 30.25 44.5L 30.25 34.75C 30.25 34.335785 30.585787 34 31 34L 34 34C 34.414215 34 34.75 34.335785 34.75 34.75L 34.75 44.5M 21.25 44.5L 21.25 28.75C 21.25 28.335787 21.585787 28 22 28L 25 28C 25.414213 28 25.75 28.335787 25.75 28.75L 25.75 44.5M 12.25 44.5L 12.25 22.75C 12.25 22.335787 12.585787 22 13 22L 16 22C 16.414213 22 16.75 22.335787 16.75 22.75L 16.75 44.5M 41.506001 29.5L 14.506 11.5M 40.756001 23.5L 41.506001 29.5L 35.506001 30.25"></path></g></g></g><g id="g-root-ic_zcoo_1q9hg1n1aem5tz-fill" data-item-order="0" transform="translate(482, 308)"></g><g id="g-root-ic_zcoo_1q9hg1n1aem5tz-stroke" data-item-order="0" transform="translate(482, 308)"><g id="ic_zcoo_1q9hg1n1aem5tz-stroke" fill="none" stroke-linecap="round" stroke-linejoin="round" stroke-miterlimit="4" stroke="#92bd39" stroke-width="2" stroke-opacity="1"><g><path d="M 32.014 35.868999C 32.014828 36.736118 31.31212 37.439499 30.445 37.439499L 20.084499 37.439499C 19.45631 37.440186 18.888266 37.06612 18.64073 36.488754C 18.393194 35.911392 18.513893 35.242039 18.9475 34.787498L 25.442501 27.959499C 25.54656 27.850945 25.57571 27.690727 25.516554 27.552475C 25.457396 27.414227 25.321375 27.324684 25.171001 27.325001L 20.084499 27.325001C 19.512112 27.342697 18.975464 27.047436 18.684038 26.55447C 18.392612 26.061506 18.392612 25.448994 18.684038 24.95603C 18.975464 24.463066 19.512112 24.167805 20.084501 24.185501L 29.703999 24.185499C 30.331791 24.185614 30.899202 24.559586 31.146854 25.136463C 31.394508 25.713343 31.274818 26.382284 30.842501 26.837502L 24.346001 33.667C 24.242979 33.775665 24.214479 33.935204 24.273502 34.072819C 24.332527 34.210434 24.467762 34.299744 24.6175 34.300003L 30.445 34.300003C 31.311535 34.299999 32.014 35.002464 32.014 35.868999ZM 45.017498 27.824501C 45.087158 27.709007 45.090561 27.565296 45.026451 27.446636C 44.962345 27.327972 44.840279 27.252047 44.705502 27.247C 43.561562 27.276955 42.425385 27.050949 41.379997 26.585499C 41.259003 26.532742 41.168514 26.427902 41.133999 26.300499C 41.108826 26.168995 41.153687 26.033846 41.252499 25.943501C 42.821503 24.5215 44.3605 18.3535 45.013 15.4555C 45.050083 15.293383 44.97773 15.125944 44.834251 15.041849C 44.690777 14.957755 44.509331 14.976436 44.386002 15.088C 41.744499 17.4655 35.563 19.333 33.365501 19.389999C 33.227478 19.392712 33.098618 19.321125 33.028 19.202499C 32.95755 19.083656 32.95755 18.935844 33.028 18.816999C 34.0345 17.0875 33.991001 12.946 33.9175 11.116C 33.912354 10.962856 33.815617 10.827833 33.672264 10.773706C 33.528915 10.719581 33.367077 10.756974 33.262001 10.8685C 31.636 12.571 27.1675 17.039499 25.0345 17.039499C 17.502359 17.040548 11.301048 22.961388 10.951641 30.485418C 10.602235 38.009449 16.228128 44.47953 23.727753 45.178631C 31.227379 45.877739 37.952209 40.558975 38.9995 33.099998C 39.024067 32.930336 39.158119 32.797508 39.327999 32.774502C 42.641499 32.349998 44.237503 29.104 45.017498 27.824501Z"></path></g></g></g><g id="g-root-ic_warn_1ltnxx71aeoxe2-fill" data-item-order="0" transform="translate(602, 308)"></g><g id="g-root-ic_warn_1ltnxx71aeoxe2-stroke" data-item-order="0" transform="translate(602, 308)"><g id="ic_warn_1ltnxx71aeoxe2-stroke" fill="none" stroke-linecap="round" stroke-linejoin="round" stroke-miterlimit="4" stroke="#de58a9" stroke-width="2" stroke-opacity="1"><g><path d="M 35.452599 38.400398C 35.152599 38.400398 34.8526 38.700401 34.8526 39.000397C 34.8526 39.3004 35.152599 39.600403 35.452599 39.600403M 35.450798 38.400398C 35.750801 38.400398 36.0508 38.700401 36.0508 39.000397C 36.0508 39.3004 35.750801 39.600403 35.450798 39.600403M 35.453201 35.095749L 35.453201 30.595751M 44.151852 38.998001C 44.601849 39.748001 44.451851 40.798 44.00185 41.548C 43.551849 42.298 42.651852 42.748001 41.75185 42.748001L 29.00185 42.748001C 28.101849 42.748001 27.201851 42.298 26.75185 41.548C 26.301849 40.798 26.151852 39.748001 26.601849 38.998001L 32.901852 26.247999C 33.351849 25.348 34.25185 24.748045 35.301849 24.748045C 36.351849 24.748045 37.25185 25.348 37.701851 26.247999L 44.151852 38.998001ZM 29.789349 25.680401L 13.07617 25.680401C 12.24775 25.680401 11.57617 25.00885 11.57617 24.180475L 11.57617 14.751955C 11.57617 13.92352 12.24775 13.251955 13.07617 13.251955L 41.513798 13.251955C 42.342251 13.251955 43.013798 13.92352 43.013798 14.751955L 43.013798 24.180475C 43.013798 25.00885 42.342251 25.680401 41.513798 25.680401L 41.077599 25.680401M 17.606125 20.964205C 18.434919 20.964205 19.106785 20.292339 19.106785 19.463545C 19.106785 18.634766 18.434919 17.962885 17.606125 17.962885C 16.77733 17.962885 16.105465 18.634766 16.105465 19.463545C 16.105465 20.292339 16.77733 20.964205 17.606125 20.964205ZM 23.606125 20.964205C 24.434919 20.964205 25.1068 20.292339 25.1068 19.463545C 25.1068 18.634766 24.434919 17.962885 23.606125 17.962885C 22.77733 17.962885 22.105465 18.634766 22.105465 19.463545C 22.105465 20.292339 22.77733 20.964205 23.606125 20.964205ZM 29.600201 20.964205C 30.4291 20.964205 31.10095 20.292339 31.10095 19.463545C 31.10095 18.634766 30.4291 17.962885 29.600201 17.962885C 28.77145 17.962885 28.0996 18.634766 28.0996 19.463545C 28.0996 20.292339 28.77145 20.964205 29.600201 20.964205Z"></path></g></g></g><g id="g-root-ic_eos_147dq4b1aeqcjz-fill" data-item-order="0" transform="translate(722, 308)"></g><g id="g-root-ic_eos_147dq4b1aeqcjz-stroke" data-item-order="0" transform="translate(722, 308)"><g id="ic_eos_147dq4b1aeqcjz-stroke" fill="none" stroke-linecap="round" stroke-linejoin="round" stroke-miterlimit="4" stroke="#969696" stroke-width="2" stroke-opacity="1"><g><path d="M 10.75 28C 10.75 37.526913 18.473087 45.25 28 45.25C 37.526913 45.25 45.25 37.526913 45.25 28C 45.25 18.473087 37.526913 10.75 28 10.75C 18.473087 10.75 10.75 18.473087 10.75 28M 28 39.25L 37 33.25L 33.25 22L 28 16.75L 22.75 22L 19 33.25L 28 39.25ZM 22.75 22L 28 39.25L 33.25 22"></path></g></g></g><g id="g-root-ic_relo_m98hob1aeulfl-fill" data-item-order="0" transform="translate(842, 308)"></g><g id="g-root-ic_relo_m98hob1aeulfl-stroke" data-item-order="0" transform="translate(842, 308)"><g id="ic_relo_m98hob1aeulfl-stroke" fill="none" stroke-linecap="round" stroke-linejoin="round" stroke-miterlimit="4" stroke="#4e88e7" stroke-width="2" stroke-opacity="1"><g><path d="M 41.431301 27.99865C 41.431301 19.79599 34.781799 13.14649 26.579201 13.14649C 18.376554 13.14649 11.727055 19.79599 11.727055 27.99865C 11.727055 36.201099 18.376554 42.85075 26.579201 42.85075C 31.6318 42.85075 36.0952 40.327599 38.778099 36.472599M 10 10M 38.589401 26.5762L 41.431149 29.41795L 44.2729 26.5762M 10 10M 25.070351 29.0137L 32.687351 21.39658L 34.936897 23.646114M 19.461115 34.631508C 21.010521 36.180912 23.522602 36.180912 25.072008 34.631508C 26.621412 33.082104 26.621412 30.570019 25.072008 29.020615C 23.522602 27.47121 21.010521 27.47121 19.461115 29.020615C 17.911709 30.570019 17.911709 33.082104 19.461115 34.631508M 10 10M 29.7652 24.32617L 32.015049 26.57605"></path></g></g></g><g id="g-root-ic_scal_59chn1af2yvd-fill" data-item-order="0" transform="translate(962, 308)"></g><g id="g-root-ic_scal_59chn1af2yvd-stroke" data-item-order="0" transform="translate(962, 308)"><g id="ic_scal_59chn1af2yvd-stroke" fill="none" stroke-linecap="round" stroke-linejoin="round" stroke-miterlimit="4" stroke="#3cc583" stroke-width="2" stroke-opacity="1"><g><path d="M 38.5 22L 38.5 29.5C 38.079998 31.48 24.610001 34 17.5 34L 17.5 26.5C 24.610001 26.5 38.5 24.039999 38.5 22ZM 38.5 10.75L 38.5 18.25C 38.079998 20.23 24.610001 22.75 17.5 22.75L 17.5 15.25C 24.610001 15.25 38.5 12.79 38.5 10.75ZM 34.599998 20.244999C 34.599998 20.244999 38.5 20.035 38.5 22M 17.5 22.75L 28.885 25.344999M 38.5 33.25L 38.5 40.75C 38.079998 42.73 24.610001 45.25 17.5 45.25L 17.5 37.75C 24.610001 37.75 38.5 35.290001 38.5 33.25ZM 34.599998 31.494999C 34.599998 31.494999 38.5 31.285 38.5 33.25M 17.5 34L 28.885 36.595001"></path></g></g></g><g id="g-root-tx_makerdao_90w9kr1aet6h0-fill" data-item-order="0" transform="translate(93.1640625, 386)"><g id="tx_makerdao_90w9kr1aet6h0-fill-merged" stroke="none" fill="#969696" fill-opacity="1"><g><text style="font: 12px Roboto, sans-serif; white-space: pre;" transform="translate(56.8359375, 24)" font-size="12px" font-family="Roboto, sans-serif"><tspan x="-44.84" y="0" dominant-baseline="ideographic">MakerDAO (Sky) </tspan><tspan x="-13.38" y="14" dominant-baseline="ideographic">ESM</tspan></text></g></g></g><g id="g-root-tx_makerdao_90w9kr1aet6h0-stroke" data-item-order="0" transform="translate(93.1640625, 386)"></g><g id="g-root-tx_corkprot_qtf88r1aet69y-fill" data-item-order="0" transform="translate(220.0859375, 386)"><g id="tx_corkprot_qtf88r1aet69y-fill-merged" stroke="none" fill="#de8431" fill-opacity="1"><g><text style="font: 12px Roboto, sans-serif; white-space: pre;" transform="translate(49.9140625, 24)" font-size="12px" font-family="Roboto, sans-serif"><tspan x="-37.91" y="0" dominant-baseline="ideographic">Cork Protocol </tspan><tspan x="-19.55" y="14" dominant-baseline="ideographic">Exploit</tspan></text></g></g></g><g id="g-root-tx_corkprot_qtf88r1aet69y-stroke" data-item-order="0" transform="translate(220.0859375, 386)"></g><g id="g-root-tx_liqwidma_1hhl75n1aet5a8-fill" data-item-order="0" transform="translate(338.8984375, 386)"><g id="tx_liqwidma_1hhl75n1aet5a8-fill-merged" stroke="none" fill="#e0cb15" fill-opacity="1"><g><text style="font: 12px Roboto, sans-serif; white-space: pre;" transform="translate(51.1015625, 24)" font-size="12px" font-family="Roboto, sans-serif"><tspan x="-39.1" y="0" dominant-baseline="ideographic">Liqwid Market </tspan><tspan x="-18.1" y="14" dominant-baseline="ideographic">Pause</tspan></text></g></g></g><g id="g-root-tx_liqwidma_1hhl75n1aet5a8-stroke" data-item-order="0" transform="translate(338.8984375, 386)"></g><g id="g-root-tx_soniclab_903uj1aet5aa-fill" data-item-order="0" transform="translate(455.546875, 386)"><g id="tx_soniclab_903uj1aet5aa-fill-merged" stroke="none" fill="#92bd39" fill-opacity="1"><g><text style="font: 12px Roboto, sans-serif; white-space: pre;" transform="translate(54.453125, 24)" font-size="12px" font-family="Roboto, sans-serif"><tspan x="-29.36" y="0" dominant-baseline="ideographic">Sonic Labs </tspan><tspan x="-42.45" y="14" dominant-baseline="ideographic">`freezeAccount`</tspan></text></g></g></g><g id="g-root-tx_soniclab_903uj1aet5aa-stroke" data-item-order="0" transform="translate(455.546875, 386)"></g><g id="g-root-tx_berachai_m7cz971aeuivg-fill" data-item-order="0" transform="translate(578.9609375, 386)"><g id="tx_berachai_m7cz971aeuivg-fill-merged" stroke="none" fill="#de58a9" fill-opacity="1"><g><text style="font: 12px Roboto, sans-serif; white-space: pre;" transform="translate(51.0390625, 17)" font-size="12px" font-family="Roboto, sans-serif"><tspan x="-39.04" y="7" dominant-baseline="ideographic">Berachain Halt</tspan></text></g></g></g><g id="g-root-tx_berachai_m7cz971aeuivg-stroke" data-item-order="0" transform="translate(578.9609375, 386)"></g><g id="g-root-tx_yearnyet_13zvxx71aeuioe-fill" data-item-order="0" transform="translate(705.640625, 386)"><g id="tx_yearnyet_13zvxx71aeuioe-fill-merged" stroke="none" fill="#969696" fill-opacity="1"><g><text style="font: 12px Roboto, sans-serif; white-space: pre;" transform="translate(44.359375, 24)" font-size="12px" font-family="Roboto, sans-serif"><tspan x="-32.36" y="0" dominant-baseline="ideographic">Yearn yETH </tspan><tspan x="-19.55" y="14" dominant-baseline="ideographic">Exploit</tspan></text></g></g></g><g id="g-root-tx_yearnyet_13zvxx71aeuioe-stroke" data-item-order="0" transform="translate(705.640625, 386)"></g><g id="g-root-tx_phylaxpr_1upav0b1aeujur-fill" data-item-order="0" transform="translate(942.9296875, 420)"><g id="tx_phylaxpr_1upav0b1aeujur-fill-merged" stroke="none" fill="#484848" fill-opacity="1"><g><text style="font: 10.5px Roboto, sans-serif; white-space: pre;" transform="translate(47.0703125, 40)" font-size="10.5px" font-family="Roboto, sans-serif"><tspan x="-26.95" y="-18" dominant-baseline="ideographic">Phylax pre-</tspan><tspan x="-23.96" y="-6" dominant-baseline="ideographic">execution </tspan><tspan x="-25.82" y="6" dominant-baseline="ideographic">prevention </tspan><tspan x="-35.07" y="18" dominant-baseline="ideographic">integrated into </tspan><tspan x="-25.68" y="30" dominant-baseline="ideographic">sequencer</tspan></text></g></g></g><g id="g-root-tx_phylaxpr_1upav0b1aeujur-stroke" data-item-order="0" transform="translate(942.9296875, 420)"></g><g id="g-root-tx_lineacre_mahcor1aeuk1u-fill" data-item-order="0" transform="translate(933.2421875, 386)"><g id="tx_lineacre_mahcor1aeuk1u-fill-merged" stroke="none" fill="#3cc583" fill-opacity="1"><g><text style="font: 12px Roboto, sans-serif; white-space: pre;" transform="translate(56.7578125, 24)" font-size="12px" font-family="Roboto, sans-serif"><tspan x="-37.85" y="0" dominant-baseline="ideographic">Linea Credible </tspan><tspan x="-44.76" y="14" dominant-baseline="ideographic">Layer Integration</tspan></text></g></g></g><g id="g-root-tx_lineacre_mahcor1aeuk1u-stroke" data-item-order="0" transform="translate(933.2421875, 386)"></g><g id="g-root-tx_keytrigg_4g2yrf1aeul8l-fill" data-item-order="0" transform="translate(580.03125, 406)"><g id="tx_keytrigg_4g2yrf1aeul8l-fill-merged" stroke="none" fill="#484848" fill-opacity="1"><g><text style="font: 10.5px Roboto, sans-serif; white-space: pre;" transform="translate(49.96875, 28)" font-size="10.5px" font-family="Roboto, sans-serif"><tspan x="-30.84" y="-6" dominant-baseline="ideographic">Key-triggered </tspan><tspan x="-21.63" y="6" dominant-baseline="ideographic">validator-</tspan><tspan x="-37.97" y="18" dominant-baseline="ideographic">coordinated halt</tspan></text></g></g></g><g id="g-root-tx_keytrigg_4g2yrf1aeul8l-stroke" data-item-order="0" transform="translate(580.03125, 406)"></g><g id="g-root-tx_emergenc_1hfprwb1aet69x-fill" data-item-order="0" transform="translate(94.4765625, 420)"><g id="tx_emergenc_1hfprwb1aet69x-fill-merged" stroke="none" fill="#484848" fill-opacity="1"><g><text style="font: 10.5px Roboto, sans-serif; white-space: pre;" transform="translate(55.5234375, 28)" font-size="10.5px" font-family="Roboto, sans-serif"><tspan x="-27.27" y="-6" dominant-baseline="ideographic">Emergency </tspan><tspan x="-43.52" y="6" dominant-baseline="ideographic">Shutdown Module </tspan><tspan x="-27.59" y="18" dominant-baseline="ideographic">deprecated</tspan></text></g></g></g><g id="g-root-tx_emergenc_1hfprwb1aet69x-stroke" data-item-order="0" transform="translate(94.4765625, 420)"></g><g id="g-root-tx_warroomc_4my6pn1aet5hr-fill" data-item-order="0" transform="translate(213.1328125, 420)"><g id="tx_warroomc_4my6pn1aet5hr-fill-merged" stroke="none" fill="#484848" fill-opacity="1"><g><text style="font: 10.5px Roboto, sans-serif; white-space: pre;" transform="translate(56.8671875, 28)" font-size="10.5px" font-family="Roboto, sans-serif"><tspan x="-23.98" y="-6" dominant-baseline="ideographic">War room </tspan><tspan x="-44.87" y="6" dominant-baseline="ideographic">convenes, markets </tspan><tspan x="-43.46" y="18" dominant-baseline="ideographic">paused in ~1 hour</tspan></text></g></g></g><g id="g-root-tx_warroomc_4my6pn1aet5hr-stroke" data-item-order="0" transform="translate(213.1328125, 420)"></g><g id="g-root-tx_features_qvani31aet5a9-fill" data-item-order="0" transform="translate(333.859375, 420)"><g id="tx_features_qvani31aet5a9-fill-merged" stroke="none" fill="#484848" fill-opacity="1"><g><text style="font: 10.5px Roboto, sans-serif; white-space: pre;" transform="translate(56.140625, 28)" font-size="10.5px" font-family="Roboto, sans-serif"><tspan x="-38.5" y="-6" dominant-baseline="ideographic">Feature-specific </tspan><tspan x="-44.14" y="6" dominant-baseline="ideographic">pause due to flash </tspan><tspan x="-14.19" y="18" dominant-baseline="ideographic">crash</tspan></text></g></g></g><g id="g-root-tx_features_qvani31aet5a9-stroke" data-item-order="0" transform="translate(333.859375, 420)"></g><g id="g-root-tx_deployed_1d3n4aj1aet4az-fill" data-item-order="0" transform="translate(465.359375, 420)"><g id="tx_deployed_1d3n4aj1aet4az-fill-merged" stroke="none" fill="#484848" fill-opacity="1"><g><text style="font: 10.5px Roboto, sans-serif; white-space: pre;" transform="translate(44.640625, 34)" font-size="10.5px" font-family="Roboto, sans-serif"><tspan x="-32.64" y="-12" dominant-baseline="ideographic">Deployed in 2 </tspan><tspan x="-24.47" y="0" dominant-baseline="ideographic">hours, but </tspan><tspan x="-30.38" y="12" dominant-baseline="ideographic">bypassed by </tspan><tspan x="-20.38" y="24" dominant-baseline="ideographic">attacker</tspan></text></g></g></g><g id="g-root-tx_deployed_1d3n4aj1aet4az-stroke" data-item-order="0" transform="translate(465.359375, 420)"></g><g id="g-root-tx_24mrecov_m8lxff1aeul1j-fill" data-item-order="0" transform="translate(691.3359375, 420)"><g id="tx_24mrecov_m8lxff1aeul1j-fill-merged" stroke="none" fill="#484848" fill-opacity="1"><g><text style="font: 10.5px Roboto, sans-serif; white-space: pre;" transform="translate(58.6640625, 28)" font-size="10.5px" font-family="Roboto, sans-serif"><tspan x="-46.66" y="-6" dominant-baseline="ideographic">$2.4M recovered by </tspan><tspan x="-35.77" y="6" dominant-baseline="ideographic">burning and re-</tspan><tspan x="-35.2" y="18" dominant-baseline="ideographic">minting pxETH</tspan></text></g></g></g><g id="g-root-tx_24mrecov_m8lxff1aeul1j-stroke" data-item-order="0" transform="translate(691.3359375, 420)"></g><g id="g-root-tx_governan_1cwrwcb1aeuk1t-fill" data-item-order="0" transform="translate(821.875, 420)"><g id="tx_governan_1cwrwcb1aeuk1t-fill-merged" stroke="none" fill="#484848" fill-opacity="1"><g><text style="font: 10.5px Roboto, sans-serif; white-space: pre;" transform="translate(48.125, 28)" font-size="10.5px" font-family="Roboto, sans-serif"><tspan x="-29.25" y="-6" dominant-baseline="ideographic">Governance-</tspan><tspan x="-32.27" y="6" dominant-baseline="ideographic">approved fork </tspan><tspan x="-36.13" y="18" dominant-baseline="ideographic">recovers $9.4M</tspan></text></g></g></g><g id="g-root-tx_governan_1cwrwcb1aeuk1t-stroke" data-item-order="0" transform="translate(821.875, 420)"></g><g id="g-root-tx_gnosisch_1unffqz1aeukug-fill" data-item-order="0" transform="translate(821.296875, 386)"><g id="tx_gnosisch_1unffqz1aeukug-fill-merged" stroke="none" fill="#4e88e7" fill-opacity="1"><g><text style="font: 12px Roboto, sans-serif; white-space: pre;" transform="translate(48.703125, 24)" font-size="12px" font-family="Roboto, sans-serif"><tspan x="-36.7" y="0" dominant-baseline="ideographic">Gnosis Chain </tspan><tspan x="-27.64" y="14" dominant-baseline="ideographic">Hard Fork</tspan></text></g></g></g><g id="g-root-tx_gnosisch_1unffqz1aeukug-stroke" data-item-order="0" transform="translate(821.296875, 386)"></g></g></g></svg>