<?xml version="1.0" encoding="utf-8" standalone="yes"?>
<!DOCTYPE svg PUBLIC "-//W3C//DTD SVG 1.1//EN" "http://www.w3.org/Graphics/SVG/1.1/DTD/svg11.dtd">
<svg style="fill:none;stroke:none;fill-rule:evenodd;clip-rule:evenodd;stroke-linecap:round;stroke-linejoin:round;stroke-miterlimit:1.5;" version="1.1" xmlns="http://www.w3.org/2000/svg" xmlns:xlink="http://www.w3.org/1999/xlink" width="924" height="774" viewBox="0 0 924 774"><style class="text-font-style fontImports" data-font-family="Roboto">@import url(https://fonts.googleapis.com/css2?family=Roboto:wght@400;700&amp;amp;display=block);</style><g id="items" style="isolation: isolate"><g id="blend" style="mix-blend-mode: normal"><g id="g-root-sy_4_cu_cu_1ly19jt15f8w0e-fill" data-item-order="-504566" transform="translate(314, 140)"><g id="sy_4_cu_cu_1ly19jt15f8w0e-fill-merged" stroke="none" fill="#edf4ff" fill-opacity="1"><g><path d="M298 586C457.058 586 586 457.058 586 298C586 138.942 457.058 10 298 10C138.942 10 10 138.942 10 298C10 457.058 138.942 586 298 586 M298 586C417.293 586 514 489.293 514 370C514 250.706 417.293 154 298 154C178.706 154 82 250.706 82 370C82 489.293 178.706 586 298 586"></path></g></g></g><g id="g-root-sy_4_cu_cu_1ly19jt15f8w0e-stroke" data-item-order="-504566" transform="translate(314, 140)"><g id="sy_4_cu_cu_1ly19jt15f8w0e-stroke" fill="none" stroke-linecap="round" stroke-linejoin="round" stroke-miterlimit="4" stroke="#4e88e7" stroke-width="2" stroke-opacity="1"><g><path d="M 298 586C 457.058 586 586 457.058 586 298C 586 138.942 457.058 10 298 10C 138.942 10 10 138.942 10 298C 10 457.058 138.942 586 298 586ZM 298 586C 417.2935 586 514 489.2935 514 370C 514 250.7065 417.2935 154 298 154C 178.7065 154 82 250.7065 82 370C 82 489.2935 178.7065 586 298 586Z"></path></g></g></g><g id="g-root-sy_4_Subtract_1ly19jt15f8w0f-fill" data-item-order="-504561" transform="translate(14, 200)"></g><g id="g-root-sy_4_Subtract_1ly19jt15f8w0f-stroke" data-item-order="-504561" transform="translate(14, 200)"><g id="sy_4_Subtract_1ly19jt15f8w0f-stroke" fill="none" stroke-linecap="round" stroke-linejoin="round" stroke-miterlimit="4" stroke="#4e88e7" stroke-width="2" stroke-opacity="1"><style>.fillAsHole-mk-4lp24q14l33t1 { fill:#FFFFFF; }</style><g><path d="M 13 10L 422 10"></path><path d="M 7 10C 7 11.656854 8.343146 13 10 13C 11.656854 13 13 11.656854 13 10C 13 8.343146 11.656854 7 10 7C 8.343146 7 7 8.343146 7 10Z" stroke-dasharray="none" class="fillAsHole-mk-4lp24q14l33t1" fill="#FFFFFF"></path></g></g></g><g id="g-root-sy_3_cu_cu_1hi7rfd15f8wso-fill" data-item-order="-504558" transform="translate(386, 284)"><g id="sy_3_cu_cu_1hi7rfd15f8wso-fill-merged" stroke="none" fill="#e8f9ff" fill-opacity="1"><g><path d="M226 442C345.293 442 442 345.293 442 226C442 106.706 345.293 10 226 10C106.706 10 10 106.706 10 226C10 345.293 106.706 442 226 442 M226 442C146.471 442 82 377.529 82 298C82 218.471 146.471 154 226 154C305.529 154 370 218.471 370 298C370 377.529 305.529 442 226 442"></path></g></g></g><g id="g-root-sy_3_cu_cu_1hi7rfd15f8wso-stroke" data-item-order="-504558" transform="translate(386, 284)"><g id="sy_3_cu_cu_1hi7rfd15f8wso-stroke" fill="none" stroke-linecap="round" stroke-linejoin="round" stroke-miterlimit="4" stroke="#1eabda" stroke-width="2" stroke-opacity="1"><g><path d="M 226 442C 345.2935 442 442 345.2935 442 226C 442 106.7065 345.2935 10 226 10C 106.7065 10 10 106.7065 10 226C 10 345.2935 106.7065 442 226 442ZM 226 442C 146.471 442 82 377.529 82 298C 82 218.471 146.471 154 226 154C 305.529 154 370 218.471 370 298C 370 377.529 305.529 442 226 442Z"></path></g></g></g><g id="g-root-sy_3_Subtract_1hi7rfd15f8wsp-fill" data-item-order="-504553" transform="translate(14, 344)"></g><g id="g-root-sy_3_Subtract_1hi7rfd15f8wsp-stroke" data-item-order="-504553" transform="translate(14, 344)"><g id="sy_3_Subtract_1hi7rfd15f8wsp-stroke" fill="none" stroke-linecap="round" stroke-linejoin="round" stroke-miterlimit="4" stroke="#1eabda" stroke-width="2" stroke-opacity="1"><style>.fillAsHole-mk-4lp24q14l33t0 { fill:#FFFFFF; }</style><g><path d="M 13 10L 448 10"></path><path d="M 7 10C 7 11.656854 8.343146 13 10 13C 11.656854 13 13 11.656854 13 10C 13 8.343146 11.656854 7 10 7C 8.343146 7 7 8.343146 7 10Z" stroke-dasharray="none" class="fillAsHole-mk-4lp24q14l33t0" fill="#FFFFFF"></path></g></g></g><g id="g-root-sy_2_cu_cu_1d2e9ax15f8xky-fill" data-item-order="-504550" transform="translate(458, 428)"><g id="sy_2_cu_cu_1d2e9ax15f8xky-fill-merged" stroke="none" fill="#e3fff2" fill-opacity="1"><g><path d="M154 298C233.529 298 298 233.529 298 154C298 74.471 233.529 10 154 10C74.471 10 10 74.471 10 154C10 233.529 74.471 298 154 298 M154 298C114.235 298 82 265.764 82 226C82 186.236 114.235 154 154 154C193.764 154 226 186.236 226 226C226 265.764 193.764 298 154 298"></path></g></g></g><g id="g-root-sy_2_cu_cu_1d2e9ax15f8xky-stroke" data-item-order="-504550" transform="translate(458, 428)"><g id="sy_2_cu_cu_1d2e9ax15f8xky-stroke" fill="none" stroke-linecap="round" stroke-linejoin="round" stroke-miterlimit="4" stroke="#3cc583" stroke-width="2" stroke-opacity="1"><g><path d="M 154 298C 233.529 298 298 233.529 298 154C 298 74.471 233.529 10 154 10C 74.471 10 10 74.471 10 154C 10 233.529 74.471 298 154 298ZM 154 298C 114.2355 298 82 265.7645 82 226C 82 186.2355 114.2355 154 154 154C 193.7645 154 226 186.2355 226 226C 226 265.7645 193.7645 298 154 298Z"></path></g></g></g><g id="g-root-sy_2_Subtract_1d2e9ax15f8xkz-fill" data-item-order="-504545" transform="translate(14, 488)"></g><g id="g-root-sy_2_Subtract_1d2e9ax15f8xkz-stroke" data-item-order="-504545" transform="translate(14, 488)"><g id="sy_2_Subtract_1d2e9ax15f8xkz-stroke" fill="none" stroke-linecap="round" stroke-linejoin="round" stroke-miterlimit="4" stroke="#3cc583" stroke-width="2" stroke-opacity="1"><style>.fillAsHole-mk-4lp24q14l33sz { fill:#FFFFFF; }</style><g><path d="M 481 10L 13 10"></path><path d="M 7 10C 7 11.656854 8.343146 13 10 13C 11.656854 13 13 11.656854 13 10C 13 8.343146 11.656854 7 10 7C 8.343146 7 7 8.343146 7 10Z" stroke-dasharray="none" class="fillAsHole-mk-4lp24q14l33sz" fill="#FFFFFF"></path></g></g></g><g id="g-root-sy_1_cu_cu_1d2e9ax15f8xl0-fill" data-item-order="-504542" transform="translate(530, 572)"><g id="sy_1_cu_cu_1d2e9ax15f8xl0-fill-merged" stroke="none" fill="#f4ffdc" fill-opacity="1"><g><path d="M154 82C154 121.765 121.765 154 82 154C42.236 154 10 121.765 10 82C10 42.236 42.236 10 82 10C121.765 10 154 42.236 154 82"></path></g></g></g><g id="g-root-sy_1_cu_cu_1d2e9ax15f8xl0-stroke" data-item-order="-504542" transform="translate(530, 572)"><g id="sy_1_cu_cu_1d2e9ax15f8xl0-stroke" fill="none" stroke-linecap="round" stroke-linejoin="round" stroke-miterlimit="4" stroke="#92bd39" stroke-width="2" stroke-opacity="1"><g><path d="M 154 82C 154 121.7645 121.7645 154 82 154C 42.2355 154 10 121.7645 10 82C 10 42.2355 42.2355 10 82 10C 121.7645 10 154 42.2355 154 82Z"></path></g></g></g><g id="g-root-sy_1_Subtract_147dq5515f8v7x-fill" data-item-order="-504537" transform="translate(14, 632)"></g><g id="g-root-sy_1_Subtract_147dq5515f8v7x-stroke" data-item-order="-504537" transform="translate(14, 632)"><g id="sy_1_Subtract_147dq5515f8v7x-stroke" fill="none" stroke-linecap="round" stroke-linejoin="round" stroke-miterlimit="4" stroke="#92bd39" stroke-width="2" stroke-opacity="1"><style>.fillAsHole-mk-4lp24q14l33sy { fill:#FFFFFF; }</style><g><path d="M 13 10L 527 10"></path><path d="M 7 10C 7 11.656854 8.343146 13 10 13C 11.656854 13 13 11.656854 13 10C 13 8.343146 11.656854 7 10 7C 8.343146 7 7 8.343146 7 10Z" stroke-dasharray="none" class="fillAsHole-mk-4lp24q14l33sy" fill="#FFFFFF"></path></g></g></g><g id="g-root-tx_decision_147dq5515f8v7y-fill" data-item-order="0" transform="translate(200.5078125, 38)"><g id="tx_decision_147dq5515f8v7y-fill-merged" stroke="none" fill="#484848" fill-opacity="1"><g><text style="font: bold 25px Roboto, sans-serif; white-space: pre;" transform="translate(261.4921875, 25)" font-weight="bold" font-size="25px" font-family="Roboto, sans-serif"><tspan x="-249.49" y="14.5" dominant-baseline="ideographic">Decision Optimization in Crisis Management</tspan></text></g></g></g><g id="g-root-tx_decision_147dq5515f8v7y-stroke" data-item-order="0" transform="translate(200.5078125, 38)"></g><g id="g-root-tx_riskvsri_i0wom115f8v7k-fill" data-item-order="0" transform="translate(26, 164)"><g id="tx_riskvsri_i0wom115f8v7k-fill-merged" stroke="none" fill="#4e88e7" fill-opacity="1"><g><text style="font: 20px Roboto, sans-serif; white-space: pre;" transform="translate(10, 22)" font-size="20px" font-family="Roboto, sans-serif"><tspan x="2" y="11.5" dominant-baseline="ideographic">Risk vs Risk</tspan></text></g></g></g><g id="g-root-tx_riskvsri_i0wom115f8v7k-stroke" data-item-order="0" transform="translate(26, 164)"></g><g id="g-root-ic_expe_v302op15fd53i-fill" data-item-order="0" transform="translate(578, 188)"></g><g id="g-root-ic_expe_v302op15fd53i-stroke" data-item-order="0" transform="translate(578, 188)"><g id="ic_expe_v302op15fd53i-stroke" fill="none" stroke-linecap="round" stroke-linejoin="round" stroke-miterlimit="4" stroke="#4e88e7" stroke-width="2" stroke-opacity="1"><g><path d="M 10.9999 35.997387L 56.995281 51.995781M 56.995281 28.998093C 56.995281 28.445864 56.547607 27.998192 55.99538 27.998192L 50.995884 27.998192L 50.995884 22.998693C 50.995884 22.446465 50.54821 21.998795 49.995983 21.998795L 43.996586 21.998795C 43.444355 21.998795 42.996685 22.446465 42.996685 22.998693L 42.996685 27.998192L 37.997189 27.998192C 37.444958 27.998192 36.997288 28.445864 36.997288 28.998093L 36.997288 34.99749C 36.997288 35.549717 37.444958 35.997387 37.997189 35.997387L 42.996685 35.997387L 42.996685 40.996887C 42.996685 41.549114 43.444355 41.996788 43.996586 41.996788L 49.995983 41.996788C 50.54821 41.996788 50.995884 41.549114 50.995884 40.996887L 50.995884 35.997387L 55.99538 35.997387C 56.547607 35.997387 56.995281 35.549717 56.995281 34.99749ZM 10.9999 23.998594C 10.9999 29.520887 15.476603 33.997589 20.998896 33.997589C 26.521189 33.997589 30.99789 29.520887 30.99789 23.998594C 30.99789 18.476301 26.521189 13.999599 20.998896 13.999599C 15.476603 13.999599 10.9999 18.476301 10.9999 23.998594ZM 20.998896 27.998192L 20.998896 29.997992M 20.998896 17.999197L 20.998896 19.998995M 16.999296 27.998192L 22.998693 27.998192C 24.103153 27.998192 24.998493 27.102852 24.998493 25.998394C 24.998493 24.893934 24.103153 23.998594 22.998693 23.998594L 18.999096 23.998594C 17.894638 23.998594 16.999296 23.103252 16.999296 21.998795C 16.999296 20.894337 17.894638 19.998995 18.999096 19.998995L 24.998493 19.998995M 33.219669 44.430538C 33.409496 44.195473 33.695442 44.058842 33.997589 44.058842C 34.29974 44.058842 34.585682 44.195473 34.775513 44.430538L 41.17487 52.365742C 41.417953 52.665394 41.466938 53.078171 41.300732 53.426392C 41.134529 53.774609 40.782795 53.996124 40.396946 53.995583L 27.598232 53.995583C 27.212383 53.996124 26.860651 53.774609 26.694447 53.426392C 26.528242 53.078171 26.577225 52.665394 26.820311 52.365742Z"></path></g></g></g><g id="g-root-tx_evaluati_qvx7rt15f8wsv-fill" data-item-order="0" transform="translate(26, 212)"><g id="tx_evaluati_qvx7rt15f8wsv-fill-merged" stroke="none" fill="#484848" fill-opacity="1"><g><text style="font: 15px Roboto, sans-serif; white-space: pre;" transform="translate(10, 28)" font-size="15px" font-family="Roboto, sans-serif"><tspan x="2" y="-0.5" dominant-baseline="ideographic">Evaluating trade-offs between </tspan><tspan x="2" y="17.5" dominant-baseline="ideographic">actions</tspan></text></g></g></g><g id="g-root-tx_evaluati_qvx7rt15f8wsv-stroke" data-item-order="0" transform="translate(26, 212)"></g><g id="g-root-tx_legitima_1uux7yx15f8xe2-fill" data-item-order="0" transform="translate(26, 308)"><g id="tx_legitima_1uux7yx15f8xe2-fill-merged" stroke="none" fill="#1eabda" fill-opacity="1"><g><text style="font: 20px Roboto, sans-serif; white-space: pre;" transform="translate(10, 22)" font-size="20px" font-family="Roboto, sans-serif"><tspan x="2" y="11.5" dominant-baseline="ideographic">Legitimacy Cost</tspan></text></g></g></g><g id="g-root-tx_legitima_1uux7yx15f8xe2-stroke" data-item-order="0" transform="translate(26, 308)"></g><g id="g-root-ic_conf_v8mcgp15fbnyb-fill" data-item-order="0" transform="translate(578, 332)"></g><g id="g-root-ic_conf_v8mcgp15fbnyb-stroke" data-item-order="0" transform="translate(578, 332)"><g id="ic_conf_v8mcgp15fbnyb-stroke" fill="none" stroke-linecap="round" stroke-linejoin="round" stroke-miterlimit="4" stroke="#1eabda" stroke-width="2" stroke-opacity="1"><g><path d="M 10 10M 56.40934 44.264561L 54.369545 42.224762C 54.369545 42.224762 54.19556 39.545033 53.443638 38.805107L 46.594322 32.045788C 45.665237 31.128864 44.171749 31.128864 43.242661 32.045788C 42.800297 32.482414 42.551292 33.078064 42.551292 33.699619C 42.551292 34.321175 42.800297 34.916821 43.242661 35.353451L 41.56683 33.699619C 40.637299 32.783779 39.144699 32.783779 38.215168 33.699619C 37.7728 34.13625 37.523796 34.731895 37.523796 35.353451C 37.523796 35.97501 37.7728 36.570656 38.215164 37.007286L 37.37925 36.183372C 36.450161 35.266449 34.956673 35.266449 34.027584 36.183369C 33.58522 36.619999 33.33622 37.215649 33.33622 37.837204C 33.33622 38.458759 33.58522 39.054405 34.027584 39.491035L 34.867504 40.318954C 33.938175 39.400715 32.443165 39.400715 31.513838 40.318954C 31.071474 40.755585 30.82247 41.351231 30.82247 41.97279C 30.82247 42.594345 31.071474 43.189991 31.513838 43.626621L 34.027588 46.106373C 33.140484 46.979267 32.640541 48.171494 32.639725 49.416039C 32.639725 50.655914 33.139675 51.845795 34.027588 52.723709C 36.357353 55.023476 40.674919 56.629314 44.280556 56.393337M 34.025585 46.104374L 36.539333 48.584126M 36.537334 41.968788L 34.861504 40.314957M 39.890995 38.661121L 38.215168 37.007286M 11.58584 23.730621L 13.625636 25.770416C 13.625636 25.770416 13.799619 28.450146 14.551543 29.190071L 21.400856 35.949394C 22.329943 36.866314 23.823431 36.866314 24.752518 35.949394C 25.194881 35.512764 25.443886 34.917114 25.443886 34.295559C 25.443886 33.674004 25.194881 33.078354 24.752518 32.641724L 26.42835 34.295559C 27.357882 35.211403 28.850483 35.211403 29.780014 34.295559C 30.222376 33.858929 30.47138 33.263279 30.47138 32.641724C 30.47138 32.020168 30.222376 31.424522 29.780012 30.987892L 30.615929 31.811808C 31.545017 32.728729 33.038502 32.728729 33.96759 31.811808C 34.409954 31.375177 34.658958 30.77953 34.658958 30.157974C 34.658958 29.536419 34.409954 28.940771 33.96759 28.504141L 33.127678 27.676224C 34.057003 28.594461 35.552013 28.594461 36.481339 27.676224C 36.923702 27.239594 37.172707 26.643946 37.172707 26.02239C 37.172707 25.400835 36.923702 24.805185 36.481339 24.368557L 33.96759 21.888805C 34.854694 21.015909 35.354633 19.823685 35.355453 18.579138C 35.355453 17.339264 34.855503 16.147383 33.96759 15.27147C 31.637827 12.971702 27.31826 11.365863 23.714622 11.599839M 33.971592 21.890806L 31.455845 19.411055M 31.457844 26.02639L 33.133675 27.680223M 28.104183 29.334059L 29.780012 30.987892M 38.955093 13.999599L 40.282959 12.473751C 40.488346 12.238123 40.785755 12.103048 41.098331 12.103432C 41.410908 12.103815 41.707989 12.239619 41.912796 12.475751L 44.568527 15.531445C 44.830822 15.833601 45.238682 15.965964 45.628422 15.87541L 49.572025 14.963502C 49.87709 14.892771 50.197838 14.957951 50.451096 15.14214C 50.704357 15.32633 50.865192 15.611389 50.891891 15.923406L 51.243858 19.957001C 51.277813 20.355127 51.529613 20.701645 51.897793 20.856909L 55.62542 22.43675C 55.915462 22.558538 56.137985 22.800747 56.23481 23.100052C 56.331631 23.399357 56.293129 23.726004 56.129368 23.994595L 54.043575 27.466246C 53.838913 27.807903 53.838913 28.234478 54.043575 28.576136L 56.129364 32.047783C 56.293797 32.315907 56.332664 32.642559 56.235748 32.94178C 56.138824 33.241005 55.915821 33.48283 55.625416 33.603626L 54.693512 33.999592M 29.094082 53.995583L 27.766214 55.525425C 27.560829 55.761055 27.26342 55.896133 26.950842 55.895752C 26.638266 55.895367 26.341187 55.75956 26.136379 55.523426L 23.480646 52.465736C 23.218098 52.163967 22.810471 52.031677 22.420752 52.121769L 18.477148 53.035679C 18.172085 53.106411 17.851339 53.041229 17.598078 52.85704C 17.344816 52.672848 17.183985 52.387791 17.157282 52.075775L 16.805317 48.042179C 16.770924 47.644211 16.519268 47.297897 16.151382 47.142265L 12.421757 45.560429C 12.132647 45.438156 11.911047 45.196136 11.814667 44.897396C 11.718287 44.598656 11.756664 44.272766 11.919807 44.004585L 14.005598 40.532932C 14.211062 40.190781 14.211062 39.763199 14.005598 39.421043L 11.919807 35.951393C 11.756664 35.683216 11.718287 35.357323 11.814667 35.058582C 11.911047 34.759842 12.132647 34.517822 12.421757 34.39555L 13.355663 33.997589"></path></g></g></g><g id="g-root-tx_balancin_4pg68p15f8wsh-fill" data-item-order="0" transform="translate(26, 356)"><g id="tx_balancin_4pg68p15f8wsh-fill-merged" stroke="none" fill="#484848" fill-opacity="1"><g><text style="font: 15px Roboto, sans-serif; white-space: pre;" transform="translate(10, 19)" font-size="15px" font-family="Roboto, sans-serif"><tspan x="2" y="8.5" dominant-baseline="ideographic">Balancing action with public trust</tspan></text></g></g></g><g id="g-root-tx_balancin_4pg68p15f8wsh-stroke" data-item-order="0" transform="translate(26, 356)"></g><g id="g-root-tx_blastrad_1cua36h15fab5w-fill" data-item-order="0" transform="translate(26, 452)"><g id="tx_blastrad_1cua36h15fab5w-fill-merged" stroke="none" fill="#3cc583" fill-opacity="1"><g><text style="font: 20px Roboto, sans-serif; white-space: pre;" transform="translate(10, 22)" font-size="20px" font-family="Roboto, sans-serif"><tspan x="2" y="11.5" dominant-baseline="ideographic">Blast Radius</tspan></text></g></g></g><g id="g-root-tx_blastrad_1cua36h15fab5w-stroke" data-item-order="0" transform="translate(26, 452)"></g><g id="g-root-ic_2_qqxf2x15fbpq9-fill" data-item-order="0" transform="translate(578, 476)"></g><g id="g-root-ic_2_qqxf2x15fbpq9-stroke" data-item-order="0" transform="translate(578, 476)"><g id="ic_2_qqxf2x15fbpq9-stroke" fill="none" stroke-linecap="round" stroke-linejoin="round" stroke-miterlimit="4" stroke="#3cc583" stroke-width="2" stroke-opacity="1"><g><path d="M 52.995682 41.582829L 52.995682 54.99548C 52.995682 56.099937 52.100338 56.995281 50.995884 56.995281L 32.997688 56.995281C 31.89323 56.995281 30.99789 56.099937 30.99789 54.99548L 30.99789 51.995781M 46.996284 35.583431L 56.995281 45.582424M 44.996487 56.995281L 44.996487 48.996082C 44.996487 47.339397 43.653477 45.996384 41.996788 45.996384C 40.340099 45.996384 38.997086 47.339397 38.997086 48.996082L 38.997086 56.995281M 23.9286 23.598635C 22.365896 25.160706 22.365896 27.693995 23.9286 29.256065L 27.170277 32.497742C 28.739634 34.013477 31.234207 33.991798 32.776985 32.44902C 34.319767 30.906239 34.341446 28.411665 32.825706 26.842308L 29.584034 23.598635C 28.02219 22.037264 25.490444 22.037264 23.9286 23.598635ZM 23.9286 23.604633L 18.27117 25.018492L 14.321566 21.068888L 19.978996 19.655031L 21.392857 13.999599L 25.342459 17.949202L 23.9286 23.604633ZM 10.9999 10.9999L 14.999497 14.999497M 31.997791 14.999497L 38.997086 13.999599L 37.997189 21.998795L 46.996284 23.998594L 40.996887 30.99789L 42.996685 38.997086L 34.99749 37.997189L 31.997791 45.996384L 25.998394 39.996986L 18.999096 43.790604L 17.999197 36.997288"></path></g></g></g><g id="g-root-tx_minimizi_1ha3lax15faadn-fill" data-item-order="0" transform="translate(26, 500)"><g id="tx_minimizi_1ha3lax15faadn-fill-merged" stroke="none" fill="#484848" fill-opacity="1"><g><text style="font: 15px Roboto, sans-serif; white-space: pre;" transform="translate(10, 19)" font-size="15px" font-family="Roboto, sans-serif"><tspan x="2" y="8.5" dominant-baseline="ideographic">Minimizing collateral disruption</tspan></text></g></g></g><g id="g-root-tx_minimizi_1ha3lax15faadn-stroke" data-item-order="0" transform="translate(26, 500)"></g><g id="g-root-tx_crisisco_zjg1w915fa9l2-fill" data-item-order="0" transform="translate(26, 596)"><g id="tx_crisisco_zjg1w915fa9l2-fill-merged" stroke="none" fill="#92bd39" fill-opacity="1"><g><text style="font: 20px Roboto, sans-serif; white-space: pre;" transform="translate(10, 22)" font-size="20px" font-family="Roboto, sans-serif"><tspan x="2" y="11.5" dominant-baseline="ideographic">Crisis Containment</tspan></text></g></g></g><g id="g-root-tx_crisisco_zjg1w915fa9l2-stroke" data-item-order="0" transform="translate(26, 596)"></g><g id="g-root-ic_wind_qnt1nd15faadr-fill" data-item-order="0" transform="translate(578, 620)"></g><g id="g-root-ic_wind_qnt1nd15faadr-stroke" data-item-order="0" transform="translate(578, 620)"><g id="ic_wind_qnt1nd15faadr-stroke" fill="none" stroke-linecap="round" stroke-linejoin="round" stroke-miterlimit="4" stroke="#92bd39" stroke-width="2" stroke-opacity="1"><g><path d="M 44.292557 30.033987L 44.292557 16.811316C 44.299 15.8262 43.726711 14.929014 42.830704 14.519546C 38.118176 12.462029 33.024086 11.423449 27.882204 11.471852C 22.740337 11.423629 17.646288 12.462202 12.933705 14.519546C 12.038827 14.930006 11.467562 15.826813 11.473852 16.811316L 11.473852 29.626028C 11.473376 37.917252 16.579788 45.35228 24.318562 48.328152L 26.070387 49.002083C 27.237432 49.44997 28.528973 49.44997 29.696022 49.002079L 31.447847 48.328152M 26.656328 43.120674C 20.854292 41.098377 16.948967 35.648212 16.899307 29.504042L 16.899307 18.133183C 20.324226 17.031734 23.900572 16.47369 27.498243 16.479349L 28.282164 16.479349C 31.880424 16.474127 35.457111 17.034924 38.8811 18.141182L 38.8811 29.504042C 38.83168 35.649986 34.924377 41.101482 29.120079 43.122673L 27.898201 43.59063ZM 16.995296 31.179873L 34.349552 17.191278M 20.402956 38.827103L 38.865101 23.944599M 37.523235 49.995983L 48.502132 49.995983C 49.97683 49.998177 51.266605 50.989594 51.647991 52.414124C 52.029377 53.838654 51.407486 55.341873 50.131149 56.080593C 48.854813 56.819313 47.241585 56.609737 46.196365 55.569424M 47.130268 38.289158C 48.093876 36.0382 50.572868 34.845928 52.932877 35.49839C 55.292885 36.150852 56.807396 38.447193 56.477901 40.873463C 56.148415 43.299732 54.076359 45.109016 51.627819 45.108475L 37.523235 45.108475"></path></g></g></g><g id="g-root-tx_theultim_13yn2xl15fabyl-fill" data-item-order="0" transform="translate(26, 644)"><g id="tx_theultim_13yn2xl15fabyl-fill-merged" stroke="none" fill="#484848" fill-opacity="1"><g><text style="font: 15px Roboto, sans-serif; white-space: pre;" transform="translate(10, 28)" font-size="15px" font-family="Roboto, sans-serif"><tspan x="2" y="-0.5" dominant-baseline="ideographic">The ultimate goal of crisis </tspan><tspan x="2" y="17.5" dominant-baseline="ideographic">management</tspan></text></g></g></g><g id="g-root-tx_theultim_13yn2xl15fabyl-stroke" data-item-order="0" transform="translate(26, 644)"></g></g></g></svg>