<?xml version="1.0" encoding="utf-8" standalone="yes"?>
<!DOCTYPE svg PUBLIC "-//W3C//DTD SVG 1.1//EN" "http://www.w3.org/Graphics/SVG/1.1/DTD/svg11.dtd">
<svg style="fill:none;stroke:none;fill-rule:evenodd;clip-rule:evenodd;stroke-linecap:round;stroke-linejoin:round;stroke-miterlimit:1.5;" version="1.1" xmlns="http://www.w3.org/2000/svg" xmlns:xlink="http://www.w3.org/1999/xlink" width="1056" height="486" viewBox="0 0 1056 486"><style class="text-font-style fontImports" data-font-family="Roboto">@import url(https://fonts.googleapis.com/css2?family=Roboto:wght@400;700&amp;amp;display=block);</style><g id="items" style="isolation: isolate"><g id="blend" style="mix-blend-mode: normal"><g id="g-root-cp_-1_water_1cuwdyh15f7ifa-fill" data-item-order="-393109" transform="translate(278, 398.00390625)"></g><g id="g-root-cp_-1_water_1cuwdyh15f7ifa-stroke" data-item-order="-393109" transform="translate(278, 398.00390625)"><g id="cp_-1_water_1cuwdyh15f7ifa-stroke" fill="none" stroke-linecap="round" stroke-linejoin="round" stroke-miterlimit="4" stroke="#484848" stroke-width="2" stroke-opacity="1"><g><path d="M 10 15.9969C 11.8414 15.9966 13.6576 15.5692 15.3059 14.7485C 16.9543 13.9278 18.3899 12.7361 19.5 11.267C 19.7879 10.8743 20.1643 10.5549 20.5986 10.3348C 21.033 10.1147 21.5131 10 22 10C 22.4869 10 22.967 10.1147 23.4014 10.3348C 23.8357 10.5549 24.2121 10.8743 24.5 11.267C 25.6104 12.7355 27.0462 13.9266 28.6945 14.7468C 30.3429 15.5669 32.1589 15.9938 34 15.9938C 35.8411 15.9938 37.6571 15.5669 39.3055 14.7468C 40.9538 13.9266 42.3896 12.7355 43.5 11.267C 43.7879 10.8743 44.1643 10.5549 44.5986 10.3348C 45.033 10.1147 45.5131 10 46 10C 46.4869 10 46.967 10.1147 47.4014 10.3348C 47.8357 10.5549 48.2121 10.8743 48.5 11.267C 49.6104 12.7355 51.0462 13.9266 52.6945 14.7468C 54.3429 15.5669 56.1589 15.9938 58 15.9938C 59.8411 15.9938 61.6571 15.5669 63.3055 14.7468C 64.9538 13.9266 66.3896 12.7355 67.5 11.267C 67.7879 10.8743 68.1643 10.5549 68.5986 10.3348C 69.033 10.1147 69.5131 10 70 10C 70.4869 10 70.967 10.1147 71.4014 10.3348C 71.8357 10.5549 72.2121 10.8743 72.5 11.267C 73.6104 12.7355 75.0462 13.9266 76.6945 14.7468C 78.3429 15.5669 80.1589 15.9938 82 15.9938C 83.8411 15.9938 85.6571 15.5669 87.3055 14.7468C 88.9538 13.9266 90.3896 12.7355 91.5 11.267C 91.7879 10.8743 92.1643 10.5549 92.5986 10.3348C 93.033 10.1147 93.5131 10 94 10C 94.4869 10 94.967 10.1147 95.4014 10.3348C 95.8357 10.5549 96.2121 10.8743 96.5 11.267C 97.6104 12.7355 99.0462 13.9266 100.6945 14.7468C 102.3429 15.5669 104.1589 15.9938 106 15.9938C 107.8411 15.9938 109.6571 15.5669 111.3055 14.7468C 112.9538 13.9266 114.3896 12.7355 115.5 11.267C 115.7879 10.8743 116.1643 10.5549 116.5986 10.3348C 117.033 10.1147 117.5131 10 118 10C 118.4869 10 118.967 10.1147 119.4014 10.3348C 119.8357 10.5549 120.2121 10.8743 120.5 11.267C 121.6104 12.7355 123.0462 13.9266 124.6945 14.7468C 126.3429 15.5669 128.1589 15.9938 130 15.9938C 131.8411 15.9938 133.6571 15.5669 135.3055 14.7468C 136.9538 13.9266 138.3896 12.7355 139.5 11.267C 139.7879 10.8743 140.1643 10.5549 140.5986 10.3348C 141.033 10.1147 141.5131 10 142 10C 142.4869 10 142.967 10.1147 143.4014 10.3348C 143.8357 10.5549 144.2121 10.8743 144.5 11.267C 145.6104 12.7355 147.0462 13.9266 148.6945 14.7468C 150.3429 15.5669 152.1589 15.9938 154 15.9938C 155.8411 15.9938 157.6571 15.5669 159.3055 14.7468C 160.9538 13.9266 162.3896 12.7355 163.5 11.267C 163.7879 10.8743 164.1643 10.5549 164.5986 10.3348C 165.033 10.1147 165.5131 10 166 10C 166.4869 10 166.967 10.1147 167.4014 10.3348C 167.8357 10.5549 168.2121 10.8743 168.5 11.267C 169.6104 12.7355 171.0462 13.9266 172.6945 14.7468C 174.3429 15.5669 176.1589 15.9938 178 15.9938C 179.8411 15.9938 181.6571 15.5669 183.3055 14.7468C 184.9538 13.9266 186.3896 12.7355 187.5 11.267C 187.7879 10.8743 188.1643 10.5549 188.5986 10.3348C 189.033 10.1147 189.5131 10 190 10C 190.4869 10 190.967 10.1147 191.4014 10.3348C 191.8357 10.5549 192.2121 10.8743 192.5 11.267C 193.6104 12.7355 195.0462 13.9266 196.6945 14.7468C 198.3429 15.5669 200.1589 15.9938 202 15.9938C 203.8411 15.9938 205.6571 15.5669 207.3055 14.7468C 208.9538 13.9266 210.3896 12.7355 211.5 11.267C 211.7879 10.8743 212.1643 10.5549 212.5986 10.3348C 213.033 10.1147 213.5131 10 214 10C 214.4869 10 214.967 10.1147 215.4014 10.3348C 215.8357 10.5549 216.2121 10.8743 216.5 11.267C 217.6104 12.7355 219.0462 13.9266 220.6945 14.7468C 222.3429 15.5669 224.1589 15.9938 226 15.9938C 227.8411 15.9938 229.6571 15.5669 231.3055 14.7468C 232.9538 13.9266 234.3896 12.7355 235.5 11.267C 235.7879 10.8743 236.1643 10.5549 236.5986 10.3348C 237.033 10.1147 237.5131 10 238 10C 238.4869 10 238.967 10.1147 239.4014 10.3348C 239.8357 10.5549 240.2121 10.8743 240.5 11.267C 241.6104 12.7355 243.0462 13.9266 244.6945 14.7468C 246.3429 15.5669 248.1589 15.9938 250 15.9938C 251.8411 15.9938 253.6571 15.5669 255.3055 14.7468C 256.9538 13.9266 258.3896 12.7355 259.5 11.267C 259.7879 10.8743 260.1643 10.5549 260.5986 10.3348C 261.033 10.1147 261.5131 10 262 10C 262.4869 10 262.967 10.1147 263.4013 10.3348C 263.8357 10.5549 264.2121 10.8743 264.5 11.267C 265.6104 12.7355 267.0461 13.9266 268.6945 14.7468C 270.3428 15.5669 272.1589 15.9938 274 15.9938C 275.8411 15.9938 277.6572 15.5669 279.3055 14.7468C 280.9539 13.9266 282.3896 12.7355 283.5 11.267C 283.788 10.8743 284.1643 10.5549 284.5987 10.3348C 285.033 10.1147 285.5131 10 286 10C 286.487 10 286.967 10.1147 287.4013 10.3348C 287.8357 10.5549 288.2121 10.8743 288.5 11.267C 289.6104 12.7355 291.0461 13.9266 292.6945 14.7468C 294.3428 15.5669 296.1589 15.9938 298 15.9938C 299.8411 15.9938 301.6572 15.5669 303.3055 14.7468C 304.9539 13.9266 306.3896 12.7355 307.5 11.267C 307.788 10.8743 308.1643 10.5549 308.5987 10.3348C 309.033 10.1147 309.5131 10 310 10C 310.487 10 310.967 10.1147 311.4013 10.3348C 311.8357 10.5549 312.2121 10.8743 312.5 11.267C 313.6104 12.7355 315.0461 13.9266 316.6945 14.7468C 318.3428 15.5669 320.1589 15.9938 322 15.9938C 323.8411 15.9938 325.6572 15.5669 327.3055 14.7468C 328.9539 13.9266 330.3896 12.7355 331.5 11.267C 331.788 10.8743 332.1643 10.5549 332.5987 10.3348C 333.033 10.1147 333.5131 10 334 10C 334.487 10 334.967 10.1147 335.4013 10.3348C 335.8357 10.5549 336.2121 10.8743 336.5 11.267C 337.6104 12.7355 339.0461 13.9266 340.6945 14.7468C 342.3428 15.5669 344.1589 15.9938 346 15.9938C 347.8411 15.9938 349.6572 15.5669 351.3055 14.7468C 352.9539 13.9266 354.3896 12.7355 355.5 11.267C 355.788 10.8743 356.1643 10.5549 356.5987 10.3348C 357.033 10.1147 357.5131 10 358 10C 358.487 10 358.967 10.1147 359.4013 10.3348C 359.8357 10.5549 360.2121 10.8743 360.5 11.267C 361.6104 12.7355 363.0461 13.9266 364.6945 14.7468C 366.3428 15.5669 368.1589 15.9938 370 15.9938C 371.8411 15.9938 373.6572 15.5669 375.3055 14.7468C 376.9539 13.9266 378.3896 12.7355 379.5 11.267C 379.788 10.8743 380.1643 10.5549 380.5987 10.3348C 381.033 10.1147 381.5131 10 382 10C 382.487 10 382.967 10.1147 383.4013 10.3348C 383.8357 10.5549 384.2121 10.8743 384.5 11.267C 385.6104 12.7355 387.0461 13.9266 388.6945 14.7468C 390.3428 15.5669 392.1589 15.9938 394 15.9938C 395.8411 15.9938 397.6572 15.5669 399.3055 14.7468C 400.9539 13.9266 402.3896 12.7355 403.5 11.267C 403.788 10.8743 404.1643 10.5549 404.5987 10.3348C 405.033 10.1147 405.5131 10 406 10C 406.487 10 406.967 10.1147 407.4013 10.3348C 407.8357 10.5549 408.2121 10.8743 408.5 11.267C 409.6104 12.7355 411.0461 13.9266 412.6945 14.7468C 414.3428 15.5669 416.1589 15.9938 418 15.9938C 419.8411 15.9938 421.6572 15.5669 423.3055 14.7468C 424.9539 13.9266 426.3896 12.7355 427.5 11.267C 427.788 10.8743 428.1643 10.5549 428.5987 10.3348C 429.033 10.1147 429.5131 10 430 10C 430.487 10 430.967 10.1147 431.4013 10.3348C 431.8357 10.5549 432.2121 10.8743 432.5 11.267C 433.6104 12.7355 435.0461 13.9266 436.6945 14.7468C 438.3428 15.5669 440.1589 15.9938 442 15.9938C 443.8411 15.9938 445.6572 15.5669 447.3055 14.7468C 448.9539 13.9266 450.3896 12.7355 451.5 11.267C 451.788 10.8743 452.1643 10.5549 452.5987 10.3348C 453.033 10.1147 453.5131 10 454 10C 454.487 10 454.967 10.1147 455.4013 10.3348C 455.8357 10.5549 456.2121 10.8743 456.5 11.267C 457.6104 12.7355 459.0461 13.9266 460.6945 14.7468C 462.3428 15.5669 464.1589 15.9938 466 15.9938C 467.8411 15.9938 469.6572 15.5669 471.3055 14.7468C 472.9539 13.9266 474.3896 12.7355 475.5 11.267C 475.788 10.8743 476.1643 10.5549 476.5987 10.3348C 477.033 10.1147 477.5131 10 478 10C 478.487 10 478.967 10.1147 479.4013 10.3348C 479.8357 10.5549 480.2121 10.8743 480.5 11.267C 481.6112 12.735 483.047 13.9259 484.6951 14.7465C 486.3432 15.5671 488.1589 15.995 490 15.9969"></path></g></g></g><g id="g-root-cp_-1_mountain-left_13zvusp15f7g27-fill" data-item-order="-393106" transform="translate(26, 248)"><g id="cp_-1_mountain-left_13zvusp15f7g27-fill-merged" stroke="none" fill="#f5f5f5" fill-opacity="1"><g><path d="M46 166 H262L242 152.5L249 111.5L240.5 105L234.5 66.5L226 61L226.34 10 H202.567L177.506 19.36L171.662 23.48L154.495 24.91L119.024 58.23 V64.94L82.789 84.56L68.565 142.39L48.466 156.75L46 166"></path></g></g></g><g id="g-root-cp_-1_mountain-left_13zvusp15f7g27-stroke" data-item-order="-393106" transform="translate(26, 248)"><g id="cp_-1_mountain-left_13zvusp15f7g27-stroke" fill="none" stroke-linecap="round" stroke-linejoin="round" stroke-miterlimit="4" stroke="#969696" stroke-width="2" stroke-opacity="1"><g><path d="M 46 166L 10 166M 46 166L 262 166L 190.6802 118L 173.7417 121.23L 148.4232 91.46L 161.7065 80.73L 154.4953 69.63L 183.4194 31.81L 199.4565 27.6L 226.3401 10L 202.5668 10L 177.5058 19.36L 171.6616 23.48L 154.4953 24.91L 119.0236 58.23L 119.0236 64.94L 82.7891 84.56L 68.5648 142.39L 48.4665 156.75L 46 166ZM 72 130L 79.57 130L 112.7 165.79M 198.8599 27.5996L 206.4499 49.6196L 234.7199 66.2796L 241.1099 105.5996L 248.8299 111.2096L 242.1799 152.7896M 203.73 75.2293L 212.93 80.1093L 234.7199 66.2796M 66 152.8306L 68.59 142.3906M 79 130L 77.3198 154.0409M 160.7402 80.7305L 160.7402 100.2305M 182.6702 31.8105L 178.4302 103.3006M 179.29 88.8008L 204.66 118.2308M 241.1099 105.5996L 227.5898 95.7695M 226 10L 226 61.14M 212.93 80.1093L 216.2802 117.0194"></path></g></g></g><g id="g-root-cp_-1_mountain-right_zk2co915f7gug-fill" data-item-order="-393096" transform="translate(758, 248)"><g id="cp_-1_mountain-right_zk2co915f7gug-fill-merged" stroke="none" fill="#f5f5f5" fill-opacity="1"><g><path d="M226 166 H10L30 152.5L23 111.5L31.5 105L37.5 66.5L46 61L45.66 10 H69.433L94.494 19.36L100.338 23.48L117.505 24.91L152.976 58.23 V64.94L189.211 84.56L203.435 142.39L223.533 156.75L226 166"></path></g></g></g><g id="g-root-cp_-1_mountain-right_zk2co915f7gug-stroke" data-item-order="-393096" transform="translate(758, 248)"><g id="cp_-1_mountain-right_zk2co915f7gug-stroke" fill="none" stroke-linecap="round" stroke-linejoin="round" stroke-miterlimit="4" stroke="#969696" stroke-width="2" stroke-opacity="1"><g><path d="M 226 166L 262 166M 226 166L 10 166L 81.3198 118L 98.2583 121.23L 123.5768 91.46L 110.2935 80.73L 117.5047 69.63L 88.5806 31.81L 72.5435 27.6L 45.6599 10L 69.4332 10L 94.4942 19.36L 100.3384 23.48L 117.5047 24.91L 152.9764 58.23L 152.9764 64.94L 189.2109 84.56L 203.4352 142.39L 223.5335 156.75L 226 166ZM 199.999822 130L 192.429822 130L 159.299822 165.79M 73.139922 27.5996L 65.549922 49.6196L 37.279922 66.2796L 30.889922 105.5996L 23.169922 111.2096L 29.819922 152.7896M 68.269822 75.2293L 59.069822 80.1093L 37.279922 66.2796M 205.999822 152.8306L 203.409822 142.3906M 192.999822 130L 194.679922 154.0409M 111.259522 80.7305L 111.259522 100.2305M 89.329622 31.8105L 93.569622 103.3006M 92.709722 88.8008L 67.339722 118.2308M 30.889922 105.5996L 44.409922 95.7695M 45.999822 10L 45.999822 61.14M 59.069822 80.1093L 55.719622 117.0194"></path></g></g></g><g id="g-root-cp_0_g-0_zk2co915f7guh-fill" data-item-order="-393085" transform="translate(248, 248)"></g><g id="g-root-cp_0_g-0_zk2co915f7guh-stroke" data-item-order="-393085" transform="translate(248, 248)"><g id="cp_0_g-0_zk2co915f7guh-stroke" fill="none" stroke-linecap="round" stroke-linejoin="round" stroke-miterlimit="4" stroke="#484848" stroke-width="2" stroke-dasharray="5.0, 7.0" stroke-opacity="1"><g><path d="M 550 10L 10 10"></path></g></g></g><g id="g-root-cp_0_g-0_1_v48ujt15f7hmq-fill" data-item-order="-393081" transform="translate(208.00003051757812, 218)"></g><g id="g-root-cp_0_g-0_1_v48ujt15f7hmq-stroke" data-item-order="-393081" transform="translate(208.00003051757812, 218)"><g id="cp_0_g-0_1_v48ujt15f7hmq-stroke" fill="none" stroke-linecap="round" stroke-linejoin="round" stroke-miterlimit="4" stroke="#484848" stroke-width="2" stroke-opacity="1"><g><path d="M 488 34.039063L 488 45.999063M 320 34.039063L 320 45.999063M 152 34.039063L 152 45.999063M 611.549766 17.34C 613.504866 17.34 615.089766 15.6969 615.089766 13.67C 615.089766 11.6431 613.504866 10 611.549766 10C 609.594666 10 608.009766 11.6431 608.009766 13.67C 608.009766 15.6969 609.594666 17.34 611.549766 17.34ZM 612.299766 17.2598C 613.296066 22.1022 613.632466 27.0571 613.299766 31.9897M 608.979966 40.0006C 610.479966 33.4006 613.389966 30.8906 613.389966 30.8906C 613.389966 30.8906 614.729966 33.2706 615.819966 40.0006M 613.439766 28.4109C 612.371566 28.3655 611.341566 28.0013 610.482366 27.3649C 609.623266 26.7286 608.974566 25.8495 608.619766 24.8409C 608.527666 24.6057 608.503466 24.3492 608.549766 24.1009C 608.775666 23.0045 609.273066 21.9824 609.996366 21.1281C 610.719566 20.2737 611.645666 19.6146 612.689766 19.2109C 613.670066 19.3034 614.620666 19.5982 615.481266 20.0767C 616.341866 20.5552 617.093866 21.207 617.689766 21.9909C 617.898966 22.2672 618.012266 22.6043 618.012266 22.9509C 618.012266 23.2975 617.898966 23.6346 617.689766 23.9109C 616.543666 25.5321 615.105866 26.9259 613.449766 28.0209M 20.4 18.34C 22.4269 18.34 24.07 16.6969 24.07 14.67C 24.07 12.6431 22.4269 11 20.4 11C 18.3731 11 16.73 12.6431 16.73 14.67C 16.73 16.6969 18.3731 18.34 20.4 18.34ZM 20.9302 18.3398C 20.9302 18.3398 25.7902 26.4898 20.9302 39.4498L 25.4502 39.4498M 23.0898 28.4802L 27.2999 27.4802C 27.439 27.4468 27.584 27.4467 27.7232 27.4799C 27.8623 27.5131 27.9917 27.5786 28.1008 27.6711C 28.2099 27.7636 28.2957 27.8806 28.3511 28.0125C 28.4065 28.1444 28.4301 28.2875 28.4198 28.4302L 27.9599 34.8102C 27.9436 34.9394 27.9559 35.0706 27.9958 35.1945C 28.0358 35.3185 28.1025 35.4322 28.1911 35.5275C 28.2798 35.6229 28.3884 35.6976 28.5091 35.7465C 28.6298 35.7953 28.7598 35.8171 28.8898 35.8102C 29.5461 35.7229 30.2125 35.8628 30.7782 36.2066C 31.344 36.5504 31.7751 37.0775 31.9998 37.7002M 10 20.9106C 14.52 19.2206 22.07 21.1207 22.07 21.1207C 23.4424 20.4225 24.9603 20.0586 26.5 20.0586C 28.0397 20.0586 29.5577 20.4225 30.93 21.1207"></path></g></g></g><g id="g-root-cp_-1_goals_v48ujt15f7hmr-fill" data-item-order="-393070" transform="translate(236, 242)"><g id="cp_-1_goals_v48ujt15f7hmr-fill-merged" stroke="none" fill="#ffd9d8" fill-opacity="1"><g><path d="M22 16C22 19.314 19.314 22 16 22C12.686 22 10 19.314 10 16C10 12.686 12.686 10 16 10C19.314 10 22 12.686 22 16"></path></g></g><g id="cp_-1_goals_v48ujt15f7hmr-fill-merged" stroke="none" fill="#ffd9d8" fill-opacity="1"><g><path d="M574 16C574 19.314 571.314 22 568 22C564.686 22 562 19.314 562 16C562 12.686 564.686 10 568 10C571.314 10 574 12.686 574 16"></path></g></g></g><g id="g-root-cp_-1_goals_v48ujt15f7hmr-stroke" data-item-order="-393070" transform="translate(236, 242)"><g id="cp_-1_goals_v48ujt15f7hmr-stroke" fill="none" stroke-linecap="round" stroke-linejoin="round" stroke-miterlimit="4" stroke="#e55753" stroke-width="2" stroke-opacity="1"><g><path d="M 22 16C 22 19.3137 19.3137 22 16 22C 12.6863 22 10 19.3137 10 16C 10 12.6863 12.6863 10 16 10C 19.3137 10 22 12.6863 22 16Z"></path></g></g><g id="cp_-1_goals_v48ujt15f7hmr-stroke" fill="none" stroke-linecap="round" stroke-linejoin="round" stroke-miterlimit="4" stroke="#e55753" stroke-width="2" stroke-opacity="1"><g><path d="M 574 16C 574 19.3137 571.3137 22 568 22C 564.6863 22 562 19.3137 562 16C 562 12.6863 564.6863 10 568 10C 571.3137 10 574 12.6863 574 16Z"></path></g></g></g><g id="g-root-tx_minimizi_m8luax15f7ifg-fill" data-item-order="0" transform="translate(369.66015625, 38)"><g id="tx_minimizi_m8luax15f7ifg-fill-merged" stroke="none" fill="#484848" fill-opacity="1"><g><text style="font: bold 25px Roboto, sans-serif; white-space: pre;" transform="translate(158.33984375, 25)" font-weight="bold" font-size="25px" font-family="Roboto, sans-serif"><tspan x="-146.34" y="14.5" dominant-baseline="ideographic">Minimizing Expected Cost</tspan></text></g></g></g><g id="g-root-tx_minimizi_m8luax15f7ifg-stroke" data-item-order="0" transform="translate(369.66015625, 38)"></g><g id="g-root-tx_highexpe_v649t515f7gn7-fill" data-item-order="0" transform="translate(97.640625, 92)"><g id="tx_highexpe_v649t515f7gn7-fill-merged" stroke="none" fill="#484848" fill-opacity="1"><g><text style="font: 20px Roboto, sans-serif; white-space: pre;" transform="translate(142.359375, 34)" font-size="20px" font-family="Roboto, sans-serif"><tspan x="-130.36" y="-0.5" dominant-baseline="ideographic">High Expected </tspan><tspan x="-43.29" y="23.5" dominant-baseline="ideographic">Cost</tspan></text></g></g></g><g id="g-root-tx_highexpe_v649t515f7gn7-stroke" data-item-order="0" transform="translate(97.640625, 92)"></g><g id="g-root-tx_architec_8xrt0p15f7gul-fill" data-item-order="0" transform="translate(291.33203125, 92)"><g id="tx_architec_8xrt0p15f7gul-fill-merged" stroke="none" fill="#de8431" fill-opacity="1"><g><text style="font: 20px Roboto, sans-serif; white-space: pre;" transform="translate(68.66796875, 34)" font-size="20px" font-family="Roboto, sans-serif"><tspan x="-56.67" y="-0.5" dominant-baseline="ideographic">Architecture </tspan><tspan x="-43.62" y="23.5" dominant-baseline="ideographic">Selection</tspan></text></g></g></g><g id="g-root-tx_architec_8xrt0p15f7gul-stroke" data-item-order="0" transform="translate(291.33203125, 92)"></g><g id="g-root-tx_eventarr_1q7lui115f7j0n-fill" data-item-order="0" transform="translate(460.7109375, 116)"><g id="tx_eventarr_1q7lui115f7j0n-fill-merged" stroke="none" fill="#e0cb15" fill-opacity="1"><g><text style="font: 20px Roboto, sans-serif; white-space: pre;" transform="translate(67.2890625, 22)" font-size="20px" font-family="Roboto, sans-serif"><tspan x="-55.29" y="11.5" dominant-baseline="ideographic">Event Arrival</tspan></text></g></g></g><g id="g-root-tx_eventarr_1q7lui115f7j0n-stroke" data-item-order="0" transform="translate(460.7109375, 116)"></g><g id="g-root-tx_costtrad_1cwrt7t15f7hft-fill" data-item-order="0" transform="translate(620.47265625, 116)"><g id="tx_costtrad_1cwrt7t15f7hft-fill-merged" stroke="none" fill="#3cc583" fill-opacity="1"><g><text style="font: 20px Roboto, sans-serif; white-space: pre;" transform="translate(75.52734375, 22)" font-size="20px" font-family="Roboto, sans-serif"><tspan x="-63.53" y="11.5" dominant-baseline="ideographic">Cost Trade-off</tspan></text></g></g></g><g id="g-root-tx_costtrad_1cwrt7t15f7hft-stroke" data-item-order="0" transform="translate(620.47265625, 116)"></g><g id="g-root-tx_lowexpec_hunrft15f7i85-fill" data-item-order="0" transform="translate(806, 92)"><g id="tx_lowexpec_hunrft15f7i85-fill-merged" stroke="none" fill="#484848" fill-opacity="1"><g><text style="font: 20px Roboto, sans-serif; white-space: pre;" transform="translate(10, 34)" font-size="20px" font-family="Roboto, sans-serif"><tspan x="2" y="-0.5" dominant-baseline="ideographic">Low Expected </tspan><tspan x="2" y="23.5" dominant-baseline="ideographic">Cost</tspan></text></g></g></g><g id="g-root-tx_lowexpec_hunrft15f7i85-stroke" data-item-order="0" transform="translate(806, 92)"></g><g id="g-root-tx_uncontai_mah9k915f7hfw-fill" data-item-order="0" transform="translate(91.296875, 152)"><g id="tx_uncontai_mah9k915f7hfw-fill-merged" stroke="none" fill="#484848" fill-opacity="1"><g><text style="font: 15px Roboto, sans-serif; white-space: pre;" transform="translate(148.703125, 28)" font-size="15px" font-family="Roboto, sans-serif"><tspan x="-136.7" y="-0.5" dominant-baseline="ideographic">Uncontained events, </tspan><tspan x="-118.37" y="17.5" dominant-baseline="ideographic">significant losses</tspan></text></g></g></g><g id="g-root-tx_uncontai_mah9k915f7hfw-stroke" data-item-order="0" transform="translate(91.296875, 152)"></g><g id="g-root-tx_choosear_4hyaw915f7hmu-fill" data-item-order="0" transform="translate(279.44921875, 152)"><g id="tx_choosear_4hyaw915f7hmu-fill-merged" stroke="none" fill="#484848" fill-opacity="1"><g><text style="font: 15px Roboto, sans-serif; white-space: pre;" transform="translate(80.55078125, 28)" font-size="15px" font-family="Roboto, sans-serif"><tspan x="-68.55" y="-0.5" dominant-baseline="ideographic">Choose architecture </tspan><tspan x="-34.1" y="17.5" dominant-baseline="ideographic">m ex ante</tspan></text></g></g></g><g id="g-root-tx_choosear_4hyaw915f7hmu-stroke" data-item-order="0" transform="translate(279.44921875, 152)"></g><g id="g-root-tx_eventsar_1q7lui115f7j0o-fill" data-item-order="0" transform="translate(447.18359375, 152)"><g id="tx_eventsar_1q7lui115f7j0o-fill-merged" stroke="none" fill="#484848" fill-opacity="1"><g><text style="font: 15px Roboto, sans-serif; white-space: pre;" transform="translate(80.81640625, 28)" font-size="15px" font-family="Roboto, sans-serif"><tspan x="-68.82" y="-0.5" dominant-baseline="ideographic">Events arrive, losses </tspan><tspan x="-23.77" y="17.5" dominant-baseline="ideographic">accrue</tspan></text></g></g></g><g id="g-root-tx_eventsar_1q7lui115f7j0o-stroke" data-item-order="0" transform="translate(447.18359375, 152)"></g><g id="g-root-tx_standing_zlbauh15f7j0q-fill" data-item-order="0" transform="translate(624.87109375, 152)"><g id="tx_standing_zlbauh15f7j0q-fill-merged" stroke="none" fill="#484848" fill-opacity="1"><g><text style="font: 15px Roboto, sans-serif; white-space: pre;" transform="translate(71.12890625, 28)" font-size="15px" font-family="Roboto, sans-serif"><tspan x="-59.13" y="-0.5" dominant-baseline="ideographic">Standing cost vs. </tspan><tspan x="-22.14" y="17.5" dominant-baseline="ideographic">speed</tspan></text></g></g></g><g id="g-root-tx_standing_zlbauh15f7j0q-stroke" data-item-order="0" transform="translate(624.87109375, 152)"></g><g id="g-root-tx_containe_8z0r6x15f7j0u-fill" data-item-order="0" transform="translate(806, 152)"><g id="tx_containe_8z0r6x15f7j0u-fill-merged" stroke="none" fill="#484848" fill-opacity="1"><g><text style="font: 15px Roboto, sans-serif; white-space: pre;" transform="translate(10, 28)" font-size="15px" font-family="Roboto, sans-serif"><tspan x="2" y="-0.5" dominant-baseline="ideographic">Contained events, </tspan><tspan x="2" y="17.5" dominant-baseline="ideographic">minimal losses</tspan></text></g></g></g><g id="g-root-tx_containe_8z0r6x15f7j0u-stroke" data-item-order="0" transform="translate(806, 152)"></g></g></g></svg>