<?xml version="1.0" encoding="utf-8" standalone="yes"?>
<!DOCTYPE svg PUBLIC "-//W3C//DTD SVG 1.1//EN" "http://www.w3.org/Graphics/SVG/1.1/DTD/svg11.dtd">
<svg style="fill:none;stroke:none;fill-rule:evenodd;clip-rule:evenodd;stroke-linecap:round;stroke-linejoin:round;stroke-miterlimit:1.5;" version="1.1" xmlns="http://www.w3.org/2000/svg" xmlns:xlink="http://www.w3.org/1999/xlink" width="648" height="462" viewBox="0 0 648 462"><style class="text-font-style fontImports" data-font-family="Roboto">@import url(https://fonts.googleapis.com/css2?family=Roboto:wght@400;700&amp;amp;display=block);</style><g id="items" style="isolation: isolate"><g id="blend" style="mix-blend-mode: normal"><g id="g-root-cp_1_g-1_v804vt17n5og0-fill" data-item-order="-219592" transform="translate(40, 100)"><g id="cp_1_g-1_v804vt17n5og0-fill-merged" stroke="none" fill="#e3fff2" fill-opacity="1"><g><path d="M92.5 194C114.315 194 132 176.091 132 154C132 131.909 114.315 114 92.5 114C70.685 114 53 131.909 53 154C53 176.091 70.685 194 92.5 194"></path></g></g><g id="cp_1_g-1_v804vt17n5og0-fill-merged" stroke="none" fill="#e3fff2" fill-opacity="1"><g><path d="M60 154C60 135.79 74.536 121 92.5 121C110.464 121 125 135.79 125 154C125 172.21 110.464 187 92.5 187C74.536 187 60 172.21 60 154"></path></g></g><g id="cp_1_g-1_v804vt17n5og0-fill-merged" stroke="none" fill="#e3fff2" fill-opacity="1"><g><path d="M58.77 133.174C65.419 122.154 77.187 114.646 90.726 114.04L43.718 10L10 25.235L58.77 133.174"></path></g></g><g id="cp_1_g-1_v804vt17n5og0-fill-merged" stroke="none" fill="#e3fff2" fill-opacity="1"><g><path d="M93.938 114.026C107.485 114.517 119.295 121.917 126.034 132.851L174.658 25.235L140.939 10L93.938 114.026"></path></g></g><g id="cp_1_g-1_v804vt17n5og0-fill-merged" stroke="none" fill="#e3fff2" fill-opacity="1"><g><path d="M44 10 V10.624L60.436 47 H124.222L140.939 10 H44"></path></g></g></g><g id="g-root-cp_1_g-1_v804vt17n5og0-stroke" data-item-order="-219592" transform="translate(40, 100)"><g id="cp_1_g-1_v804vt17n5og0-stroke" fill="none" stroke-linecap="round" stroke-linejoin="round" stroke-miterlimit="4" stroke="#3cc583" stroke-width="2" stroke-opacity="1"><g><path d="M 92.5 194C 114.3154 194 132 176.0914 132 154C 132 131.9086 114.3154 114 92.5 114C 70.6846 114 53 131.9086 53 154C 53 176.0914 70.6846 194 92.5 194Z"></path></g></g><g id="cp_1_g-1_v804vt17n5og0-stroke" fill="none" stroke-linecap="round" stroke-linejoin="round" stroke-miterlimit="4" stroke="#3cc583" stroke-width="2" stroke-opacity="1"><g><path d="M 60 154C 60 135.7895 74.536 121 92.5 121C 110.464 121 125 135.7895 125 154C 125 172.2105 110.464 187 92.5 187C 74.536 187 60 172.2105 60 154Z"></path></g></g><g id="cp_1_g-1_v804vt17n5og0-stroke" fill="none" stroke-linecap="round" stroke-linejoin="round" stroke-miterlimit="4" stroke="#3cc583" stroke-width="2" stroke-opacity="1"><g><path d="M 58.7695 133.1737C 65.4189 122.1535 77.187 114.6456 90.7261 114.0396L 43.7183 10L 10 25.2346L 58.7695 133.1737Z"></path></g></g><g id="cp_1_g-1_v804vt17n5og0-stroke" fill="none" stroke-linecap="round" stroke-linejoin="round" stroke-miterlimit="4" stroke="#3cc583" stroke-width="2" stroke-opacity="1"><g><path d="M 93.937988 114.026C 107.485488 114.5169 119.294788 121.9167 126.033788 132.8512L 174.657588 25.2346L 140.939488 10L 93.937988 114.026Z"></path></g></g><g id="cp_1_g-1_v804vt17n5og0-stroke" fill="none" stroke-linecap="round" stroke-linejoin="round" stroke-miterlimit="4" stroke="#3cc583" stroke-width="2" stroke-opacity="1"><g><path d="M 44 10L 44 10.6236L 60.4355 47L 124.2222 47L 140.9395 10L 141 10.0273L 141 10L 140.9395 10L 44 10Z"></path></g></g></g><g id="g-root-cp_2_g-2_mczlq117n5m2x-fill" data-item-order="-219588" transform="translate(231.6710205078125, 100)"><g id="cp_2_g-2_mczlq117n5m2x-fill-merged" stroke="none" fill="#f4ffdc" fill-opacity="1"><g><path d="M92.5 194C114.315 194 132 176.091 132 154C132 131.909 114.315 114 92.5 114C70.685 114 53 131.909 53 154C53 176.091 70.685 194 92.5 194"></path></g></g><g id="cp_2_g-2_mczlq117n5m2x-fill-merged" stroke="none" fill="#f4ffdc" fill-opacity="1"><g><path d="M60 154C60 135.79 74.536 121 92.5 121C110.464 121 125 135.79 125 154C125 172.21 110.464 187 92.5 187C74.536 187 60 172.21 60 154"></path></g></g><g id="cp_2_g-2_mczlq117n5m2x-fill-merged" stroke="none" fill="#f4ffdc" fill-opacity="1"><g><path d="M58.77 133.174C65.419 122.154 77.187 114.646 90.726 114.04L43.718 10L10 25.235L58.77 133.174"></path></g></g><g id="cp_2_g-2_mczlq117n5m2x-fill-merged" stroke="none" fill="#f4ffdc" fill-opacity="1"><g><path d="M93.938 114.026C107.485 114.517 119.295 121.917 126.034 132.851L174.658 25.235L140.939 10L93.938 114.026"></path></g></g><g id="cp_2_g-2_mczlq117n5m2x-fill-merged" stroke="none" fill="#f4ffdc" fill-opacity="1"><g><path d="M44 10 V10.624L60.436 47 H124.222L140.939 10 H44"></path></g></g></g><g id="g-root-cp_2_g-2_mczlq117n5m2x-stroke" data-item-order="-219588" transform="translate(231.6710205078125, 100)"><g id="cp_2_g-2_mczlq117n5m2x-stroke" fill="none" stroke-linecap="round" stroke-linejoin="round" stroke-miterlimit="4" stroke="#92bd39" stroke-width="2" stroke-opacity="1"><g><path d="M 92.5 194C 114.3154 194 132 176.0914 132 154C 132 131.9086 114.3154 114 92.5 114C 70.6846 114 53 131.9086 53 154C 53 176.0914 70.6846 194 92.5 194Z"></path></g></g><g id="cp_2_g-2_mczlq117n5m2x-stroke" fill="none" stroke-linecap="round" stroke-linejoin="round" stroke-miterlimit="4" stroke="#92bd39" stroke-width="2" stroke-opacity="1"><g><path d="M 60 154C 60 135.7895 74.536 121 92.5 121C 110.464 121 125 135.7895 125 154C 125 172.2105 110.464 187 92.5 187C 74.536 187 60 172.2105 60 154Z"></path></g></g><g id="cp_2_g-2_mczlq117n5m2x-stroke" fill="none" stroke-linecap="round" stroke-linejoin="round" stroke-miterlimit="4" stroke="#92bd39" stroke-width="2" stroke-opacity="1"><g><path d="M 58.7695 133.1737C 65.4189 122.1535 77.187 114.6456 90.7261 114.0396L 43.7183 10L 10 25.2346L 58.7695 133.1737Z"></path></g></g><g id="cp_2_g-2_mczlq117n5m2x-stroke" fill="none" stroke-linecap="round" stroke-linejoin="round" stroke-miterlimit="4" stroke="#92bd39" stroke-width="2" stroke-opacity="1"><g><path d="M 93.937988 114.026C 107.485488 114.5169 119.294788 121.9167 126.033788 132.8512L 174.657588 25.2346L 140.939488 10L 93.937988 114.026Z"></path></g></g><g id="cp_2_g-2_mczlq117n5m2x-stroke" fill="none" stroke-linecap="round" stroke-linejoin="round" stroke-miterlimit="4" stroke="#92bd39" stroke-width="2" stroke-opacity="1"><g><path d="M 44 10L 44 10.6236L 60.4355 47L 124.2222 47L 140.9395 10L 141 10.0273L 141 10L 140.9395 10L 44 10Z"></path></g></g></g><g id="g-root-cp_3_g-3_hx63ll17n5mv6-fill" data-item-order="-219584" transform="translate(423.343017578125, 100)"><g id="cp_3_g-3_hx63ll17n5mv6-fill-merged" stroke="none" fill="#e8f9ff" fill-opacity="1"><g><path d="M92.5 194C114.315 194 132 176.091 132 154C132 131.909 114.315 114 92.5 114C70.685 114 53 131.909 53 154C53 176.091 70.685 194 92.5 194"></path></g></g><g id="cp_3_g-3_hx63ll17n5mv6-fill-merged" stroke="none" fill="#e8f9ff" fill-opacity="1"><g><path d="M60 154C60 135.79 74.536 121 92.5 121C110.464 121 125 135.79 125 154C125 172.21 110.464 187 92.5 187C74.536 187 60 172.21 60 154"></path></g></g><g id="cp_3_g-3_hx63ll17n5mv6-fill-merged" stroke="none" fill="#e8f9ff" fill-opacity="1"><g><path d="M58.77 133.174C65.419 122.154 77.187 114.646 90.726 114.04L43.718 10L10 25.235L58.77 133.174"></path></g></g><g id="cp_3_g-3_hx63ll17n5mv6-fill-merged" stroke="none" fill="#e8f9ff" fill-opacity="1"><g><path d="M93.938 114.026C107.485 114.517 119.295 121.917 126.034 132.851L174.658 25.235L140.939 10L93.938 114.026"></path></g></g><g id="cp_3_g-3_hx63ll17n5mv6-fill-merged" stroke="none" fill="#e8f9ff" fill-opacity="1"><g><path d="M44 10 V10.624L60.436 47 H124.222L140.939 10 H44"></path></g></g></g><g id="g-root-cp_3_g-3_hx63ll17n5mv6-stroke" data-item-order="-219584" transform="translate(423.343017578125, 100)"><g id="cp_3_g-3_hx63ll17n5mv6-stroke" fill="none" stroke-linecap="round" stroke-linejoin="round" stroke-miterlimit="4" stroke="#1eabda" stroke-width="2" stroke-opacity="1"><g><path d="M 92.5 194C 114.3154 194 132 176.0914 132 154C 132 131.9086 114.3154 114 92.5 114C 70.6846 114 53 131.9086 53 154C 53 176.0914 70.6846 194 92.5 194Z"></path></g></g><g id="cp_3_g-3_hx63ll17n5mv6-stroke" fill="none" stroke-linecap="round" stroke-linejoin="round" stroke-miterlimit="4" stroke="#1eabda" stroke-width="2" stroke-opacity="1"><g><path d="M 60 154C 60 135.7895 74.536 121 92.5 121C 110.464 121 125 135.7895 125 154C 125 172.2105 110.464 187 92.5 187C 74.536 187 60 172.2105 60 154Z"></path></g></g><g id="cp_3_g-3_hx63ll17n5mv6-stroke" fill="none" stroke-linecap="round" stroke-linejoin="round" stroke-miterlimit="4" stroke="#1eabda" stroke-width="2" stroke-opacity="1"><g><path d="M 58.7695 133.1737C 65.4189 122.1535 77.187 114.6456 90.7261 114.0396L 43.7183 10L 10 25.2346L 58.7695 133.1737Z"></path></g></g><g id="cp_3_g-3_hx63ll17n5mv6-stroke" fill="none" stroke-linecap="round" stroke-linejoin="round" stroke-miterlimit="4" stroke="#1eabda" stroke-width="2" stroke-opacity="1"><g><path d="M 93.937988 114.026C 107.485488 114.5169 119.294788 121.9167 126.033788 132.8512L 174.657588 25.2346L 140.939488 10L 93.937988 114.026Z"></path></g></g><g id="cp_3_g-3_hx63ll17n5mv6-stroke" fill="none" stroke-linecap="round" stroke-linejoin="round" stroke-miterlimit="4" stroke="#1eabda" stroke-width="2" stroke-opacity="1"><g><path d="M 44 10L 44 10.6236L 60.4355 47L 124.2222 47L 140.9395 10L 141 10.0273L 141 10L 140.9395 10L 44 10Z"></path></g></g></g><g id="g-root-tx_authorit_91j3cp17n5nnv-fill" data-item-order="0" transform="translate(127.59765625, 38)"><g id="tx_authorit_91j3cp17n5nnv-fill-merged" stroke="none" fill="#484848" fill-opacity="1"><g><text style="font: bold 25px Roboto, sans-serif; white-space: pre;" transform="translate(196.40234375, 25)" font-weight="bold" font-size="25px" font-family="Roboto, sans-serif"><tspan x="-184.4" y="14.5" dominant-baseline="ideographic">Authority Matching Performance</tspan></text></g></g></g><g id="g-root-tx_authorit_91j3cp17n5nnv-stroke" data-item-order="0" transform="translate(127.59765625, 38)"></g><g id="g-root-tx_1_1urt41l17n5lvw-fill" data-item-order="0" transform="translate(111.56640625, 226)"><g id="tx_1_1urt41l17n5lvw-fill-merged" stroke="none" fill="#3cc583" fill-opacity="1"><g><text style="font: 30px Roboto, sans-serif; white-space: pre;" transform="translate(20.43359375, 28)" font-size="30px" font-family="Roboto, sans-serif"><tspan x="-8.43" y="17.5" dominant-baseline="ideographic">1</tspan></text></g></g></g><g id="g-root-tx_1_1urt41l17n5lvw-stroke" data-item-order="0" transform="translate(111.56640625, 226)"></g><g id="g-root-tx_2_1qbzlx517n5mo6-fill" data-item-order="0" transform="translate(303.56640625, 226)"><g id="tx_2_1qbzlx517n5mo6-fill-merged" stroke="none" fill="#92bd39" fill-opacity="1"><g><text style="font: 30px Roboto, sans-serif; white-space: pre;" transform="translate(20.43359375, 28)" font-size="30px" font-family="Roboto, sans-serif"><tspan x="-8.43" y="17.5" dominant-baseline="ideographic">2</tspan></text></g></g></g><g id="g-root-tx_2_1qbzlx517n5mo6-stroke" data-item-order="0" transform="translate(303.56640625, 226)"></g><g id="g-root-tx_3_1qbzlx517n5mo5-fill" data-item-order="0" transform="translate(494.56640625, 226)"><g id="tx_3_1qbzlx517n5mo5-fill-merged" stroke="none" fill="#1eabda" fill-opacity="1"><g><text style="font: 30px Roboto, sans-serif; white-space: pre;" transform="translate(20.43359375, 28)" font-size="30px" font-family="Roboto, sans-serif"><tspan x="-8.43" y="17.5" dominant-baseline="ideographic">3</tspan></text></g></g></g><g id="g-root-tx_3_1qbzlx517n5mo5-stroke" data-item-order="0" transform="translate(494.56640625, 226)"></g><g id="g-root-tx_governan_1hgclo917n5ngv-fill" data-item-order="0" transform="translate(67.0625, 296)"><g id="tx_governan_1hgclo917n5ngv-fill-merged" stroke="none" fill="#3cc583" fill-opacity="1"><g><text style="font: 20px Roboto, sans-serif; white-space: pre;" transform="translate(64.9375, 22)" font-size="20px" font-family="Roboto, sans-serif"><tspan x="-52.94" y="11.5" dominant-baseline="ideographic">Governance</tspan></text></g></g></g><g id="g-root-tx_governan_1hgclo917n5ngv-stroke" data-item-order="0" transform="translate(67.0625, 296)"></g><g id="g-root-tx_delegati_1d0j3jt17n5o95-fill" data-item-order="0" transform="translate(264.4140625, 296)"><g id="tx_delegati_1d0j3jt17n5o95-fill-merged" stroke="none" fill="#92bd39" fill-opacity="1"><g><text style="font: 20px Roboto, sans-serif; white-space: pre;" transform="translate(59.5859375, 22)" font-size="20px" font-family="Roboto, sans-serif"><tspan x="-47.59" y="11.5" dominant-baseline="ideographic">Delegation</tspan></text></g></g></g><g id="g-root-tx_delegati_1d0j3jt17n5o95-stroke" data-item-order="0" transform="translate(264.4140625, 296)"></g><g id="g-root-tx_signerse_18lc2ih17n5lvn-fill" data-item-order="0" transform="translate(453.6484375, 296)"><g id="tx_signerse_18lc2ih17n5lvn-fill-merged" stroke="none" fill="#1eabda" fill-opacity="1"><g><text style="font: 20px Roboto, sans-serif; white-space: pre;" transform="translate(62.3515625, 22)" font-size="20px" font-family="Roboto, sans-serif"><tspan x="-50.35" y="11.5" dominant-baseline="ideographic">Signer Sets</tspan></text></g></g></g><g id="g-root-tx_signerse_18lc2ih17n5lvn-stroke" data-item-order="0" transform="translate(453.6484375, 296)"></g><g id="g-root-tx_governan_1lw63sp17n5ngg-fill" data-item-order="0" transform="translate(55.3515625, 332)"><g id="tx_governan_1lw63sp17n5ngg-fill-merged" stroke="none" fill="#484848" fill-opacity="1"><g><text style="font: 15px Roboto, sans-serif; white-space: pre;" transform="translate(76.6484375, 37)" font-size="15px" font-family="Roboto, sans-serif"><tspan x="-64.65" y="-9.5" dominant-baseline="ideographic">Governance excels </tspan><tspan x="-63.21" y="8.5" dominant-baseline="ideographic">in deliberation and </tspan><tspan x="-60.45" y="26.5" dominant-baseline="ideographic">network recovery.</tspan></text></g></g></g><g id="g-root-tx_governan_1lw63sp17n5ngg-stroke" data-item-order="0" transform="translate(55.3515625, 332)"></g><g id="g-root-tx_delegati_1d0j3jt17n5o96-fill" data-item-order="0" transform="translate(243.8828125, 332)"><g id="tx_delegati_1d0j3jt17n5o96-fill-merged" stroke="none" fill="#484848" fill-opacity="1"><g><text style="font: 15px Roboto, sans-serif; white-space: pre;" transform="translate(80.1171875, 46)" font-size="15px" font-family="Roboto, sans-serif"><tspan x="-45.1" y="-18.5" dominant-baseline="ideographic">Delegation is </tspan><tspan x="-57.16" y="-0.5" dominant-baseline="ideographic">optimal for time-</tspan><tspan x="-68.12" y="17.5" dominant-baseline="ideographic">critical containment </tspan><tspan x="-61.55" y="35.5" dominant-baseline="ideographic">with tight bounds.</tspan></text></g></g></g><g id="g-root-tx_delegati_1d0j3jt17n5o96-stroke" data-item-order="0" transform="translate(243.8828125, 332)"></g><g id="g-root-tx_signerse_18lc2ih17n5lvo-fill" data-item-order="0" transform="translate(444.34765625, 332)"><g id="tx_signerse_18lc2ih17n5lvo-fill-merged" stroke="none" fill="#484848" fill-opacity="1"><g><text style="font: 15px Roboto, sans-serif; white-space: pre;" transform="translate(71.65234375, 46)" font-size="15px" font-family="Roboto, sans-serif"><tspan x="-39.05" y="-18.5" dominant-baseline="ideographic">Signer sets </tspan><tspan x="-59.65" y="-0.5" dominant-baseline="ideographic">dominate volume </tspan><tspan x="-58.24" y="17.5" dominant-baseline="ideographic">but show weaker </tspan><tspan x="-31.42" y="35.5" dominant-baseline="ideographic">success.</tspan></text></g></g></g><g id="g-root-tx_signerse_18lc2ih17n5lvo-stroke" data-item-order="0" transform="translate(444.34765625, 332)"></g></g></g></svg>