<?xml version="1.0" encoding="utf-8" standalone="yes"?>
<!DOCTYPE svg PUBLIC "-//W3C//DTD SVG 1.1//EN" "http://www.w3.org/Graphics/SVG/1.1/DTD/svg11.dtd">
<svg style="fill:none;stroke:none;fill-rule:evenodd;clip-rule:evenodd;stroke-linecap:round;stroke-linejoin:round;stroke-miterlimit:1.5;" version="1.1" xmlns="http://www.w3.org/2000/svg" xmlns:xlink="http://www.w3.org/1999/xlink" width="694" height="534" viewBox="0 0 694 534"><style class="text-font-style fontImports" data-font-family="Roboto">@import url(https://fonts.googleapis.com/css2?family=Roboto:wght@400;700&amp;amp;display=block);</style><g id="items" style="isolation: isolate"><g id="blend" style="mix-blend-mode: normal"><g id="g-root-cp_-1_boxed_content_left_1lt149514vdw5h-fill" data-item-order="-282938" transform="translate(14, 320)"><g id="cp_-1_boxed_content_left_1lt149514vdw5h-fill-merged" stroke="none" fill="#c8ffe5" fill-opacity="1"><g><path d="M286 130L322 70.002L286 10 V22 H10 V118 H286 V130"></path></g></g></g><g id="g-root-cp_-1_boxed_content_left_1lt149514vdw5h-stroke" data-item-order="-282938" transform="translate(14, 320)"><g id="cp_-1_boxed_content_left_1lt149514vdw5h-stroke" fill="none" stroke-linecap="round" stroke-linejoin="round" stroke-miterlimit="4" stroke="#3cc583" stroke-width="2" stroke-opacity="1"><g><path d="M 22 22L 286 22M 286 118L 22 118M 286 10L 322 70.001999L 286 130M 286 10L 286 22M 286 130.0488L 286 118M 22 118L 10 118L 10 22L 22 22"></path></g></g></g><g id="g-root-cp_-1_boxed_content_right_18hklvt14vdxqe-fill" data-item-order="-282906" transform="translate(350, 320)"><g id="cp_-1_boxed_content_right_18hklvt14vdxqe-fill-merged" stroke="none" fill="#ffd9d8" fill-opacity="1"><g><path d="M46 10L10 69.998L46 130 V118 H320 V22 H46 V10"></path></g></g></g><g id="g-root-cp_-1_boxed_content_right_18hklvt14vdxqe-stroke" data-item-order="-282906" transform="translate(350, 320)"><g id="cp_-1_boxed_content_right_18hklvt14vdxqe-stroke" fill="none" stroke-linecap="round" stroke-linejoin="round" stroke-miterlimit="4" stroke="#e55753" stroke-width="2" stroke-opacity="1"><g><path d="M 46 22L 310 22M 310 118L 46 118M 46 130L 10 69.998001L 46 10M 310 22L 320 22L 320 118L 310 118M 46 10L 46 22M 46 130L 46 118"></path></g></g></g><g id="g-root-cp_-1_line_18hklvt14vdxqf-fill" data-item-order="-282873" transform="translate(338, 356)"></g><g id="g-root-cp_-1_line_18hklvt14vdxqf-stroke" data-item-order="-282873" transform="translate(338, 356)"><g id="cp_-1_line_18hklvt14vdxqf-stroke" fill="none" stroke-linecap="round" stroke-linejoin="round" stroke-miterlimit="4" stroke="#484848" stroke-width="2" stroke-dasharray="5.0, 7.0" stroke-opacity="1"><g><path d="M 10 58L 10 10"></path></g></g></g><g id="g-root-tx_aggregat_141r3rd14vdyio-fill" data-item-order="0" transform="translate(166.21875, 38)"><g id="tx_aggregat_141r3rd14vdyio-fill-merged" stroke="none" fill="#484848" fill-opacity="1"><g><text style="font: bold 25px Roboto, sans-serif; white-space: pre;" transform="translate(180.78125, 25)" font-weight="bold" font-size="25px" font-family="Roboto, sans-serif"><tspan x="-168.78" y="14.5" dominant-baseline="ideographic">Aggregate Average Sentiment</tspan></text></g></g></g><g id="g-root-tx_aggregat_141r3rd14vdyio-stroke" data-item-order="0" transform="translate(166.21875, 38)"></g><g id="g-root-ic_2_4mitl14vdwxw-fill" data-item-order="0" transform="translate(74, 116)"></g><g id="g-root-ic_2_4mitl14vdwxw-stroke" data-item-order="0" transform="translate(74, 116)"><g id="ic_2_4mitl14vdwxw-stroke" fill="none" stroke-linecap="round" stroke-linejoin="round" stroke-miterlimit="4" stroke="#484848" stroke-width="2" stroke-opacity="1"><g><path d="M 92 44C 50.400002 44 16 78.400002 16 120C 16 161.600006 50.400002 196 92 196C 133.600006 196 168 161.600006 168 120M 52.799999 143.199997C 60 158.399994 74.400002 168 92 168C 109.599998 168 124 158.399994 131.199997 143.199997M 156 96C 178.091385 96 196 78.091393 196 56C 196 33.908611 178.091385 16 156 16C 133.908615 16 116 33.908611 116 56C 116 78.091393 133.908615 96 156 96ZM 156 40L 156 72M 140 56L 172 56M 62 112C 60.343147 112 59 110.65686 59 109C 59 107.343147 60.343147 106 62 106M 62 112C 63.656857 112 65 110.65686 65 109C 65 107.343147 63.656857 106 62 106M 122 112C 120.343147 112 119 110.65686 119 109C 119 107.343147 120.343147 106 122 106M 122 112C 123.65686 112 125 110.65686 125 109C 125 107.343147 123.65686 106 122 106"></path></g></g></g><g id="g-root-ic_mood_18jg15514vfax1-fill" data-item-order="0" transform="translate(412, 116.25)"></g><g id="g-root-ic_mood_18jg15514vfax1-stroke" data-item-order="0" transform="translate(412, 116.25)"><g id="ic_mood_18jg15514vfax1-stroke" fill="none" stroke-linecap="round" stroke-linejoin="round" stroke-miterlimit="4" stroke="#484848" stroke-width="2" stroke-opacity="1"><g><path d="M 106 14L 106 198M 190.320007 78C 180.718689 47.469025 153.844849 25.598629 122 22.400002M 122 181.600006C 136.519257 180.198486 150.36554 174.798431 162 166M 106 22.4C 75.656296 19.3542 46.220314 33.824905 30.100145 59.712307C 13.979978 85.599709 13.979978 118.400291 30.100145 144.287689C 46.220314 170.175095 75.656296 184.645798 106 181.600006M 106 158C 88.840256 158.011002 72.979874 148.860779 64.400002 134M 147.600006 150C 139.020126 135.139221 123.159744 125.988998 106 126M 54 86C 57.777088 91.036118 63.704853 94 70 94C 76.295151 94 82.222916 91.036118 86 86M 158 86C 154.222916 91.036118 148.295151 94 142 94C 135.704865 94 129.7771 91.036118 126 86M 194 126C 193.488403 134.615753 186.615768 141.488403 178 142C 169.384247 141.488403 162.511597 134.615753 162 126C 162 114 178 94 178 94C 178 94 194 114 194 126Z"></path></g></g></g><g id="g-root-tx_0028_dfgk3t14vdyiq-fill" data-item-order="0" transform="translate(191.8125, 344)"><g id="tx_0028_dfgk3t14vdyiq-fill-merged" stroke="none" fill="#3cc583" fill-opacity="1"><g><text style="font: 30px Roboto, sans-serif; white-space: pre;" transform="translate(106.375, 28)" font-size="30px" font-family="Roboto, sans-serif"><tspan x="-94.38" y="17.5" dominant-baseline="ideographic">+0.028</tspan></text></g></g></g><g id="g-root-tx_0028_dfgk3t14vdyiq-stroke" data-item-order="0" transform="translate(191.8125, 344)"></g><g id="g-root-tx_0028_1qa3kjt14vfbpn-fill" data-item-order="0" transform="translate(392.17578125, 344)"><g id="tx_0028_1qa3kjt14vfbpn-fill-merged" stroke="none" fill="#e55753" fill-opacity="1"><g><text style="font: 30px Roboto, sans-serif; white-space: pre;" transform="translate(10, 28)" font-size="30px" font-family="Roboto, sans-serif"><tspan x="2" y="17.5" dominant-baseline="ideographic">-0.028</tspan></text></g></g></g><g id="g-root-tx_0028_1qa3kjt14vfbpn-stroke" data-item-order="0" transform="translate(392.17578125, 344)"></g><g id="g-root-tx_positive_v6qkll14vdw5l-fill" data-item-order="0" transform="translate(27.8125, 344)"><g id="tx_positive_v6qkll14vdw5l-fill-merged" stroke="none" fill="#3cc583" fill-opacity="1"><g><text style="font: 30px Roboto, sans-serif; white-space: pre;" transform="translate(10, 46)" font-size="30px" font-family="Roboto, sans-serif"><tspan x="2" y="-0.5" dominant-baseline="ideographic">Positive </tspan><tspan x="2" y="35.5" dominant-baseline="ideographic">Sentiment</tspan></text></g></g></g><g id="g-root-tx_positive_v6qkll14vdw5l-stroke" data-item-order="0" transform="translate(27.8125, 344)"></g><g id="g-root-tx_negative_1lua2fd14vfchw-fill" data-item-order="0" transform="translate(503.82421875, 344)"><g id="tx_negative_1lua2fd14vfchw-fill-merged" stroke="none" fill="#e55753" fill-opacity="1"><g><text style="font: 30px Roboto, sans-serif; white-space: pre;" transform="translate(150, 46)" font-size="30px" font-family="Roboto, sans-serif"><tspan x="-119.84" y="-0.5" dominant-baseline="ideographic">Negative </tspan><tspan x="-138" y="35.5" dominant-baseline="ideographic">Sentiment</tspan></text></g></g></g><g id="g-root-tx_negative_1lua2fd14vfchw-stroke" data-item-order="0" transform="translate(503.82421875, 344)"></g><g id="g-root-tx_averages_4kg0y114vdw5n-fill" data-item-order="0" transform="translate(73.05078125, 452)"><g id="tx_averages_4kg0y114vdw5n-fill-merged" stroke="none" fill="#484848" fill-opacity="1"><g><text style="font: 20px Roboto, sans-serif; white-space: pre;" transform="translate(94.94921875, 22)" font-size="20px" font-family="Roboto, sans-serif"><tspan x="-82.95" y="11.5" dominant-baseline="ideographic">Average sentiment</tspan></text></g></g></g><g id="g-root-tx_averages_4kg0y114vdw5n-stroke" data-item-order="0" transform="translate(73.05078125, 452)"></g><g id="g-root-tx_averages_1ut1j9l14ux0qs-fill" data-item-order="0" transform="translate(433.05078125, 452)"><g id="tx_averages_1ut1j9l14ux0qs-fill-merged" stroke="none" fill="#484848" fill-opacity="1"><g><text style="font: 20px Roboto, sans-serif; white-space: pre;" transform="translate(94.94921875, 22)" font-size="20px" font-family="Roboto, sans-serif"><tspan x="-82.95" y="11.5" dominant-baseline="ideographic">Average sentiment</tspan></text></g></g></g><g id="g-root-tx_averages_1ut1j9l14ux0qs-stroke" data-item-order="0" transform="translate(433.05078125, 452)"></g></g></g></svg>