<svg width="400" height="400" viewBox="0 0 400 400" fill="none" xmlns="http://www.w3.org/2000/svg">
<rect width="400" height="400" rx="20" fill="#F1F1F1"/>
<path d="M148.6 253.6H146.9L132.8 247H66.1V239.3H145.5L129.6 242.7L156.9 202.5L160.2 203.4L148.6 253.6ZM85.7 111.6V247H35.9V243.7L52.3 239.3V111.6L35.9 107.3V104H102.1V107.3L85.7 111.6ZM233.936 243.7V247H167.736V243.7L184.136 239.3V111.6L167.736 107.3V104H233.936V107.3L217.536 111.6V239.3L233.936 243.7ZM340.566 144.7L336.266 175.7L340.566 206.4H337.866L325.666 180.2L282.966 177.9V173.3L325.666 170.6L337.866 144.7H340.566ZM356.166 97.1H357.466L368.066 146.2L364.966 147.1L339.166 107.8L355.266 111.7H275.866V104H342.366L356.166 97.1ZM295.466 104V239.3L311.866 243.7V247H245.666V243.7L262.066 239.3V111.6L245.666 107.3V104H295.466Z" fill="black"/>
</svg>
